<svg width="29" height="28" viewBox="0 0 29 28" fill="none" xmlns="http://www.w3.org/2000/svg">
<g clip-path="url(#clip0_590_2159)">
<path d="M9.82784 13.9999C9.82784 11.4291 11.9258 9.33122 14.4965 9.33122C17.0672 9.33122 19.1651 11.4291 19.1651 13.9999C19.1651 16.5706 17.0672 18.6685 14.4965 18.6685C11.9258 18.6685 9.82784 16.5706 9.82784 13.9999Z" fill="#E4007F"/>
<path fill-rule="evenodd" clip-rule="evenodd" d="M28.4995 13.2928C28.4992 13.5283 28.499 13.764 28.499 14C28.499 14.2639 28.4994 14.5274 28.4997 14.7907C28.5022 16.4565 28.5047 18.1125 28.4079 19.7789C28.2993 22.0204 27.7915 24.0063 26.1489 25.6489C24.5098 27.288 22.5204 27.7993 20.2789 27.9079C18.5846 28.0032 16.9012 28.0014 15.2072 27.9995C14.9717 27.9992 14.736 27.999 14.5 27.999C14.2645 27.999 14.0292 27.9992 13.7941 27.9995C12.1024 28.0014 10.4185 28.0032 8.7211 27.9079C6.47958 27.7993 4.49374 27.2915 2.85113 25.6489C1.21202 24.0098 0.700677 22.0204 0.592103 19.7789C0.496777 18.0846 0.498645 16.3983 0.50052 14.7059C0.500781 14.4708 0.501042 14.2355 0.501042 14C0.501042 13.7645 0.500781 13.5292 0.50052 13.2941C0.498645 11.6024 0.496779 9.91848 0.592103 8.2211C0.700677 5.97958 1.20852 3.99374 2.85113 2.35113C4.49024 0.712022 6.47958 0.200677 8.7211 0.0921032C10.4154 -0.003218 12.0988 -0.00135473 13.7928 0.000520205C14.0283 0.000780869 14.264 0.00104176 14.5 0.00104176C14.7355 0.00104176 14.9708 0.000780984 15.2059 0.000520377C16.8976 -0.00135462 18.5815 -0.00322092 20.2789 0.0921032C22.5204 0.200677 24.5063 0.708519 26.1489 2.35113C27.788 3.99024 28.2993 5.97958 28.4079 8.2211C28.5032 9.91535 28.5014 11.5988 28.4995 13.2928ZM7.31314 14C7.31314 17.9752 10.5213 21.1834 14.4965 21.1834C18.4717 21.1834 21.6799 17.9752 21.6799 14C21.6799 10.0248 18.4717 6.81665 14.4965 6.81665C10.5213 6.81665 7.31314 10.0248 7.31314 14ZM20.2964 6.52245C20.2964 7.45057 21.0459 8.20008 21.9741 8.20008C22.9022 8.20008 23.6482 7.45408 23.6517 6.52245C23.6517 5.59432 22.9022 4.84481 21.9741 4.84481C21.0459 4.84481 20.2964 5.59432 20.2964 6.52245Z" fill="#E4007F"/>
</g>
<defs>
<clipPath id="clip0_590_2159">
<rect width="28" height="28" fill="white" transform="translate(0.5)"/>
</clipPath>
</defs>
</svg>
