<svg width="29" height="28" viewBox="0 0 29 28" fill="none" xmlns="http://www.w3.org/2000/svg">
<g clip-path="url(#clip0_590_2144)">
<path fill-rule="evenodd" clip-rule="evenodd" d="M28.5 13.9996C28.5 21.7315 22.2331 28 14.5 28C6.76768 28 0.5 21.7315 0.5 13.9996C0.5 6.26812 6.76771 0 14.5 0C22.2331 0 28.5 6.26812 28.5 13.9996ZM7.85287 19.8552H10.582V11.1221H7.85287V19.8552ZM9.12784 10.0297H9.1475C10.1732 10.0297 10.8123 9.36001 10.8123 8.51398C10.7925 7.65223 10.1732 6.99996 9.16675 6.99996C8.15956 6.99996 7.49996 7.65389 7.49996 8.51638C7.49996 9.36209 8.14031 10.0297 9.12784 10.0297ZM18.4056 19.8552H21.4999V14.9991C21.4999 12.2945 19.9763 11.0381 18.0374 11.0381C16.4735 11.0381 15.4943 11.8934 15.3131 12.4926V11.1221H12.2476C12.2874 11.8499 12.2476 19.8551 12.2476 19.8551H15.3131V15.1297C15.3131 15.0988 15.3129 15.0678 15.3127 15.037C15.3115 14.8058 15.3103 14.5819 15.3798 14.4159C15.5908 13.8905 16.043 13.3459 16.8573 13.3459C17.922 13.3459 18.4056 14.1531 18.4056 15.3359V19.8552Z" fill="#1284C7"/>
</g>
<defs>
<clipPath id="clip0_590_2144">
<rect width="28" height="28" fill="white" transform="translate(0.5)"/>
</clipPath>
</defs>
</svg>
