<svg width="29" height="28" viewBox="0 0 29 28" fill="none" xmlns="http://www.w3.org/2000/svg">
<g clip-path="url(#clip0_590_2132)">
<path d="M14.5 28C6.76801 28 0.5 21.732 0.5 14C0.5 6.26801 6.76801 0 14.5 0C22.232 0 28.5 6.26801 28.5 14C28.4915 21.7285 22.2285 27.9915 14.5 28ZM7.2298 11.9602C6.39207 11.9607 5.63943 12.4723 5.33076 13.2511C5.02208 14.0298 5.21986 14.9181 5.8298 15.4924C5.99103 15.6451 6.17648 15.77 6.3786 15.862C6.36102 16.0665 6.36102 16.2721 6.3786 16.4766C6.3786 19.6126 10.0396 22.1634 14.5392 22.1634C19.0388 22.1634 22.7012 19.6126 22.7012 16.4766C22.7175 16.2721 22.7175 16.0665 22.7012 15.862C23.5509 15.4492 24.0004 14.5019 23.7827 13.5827C23.5651 12.6634 22.7386 12.0182 21.794 12.0302H21.7198C21.2183 12.0487 20.7412 12.2516 20.38 12.6C18.7875 11.5171 16.9153 10.919 14.99 10.878L15.9 6.51L18.8932 7.14C18.9703 7.84989 19.5693 8.38798 20.2834 8.3888C20.3344 8.38874 20.3853 8.38594 20.436 8.3804C21.1783 8.30589 21.7318 7.6624 21.6944 6.91731C21.6571 6.17222 21.042 5.5874 20.296 5.5874C20.2431 5.58867 20.1903 5.59288 20.1378 5.6C19.6941 5.64714 19.2994 5.90298 19.0752 6.2888L15.648 5.6C15.6176 5.59349 15.5867 5.5902 15.5556 5.5902C15.3532 5.59261 15.1792 5.73416 15.1356 5.9318L14.0884 10.794C12.1394 10.8216 10.2411 11.4198 8.6284 12.5146C8.25042 12.1575 7.7498 11.959 7.2298 11.9602ZM14.752 20.3336C14.6736 20.3336 14.5938 20.3336 14.5154 20.3336C14.437 20.3336 14.3572 20.3336 14.2788 20.3336C13.1169 20.3292 11.9875 19.9496 11.0588 19.2514C10.9948 19.1741 10.9642 19.0745 10.974 18.9746C10.9837 18.8747 11.0329 18.7829 11.1106 18.7194C11.1783 18.6645 11.2628 18.6343 11.35 18.634C11.4373 18.634 11.5219 18.6642 11.5894 18.7194C12.3742 19.2945 13.3226 19.6031 14.2956 19.6C14.3637 19.6 14.4319 19.6 14.5 19.6C14.5826 19.6 14.6666 19.6 14.7492 19.6C15.7096 19.6016 16.6461 19.3009 17.426 18.7404C17.4997 18.6651 17.6006 18.6227 17.706 18.6227C17.8114 18.6227 17.9123 18.6651 17.986 18.7404C18.1378 18.8973 18.1347 19.1473 17.979 19.3004V19.2444C17.0498 19.9474 15.9172 20.3292 14.752 20.3322V20.3336ZM17.7298 16.912H17.7074L17.7186 16.8574C17.1028 16.8154 16.5992 16.3505 16.508 15.7401C16.4168 15.1296 16.7626 14.5379 17.3393 14.3177C17.9159 14.0976 18.5681 14.3082 18.9069 14.8241C19.2458 15.3401 19.1801 16.0222 18.749 16.464C18.4983 16.7376 18.1483 16.899 17.7774 16.912H17.7284H17.7298ZM11.238 16.8C10.4648 16.8 9.838 16.1732 9.838 15.4C9.838 14.6268 10.4648 14 11.238 14C12.0112 14 12.638 14.6268 12.638 15.4C12.638 16.1732 12.0112 16.8 11.238 16.8Z" fill="#FF4500"/>
</g>
<defs>
<clipPath id="clip0_590_2132">
<rect width="28" height="28" fill="white" transform="translate(0.5)"/>
</clipPath>
</defs>
</svg>
