<svg width="28" height="28" viewBox="0 0 28 28" fill="none" xmlns="http://www.w3.org/2000/svg">
<g clip-path="url(#clip0_590_2117)">
<path fill-rule="evenodd" clip-rule="evenodd" d="M27.9998 14C27.9998 21.732 21.7317 28 13.9998 28C6.26777 28 -0.000244141 21.732 -0.000244141 14C-0.000244141 6.26801 6.26777 0 13.9998 0C21.7317 0 27.9998 6.26801 27.9998 14ZM9.091 12.6351C7.68186 13.2455 6.23398 13.8727 4.91003 14.5962L4.90994 14.5963C4.21861 15.0984 5.13752 15.4536 5.99952 15.7868C6.13656 15.8398 6.27216 15.8922 6.39963 15.9446C6.50569 15.9769 6.61356 16.011 6.72286 16.0455C7.68156 16.3486 8.75059 16.6865 9.68133 16.1782C11.2103 15.3068 12.6532 14.2994 14.0949 13.2927C14.5673 12.9629 15.0395 12.6332 15.5147 12.3084C15.5369 12.2943 15.562 12.2781 15.5895 12.2604C15.9943 12.0001 16.9045 11.4147 16.5678 12.2214C15.7716 13.0853 14.9188 13.85 14.0613 14.6189C13.4834 15.137 12.9034 15.6571 12.3372 16.2107C11.844 16.6082 11.332 17.4076 11.8842 17.9643C13.156 18.8476 14.4477 19.7096 15.7387 20.571C16.1588 20.8513 16.5788 21.1316 16.998 21.4125C17.7085 21.9753 18.8189 21.52 18.9751 20.6406C19.0446 20.236 19.1143 19.8315 19.1841 19.4269C19.5695 17.1912 19.955 14.9548 20.2956 12.7118C20.3419 12.36 20.3944 12.0082 20.4469 11.6562C20.5741 10.8031 20.7015 9.94889 20.7413 9.09116C20.6388 8.23523 19.5927 8.42343 19.0105 8.61589C16.0182 9.74552 13.0558 10.9589 10.1052 12.1936C9.77093 12.3406 9.4321 12.4873 9.091 12.6351Z" fill="#34B0DF"/>
</g>
<defs>
<clipPath id="clip0_590_2117">
<rect width="28" height="28" fill="white"/>
</clipPath>
</defs>
</svg>
