<svg width="29" height="28" viewBox="0 0 29 28" fill="none" xmlns="http://www.w3.org/2000/svg">
<g clip-path="url(#clip0_590_2125)">
<path d="M18.1582 20.2275H19.5696L10.8928 7.81625H9.48135L18.1582 20.2275Z" fill="#8C8C8C"/>
<path fill-rule="evenodd" clip-rule="evenodd" d="M14.5 28C22.232 28 28.5 21.732 28.5 14C28.5 6.26801 22.232 0 14.5 0C6.76801 0 0.5 6.26801 0.5 14C0.5 21.732 6.76801 28 14.5 28ZM15.3567 11.6887L19.8927 6.41604H21.7486L16.1809 12.888L22.1564 21.5842H17.328L13.4966 16.0082L8.69962 21.5842H6.84366L12.6726 14.8091L6.90552 6.41604H11.7338L15.3567 11.6887Z" fill="#8C8C8C"/>
</g>
<defs>
<clipPath id="clip0_590_2125">
<rect width="28" height="28" fill="white" transform="translate(0.5)"/>
</clipPath>
</defs>
</svg>
