<svg width="29" height="28" viewBox="0 0 29 28" fill="none" xmlns="http://www.w3.org/2000/svg">
<g clip-path="url(#clip0_590_2138)">
<path d="M12.1667 18.6667V10.5001L19.1667 14.5974L12.1667 18.6667ZM28.22 8.94491C28.22 8.94491 27.9458 7.00241 27.107 6.14608C26.0418 5.02258 24.8483 5.01791 24.3012 4.95258C20.3835 4.66675 14.5058 4.66675 14.5058 4.66675H14.4942C14.4942 4.66675 8.6165 4.66675 4.69883 4.95258C4.1505 5.01791 2.95817 5.02258 1.89183 6.14608C1.053 7.00241 0.78 8.94608 0.78 8.94608C0.78 8.94608 0.5 11.2257 0.5 13.5066V15.6474C0.5 17.9294 0.78 20.2114 0.78 20.2114C0.78 20.2114 1.053 22.1539 1.89183 23.0102C2.95817 24.1337 4.357 24.0976 4.98 24.2154C7.22 24.4336 14.5 24.5001 14.5 24.5001C14.5 24.5001 20.3835 24.4907 24.3012 24.2061C24.8495 24.1396 26.0418 24.1349 27.107 23.0114C27.947 22.1551 28.22 20.2114 28.22 20.2114C28.22 20.2114 28.5 17.9306 28.5 15.6486V13.5089C28.5 11.2269 28.22 8.94491 28.22 8.94491Z" fill="#FF0000"/>
</g>
<defs>
<clipPath id="clip0_590_2138">
<rect width="28" height="28" fill="white" transform="translate(0.5)"/>
</clipPath>
</defs>
</svg>
