<?xml version="1.0" encoding="utf-8"?><svg fill="none" width="800px" height="800px" viewBox="0.004 0 64 64" xmlns="http://www.w3.org/2000/svg">
<path d="M245.44142187 479.14097813c0-19.20568853 15.5648-34.77048853 34.7704896-34.7704896h278.1184a34.77048853 34.77048853 0 0 1 0 69.54097814H280.21191147a34.77048853 34.77048853 0 0 1-34.7704896-34.77048854z"></path><path d="M243.16586667 479.14097813c0-20.48 16.6115552-37.0460448 37.0460448-37.0460448h278.1184a37.0460448 37.0460448 0 1 1 0 74.04657814H280.21191147a37.0460448 37.0460448 0 0 1-37.0460448-37.00053334z m37.0460448-32.49493333a32.49493333 32.49493333 0 1 0 0 64.98986667h278.1184a32.49493333 32.49493333 0 0 0 0-64.98986667H280.21191147zM219.50008853 128.70542187a136.1692448 136.1692448 0 0 0-136.30577706 136.30577813v214.12977813a34.77048853 34.77048853 0 0 1-69.54097814 0V265.0112A205.71022187 205.71022187 0 0 1 219.50008853 59.1644448h260.5056c54.2947552 0 105.4492448 16.93013333 143.63306667 49.6071104 38.6844448 33.1776 62.21368853 81.19182187 62.2136896 138.58133333a34.77048853 34.77048853 0 1 1-69.54097813 0c0-37.13706667-14.70008853-65.85457813-37.95626667-85.78844373-23.71128853-20.34346667-58.07217813-32.85902187-98.34951147-32.85902293H219.50008853z"></path><path d="M11.37777813 264.96568853A207.98577813 207.98577813 0 0 1 219.45457813 56.88888853h260.5511104c54.74986667 0 106.496 17.06666667 145.08942294 50.19875627 39.1395552 33.54168853 62.98737813 82.19306667 62.98737706 140.26524373a37.0460448 37.0460448 0 1 1-74.04657706 0c0-36.4544-14.42702187-64.58026667-37.18257814-84.05902186-23.21066667-19.93386667-57.07093333-32.31288853-96.8476448-32.31288854H219.45457813a133.89368853 133.89368853 0 0 0-134.03022293 133.9847104v214.1752896a37.0460448 37.0460448 0 0 1-74.04657707 0V264.96568853zM219.45457813 61.44A203.43466667 203.43466667 0 0 0 15.92888853 264.96568853v214.1752896a32.49493333 32.49493333 0 0 0 64.98986667 0V264.96568853a138.4448 138.4448 0 0 1 138.53582293-138.53582186h260.5511104c40.68693333 0 75.63946667 12.65208853 99.80586667 33.4051552 23.7568 20.38897813 38.7299552 49.7436448 38.72995627 87.51786666a32.49493333 32.49493333 0 0 0 64.98986666 0c0-56.7523552-23.21066667-104.12942187-61.3944896-136.8519104-37.6832-32.31288853-88.2915552-49.06097813-142.1312-49.06097813H219.45457813z"></path><path d="M233.83608853 282.12337813a150.64177813 150.64177813 0 0 0-150.64177706 150.64177707v324.49422293a150.64177813 150.64177813 0 0 0 150.64177706 150.64177707h463.57617814a150.64177813 150.64177813 0 0 0 150.64177813-150.64177707v-32.44942293h-8.32853333c-57.29848853 0-115.9168-35.2256-132.3008-96.21048853l-0.04551147-0.1820448a128.11377813 128.11377813 0 0 1 34.13333333-125.29208854 127.1580448 127.1580448 0 0 1 91.24977814-37.9107552h15.29173333v-32.44942293a151.18791147 151.18791147 0 0 0-150.64177813-150.64177707H233.83608853z m-220.1827552 150.64177707a220.1372448 220.1372448 0 0 1 220.1827552-220.1827552h463.57617814a220.72888853 220.72888853 0 0 1 220.1827552 220.1827552v67.21991147a34.77048853 34.77048853 0 0 1-34.77048854 34.77048853h-50.06222186a57.61706667 57.61706667 0 0 0-42.68942294 18.11342293c-14.24497813 13.65333333-21.43573333 35.0435552-15.47377706 57.7991104 6.82666667 25.2131552 33.45066667 44.60088853 65.08088853 44.6008896h43.14453333c19.20568853 0 34.77048853 15.5648 34.77048854 34.77048854v67.21991146a220.1372448 220.1372448 0 0 1-220.1827552 220.1827552H233.83608853A220.1372448 220.1372448 0 0 1 13.65333333 757.30488853v-324.49422186z"></path><path d="M11.37777813 432.81066667C11.37777813 309.8396448 110.95608853 210.26133333 233.83608853 210.26133333h463.57617814a223.0044448 223.0044448 0 0 1 222.45831146 222.45831147v67.2199104c0 20.48-16.5660448 37.0460448-37.0460448 37.0460448h-50.06222186a55.38702187 55.38702187 0 0 0-41.09653334 17.47626667c-13.65333333 13.15271147-20.61653333 33.67822187-14.88213333 55.5235552 6.50808853 24.12088853 32.08533333 42.96248853 62.94186667 42.9624896h43.09902186c20.48 0 37.0460448 16.6115552 37.0460448 37.04604373v67.21991147c0 122.88-99.57831147 222.45831147-222.45831146 222.45831146H233.83608853A222.4128 222.4128 0 0 1 11.37777813 757.30488853v-324.49422186z m222.4583104-217.99822187A217.86168853 217.86168853 0 0 0 15.92888853 432.81066667v324.49422186a217.86168853 217.86168853 0 0 0 217.9072 217.9072h463.57617814a217.86168853 217.86168853 0 0 0 217.9072-217.9527104v-67.21991146a32.49493333 32.49493333 0 0 0-32.49493334-32.49493334h-43.09902186c-32.5404448 0-60.2112-19.93386667-67.3564448-46.33031146a60.8483552 60.8483552 0 0 1 16.1564448-59.98364374l1.54737706 1.6384-1.54737706-1.6384a59.89262187 59.89262187 0 0 1 44.2368-18.75057813h50.06222186c17.97688853 0 32.49493333-14.5635552 32.49493334-32.49493333v-67.21991147a218.45333333 218.45333333 0 0 0-217.9072-217.9072H233.83608853z m0 69.58648853a148.36622187 148.36622187 0 0 0-148.36622186 148.36622187v324.49422293a148.36622187 148.36622187 0 0 0 148.36622186 148.36622187h463.57617814a148.36622187 148.36622187 0 0 0 148.36622186-148.36622187v-30.17386666h-6.05297706c-58.11768853 0-117.7827552-35.72622187-134.5308448-97.8488896v-0.2275552-0.04551147a130.34382187 130.34382187 0 0 1 34.72497813-127.4311104 129.4336 129.4336 0 0 1 92.84266667-38.59342293h13.06168853v-30.17386667c0-81.5104-66.90133333-148.36622187-148.41173333-148.36622187H233.83608853z m475.7276448 343.4723552v0.13653334c16.11093333 59.8016 73.728 94.52657813 130.16177814 94.52657813h8.32853333a2.2755552 2.2755552 0 0 1 2.2755552 2.2755552v32.44942293a152.87182187 152.87182187 0 0 1-152.91733333 152.91733334H233.83608853a152.87182187 152.87182187 0 0 1-152.91733333-152.91733334v-324.49422293a152.87182187 152.87182187 0 0 1 152.91733333-152.91733333h463.57617814a153.46346667 153.46346667 0 0 1 152.91733333 152.91733333v32.44942293a2.2755552 2.2755552 0 0 1-2.2755552 2.2755552h-15.29173333c-34.45191147 0-66.3552 13.5168-89.6568896 37.22808854a125.83822187 125.83822187 0 0 0-33.54168854 123.15306666z"></path><path d="M832.85333333 462.98453333c-35.77173333 0-68.85831147 14.06293333-92.9792 38.6844448a130.16177813 130.16177813 0 0 0-38.5024 104.99413334c6.09848853 71.9075552 70.6787552 120.46791147 136.9884448 120.4679104h89.47484374A84.65066667 84.65066667 0 0 0 1012.62222187 642.79893333v-95.52782186a84.65066667 84.65066667 0 0 0-84.7872-84.28657814H832.85333333z m-40.27733333 90.65813334c10.14897813-10.37653333 24.21191147-16.6115552 40.23182187-16.6115552h95.0272c6.18951147 0 10.74062187 5.00622187 10.74062293 10.24v95.52782186c0 5.27928853-4.55111147 10.24-10.74062293 10.24h-89.47484374c-33.67822187 0-60.8028448-24.576-63.21493333-52.6108448V599.8364448c-1.68391147-17.4307552 4.9152-33.95128853 16.8391104-45.51111147l0.5916448-0.68266666z"></path>
</svg>