<svg class="bn-svg text-[#B97030] h-[18px] w-[18px]" viewBox="0 0 24 24" xmlns="http://www.w3.org/2000/svg"><path fill-rule="evenodd" clip-rule="evenodd" d="M5 2.98h14v6l-2.295 2.296a6 6 0 11-9.41 0L5 8.98v-6zm4.713 6.471a5.95 5.95 0 01.787-.262V5.98H8v1.758L9.713 9.45zM13.5 9.19c.27.07.533.157.787.262L16 7.738V5.98h-2.5V9.19zm-1.776 2.813l.532-.002.803 1.704 1.776.276.165.499-1.297 1.337.299 1.88-.433.304-1.579-.883-1.578.883-.432-.308.315-1.877L9 14.48l.165-.499 1.774-.276.785-1.702z" fill="currentColor"></path></svg>