<svg width="18px" height="18px" viewBox="0 0 18 18" fill="none" xmlns="http://www.w3.org/2000/svg" style="flex-shrink: 0;"><line x1="0.756689" y1="6.33944" x2="5.89081" y2="11.987" stroke="#FF8200"></line><line y1="-0.5" x2="7.72259" y2="-0.5" transform="matrix(-0.625712 0.780054 0.696475 0.717581 17.3281 6.70703)" stroke="#FF8200"></line><path d="M6.28906 6.16406L7.31589 10.7848" stroke="#FF8200"></path><path d="M11.7734 6.16406L10.807 11.0928" stroke="#FF8200"></path><circle cx="9.00955" cy="14.1463" r="3.35721" stroke="currentColor"></circle><mask id="path-6-inside-1_10885_8564" fill="white"><path fill-rule="evenodd" clip-rule="evenodd" d="M8.85818 5.64583C7.85226 5.64583 6.93644 6.03155 6.25054 6.66315C5.51891 6.03155 4.54203 5.64583 3.46905 5.64583C2.01778 5.64583 0.742306 6.35148 0.0117188 7.41677C0.753457 3.20216 4.43282 0 8.86009 0C13.2894 0 16.9701 3.20506 17.7095 7.42249C16.9795 6.35401 15.7021 5.64583 14.2482 5.64583C13.175 5.64583 12.1979 6.03172 11.4663 6.66356C10.7803 6.03172 9.86431 5.64583 8.85818 5.64583Z"></path></mask><path d="M6.25054 6.66315L5.59707 7.42011L6.27201 8.00277L6.92793 7.39878L6.25054 6.66315ZM0.0117188 7.41677L-0.973145 7.24344L0.836409 7.98235L0.0117188 7.41677ZM17.7095 7.42249L16.8838 7.98658L18.6944 7.2498L17.7095 7.42249ZM11.4663 6.66356L10.7888 7.39908L11.4448 8.00336L12.1198 7.42041L11.4663 6.66356ZM6.92793 7.39878C7.43648 6.93048 8.11295 6.64583 8.85818 6.64583V4.64583C7.59158 4.64583 6.4364 5.13262 5.57315 5.92753L6.92793 7.39878ZM3.46905 6.64583C4.30038 6.64583 5.04575 6.94416 5.59707 7.42011L6.904 5.9062C5.99207 5.11894 4.78368 4.64583 3.46905 4.64583V6.64583ZM0.836409 7.98235C1.3782 7.19235 2.34336 6.64583 3.46905 6.64583V4.64583C1.6922 4.64583 0.10641 5.51061 -0.812972 6.85118L0.836409 7.98235ZM8.86009 -1C3.93903 -1 -0.148731 2.55906 -0.973145 7.24344L0.996583 7.5901C1.65564 3.84526 4.92661 1 8.86009 1V-1ZM18.6944 7.2498C17.8726 2.56228 13.7834 -1 8.86009 -1V1C12.7954 1 16.0675 3.84785 16.7245 7.59518L18.6944 7.2498ZM14.2482 6.64583C15.3759 6.64583 16.3425 7.19432 16.8838 7.98658L18.5352 6.8584C17.6165 5.51371 16.0282 4.64583 14.2482 4.64583V6.64583ZM12.1198 7.42041C12.6712 6.94429 13.4167 6.64583 14.2482 6.64583V4.64583C12.9333 4.64583 11.7247 5.11914 10.8127 5.90671L12.1198 7.42041ZM8.85818 6.64583C9.60357 6.64583 10.2802 6.9306 10.7888 7.39908L12.1438 5.92804C11.2805 5.13283 10.1251 4.64583 8.85818 4.64583V6.64583Z" fill="currentColor" mask="url(#path-6-inside-1_10885_8564)"></path></svg>