<svg width="18px" height="18px" viewBox="0 0 22 22" fill="none" xmlns="http://www.w3.org/2000/svg" style="flex-shrink: 0;"><g clip-path="url(#clip0_7953_39573)"><path d="M14 21C19 21 21 19 21 14V8C21 3 19 1 14 1H8C3 1 1 3 1 8V14C1 19 3 21 8 21H14Z" stroke="currentColor" stroke-width="1.5" stroke-linecap="round" stroke-linejoin="round"></path><path d="M1 12H4.76C5.52 12 6.21 12.43 6.55 13.11L7.44 14.9C8 16 9 16 9.24 16H12.77C13.53 16 14.22 15.57 14.56 14.89L15.45 13.1C15.79 12.42 16.48 11.99 17.24 11.99H20.98" stroke="currentColor" stroke-width="1.5" stroke-linecap="round" stroke-linejoin="round"></path><path d="M9.33984 6H12.6698" stroke="#FF8200" stroke-width="1.5" stroke-linecap="round" stroke-linejoin="round"></path><path d="M8.5 9H13.5" stroke="#FF8200" stroke-width="1.5" stroke-linecap="round" stroke-linejoin="round"></path></g><defs><clipPath id="clip0_7953_39573"><rect width="22" height="22" fill="white"></rect></clipPath></defs></svg>