<svg width="24" height="24" viewBox="0 0 24 24" fill="none" xmlns="http://www.w3.org/2000/svg">
<path d="M12 24C18.6274 24 24 18.6274 24 12C24 5.37258 18.6274 0 12 0C5.37258 0 0 5.37258 0 12C0 18.6274 5.37258 24 12 24Z" fill="#988430"/>
<path d="M11.9999 23.614C18.415 23.614 23.6155 18.4136 23.6155 11.9984C23.6155 5.5833 18.415 0.382812 11.9999 0.382812C5.58476 0.382812 0.384277 5.5833 0.384277 11.9984C0.384277 18.4136 5.58476 23.614 11.9999 23.614Z" fill="#7A6A2A"/>
<path d="M11.9998 23.3707C18.2797 23.3707 23.3707 18.2797 23.3707 11.9998C23.3707 5.71982 18.2797 0.628906 11.9998 0.628906C5.71982 0.628906 0.628906 5.71982 0.628906 11.9998C0.628906 18.2797 5.71982 23.3707 11.9998 23.3707Z" fill="#BA9F33"/>
<path fill-rule="evenodd" clip-rule="evenodd" d="M5.24634 10.7175C5.17837 10.6554 5.10656 10.5932 5.04052 10.5311C4.97447 10.469 4.90663 10.4068 4.83866 10.3448L4.63668 10.1528C4.60365 10.1197 4.56871 10.0907 4.53568 10.0575C4.50266 10.0285 4.46388 9.99545 4.43085 9.96626C4.16282 9.71193 3.89325 9.45759 3.62893 9.20312C3.90272 9.45362 4.17076 9.70233 4.44455 9.95653L4.53965 10.0518C4.57268 10.0847 4.60762 10.1138 4.64064 10.1469L4.8425 10.3332C4.91047 10.3953 4.97652 10.4575 5.04448 10.5252C5.11245 10.5929 5.1785 10.6553 5.24647 10.7172L5.24634 10.7175ZM1.68909 10.6791C1.68909 10.6791 2.66381 10.78 3.13959 10.8479C3.58029 10.9101 4.95898 11.1222 4.95898 11.1222L1.68909 10.6791ZM1.68909 10.6791C1.96288 10.7024 2.23668 10.7314 2.51047 10.7606C2.65024 10.7742 2.78426 10.7897 2.91828 10.8033L3.12397 10.8267C3.19194 10.8363 3.25799 10.846 3.32596 10.8557L4.14157 10.9858L4.54925 11.0538C4.68327 11.077 4.81728 11.1024 4.95706 11.1257C4.82304 11.1121 4.68327 11.0927 4.54925 11.0732L4.14157 11.015L3.32596 10.8946C3.25799 10.8849 3.19194 10.8712 3.12397 10.8616L2.91815 10.8379C2.78413 10.8244 2.64436 10.8049 2.51034 10.7893C2.23655 10.7564 1.96276 10.7213 1.68896 10.6787L1.68909 10.6791ZM4.86196 11.3757C4.86196 11.3757 3.82119 11.6399 3.4697 11.7409C3.1241 11.836 2.07744 12.1544 2.07744 12.1544L4.86183 11.3758L4.86196 11.3757Z" fill="#CFB66C"/>
<path fill-rule="evenodd" clip-rule="evenodd" d="M4.86203 11.375C4.63099 11.443 4.40123 11.509 4.16686 11.5712L3.47169 11.7576C3.24065 11.8256 3.01089 11.8916 2.78049 11.9596L2.43489 12.0547C2.32033 12.0877 2.20449 12.1168 2.08545 12.1499C2.19988 12.1115 2.31585 12.0722 2.43105 12.0392L2.77665 11.9286C3.00705 11.8567 3.23745 11.7887 3.46785 11.7169C3.70273 11.6586 3.9339 11.5964 4.16878 11.5401C4.39201 11.4838 4.62702 11.4276 4.86203 11.3751V11.375ZM2.22331 12.7945C2.33774 12.7518 3.65819 12.1363 3.965 11.9926C4.1186 11.9207 4.56507 11.7622 4.56507 11.7622L2.22331 12.7945Z" fill="#CFB66C"/>
<path fill-rule="evenodd" clip-rule="evenodd" d="M2.22327 12.7948C2.32414 12.7564 2.41937 12.7094 2.51639 12.6647L2.80375 12.5307L3.38052 12.2531C3.57252 12.1618 3.75914 12.0611 3.95716 11.9753C4.05815 11.9327 4.15914 11.8977 4.26001 11.8647L4.41361 11.8162C4.46596 11.8026 4.5146 11.787 4.56721 11.7734C4.37521 11.8647 4.1731 11.9424 3.98084 12.0316C3.78884 12.1268 3.59249 12.2045 3.39434 12.2899L2.80798 12.5481C2.61111 12.6278 2.41911 12.7132 2.22314 12.7948H2.22327ZM2.35127 13.3324C2.35127 13.3324 3.5473 12.6314 3.95895 12.4061C4.1745 12.2858 4.87159 11.9401 4.87159 11.9401L2.35127 13.3324Z" fill="#CFB66C"/>
<path fill-rule="evenodd" clip-rule="evenodd" d="M2.35156 13.3336C2.55342 13.2093 2.75924 13.0831 2.96507 12.955L3.27227 12.7685C3.3771 12.7064 3.47809 12.6482 3.58497 12.5861C3.6898 12.5239 3.79079 12.4618 3.89755 12.4035C3.94837 12.3722 4.00162 12.3449 4.05678 12.322L4.21985 12.2405C4.4354 12.1356 4.65095 12.0288 4.87815 11.9375C4.67207 12.0677 4.46062 12.1784 4.24967 12.2928C4.14484 12.3511 4.03796 12.4035 3.93313 12.4618C3.8283 12.52 3.72731 12.5822 3.62043 12.6386C3.51559 12.7006 3.4146 12.7589 3.30785 12.8152L2.99131 12.988L2.35246 13.3336H2.35156ZM4.86215 12.0947C4.86215 12.0947 4.11847 12.6656 3.87771 12.8481C3.63694 13.0306 2.9282 13.5433 2.9282 13.5433L4.86215 12.0947Z" fill="#CFB66C"/>
<path fill-rule="evenodd" clip-rule="evenodd" d="M9.13006 16.6978L8.74951 15.9774L8.97082 15.0764L10.5494 14.4668L9.87758 13.0882L10.2096 11.6959L10.833 10.4492L12.7592 10.1464L14.1747 8.79688L17.231 9.02792L17.831 12.2959L16.6757 16.4104L16.0175 18.5406L13.3494 18.6416L12.1107 17.7834L10.6602 17.1774L9.13006 16.6978Z" fill="#E2CC85"/>
<path fill-rule="evenodd" clip-rule="evenodd" d="M13.8096 16.675C13.8096 16.675 13.4406 16.844 12.8112 16.8051C12.6291 16.5604 11.3534 16.4459 11.3534 16.4459C11.3534 16.4459 11.1942 16.3974 10.9126 16.5139C10.631 16.6303 10.3612 16.6148 10.1107 16.6769C9.8602 16.739 9.6115 16.4129 9.4195 16.3449C9.2275 16.2731 8.97291 16.1003 8.97291 16.1003L8.43531 16.0478L7.35575 15.5915L5.64055 13.8828L5.17451 14.6124L5.03076 15.5153L5.54929 16.5853L6.94539 17.8571L9.66769 18.5483L11.2814 18.0729L13.3028 17.2185L13.8096 16.6749V16.675Z" fill="#F1D789"/>
<path fill-rule="evenodd" clip-rule="evenodd" d="M4.13767 10.6378L4.48327 9.59125L4.89505 8.91541L6.22113 8.80469L5.82305 9.9659L4.71444 11.9388L5.1746 13.6999L4.35911 14.1076L4.10849 13.7232L3.90663 12.8417L3.89307 11.8513L4.13767 10.6378Z" fill="#F4ECB4"/>
<path fill-rule="evenodd" clip-rule="evenodd" d="M5.62513 16.6011L5.37079 16.2457C5.37079 16.2457 5.30282 16.0768 5.34173 15.9292C5.38013 15.7797 5.37463 15.77 5.3553 15.7136C5.33597 15.6573 5.17277 15.4631 5.1825 15.2961C5.1921 15.1271 5.16893 15.0708 5.29309 14.9369C5.42314 14.8069 5.38436 14.5816 5.38436 14.5816L5.55332 14.6864L5.59172 14.6282C5.59172 14.6282 5.6538 14.6767 5.6538 14.7525C5.66737 14.6477 5.61105 14.1622 5.73917 14.0516C5.8673 13.941 6.0945 14.57 6.0945 14.57L5.95473 13.6573L5.59543 12.7215L4.95658 11.8671L4.91818 10.9253V10.8438C4.91818 10.8438 4.62493 11.2943 4.5434 11.6502C4.48516 11.8948 4.62493 12.1918 4.59588 12.5433C4.57245 12.8929 4.5434 12.8656 4.62878 13.0041C4.71415 13.1426 4.92202 13.4274 4.84049 13.6333C4.76868 13.81 4.52394 13.6857 4.52394 13.6857C4.52394 13.6857 4.47543 13.8294 4.40938 13.8818C4.38609 13.7965 4.36087 13.7421 4.31428 13.6898C4.31031 13.7229 4.30071 13.7675 4.30071 13.7675C4.30071 13.7675 4.25796 13.6335 4.21521 13.4646C4.1571 13.2394 4.09489 12.9423 4.03857 12.7831C4.01527 12.8743 3.95703 13.152 3.95703 13.152L3.99006 13.5792L4.14929 14.1656L4.30289 14.5496L4.45239 15.0195L4.58231 15.3351L4.68714 15.5759L4.77841 16.1177L5.21911 16.5837L5.45412 16.6886L5.62487 16.6012L5.62513 16.6011Z" fill="#F3E19D"/>
<path fill-rule="evenodd" clip-rule="evenodd" d="M4.36876 9.78278C4.36876 9.78278 4.05222 10.3204 3.96108 10.8623C3.86995 11.4043 3.78828 11.977 3.84588 12.7147C3.90412 13.4586 4.01484 13.9148 4.10419 14.241C4.25779 14.7828 4.65561 15.5363 4.65561 15.5363L4.66918 15.5071C4.60236 15.3803 4.54899 15.2469 4.50995 15.109C4.45747 14.9032 4.43801 14.6586 4.3895 14.5478C4.34675 14.4372 4.27494 14.342 4.24 14.2061C4.20697 14.076 4.2016 13.8702 4.10022 13.7169C4.05747 13.6547 4.00499 13.4916 3.9895 13.3285C3.97004 13.0838 3.99923 12.81 3.97593 12.5848C3.93318 12.21 3.90412 11.9557 3.94291 11.7595C3.98169 11.5633 4.1838 11.0062 4.30809 10.5635C4.38963 10.2799 4.34099 10.0411 4.49049 9.79443C4.64 9.54982 4.73139 9.33427 4.76428 9.18476C4.80268 9.04883 4.36825 9.78278 4.36825 9.78278H4.36876Z" fill="#F2E8B0"/>
<path fill-rule="evenodd" clip-rule="evenodd" d="M5.86996 9.56641C5.86996 9.56641 5.70689 9.61505 5.6292 9.70042C5.5515 9.78196 5.51848 9.84993 5.41364 9.98778C5.30881 10.1256 5.30292 10.2383 5.21742 10.4111C5.13204 10.58 4.94363 10.8344 4.92033 10.9256C4.89704 11.0169 4.85825 11.444 4.80974 11.646C4.76699 11.848 4.85825 12.0966 4.85825 12.0966L4.96884 12.0732C4.96884 12.0732 4.96884 12.2169 5.07956 12.3141C5.19016 12.4092 5.20961 11.9916 5.20961 11.9916L5.62318 10.5955L6.24641 10.1722L6.31438 9.83047L5.86971 9.56641H5.86996Z" fill="#F5EEC0"/>
<path fill-rule="evenodd" clip-rule="evenodd" d="M6.17265 10.1985C6.17265 10.1985 5.87941 10.2179 5.73579 10.3228C5.67755 10.3655 5.65425 10.4004 5.59217 10.4529C5.47761 10.548 5.36101 10.6354 5.30481 10.7601C5.24261 10.8842 5.17464 11.0727 5.12805 11.428C5.10859 11.5775 5.10859 11.7153 5.09502 11.8358C5.07557 11.9989 5.04651 12.1289 5.062 12.2198C5.08145 12.4062 5.27371 12.5033 5.2924 12.7149L5.69048 12.513L6.06526 11.0353L6.86142 10.5361L6.41086 10.0312L6.17214 10.1976L6.17265 10.1985Z" fill="#E6DB9D"/>
<path fill-rule="evenodd" clip-rule="evenodd" d="M4.07288 20.1516C4.07455 20.137 4.07621 20.1224 4.07787 20.1075C4.13599 19.6083 4.14584 19.2299 4.18847 18.993C4.25055 18.6571 4.2933 18.5322 4.28357 18.4065C4.27 18.2046 4.25451 18.057 4.27397 17.9016C4.30303 17.6958 4.50501 17.4512 4.49925 17.2822C4.49528 17.1482 4.42731 17.0609 4.36907 16.9794C4.31083 16.8979 4.26424 16.8299 4.26424 16.8299C4.26424 16.8299 4.66232 16.5561 4.65848 15.4531C4.66662 15.4554 4.67445 15.4586 4.68178 15.4629L4.87787 16.02L5.01189 16.1831L5.52645 17.1423L6.1886 17.7852L7.16716 18.4433L7.78079 19.1111L7.84287 20.8917L7.04095 21.9325L6.90962 22.1703C5.86624 21.6465 4.90947 20.9657 4.07275 20.1515L4.07288 20.1516Z" fill="#E5CB7A"/>
<path fill-rule="evenodd" clip-rule="evenodd" d="M6.52246 21.8545C6.52246 21.8545 6.53603 21.6332 6.71856 21.4895C6.74774 21.538 6.76707 21.5847 6.76131 21.6195C6.79433 21.5614 7.02537 21.1886 7.54774 21.0914C8.07011 20.9963 8.19632 20.6158 8.19632 20.6158L9.30493 19.608L10.5729 18.441L12.1147 17.8992L12.8352 17.7224C12.8352 17.7224 12.8487 17.7749 12.8216 17.8914C12.9555 17.8818 13.2526 17.8138 13.5613 17.705C13.6856 17.6565 13.8022 17.6371 13.8643 17.7012C13.9556 17.7866 13.9691 17.9886 13.9749 18.1089C14.1244 18.0759 14.2972 17.9322 14.4357 17.9458C14.6571 17.9691 14.8532 18.2293 15.0785 18.2293C15.3756 18.2293 15.5095 18.0468 15.7173 17.9031C15.8416 17.8177 16.0202 17.7111 16.1212 17.639C16.3619 17.4622 18.9095 16.6836 18.9095 16.6836L19.8027 16.7418L19.9465 17.7011L19.8697 20.2086C19.8602 20.2177 19.8507 20.2271 19.8411 20.2362L15.7799 22.3573L10.1505 23.2203C8.88948 23.0142 7.67259 22.5957 6.55164 21.9824L6.52284 21.8544L6.52246 21.8545Z" fill="#D8C173"/>
<path fill-rule="evenodd" clip-rule="evenodd" d="M4.41406 20.4705C4.49406 20.3032 4.566 20.1633 4.57867 20.1133C4.58865 20.2141 4.60696 20.4355 4.64382 20.6707C4.56642 20.6049 4.48984 20.5382 4.41406 20.4704V20.4705Z" fill="#F1D789"/>
<path fill-rule="evenodd" clip-rule="evenodd" d="M8.52629 22.8303L9.25435 22.6278L9.31643 22.6472C9.31643 22.6472 9.34945 22.6667 9.34945 22.7326C9.44072 22.6803 9.51841 22.6899 9.57473 22.655C9.60379 22.7171 9.63285 22.9229 9.7611 22.9482C9.89499 22.9773 10.0387 22.8899 10.1844 22.7793C10.328 22.6648 10.4916 22.521 10.6154 22.4628C10.6608 22.5463 10.701 22.6325 10.7358 22.721C10.8989 22.5909 11.1824 22.0628 11.5863 22.0724C11.703 21.7966 11.898 21.561 12.1471 21.3948C12.5219 21.1404 12.7568 21.121 13.0501 21.1443C13.1665 20.993 13.3101 20.8646 13.4734 20.7656C13.5219 20.7851 13.6559 20.8666 13.8229 20.7889C13.99 20.7112 14.1821 20.4103 14.4326 20.3715C14.5676 20.3529 14.7048 20.3818 14.8209 20.4531C14.8209 20.4531 15.5505 19.7287 16.054 19.4879C16.0345 19.4297 15.9957 19.2103 16.5859 18.7248C16.619 18.754 16.5957 18.8355 16.619 18.84C16.6286 18.84 16.7726 18.7779 16.9548 18.638C17.1801 18.4692 17.4499 18.2924 17.613 18.2439C17.9202 18.1526 18.2461 18.339 18.2461 18.339C18.2738 18.3196 18.3047 18.3051 18.3374 18.2963C18.4149 18.2827 18.4712 18.273 18.514 18.2579C18.5102 18.3589 18.5665 18.5317 18.514 18.6812C18.5748 18.7154 18.6392 18.7427 18.706 18.7627C18.6731 18.8345 18.6012 19.017 18.4808 19.1045C18.5817 19.153 18.5953 19.2093 18.739 19.2581C18.6808 19.3396 18.5854 19.4795 18.5429 19.5653C18.5002 19.6565 18.3467 20.0351 18.2787 20.1788C18.2069 20.3225 18.1099 20.5866 18.0632 20.6396C18.0165 20.6925 17.8476 20.9172 17.7176 21.0278C17.8328 20.985 18.3041 20.8414 18.504 20.787C18.4445 20.8743 18.1428 21.3219 17.8527 21.7524C16.464 22.5848 14.9138 23.1116 13.3055 23.2978C11.6971 23.484 10.0676 23.3253 8.52539 22.8322L8.52629 22.8303Z" fill="#E0CD81"/>
<path fill-rule="evenodd" clip-rule="evenodd" d="M6.22062 10.1452C6.22062 10.1452 6.05178 10.1452 6.01876 10.1685C5.98574 10.1918 6.18772 10.2404 6.24916 10.2637C6.3106 10.287 6.44526 10.3938 6.4802 10.4793C6.51322 10.5608 7.69377 11.0365 7.69377 11.0365L8.52871 10.9937L8.81722 10.596L8.26964 10.1164L8.65364 8.98438L8.14497 9.06591L6.92167 9.79551L6.30804 10.0305L6.22062 10.1457V10.1452Z" fill="#DFC57C"/>
<path fill-rule="evenodd" clip-rule="evenodd" d="M8.05432 10.5233C8.06638 10.5428 8.08338 10.5589 8.1036 10.5698C8.12382 10.5807 8.14656 10.586 8.16952 10.5854C8.34232 10.5854 8.50142 10.6281 8.56747 10.7154C8.67832 10.8553 8.98552 11.3019 8.98552 11.3019L9.71947 11.566L9.76632 10.7017L8.9644 10.1445L8.05176 10.4804V10.5232H8.05432V10.5233Z" fill="#E5CC7C"/>
<path fill-rule="evenodd" clip-rule="evenodd" d="M7.91012 10.8408C7.91012 10.8408 8.04401 10.8506 8.21297 10.7884C8.38193 10.7262 8.65956 10.5923 8.78001 10.6447C8.94884 10.7166 8.91389 10.9418 9.09655 11.1439C9.20714 11.2682 9.40913 11.2644 9.52369 11.3984C9.63825 11.5324 10.0324 11.4702 10.0324 11.4702L10.1819 12.2766L9.58193 13.0456L9.3857 14.0013H8.57444L7.83332 13.7069L7.46826 12.8237L7.65079 11.9305L7.91012 10.8408Z" fill="#D2C281"/>
<path fill-rule="evenodd" clip-rule="evenodd" d="M9.47974 10.8812C9.49987 10.8873 9.52077 10.8906 9.54182 10.8909C9.51853 10.9104 9.46989 10.953 9.48934 11.0637C9.5088 11.1744 9.57088 11.3142 9.51853 11.3996C9.56034 11.4453 9.59151 11.4996 9.60979 11.5588C9.64282 11.654 9.65254 11.7413 9.86797 11.755C9.83689 11.7742 9.80823 11.797 9.78259 11.823C9.78259 11.823 9.9321 11.953 10.0079 12.0734C10.0854 12.07 10.2913 12.006 10.2913 12.006L10.334 12.0352L10.4253 11.9968C10.4253 11.9968 10.3399 11.9638 10.402 11.7561C10.4602 11.5735 10.5127 11.5833 10.5172 11.5697C10.5217 11.5561 10.5601 11.3639 10.5601 11.2862C10.5891 11.1853 10.6124 10.8785 10.6124 10.8785L10.5502 10.2012L10.2008 9.98953L9.91661 9.71484L9.64858 10.2197L9.47206 10.3957L9.4585 10.8325L9.47974 10.8812Z" fill="#E2C270"/>
<path fill-rule="evenodd" clip-rule="evenodd" d="M10.3203 10.3139C10.3203 10.3139 10.3824 10.4906 10.4058 10.6265C10.414 10.6001 10.4186 10.5726 10.4194 10.545C10.4194 10.545 10.4679 10.813 10.4775 10.9237C10.497 10.9198 10.5159 10.914 10.5202 10.9333C10.5246 10.9526 10.5689 11.1683 10.5586 11.2886C10.6395 11.1553 10.7514 11.0434 10.8848 10.9625C10.9625 10.9139 11.0538 10.8615 11.149 10.8575C11.2985 10.8537 11.4072 10.9528 11.5858 10.9528C12.0168 10.9528 12.4072 10.6362 12.6946 10.5392C12.9062 10.4673 13.0887 10.4149 13.2168 10.2983C13.279 10.246 13.3898 10.1295 13.4906 9.95655C13.6246 9.72615 13.7644 9.52558 13.9043 9.50036C13.841 9.51197 13.7766 9.51652 13.7123 9.51393C13.7123 9.51393 13.7551 9.47118 13.8275 9.41294C13.9 9.3547 13.9867 9.28289 14.1109 9.28289C14.3323 9.28289 14.4429 9.31578 14.5672 9.31578C14.6915 9.31194 14.7633 9.28289 14.7633 9.28289C14.7633 9.28289 14.8935 9.37415 15.1866 9.37415C15.4799 9.37799 15.676 9.40321 15.8294 9.4169C15.9829 9.4306 16.4973 9.37415 16.6449 9.3785C16.7411 9.38223 16.8356 9.40535 16.9227 9.44647L16.4469 8.06407L14.7378 6.57031L13.7204 7.2907L12.1552 8.85575L10.6407 9.4169L10.3242 9.77223V10.3139H10.3203Z" fill="#CCB360"/>
<path fill-rule="evenodd" clip-rule="evenodd" d="M13.7185 9.5239C13.7185 9.5239 13.7613 9.48127 13.8329 9.42303C13.9046 9.36479 13.9923 9.29286 14.1165 9.29286C14.3378 9.29286 14.4485 9.32588 14.5728 9.32588C14.6971 9.32204 14.7689 9.29286 14.7689 9.29286C14.7689 9.29286 14.8992 9.38399 15.1922 9.38399C15.4854 9.38783 15.6815 9.41305 15.835 9.42662C15.9885 9.44018 16.5029 9.38399 16.6505 9.38822C16.7467 9.39184 16.8411 9.41496 16.9281 9.45618L16.7126 8.83282L16.4622 8.35718L15.7476 7.57458L14.8834 7.06591C14.8796 7.06207 14.5863 6.98438 14.5863 6.98438L13.8096 7.45426L13.1049 9.27762L13.0913 9.66162L13.5475 9.87718C13.6621 9.68518 13.7884 9.53158 13.9068 9.51212C13.7999 9.52377 13.7184 9.52377 13.7184 9.52377L13.7185 9.5239Z" fill="#D5B457"/>
<path fill-rule="evenodd" clip-rule="evenodd" d="M13.709 9.65276C13.641 9.6566 13.5848 9.64304 13.5692 9.59452C13.5109 9.43145 13.4643 9.40816 13.4156 9.40816C13.3668 9.40816 13.301 9.51299 13.262 9.52259C13.2229 9.53219 13.1766 9.40227 13.1766 9.40227L13.1339 9.38281C13.1339 9.38281 12.8834 9.54588 12.7067 9.73814C12.5301 9.9304 12.2407 10.2567 12.1106 10.3148C11.9806 10.3729 11.5339 10.3925 11.381 10.4255C11.2282 10.4585 11.0587 10.5692 11.0354 10.5945C11.0121 10.6197 11.1035 10.6468 11.1171 10.672C11.1307 10.6953 10.9675 10.6856 10.9539 10.7104C10.9443 10.7299 10.9923 10.8405 11.0161 10.8968C11.0578 10.8761 11.1035 10.8648 11.15 10.8638C11.2995 10.8599 11.4083 10.959 11.5868 10.959C12.018 10.959 12.4082 10.6425 12.6956 10.5453C12.9073 10.4735 13.0898 10.421 13.218 10.3045C13.28 10.2522 13.3908 10.1356 13.4917 9.96278C13.5655 9.84438 13.6374 9.73366 13.7093 9.65212L13.709 9.65276Z" fill="#D2B257"/>
<path fill-rule="evenodd" clip-rule="evenodd" d="M7.52652 19.2627C7.52652 19.2627 7.48812 19.119 7.13228 18.7482C7.03129 18.6433 6.96921 18.5562 6.90124 18.4938C6.73228 18.3345 6.63321 18.2919 6.51289 18.2006C6.24883 18.0045 5.96147 18.0045 5.74016 17.7637C5.51885 17.523 5.26093 17.0629 5.08173 16.5928C4.90509 16.1229 4.85645 15.9734 4.85645 15.9598C4.85645 15.9463 4.90509 15.855 4.96717 15.8686C5.02925 15.8821 5.02925 16.0024 5.04486 16.0316C5.07583 16.0792 5.11091 16.124 5.14969 16.1655C5.24096 16.2705 5.37101 16.3959 5.43705 16.5831C5.42349 16.4238 5.36909 16.2472 5.36909 16.2472C5.36909 16.2472 5.71084 16.4627 6.00204 16.6879C6.29529 16.9132 6.41561 16.9909 6.50124 17.1345C6.58688 17.2781 6.7886 17.6568 6.88524 17.7676C6.98188 17.8783 8.30604 18.2957 8.30604 18.2957L8.93593 18.7653L9.24863 19.4508L9.0039 19.8348L8.53401 19.9358L7.77088 19.594L7.52652 19.2626V19.2627Z" fill="#D2B159"/>
<path fill-rule="evenodd" clip-rule="evenodd" d="M5.83105 16.9016C5.83105 16.9016 5.99029 17.156 6.37864 17.3967C6.72821 17.6085 7.28155 17.8007 7.77486 17.9153C8.05826 17.9832 8.34178 18.0356 8.59611 18.0396C9.28155 18.0492 9.75336 17.8532 10.3379 17.7891C10.6545 17.756 11.0428 17.7308 11.4467 17.6355C11.9651 17.5112 12.2719 17.3713 12.6894 17.1747C12.9923 17.0349 13.27 16.9301 13.4952 16.796C13.8117 16.6097 14.0428 16.4019 14.3108 16.3398C14.2778 16.4311 14.2428 16.5942 13.9788 16.7631C14.1185 16.7592 14.3108 16.7496 14.3108 16.7496C14.3108 16.7496 14.1244 16.8602 13.7962 17.1087C13.5943 17.2623 13.3264 17.5223 13.0526 17.6951C12.8758 17.8058 12.6835 17.8871 12.5573 17.9534C12.2501 18.1224 12.1262 18.2077 11.9244 18.4142C11.9962 18.4104 12.0021 18.4142 12.0021 18.4142C12.0021 18.4142 11.7476 18.4472 11.5652 18.5443C11.5268 18.5443 11.4602 18.5307 11.3438 18.5637C11.2525 18.5928 11.132 18.6589 11.0079 18.6938C10.8311 18.7462 10.773 18.7229 10.773 18.7229L10.8021 18.7812C10.8021 18.7812 10.5717 18.7772 10.4949 18.785C10.5084 18.7889 10.5046 18.7948 10.5046 18.7948C10.4911 18.7971 10.4781 18.8017 10.4662 18.8083C10.4292 18.8323 10.3886 18.8499 10.3459 18.8607C10.3226 18.8645 10.3031 18.8645 10.2739 18.8704C10.2837 18.8937 10.3594 19.024 10.3944 19.1008C10.3653 19.1203 9.92834 19.4504 9.92834 19.4504C9.94186 19.4717 9.95294 19.4945 9.96136 19.5183C9.97493 19.561 9.98082 19.6232 9.99438 19.6522C10.0273 19.7105 10.0467 19.7202 10.0467 19.7202C10.0467 19.7202 9.99438 19.7299 9.90299 19.7532C9.82542 19.7727 9.73019 19.8056 9.59579 19.825C9.55456 19.8304 9.51307 19.8336 9.4715 19.8348C9.49096 19.8775 9.57634 20.0406 9.41902 20.2289C9.26171 20.4172 9.2132 20.4445 9.16469 20.5649C9.14024 20.5464 9.11425 20.5302 9.08699 20.5162C9.03464 20.4929 8.9627 20.4581 8.93749 20.4114C8.92277 20.4736 8.9033 20.5347 8.87925 20.5939C8.83074 20.724 8.75893 20.8522 8.74536 20.9493C8.69288 20.891 8.59586 20.7765 8.46184 20.7997C8.32782 20.823 8.22107 21.0056 8.19778 21.0581C8.19778 21.025 8.17448 20.9998 8.16872 21.0386C8.16475 21.0813 8.09102 21.5278 7.67938 21.889C7.67554 21.7978 7.67554 21.5958 7.66581 21.5299C7.62741 21.5683 7.58043 21.625 7.30075 21.7454C7.02696 21.8657 7.07035 21.9862 7.07035 21.9862C7.07035 21.9862 7.04706 21.7942 7.19464 21.5919C7.34222 21.3897 7.43541 21.2949 7.43541 21.2794C7.43301 21.2636 7.42627 21.2488 7.41595 21.2366C7.3965 21.2172 7.35771 21.1939 7.35771 21.1784C7.38101 21.1688 7.61205 21.0581 7.59848 20.8288C7.58491 20.6231 7.49762 20.5162 7.43541 20.4406C7.42581 20.4309 7.5268 20.359 7.5131 20.3357C7.50338 20.3222 7.37922 20.2308 7.3636 20.1821C7.36732 20.1531 7.37383 20.1245 7.38306 20.0968C7.39662 20.054 7.40635 20.0248 7.40251 19.9958C7.39278 19.9473 7.3403 19.8133 7.32482 19.7997C7.33838 19.8035 7.43541 19.7997 7.43541 19.7997C7.43541 19.7997 7.35784 19.6754 7.34414 19.6172C7.33045 19.5589 7.30139 19.4054 7.2859 19.3764C7.31893 19.3802 7.40046 19.386 7.40046 19.3764C7.40443 19.3472 7.32866 19.2987 7.36206 19.2612C7.38536 19.265 7.43003 19.2845 7.47266 19.3389C7.44936 19.2767 7.41058 19.1564 7.32891 19.1085C7.36731 19.0949 7.49787 19.0598 7.61243 19.1278C7.72699 19.1958 7.76603 19.2909 7.76603 19.2909C7.76603 19.2909 7.834 19.3434 7.93896 19.4211C8.05928 19.5162 8.21262 19.6515 8.45736 19.7472C8.50984 19.7764 8.64373 19.7764 8.74088 19.7569C8.78319 19.7469 8.82374 19.7305 8.8612 19.7084C8.87475 19.7005 8.88908 19.694 8.90395 19.689C8.88306 19.6471 8.85905 19.6068 8.83214 19.5685C8.86517 19.5685 8.90395 19.5725 8.90395 19.5725C8.90395 19.5725 8.92725 19.52 8.82242 19.4189C8.84571 19.3956 8.8749 19.3805 8.8749 19.3412C8.84187 19.3373 8.78363 19.2888 8.77006 19.2694C8.78939 19.2558 8.81858 19.2111 8.8516 19.1976C8.82242 19.1743 8.75061 19.0771 8.71758 19.0675C8.74914 19.0558 8.77967 19.0415 8.80885 19.0248C8.80885 19.0248 8.64578 18.982 8.5933 18.9471C8.54082 18.9087 8.46325 18.8422 8.41666 18.8228C8.36802 18.8033 8.28264 18.7937 8.2477 18.7548C8.28059 18.7645 8.33307 18.7548 8.37198 18.7548C8.40104 18.7548 8.41474 18.7587 8.42434 18.7587C8.4205 18.7451 8.4205 18.7159 8.49627 18.7063C8.53272 18.7008 8.56809 18.6897 8.6011 18.6733C8.6011 18.6733 8.52917 18.6694 8.4475 18.5917C8.36584 18.5141 8.298 18.452 8.25141 18.4422C8.20482 18.4325 8.11163 18.4753 8.05531 18.4713C7.97762 18.4617 7.94459 18.4228 7.94459 18.4228C7.94459 18.4228 7.68642 18.4461 7.11362 18.0966C6.61838 17.7937 6.40283 17.5258 6.40283 17.5258C6.35648 17.509 6.31168 17.4881 6.26894 17.4636C6.08258 17.3665 5.82427 17.1645 5.83208 16.9004L5.83105 16.9016Z" fill="#C2A44D"/>
<path fill-rule="evenodd" clip-rule="evenodd" d="M12.9747 5.2471C13.0197 5.26167 13.0596 5.2886 13.0899 5.3248C13.1812 5.42963 13.2394 5.62765 13.0317 5.83936C13.1132 5.86841 13.1469 5.87776 13.2181 5.86841C13.1463 5.95392 12.9832 6.13645 12.9735 6.29568C12.9637 6.42573 13.0453 6.46464 13.0453 6.46464C13.0453 6.46464 12.921 6.60825 12.9152 6.84864C12.9739 6.78246 13.0382 6.7214 13.1072 6.66611C13.251 6.55155 13.449 6.4215 13.583 6.33997C13.5812 6.37414 13.5858 6.40834 13.5966 6.44083C13.5966 6.44083 13.8469 6.23501 14.0574 6.3264C14.1525 6.36915 14.1097 6.50304 14.1097 6.50304C14.1097 6.50304 14.2399 6.45453 14.3312 6.54579C14.4224 6.63705 14.5514 6.87245 14.6176 6.96371C14.6467 7.00646 14.7225 7.088 14.8 7.21421C14.906 7.39089 14.9945 7.57751 15.0642 7.77139C15.0681 7.6704 15.0933 7.51321 15.3808 7.61216C15.6681 7.71315 15.9943 7.92486 16.2681 8.34176C16.5418 8.75865 16.6097 9.22931 16.7475 9.40851C16.8873 9.58131 17.0311 9.86931 17.0408 9.98912C17.0505 10.1089 16.998 10.4978 17.2854 11.5483C17.3669 11.2221 17.4912 10.4978 17.4912 10.4978L17.5592 9.85894L17.6369 7.88224L15.5728 6.16704L13.9592 4.99609L12.9087 5.09709L12.9746 5.24659L12.9747 5.2471Z" fill="#CAA13E"/>
<path fill-rule="evenodd" clip-rule="evenodd" d="M16.8095 8.19013C16.8095 8.19013 16.7804 7.99813 16.295 7.67173C15.8095 7.34942 15.4309 7.34942 15.0814 7.07563C14.8134 6.86008 14.5338 6.36485 14.3518 6.20177C14.1751 6.04062 14.146 5.57457 14.146 5.57457L14.7421 5.07537L15.6286 3.79397L16.3781 2.96875L16.7372 3.46795L17.2364 4.05432L17.5141 5.23102L17.6151 6.95339L16.8087 8.19026L16.8095 8.19013Z" fill="#B59544"/>
<path fill-rule="evenodd" clip-rule="evenodd" d="M17.4095 10.2544C17.4243 9.99322 17.392 9.73149 17.3143 9.48168C17.1863 9.0836 16.9066 8.37679 16.7767 8.11208C16.7242 7.81883 16.7631 7.79554 16.8195 7.76251C16.8758 7.72949 17.0875 7.60891 17.2035 7.18587C17.3194 6.76283 17.6792 6.74901 17.6792 6.74901L17.9006 6.58594L18.2366 7.42664L18.5297 8.18594L18.6209 8.76655L18.6889 9.26165L18.5297 10.3083L17.7434 11.019L17.4094 10.2544H17.4095Z" fill="#C89D3A"/>
<path fill-rule="evenodd" clip-rule="evenodd" d="M6.43701 21.9197V21.8982C6.45335 21.888 6.46778 21.875 6.47964 21.8598C6.4932 21.8404 6.50306 21.8171 6.51266 21.8113C6.53212 21.8016 6.62338 21.7729 6.67189 21.7821C6.7204 21.7913 6.84866 21.8442 6.91663 21.8404C7.0564 21.8365 7.21948 21.7296 7.47778 21.7783C7.86613 21.8501 7.9574 22.1142 8.18268 22.2637C8.33628 22.3686 8.49525 22.3219 8.51855 22.3219H8.5709C8.58063 22.3219 8.65244 22.2404 8.69135 22.2443C8.76904 22.2482 8.77672 22.3123 8.82523 22.3161C8.93979 22.3297 9.16123 22.2579 9.27195 22.2871C9.30478 22.2974 9.33463 22.3155 9.35897 22.3398C9.38331 22.3641 9.40141 22.3939 9.41173 22.4267C9.43503 22.4985 9.41557 22.5898 9.35925 22.6423C9.23893 22.7529 9.12437 22.8578 9.10107 22.9495C9.13071 22.9721 9.15916 22.9962 9.18632 23.0217C8.22558 22.7769 7.30121 22.4068 6.43701 21.9209V21.9197Z" fill="#CEB052"/>
<path fill-rule="evenodd" clip-rule="evenodd" d="M16.7769 18.0394C16.7769 18.0394 17.0797 17.6355 17.1847 17.4354C17.2895 17.2292 16.8526 14.618 16.8526 14.618L17.7303 11.7424L17.7069 10.8065C17.7069 10.8065 17.7497 9.94233 17.8506 9.56754C17.9711 9.7831 18.3459 10.0433 18.4274 10.1812C18.4658 9.91698 18.5962 9.3598 18.5769 8.76562C18.6487 8.87622 18.8215 9.98892 18.8215 9.98892L18.9943 10.7384L19.2196 11.5345L19.4701 12.3754L19.6196 12.956L19.705 13.0957L19.7769 13.3403L19.8449 13.6045L20.041 14.2239L20.1562 14.7326L20.2474 15.655C20.2673 15.7256 20.2816 15.7977 20.2902 15.8705C20.294 15.9715 20.2766 16.0298 20.2766 16.0473C20.2766 16.0648 20.3096 16.2686 20.2961 16.4221C20.2766 16.5757 20.2766 16.6959 20.1562 16.8061C20.0357 16.9163 19.9601 17.575 19.9601 17.575L19.7445 17.4314C19.7445 17.4314 19.7873 17.2351 19.6863 17.0566C19.5853 16.878 19.3892 16.841 19.2785 16.8702C19.1679 16.8935 18.9466 16.9283 18.8746 16.9905C18.8067 17.0526 18.6398 17.2449 18.4863 17.3323C18.2943 17.4475 17.9815 17.4566 17.8145 17.4954C17.6456 17.5338 17.4592 17.649 17.263 17.7827C17.1091 17.8823 16.9467 17.968 16.7776 18.0387L16.7769 18.0394Z" fill="#CCA847"/>
<path fill-rule="evenodd" clip-rule="evenodd" d="M16.7769 22.284C16.7769 22.284 16.7897 22.2923 16.8144 22.3059C18.1939 21.6596 19.43 20.7434 20.4496 19.6115C20.4384 19.2185 20.424 18.8157 20.4081 18.6665C20.3752 18.3499 20.3985 18.0276 20.3888 17.8413C20.379 17.6549 20.2742 16.8956 20.2257 16.6995C20.1732 16.5034 20.0721 16.4062 20.0567 16.4062C20.0432 16.4102 19.9615 16.7753 19.9615 16.867C19.9615 16.9588 19.9426 17.18 19.9426 17.2361C19.929 17.2321 19.9232 17.1977 19.9232 17.1836C19.9038 17.2321 19.8805 17.3176 19.8707 17.3273C19.861 17.3371 19.8843 17.2458 19.8707 17.2263C19.8572 17.2069 19.8323 17.2166 19.8377 17.1681C19.84 17.1393 19.8445 17.1108 19.8513 17.0827C19.8513 17.0827 19.793 17.1681 19.7504 17.3856C19.7078 17.603 19.7077 17.607 19.6922 17.6263C19.6786 17.6498 19.6009 17.7273 19.597 17.7565C19.5931 17.8089 19.6689 17.8614 19.6746 17.8904C19.6785 17.939 19.6067 18.1642 19.5834 18.2744C19.5601 18.3846 19.5698 18.6006 19.545 18.7113C19.5255 18.8123 19.5066 18.8705 19.4402 18.9131C19.4887 18.9229 19.5353 18.9364 19.5353 18.9364C19.5353 18.9364 19.6032 19.2238 19.4304 19.4685C19.3683 19.5539 19.3529 19.5928 19.2868 19.6705C19.1566 19.8141 19.0556 19.9777 19.0459 20.0841C19.0392 20.0527 19.0347 20.0209 19.0323 19.9888C19.0323 19.9888 18.8305 20.2238 18.745 20.3579C18.6344 20.5307 18.4809 20.5209 18.4378 20.5637C18.3946 20.6064 18.3853 20.684 18.3994 20.7462C18.361 20.7558 18.2888 20.7695 18.2402 20.919C18.2169 20.9966 18.1586 21.0726 18.0674 21.1248C17.9761 21.1771 17.8654 21.1928 17.809 21.2064C17.8576 21.2199 17.877 21.2199 17.9003 21.2354C17.8713 21.2839 17.7372 21.3597 17.5877 21.4569C17.4382 21.5481 17.3663 21.682 17.3294 21.7694C17.291 21.851 17.2343 21.9035 17.1431 21.9132C17.1815 21.9365 17.2383 21.9908 17.2674 22.0083C17.2246 22.018 17.1522 22.018 17.0227 22.1287C16.8868 22.2414 16.8402 22.2744 16.778 22.2841L16.7769 22.284Z" fill="#C39D3C"/>
<path fill-rule="evenodd" clip-rule="evenodd" d="M14.0749 23.18C14.1492 23.1278 14.2297 23.0851 14.3146 23.0528C14.6174 22.9325 14.9378 22.9092 15.064 22.8704C15.1845 22.832 15.2796 22.7791 15.4291 22.75C15.4251 22.784 15.4218 22.816 15.4182 22.8463C14.9775 22.9848 14.5286 23.0963 14.0742 23.18H14.0749Z" fill="#D2BA6B"/>
<path fill-rule="evenodd" clip-rule="evenodd" d="M19.6607 15.2168C19.6607 15.2168 19.5986 15.5526 19.4879 15.7644C19.3771 15.9761 19.2575 16.2692 19.2575 16.2692C19.2582 16.2031 19.266 16.1374 19.2808 16.073C19.141 16.1545 18.8011 16.3507 18.7048 16.438C18.6135 16.5196 18.46 16.6633 18.4212 16.7313C18.5125 16.4634 18.6076 16.2226 18.6232 16.1119C18.4834 16.2129 17.8309 16.7507 17.4912 17.1061L16.4329 17.9624C16.3108 18.0283 16.185 18.0872 16.0562 18.1388C15.8738 18.2163 15.6582 18.2824 15.499 18.3446C15.5418 18.23 15.6096 18.1289 15.7048 18.0319C15.8058 17.9368 16.1087 17.6086 16.1553 17.4559C16.198 17.2966 16.2077 17.2015 16.1514 17.0675C16.0989 17.0811 15.9786 17.087 15.8971 17.1103C15.8155 17.1336 15.7281 17.2209 15.7281 17.2209C15.7281 17.2209 15.7902 16.8655 15.9242 16.5297C15.8232 16.5335 15.6504 16.5626 15.6504 16.5626C15.6504 16.5626 15.8912 16.1587 16.3032 15.8773C16.177 15.9041 16.0536 15.9424 15.9343 15.9917C15.6936 16.0927 15.4295 16.2422 15.2334 16.3237C15.344 16.1701 16.1207 15.0616 16.5829 14.0286C17.0437 12.9975 17.2159 12.7335 17.3169 12.1801C17.3692 11.9063 17.3553 11.5017 17.3692 11.1393C17.3828 10.78 17.4274 10.4577 17.3984 10.2422C17.5187 10.3917 17.9693 10.8131 17.9848 11.7549C18.0002 12.6967 17.5538 13.9685 17.0818 14.6538C17.197 14.6869 17.4955 14.7258 17.8022 14.193C18.1089 13.6603 18.1052 13.5116 18.2159 13.2901C18.2295 13.4008 18.2255 13.4396 18.2255 13.4396C18.2255 13.4396 18.6722 12.8979 18.8838 12.2163C18.9266 12.5096 19.0528 12.7679 18.8546 13.3057C18.678 13.7911 18.447 13.9096 18.447 13.9096C18.447 13.9096 18.5622 13.8902 18.7304 13.7892C18.7595 13.861 18.7538 13.9428 18.8023 13.9717C18.8508 14.0006 18.9175 14.0494 18.9266 14.096C18.9789 14.0183 19.0605 13.9192 19.0858 13.8455C19.0664 13.9991 19.0528 14.6707 19.1242 15.0125C19.2738 14.9989 19.4272 14.9892 19.532 14.7192C19.4602 14.9834 19.4602 15.1425 19.5087 15.3678C19.5883 15.3135 19.6601 15.2164 19.6601 15.2164L19.6607 15.2168Z" fill="#C0993A"/>
<path fill-rule="evenodd" clip-rule="evenodd" d="M14.6157 4.51548C14.6157 4.51548 14.4662 4.57756 14.2118 4.57756C13.9905 4.57756 14.0526 4.49219 13.707 4.49219C13.175 4.49219 11.3167 4.79939 10.9904 4.79504C10.7787 4.7912 11.7049 4.8863 11.7049 4.8863L14.072 4.91932L14.5477 4.88092L14.7245 4.52124L14.6157 4.51548Z" fill="#A88F33"/>
<path fill-rule="evenodd" clip-rule="evenodd" d="M8.47794 9.13846C8.47794 9.13846 8.17497 9.3695 8.04684 9.54626C7.91871 9.72303 7.85074 9.83938 7.70508 9.98313C7.73927 9.9844 7.77343 9.97981 7.80607 9.96956C7.80607 9.96956 7.80607 10.008 7.78277 10.0181C7.80291 10.0158 7.82328 10.0181 7.84242 10.0247C7.86156 10.0314 7.87896 10.0422 7.89337 10.0565C7.85061 10.0798 7.73413 10.1964 7.8254 10.3342C7.89337 10.4391 8.03711 10.4487 8.03711 10.4487C8.03711 10.4487 8.00409 10.5439 8.14194 10.5342C8.43903 10.5206 8.77106 10.3904 8.92441 10.4234C9.07801 10.4618 9.1653 10.4759 9.27397 10.6643C9.38917 10.8507 9.48953 10.8799 9.48953 10.8799C9.48953 10.8799 9.55749 10.707 9.54201 10.4488C9.59774 10.3096 9.62863 10.1618 9.63327 10.0119L9.53228 9.26825L9.09157 8.71094L8.52069 9.02748L8.47794 9.13782V9.13846Z" fill="#E3C571"/>
<path fill-rule="evenodd" clip-rule="evenodd" d="M9.01953 9.02782C9.01953 9.02782 9.06228 9.12881 9.24097 9.13841C9.22152 9.18117 9.22152 9.18705 9.2274 9.21995C9.23124 9.25297 9.237 9.30149 9.237 9.30149C9.25669 9.29199 9.27448 9.27898 9.28948 9.26309C9.29921 9.30584 9.27975 9.37368 9.28948 9.42232C9.29549 9.4519 9.30525 9.48059 9.31854 9.50769C9.3214 9.50106 9.32464 9.49461 9.32827 9.48837C9.33211 9.47864 9.36667 9.5932 9.46228 9.68037C9.46217 9.66696 9.46547 9.65374 9.47188 9.64197C9.4733 9.66632 9.48135 9.68983 9.49518 9.70993C9.48802 9.70653 9.48148 9.70195 9.47585 9.69637C9.47585 9.69637 9.48545 10.0036 9.53793 10.1624C9.5467 10.1521 9.55449 10.1411 9.56123 10.1294C9.56123 10.1198 9.55739 10.2149 9.54766 10.283C9.53409 10.351 9.54382 10.4461 9.54382 10.4461C9.57884 10.4185 9.61731 10.3957 9.65825 10.3781C9.71649 10.3547 9.81185 10.2829 9.86996 10.1236C9.90362 10.0334 9.92961 9.94056 9.94766 9.846C9.96647 9.88213 9.97943 9.92101 9.98606 9.9612C9.99003 10.0097 10.0813 9.98449 10.0813 9.98449L10.1007 9.77278L10.2159 9.29317L10.3208 8.99608L10.8256 8.20977L11.7377 7.50731L12.5339 7.68984L13.2056 6.7772L12.0484 6.08203L10.9532 6.19659L9.95931 7.57323L9.16327 8.82187L9.01953 9.02769V9.02782Z" fill="#D8B65B"/>
<path fill-rule="evenodd" clip-rule="evenodd" d="M14.7553 7.03689C14.7553 7.03689 14.6873 7.05046 14.4912 7.15209C14.2951 7.25372 14.1592 7.28598 14.0834 7.43548C14.0076 7.58499 14.0019 7.70351 14.0019 7.70351C14.0019 7.70351 14.1359 7.64527 14.2136 7.62582C14.2951 7.60649 14.3864 7.61225 14.3767 7.64527C14.3673 7.66793 14.3544 7.6889 14.3383 7.70735C14.3383 7.70735 14.4919 7.70351 14.4878 7.77929C14.4837 7.85506 14.4587 7.93852 14.4297 7.97538C14.4006 8.01225 14.2801 8.07062 14.2666 8.11529C14.2336 8.20655 14.2802 8.21039 14.2626 8.28412C14.249 8.35606 14.185 8.49583 13.9753 8.74044C13.7597 8.98518 13.6681 9.15798 13.6681 9.15798C13.6681 9.15798 13.5632 8.96188 13.5088 8.79292C13.4704 8.81225 13.2642 8.92681 13.2642 8.92681L12.7872 7.26281L12.7968 7.15209C12.7968 7.15209 12.8395 7.09974 12.8492 7.00258C12.7774 6.97929 12.7677 6.95983 12.6725 6.8687C12.5772 6.77756 12.4997 6.66671 12.3406 6.59094C12.3173 6.54818 12.2881 6.49007 12.1716 6.46665C12.0551 6.44322 11.9852 6.42402 11.9852 6.42402C11.9852 6.42402 12.0473 6.4006 12.0765 6.35209C12.0046 6.36182 11.9465 6.38511 11.7891 6.38127C11.6299 6.3773 11.6124 6.37154 11.5251 6.38511C11.4378 6.39868 11.3331 6.43759 11.294 6.30358C11.2513 6.27055 11.16 6.29974 11.0823 6.41417C11.0046 6.5286 10.9775 6.61999 10.828 6.66466C10.8175 6.73057 10.7944 6.79385 10.76 6.85103C10.7173 6.92297 10.6493 6.99478 10.558 7.10153C10.4143 7.27049 10.4376 7.54812 10.2085 7.75983C9.97935 7.97154 10.2469 7.17334 10.2469 7.17334L10.6158 6.29014L11.6663 5.26294L13.2974 5.15234L13.4566 5.99714L14.2528 6.27094L14.7557 7.03791L14.7553 7.03689Z" fill="#D3AE4D"/>
<path fill-rule="evenodd" clip-rule="evenodd" d="M15.0134 7.22409L14.3279 6.2358L13.8483 5.86678C13.8483 5.86678 13.5066 5.23779 13.4833 5.21833C13.4638 5.20476 13.1415 5.16982 12.9357 5.15625L12.9741 5.25135C13.019 5.26592 13.0589 5.29285 13.0893 5.32905C13.1805 5.43388 13.2388 5.6319 13.031 5.84361C13.1126 5.87267 13.1462 5.88201 13.2174 5.87267C13.1456 5.95817 12.9825 6.1407 12.9728 6.29993C12.9631 6.42998 13.0446 6.46876 13.0446 6.46876C13.0446 6.46876 12.9203 6.61251 12.9146 6.85276C12.9733 6.78658 13.0375 6.72552 13.1066 6.67024C13.2503 6.55504 13.4483 6.4255 13.5823 6.34396C13.5805 6.37818 13.5851 6.41243 13.5959 6.44496C13.5959 6.44496 13.8463 6.23913 14.0567 6.3304C14.1518 6.37315 14.109 6.50716 14.109 6.50716C14.109 6.50716 14.2392 6.45865 14.3305 6.54992C14.4218 6.64118 14.5518 6.87606 14.6178 6.96745C14.6469 7.0102 14.7227 7.09174 14.8002 7.21782C14.9062 7.39457 14.9947 7.58122 15.0644 7.77513C15.0683 7.69744 15.0839 7.58876 15.218 7.58876L15.0141 7.22371L15.0134 7.22409Z" fill="#CAA13E"/>
<path fill-rule="evenodd" clip-rule="evenodd" d="M4.73787 10.0324C4.73787 10.0324 4.68936 9.91196 4.73787 9.67708C4.78638 9.4422 4.86216 9.33148 4.88737 8.98588C4.91259 8.64028 5.13787 8.20917 5.13787 8.20917L5.7611 7.92578L6.20193 8.0461L6.33198 8.63644L5.77467 8.94364C5.77467 8.94364 5.74561 9.07369 5.5883 9.17852C5.43099 9.28335 5.21352 9.36489 5.16117 9.47177C5.1298 9.53736 5.10696 9.60671 5.0932 9.6781C5.0932 9.6781 4.93397 9.64508 4.83886 9.74991C4.73787 9.85679 4.74171 9.9519 4.73787 10.0334V10.0324Z" fill="#F4EFC8"/>
<path fill-rule="evenodd" clip-rule="evenodd" d="M5.99612 9.87191C5.99612 9.87191 5.94364 9.90494 5.90485 9.98711C5.86645 9.92503 5.77468 9.55601 5.77084 9.22398C5.767 8.89194 5.74716 8.80964 5.82396 8.69521C5.90076 8.58078 6.20194 8.4602 6.15919 8.25412C6.11644 8.05802 5.93775 7.97649 5.71836 8.03281C5.56476 8.07121 5.45045 8.39786 5.29122 8.56094C5.17077 8.68522 5.02716 8.66577 4.98837 8.73374C4.93589 8.825 4.98441 8.91626 4.96892 8.9745C4.96495 8.99396 4.91644 9.09879 4.82901 9.225C4.65237 9.47934 4.35337 9.83863 4.31445 10.1609C4.32802 9.97841 4.31842 9.97457 4.36693 9.77258L4.33775 9.72407L4.52975 9.09495L4.65404 8.57655L4.9318 7.70845L5.42101 6.82116L5.89679 6.28906L6.39189 6.32209L6.45013 7.06577L6.73365 8.46199L7.32975 9.19594L6.37436 9.83889L5.99573 9.87191H5.99612Z" fill="#EBCC73"/>
<path fill-rule="evenodd" clip-rule="evenodd" d="M6.29314 10.1386C6.29314 10.1386 6.2116 10.158 6.18242 10.1425C6.15323 10.1271 6.12431 10.1095 6.13391 10.0901C6.14351 10.0706 6.19599 10.0377 6.19599 10.0221C6.1971 10.008 6.19264 9.99398 6.18358 9.9831C6.17452 9.97222 6.16156 9.96531 6.14747 9.96385C6.1028 9.95809 6.08923 9.98715 6.08923 9.98715C6.08923 9.98715 6.04648 9.95425 6.01167 9.94875C6.03226 9.94621 6.05299 9.94488 6.07374 9.94478C6.0201 9.92044 5.96317 9.9041 5.90479 9.89627C5.9533 9.86721 6.04853 9.78107 6.11061 9.78107C6.17269 9.78107 6.2116 9.77147 6.20187 9.73844C6.19215 9.70542 6.14363 9.65691 6.09128 9.63745C6.11061 9.61415 6.1243 9.57921 6.07771 9.48385C6.02907 9.38875 6.04853 9.32462 6.06414 9.30145C6.07771 9.27227 6.12623 9.21991 6.14952 9.18689C6.17282 9.15387 6.19227 9.10919 6.23106 9.0859C6.25051 9.07233 6.31259 9.0475 6.3748 9.02382C6.44277 9.00052 6.49909 8.97134 6.53787 9.00052C6.58063 9.02958 6.56117 9.06849 6.56117 9.06849C6.56117 9.06849 6.69518 9.01985 6.8155 9.08206C6.93595 9.14017 7.2292 9.17716 7.2292 9.17716L7.33429 9.38951L6.63912 9.98561L6.35176 10.1294L6.29352 10.139L6.29314 10.1386Z" fill="#E5C66B"/>
<path fill-rule="evenodd" clip-rule="evenodd" d="M7.25806 9.16555C7.25806 9.16555 7.04251 9.3093 6.994 9.36165C7.02305 9.36562 7.07156 9.38507 7.05211 9.41413C7.02881 9.44318 6.88904 9.54418 6.81134 9.63941C6.7298 9.73451 6.65211 9.85496 6.62497 9.9132C6.59592 9.96555 6.37448 10.119 6.29883 10.1384C6.45806 10.1384 6.77844 9.94225 6.89876 9.94225C6.89492 10.0005 6.93179 10.0665 6.99976 10.0723C7.06772 10.0781 7.26382 10.1151 7.52788 9.95198C7.79195 9.79275 7.70465 9.67422 7.81524 9.59665C8.02696 9.45675 8.11233 9.33246 8.22881 9.25489C8.34529 9.17733 8.40558 9.15966 8.40558 9.15966C8.40558 9.15966 8.40942 9.10142 8.44398 9.10731C8.45335 9.10848 8.46222 9.11217 8.46966 9.11799C8.4771 9.1238 8.48282 9.13153 8.48622 9.14034C8.48622 9.14034 8.6882 8.99659 8.94702 8.95781C8.94099 8.9551 8.93616 8.95027 8.93345 8.94424C8.93345 8.94424 8.95278 8.93451 8.95675 8.92478C8.95675 8.92478 8.97032 8.90533 8.98004 8.91506C8.98977 8.92478 9.00334 8.99659 9.0228 9.02578C9.06555 9.00632 9.14708 8.82379 9.14708 8.82379L9.34382 8.26264V7.75L9.19022 7.77918L8.03822 8.2684L7.33908 8.99275L7.25742 9.16555H7.25806Z" fill="#E6BD62"/>
<path fill-rule="evenodd" clip-rule="evenodd" d="M10.5749 6.64666C10.6372 6.63159 10.697 6.60735 10.7522 6.57472C10.7289 6.63693 10.7289 6.7049 10.6279 6.85248C10.5269 7.00007 10.5231 7.02144 10.4415 7.17479C10.36 7.33402 10.3503 7.56314 10.2726 7.664C10.3074 7.64709 10.3447 7.63598 10.3832 7.63111C10.3832 7.63111 10.3056 7.69907 10.2726 7.77088C10.2395 7.84269 10.1813 7.99219 10.0377 8.08358C9.89407 8.17498 9.71141 8.23309 9.51531 8.44864C9.31909 8.66022 9.11723 8.92826 9.01611 9.02464C9.06859 8.93338 9.1404 8.75085 9.15986 8.63053C9.17931 8.51021 9.15589 8.36634 9.18891 8.20723C9.22194 8.04813 9.22194 7.93344 9.38091 7.65568C9.53989 7.37792 9.81202 6.41293 9.81202 6.41293L10.3984 6.22656L10.5752 6.64602L10.5749 6.64666Z" fill="#B6933F"/>
<path fill-rule="evenodd" clip-rule="evenodd" d="M10.1516 6.29516C10.1516 6.29516 9.97496 6.54949 9.92645 6.77477C9.87794 7.00005 9.92248 6.9806 9.89343 7.09132C9.87602 7.15882 9.87602 7.22964 9.89343 7.29714C9.95459 7.19858 10.0384 7.116 10.1378 7.05625C10.3042 6.95538 10.4408 6.88345 10.5218 6.79807C10.6033 6.70681 10.6713 6.5573 10.8479 6.44274C10.7761 6.43301 10.6751 6.39999 10.6559 6.40434C10.7279 6.32281 10.9433 6.19852 11.1608 6.04901C11.3763 5.89541 11.3627 5.83346 11.7123 5.68012C11.5971 5.69957 11.5433 5.67039 11.4481 5.68012C11.4865 5.59858 11.6209 5.55967 11.7553 5.42578C11.8897 5.29189 11.6699 5.09375 11.6699 5.09375L10.6459 5.71314L10.1506 6.29567L10.1516 6.29516Z" fill="#C49937"/>
<path fill-rule="evenodd" clip-rule="evenodd" d="M7.37256 5.83076L7.39585 5.64439L7.6891 5.1745L7.99592 4.34928V3.22109L7.97262 2.56868L8.02113 2.14141L8.058 2.00561L8.09691 1.95312L8.34728 2.08317L8.69301 2.55306L8.72603 3.45994L8.39003 4.89098L7.4308 5.93764L7.37256 5.83076Z" fill="#DFC068"/>
<path fill-rule="evenodd" clip-rule="evenodd" d="M8.13572 1.90325C8.13572 1.90325 7.98212 1.90722 7.94936 2.54607C7.91659 3.18491 7.90072 3.52079 7.87742 3.83733C7.85412 4.15387 7.79985 4.346 7.77259 4.5325C7.74532 4.71899 7.72984 4.9732 7.64254 5.12859C7.60414 5.2004 7.52209 5.42568 7.32984 5.59464C7.11428 5.78101 6.79224 5.91119 6.74347 5.92092C6.65796 5.94024 6.22494 5.98299 6.0483 6.08015C5.98622 6.11317 5.87934 6.15195 5.76094 6.26267C5.52593 6.47426 5.21336 6.85288 4.98808 7.3092C4.64248 7.9908 4.29688 9.91503 4.29688 9.91503L4.37457 9.78498C4.37457 9.78498 4.3843 9.61218 4.5571 9.3092C4.72606 9.00635 4.67755 8.66652 4.91243 8.08591C5.00369 7.8646 5.11825 7.57723 5.25803 7.3325C5.47947 6.93442 5.74737 6.59266 6.01732 6.40629C6.45803 6.10344 6.94353 6.03739 6.94353 6.03739L7.4659 5.69179C7.4659 5.69179 7.55716 5.51515 7.67761 5.31317C7.84644 5.02978 8.06161 4.71323 8.10859 4.25307C8.18052 3.57147 8.0076 3.12488 8.01732 2.72104C8.02705 2.3172 8.03089 2.02011 8.11256 1.94818C8.19422 1.87624 8.13585 1.90351 8.13585 1.90351L8.13572 1.90325Z" fill="#A88F33"/>
<path fill-rule="evenodd" clip-rule="evenodd" d="M8.136 4.94945C8.136 4.94945 8.3664 4.38241 8.47187 3.8795C8.49132 3.77851 8.53011 3.67765 8.53984 3.59611C8.58835 3.12033 8.60192 2.92424 8.53984 2.66401C8.49132 2.47202 8.30496 2.29896 8.2078 2.16482C8.1127 2.02491 8.06803 1.97282 8.08748 1.94338C8.10694 1.91394 8.18259 1.86581 8.25632 1.87157C8.33469 1.87384 8.41178 1.89203 8.4829 1.92504C8.55402 1.95805 8.61768 2.00518 8.67001 2.06357C8.81952 2.23637 8.93792 2.82286 8.93792 2.82286L9.06246 3.59675L9.379 4.57147L8.13625 4.95022L8.136 4.94945Z" fill="#C99E3D"/>
<path fill-rule="evenodd" clip-rule="evenodd" d="M10.3009 4.36107C10.3009 4.36107 10.2581 4.38039 10.1806 4.36107C10.1839 4.39276 10.1784 4.42476 10.1647 4.45353C10.151 4.48231 10.1296 4.50674 10.1029 4.52414C10.0213 4.49111 9.25808 4.55716 9.25808 4.55716C9.25808 4.55716 8.90275 4.49495 8.79203 4.02507C8.71446 3.71236 8.85027 3.28139 8.8056 2.99787C8.73763 2.58033 8.64253 2.49867 8.6328 2.36875C8.62307 2.23883 8.61334 2.20567 8.61334 2.12414C8.57059 2.11441 8.54537 2.10084 8.50275 2.10084C8.49302 2.06244 8.51235 2.02891 8.46973 1.96094C8.49302 1.97067 8.65225 1.99012 8.83862 2.16676C8.99222 2.31051 8.99222 2.36286 9.01539 2.39204C9.04445 2.4211 9.27945 2.62244 9.38045 2.82315C9.48144 3.02385 9.67753 3.66385 9.72221 3.76868C9.73577 3.81143 9.76496 3.85418 9.83741 3.95121C9.95005 4.09111 10.115 4.32241 10.3014 4.36081L10.3009 4.36107Z" fill="#B58634"/>
<path fill-rule="evenodd" clip-rule="evenodd" d="M9.04297 2.39844C9.1606 2.58845 9.26628 2.78561 9.35938 2.98877C9.47394 3.24695 9.54191 3.45866 9.68566 3.63146C9.60796 3.40631 9.4701 2.96356 9.38857 2.80625C9.2973 2.63985 9.11094 2.46065 9.04297 2.39857V2.39844Z" fill="#A88F33"/>
<path fill-rule="evenodd" clip-rule="evenodd" d="M7.72244 5.59388C7.72244 5.59388 7.52634 5.64239 7.16128 5.83465C7.04084 5.89673 6.9264 5.94908 6.81568 5.99772C6.52807 6.12777 6.21959 6.24796 5.97485 6.31426C5.99431 6.33756 6.00391 6.34716 6.00391 6.34716C6.00391 6.34716 6.00391 6.44239 6.05639 6.49666C6.02733 6.52585 5.63885 6.78991 5.75354 7.67336C5.83111 7.64431 5.92237 7.6054 5.93594 7.6054C5.95936 7.60936 5.96512 7.67336 5.99418 7.67336C6.02324 7.67336 6.11847 7.63496 6.21946 7.5044C6.21562 7.55688 6.15738 8.08501 6.46996 8.44034C6.5282 8.37237 6.67578 8.14709 6.67578 8.14709L6.67962 8.07529C6.67962 8.07529 6.69319 7.82479 6.77485 7.59567C6.85652 7.36655 7.01562 7.19759 7.01562 7.19759L7.84647 6.01116L7.72218 5.59375L7.72244 5.59388Z" fill="#E6C367"/>
<path fill-rule="evenodd" clip-rule="evenodd" d="M6.94574 7.33376C6.90771 7.36065 6.8658 7.38159 6.82145 7.39584C6.80788 7.34732 6.78843 7.18028 6.90299 7.01721C7.037 6.82099 7.33013 6.56665 7.41166 6.36441C7.46414 6.23424 7.44084 5.90809 7.90689 5.49056C8.37294 5.07302 8.55534 4.92941 8.55534 4.92941L9.30875 4.55078L10.235 4.91584L9.77416 6.71936L9.41691 7.56416L7.99611 7.29625L6.94561 7.33376H6.94574Z" fill="#DCBA5A"/>
<path fill-rule="evenodd" clip-rule="evenodd" d="M7.48779 6.84588L7.66456 6.62457V6.46726C7.66456 6.46726 7.86066 6.41478 8.07224 6.19923C8.28382 5.98367 8.57707 5.57011 8.83538 5.59481C9.09368 5.62399 9.1189 6.15596 9.12862 6.30559C9.13835 6.45523 9.17138 6.79481 9.22373 6.97747C9.28197 7.15999 8.59461 7.8512 8.59461 7.8512L8.12779 8.20704L7.48779 6.84588Z" fill="#E9CE77"/>
<path fill-rule="evenodd" clip-rule="evenodd" d="M8.03516 8.68985C8.03516 8.68985 8.1789 8.46457 8.07356 8.41606C8.13564 8.27628 8.2502 8.1287 8.2502 8.1287C8.2502 8.1287 8.33173 7.92684 8.5958 7.67826C8.85986 7.42969 9.02306 7.26457 9.06581 7.09766C9.09218 6.98888 9.10651 6.87753 9.10857 6.76562C9.13714 6.78891 9.16768 6.80968 9.19983 6.8277C9.24258 6.84716 9.44444 7.01407 9.41538 7.35007C9.38633 7.68607 9.26178 7.82585 9.26178 7.82585C9.26178 7.82585 9.14146 7.94617 9.05608 8.00838C8.96469 8.07046 8.9318 8.14227 8.77832 8.14815C8.7941 8.13561 8.81183 8.12575 8.83081 8.11897C8.83081 8.11897 8.67157 8.09964 8.58607 8.17721C8.50056 8.25478 8.3188 8.49375 8.22767 8.56569C8.1364 8.62393 8.03567 8.68998 8.03567 8.68998L8.03516 8.68985Z" fill="#CDAE50"/>
<path fill-rule="evenodd" clip-rule="evenodd" d="M14.4914 4.91137C14.262 4.82776 14.0209 4.78059 13.7769 4.7716C13.3691 4.75803 12.773 4.78132 12.1886 4.78516C11.5594 4.789 10.9886 4.56961 10.1964 4.53083C10.0663 4.45313 9.73557 4.11329 8.70312 4.83368C8.7652 4.82984 9.45269 4.67444 9.69141 4.97358C9.93218 5.27067 9.86421 5.7755 9.83132 5.89582C9.76911 6.16385 9.56712 6.55412 9.48572 6.82792C9.40431 7.10171 9.42351 7.24558 9.36527 7.43758C9.30703 7.62958 9.1789 7.72494 9.25455 7.94625C9.35554 7.88417 9.40815 7.88417 9.57685 7.50555C9.74556 7.12692 9.71087 6.85697 9.99055 6.53659C10.2643 6.21428 10.7201 5.77345 10.8935 5.66273C11.0668 5.55201 12.4429 4.83752 13.8838 5.51912C14.2313 5.48225 14.4915 4.91124 14.4915 4.91124L14.4914 4.91137Z" fill="#D2A83E"/>
<path fill-rule="evenodd" clip-rule="evenodd" d="M9.28345 4.64349C9.28205 4.6289 9.27883 4.61453 9.27385 4.60074C9.26035 4.57236 9.24266 4.54616 9.22137 4.52304C9.22137 4.52304 8.87961 4.46096 8.70681 4.48029C8.40383 4.51332 8.13004 4.8881 8.00191 5.08036C7.87379 5.27261 7.71455 5.56957 7.54176 5.72304C7.54365 5.70809 7.5402 5.69295 7.53203 5.68029C7.53203 5.68029 7.54176 5.69386 7.52243 5.71332C7.5031 5.73277 7.50297 5.74237 7.5127 5.75172L7.54188 5.78077C7.55148 5.78077 7.81951 5.66032 8.18457 5.31997C8.57292 4.96464 8.87001 4.78237 9.0254 4.71991C9.10826 4.68458 9.19488 4.65882 9.28358 4.64311L9.28345 4.64349Z" fill="#C29637"/>
<path fill-rule="evenodd" clip-rule="evenodd" d="M15.9126 3.1875C15.9126 3.1875 15.8503 3.26507 15.7726 3.35057C15.5998 3.5331 15.3746 3.7388 15.1823 3.95051C14.9999 4.15249 14.7941 4.3098 14.5629 4.57387C14.3317 4.83793 14.0637 5.13105 13.9959 5.21656C13.9338 5.30206 13.8853 5.44184 13.8853 5.51364C13.8523 5.49035 13.8135 5.46513 13.8135 5.46513C13.8298 5.4956 13.8494 5.52426 13.8717 5.55064C13.9202 5.6186 13.9959 5.70424 14.0348 5.75646C14.0826 5.82293 14.1168 5.89812 14.1357 5.97777C14.1589 5.98161 14.3085 6.0108 14.495 5.70398C14.6814 5.39716 14.9259 5.06129 14.9259 5.06129L15.3143 4.48452L15.559 3.99531L15.8662 3.44772L15.9129 3.1875H15.9126Z" fill="#AC8132"/>
<path fill-rule="evenodd" clip-rule="evenodd" d="M16.3107 2.79688C16.3107 2.79688 16.0757 2.98888 15.9844 3.10408C15.8932 3.21928 15.6772 3.52161 15.6772 3.52161L15.7549 3.51188L16.1492 3.16244L16.3028 2.88865L16.3106 2.79739L16.3107 2.79688Z" fill="#A88F33"/>
<path fill-rule="evenodd" clip-rule="evenodd" d="M16.2388 18.2276C16.2388 18.2276 16.235 18.0683 16.3243 17.9732C16.4156 17.878 16.6466 17.7382 16.8719 17.214C17.0972 16.6897 17.1223 16.5713 17.1223 16.5713C17.1223 16.5713 16.7184 16.9169 16.4695 16.9984C16.5277 16.8779 16.5607 16.7926 16.5899 16.7304C16.5569 16.7013 16.4171 16.6683 16.4036 16.6528C16.4811 16.5751 16.5239 16.3848 16.6812 16.2586C16.8832 16.105 17.2521 15.841 17.5388 15.6058C17.8255 15.3705 18.3892 14.8233 18.4612 14.6641C18.5039 14.7261 18.5135 14.7649 18.5135 14.7649C18.5135 14.7649 18.2301 15.134 18.0825 15.3688C17.9524 15.5708 17.9621 15.6854 17.9621 15.6854L18.2301 15.5702C18.2301 15.5702 18.3077 15.8575 17.9563 16.2945C18.1099 16.2363 18.1719 16.2712 18.2592 16.2226C18.1154 16.314 17.9174 16.4383 17.731 16.7799C17.5485 17.1217 17.2999 17.5197 16.8806 17.7682C16.4728 18.0303 16.2378 18.2264 16.2378 18.2264L16.2388 18.2276Z" fill="#A67A2E"/>
<path fill-rule="evenodd" clip-rule="evenodd" d="M15.1862 5.11315C15.1862 5.11315 15.027 5.44505 15.0037 5.70335C14.9998 5.76556 14.9842 5.81407 14.9842 5.88588C14.9804 6.11692 14.9978 6.37523 14.9458 6.49555C14.9264 6.44703 14.9166 6.41401 14.8972 6.39468C14.8681 6.47622 14.8156 6.73055 14.7729 6.82566C14.7535 6.76358 14.7108 6.54803 14.7148 6.29369C14.7187 6.03935 14.7244 5.99071 14.7244 5.93836C14.7148 6.01593 14.6623 6.12089 14.6428 6.18297C14.6138 6.13062 14.5807 6.06265 14.5418 6.00633C14.5185 6.04473 14.4895 6.10143 14.4643 6.13062C14.4603 6.10732 14.4507 6.04511 14.4448 5.95782C14.441 5.85683 14.4351 5.72678 14.441 5.69951C14.4506 5.64716 14.5322 5.44134 14.705 5.25292C14.9109 5.02764 15.1226 4.59475 15.1847 4.46073C15.2467 4.32672 15.5108 3.76953 15.5108 3.76953H15.7128L15.4195 4.43744C15.4195 4.43744 15.2429 4.80249 15.1516 4.93664C15.0604 5.07078 14.8681 5.45516 14.7826 5.60467C14.8447 5.52313 14.8972 5.48038 14.9594 5.40268C15.0195 5.34828 15.1864 5.1134 15.1864 5.1134L15.1862 5.11315Z" fill="#8C6228"/>
<path fill-rule="evenodd" clip-rule="evenodd" d="M16.3146 2.76953C16.2816 2.87107 16.2295 2.96535 16.161 3.04729C16.0406 3.19104 15.7822 3.38316 15.6562 3.53651C15.541 3.68601 15.3106 4.09382 15.4153 4.57728C15.4537 4.47244 15.526 4.2647 15.7182 4.02969C15.9105 3.79468 16.1163 3.52486 16.2175 3.3152C16.3183 3.10348 16.3319 2.93657 16.3319 2.93657L16.3703 2.88806L16.347 2.77734L16.314 2.76953H16.3146Z" fill="#CBA94C"/>
<path fill-rule="evenodd" clip-rule="evenodd" d="M20.2465 15.6471C20.2465 15.6471 20.1688 15.4356 20.1455 15.2433C20.1222 15.051 20.1839 15.0129 20.1125 14.7929C20.0697 14.6589 19.9922 14.6777 19.9727 14.6588C19.9533 14.64 19.9397 14.4375 19.9435 14.3268C19.9474 14.2161 19.9397 14.0725 19.9202 14.0103C19.8912 13.987 19.8717 13.9675 19.829 13.8239C19.7805 13.6802 19.7572 13.6084 19.7339 13.5657C19.7106 13.5231 19.6425 13.4842 19.6425 13.4414C19.6425 13.3559 19.7202 13.3114 19.7202 13.2878C19.7163 13.2393 19.6581 13.2782 19.6425 13.2645C19.6231 13.2413 19.6911 13.1015 19.6659 13.082C19.6562 13.0724 19.5882 13.154 19.5707 13.1307C19.5512 13.1072 19.5279 12.8762 19.493 12.7228C19.4601 12.5733 19.425 12.4647 19.4212 12.42C19.4173 12.3772 19.1531 11.6238 19.0891 11.4413C19.0375 11.2871 18.9941 11.1302 18.9591 10.9714C18.9396 10.8802 18.9261 10.6937 18.9163 10.7131C18.9066 10.7326 18.9125 10.8277 18.8969 10.8238C18.8833 10.8199 18.8348 10.488 18.8193 10.4355C18.8057 10.383 18.7241 10.2051 18.7041 10.0763C18.6841 9.94755 18.642 9.6063 18.6128 9.37526C18.5837 9.14422 18.5701 9.04912 18.5701 8.99126C18.5748 8.84976 18.567 8.7081 18.5468 8.56797C18.5084 8.32323 18.4316 8.02614 18.3643 7.85347C18.2342 7.5272 17.8885 6.69226 17.8267 6.48451C17.8267 6.43203 17.8946 6.46122 17.8946 6.46122C17.8946 6.46122 18.0635 6.88451 18.1877 7.21066C18.3082 7.53693 18.4228 7.82429 18.4519 7.85347C18.4752 7.88253 18.6578 8.20291 18.7393 8.7272C18.8208 9.25149 18.8499 9.73495 18.8985 10.0572C18.9218 10.2108 18.9413 10.3738 18.9898 10.5369C19.0422 10.7136 19.1237 10.8962 19.2306 11.1757C19.3218 11.4107 19.3898 11.6068 19.4267 11.7758C19.4694 11.9913 19.4694 12.1544 19.4946 12.2613C19.5181 12.3525 19.5529 12.5349 19.6345 12.7989C19.7162 13.0628 19.8364 13.4028 19.9179 13.6144C20.0773 14.0377 20.1483 14.3911 20.1724 14.5795C20.1936 14.7737 20.2656 15.4455 20.2461 15.6474L20.2465 15.6471Z" fill="#A88F33"/>
<path fill-rule="evenodd" clip-rule="evenodd" d="M16.3243 2.74576L16.3146 2.76906C16.3146 2.76906 16.3437 2.77879 16.3379 2.8177C16.3383 2.87094 16.3351 2.92414 16.3282 2.97693C16.3186 3.0449 16.2991 3.09725 16.2953 3.14C16.2953 3.23127 16.3089 3.3361 16.1801 3.59632C16.1417 3.66813 16.118 3.73021 16.0985 3.77296C16.05 3.87779 16.0403 3.89341 15.9976 3.94192C16.0655 3.90352 16.3103 3.74992 16.4344 3.77296C16.349 3.82147 16.2189 3.91671 16.1373 4.04099C16.1568 4.04483 16.2383 4.06045 16.3677 4.04099C16.5833 4.00797 16.8241 3.93027 17.0356 3.94576C17.2668 3.95933 17.1755 3.66813 17.1755 3.66813L16.9088 3.08176L16.404 2.72656L16.3243 2.74589V2.74576Z" fill="#BE9C44"/>
<path fill-rule="evenodd" clip-rule="evenodd" d="M17.6407 7.13628C17.6407 7.13628 17.4155 6.911 17.3242 6.13788C17.2329 5.36117 17.2524 4.21788 17.2524 4.21788L17.0699 3.77129C17.0699 3.77129 17.0315 3.4742 16.9358 3.36361C16.8402 3.25301 16.6527 3.06652 16.5669 2.97525C16.4812 2.88399 16.3844 2.7597 16.3262 2.74025C16.3552 2.69173 16.4854 2.41794 16.9843 2.4141C17.4833 2.41026 17.6371 2.68789 17.6892 2.78889C17.7413 2.88988 17.9766 3.32649 18.0639 4.15849C18.1454 4.98946 18.1494 5.05167 18.1358 5.33903C18.1261 5.49826 18.0736 5.86716 17.9822 6.26127C17.8988 6.59535 17.8075 6.96821 17.6405 7.13704L17.6407 7.13628Z" fill="#A17C34"/>
<path fill-rule="evenodd" clip-rule="evenodd" d="M16.9344 7.79723C17.0095 7.80262 17.0845 7.7857 17.15 7.74859C17.2218 7.74475 17.482 7.77777 17.6819 7.52344C17.6955 7.58155 17.7306 7.73899 17.6392 7.87877C17.6878 7.83013 17.7596 7.8108 17.7694 7.79723C17.7732 7.86904 17.8412 8.09035 17.5538 8.6282C17.6314 8.54283 17.7226 8.54667 17.8042 8.53694C17.8081 8.63793 17.8624 8.97764 17.7188 9.1603C17.6237 9.28459 17.4683 9.24568 17.4683 9.24568C17.4706 9.21855 17.4706 9.19127 17.4683 9.16414C17.4645 9.11166 17.445 9.05931 17.4587 9.02436C17.3836 8.99008 17.3152 8.94271 17.2567 8.88446C17.0878 8.72523 16.8684 8.45349 16.8529 8.2515C16.8334 8.02622 17.0354 7.97771 17.0354 7.97771C17.0185 7.96256 17.0041 7.94486 16.9927 7.92523C16.9829 7.89233 16.9732 7.83985 16.9344 7.79723Z" fill="#8C6228"/>
<path fill-rule="evenodd" clip-rule="evenodd" d="M15.4366 5.35635C15.4366 5.35635 15.4269 5.34278 15.3745 5.40486C15.3842 5.34278 15.394 5.28441 15.3978 5.22809C15.4226 5.17597 15.4547 5.12761 15.493 5.08448C15.4639 5.14259 15.4444 5.19507 15.4444 5.19507C15.4444 5.19507 15.5163 5.06105 15.6212 4.97952C15.693 4.92128 15.7842 4.89414 15.823 4.83974C15.8658 4.7815 15.856 4.77177 15.8658 4.76204C15.8658 4.76204 15.961 4.69996 16.1067 4.51731C16.126 4.49401 16.1552 4.4688 16.1746 4.4455C16.2075 4.43193 16.2852 4.39699 16.3765 4.35027C16.4717 4.29792 16.5785 4.22611 16.6445 4.19667C16.7746 4.13843 16.9126 4.14432 16.9766 4.05292C17.0251 4.03936 17.0774 3.89369 17.0678 3.76953C17.1396 3.79859 17.5085 4.02771 17.6349 4.5287C17.7261 4.88403 17.5629 5.43161 17.495 5.6958C17.427 5.96 17.4174 6.15596 17.3222 6.27628C17.2017 6.43564 16.8135 6.66028 16.7183 6.77152C16.6367 6.86278 16.3921 7.09382 16.4017 7.26073C16.4114 7.38502 16.5648 7.45273 16.5979 7.47628C16.6311 7.49984 16.6308 7.52876 16.693 7.51468C16.7552 7.5006 16.7784 7.47193 16.8038 7.47193C16.8328 7.47577 16.8328 7.48166 16.8464 7.48166C16.8562 7.48136 16.866 7.48003 16.8756 7.47769C16.8756 7.47769 16.8658 7.65446 16.4523 7.70809C16.4231 7.71206 16.394 7.72166 16.357 7.72755C16.4057 7.70425 16.4347 7.70425 16.4872 7.63244C16.429 7.62272 16.2619 7.61299 16.2192 7.59942C16.2328 7.57612 16.2774 7.51392 16.3143 7.48486C16.3473 7.4558 16.3104 7.44646 16.2814 7.46156C16.2313 7.49558 16.1834 7.5325 16.1376 7.57216C16.0891 7.61491 16.0464 7.67315 15.9687 7.72576C15.9454 7.64806 15.9492 7.50048 16.0406 7.39372C16.0172 7.39756 15.9725 7.46553 15.9299 7.45196C15.9222 7.38114 15.9268 7.30952 15.9435 7.24025C15.9668 7.15283 16.093 6.99948 16.093 6.99948L16.7026 5.91008L16.8327 5.08486L15.4366 5.35609V5.35635Z" fill="#92723A"/>
<path fill-rule="evenodd" clip-rule="evenodd" d="M15.4038 5.40372C15.4038 5.40372 15.3708 5.42702 15.4368 5.47169C15.4271 5.48526 15.4038 5.53377 15.3746 5.5668C15.3417 5.6052 15.3067 5.629 15.2931 5.66203C15.264 5.73 15.2407 5.77659 15.2407 5.80577C15.2407 5.83496 15.231 6.02132 15.1495 6.14164C15.1203 6.18439 15.0873 6.2562 15.064 6.30472C15.0155 6.39009 14.9727 6.45832 14.963 6.49672C14.9437 6.56468 14.9301 6.75105 14.9301 6.75105C14.9301 6.75105 14.9728 6.69857 14.9883 6.67924C14.9649 6.72776 14.9397 6.78011 14.9028 6.81902C14.9261 6.79956 14.9941 6.75105 15.1087 6.65006C15.2679 6.51617 15.5165 6.29089 15.8194 6.11246C15.728 6.14548 15.6505 6.14548 15.5884 6.15521C15.6369 6.1067 16.0738 5.59406 16.3029 5.54555C16.3168 5.52792 16.3238 5.50576 16.3223 5.48334L16.1261 5.46401L15.728 5.54939L15.6699 5.24219L15.4038 5.40334V5.40372Z" fill="#B18E3E"/>
<path fill-rule="evenodd" clip-rule="evenodd" d="M16.0368 7.15106C16.0368 7.15106 15.9843 7.20341 15.9358 7.33358C15.8985 7.29458 15.8665 7.25081 15.8406 7.20341C15.7688 7.08309 15.6582 6.92962 15.3999 7.01704C15.3961 6.9355 15.3902 6.89275 15.3999 6.83451C15.4426 6.82491 15.5727 6.72008 15.7027 6.56661C15.7941 6.46178 15.8795 6.34133 15.9378 6.18798C15.9762 6.1588 16.0426 6.11029 16.1298 6.05397C16.254 5.96859 16.4035 5.85198 16.4268 5.72194C16.3686 5.74523 16.2443 5.80347 16.0578 5.79387C16.1298 5.76085 16.2403 5.7259 16.2268 5.58216C16.256 5.5627 16.2793 5.54914 16.2793 5.54914C16.2574 5.54184 16.2343 5.53854 16.2113 5.53941C16.2073 5.52584 16.2016 5.50651 16.1685 5.51611C16.1355 5.52571 16.1301 5.52584 16.1258 5.53941C16.1122 5.54338 16.0675 5.53941 16.0345 5.56283C16.0015 5.58626 15.9102 5.6637 15.8753 5.67726C15.8889 5.65397 15.9082 5.61915 15.9082 5.61915C15.9082 5.61915 15.8131 5.62875 15.7451 5.65755C15.6208 5.7003 15.4772 5.778 15.3315 5.85365C15.3451 5.83035 15.351 5.81525 15.3606 5.8109C15.3702 5.80654 15.3936 5.8013 15.3936 5.79733C15.3936 5.79336 15.384 5.75893 15.3898 5.74498C15.4333 5.65272 15.4847 5.56437 15.5434 5.48091C15.6114 5.38952 15.6249 5.25947 15.6249 5.25947L15.922 5.10997L16.757 4.91797L17.2988 4.95099L17.2308 5.32578L16.9108 5.98011L16.637 6.57621L16.3243 6.94139L16.037 7.15106H16.0368Z" fill="#543E26"/>
<path fill-rule="evenodd" clip-rule="evenodd" d="M17.3901 5.53087C17.3901 5.53087 17.0638 5.93471 16.9725 5.99692C17.0308 5.87263 17.3901 5.13279 17.5201 4.92697C17.4911 4.90367 17.4521 4.90367 17.5434 4.54297C17.4658 4.72537 17.4386 4.8206 17.3746 4.86911C17.3106 4.91762 17.3026 4.90214 17.2594 4.90214C17.2676 4.88736 17.2709 4.8704 17.269 4.85362C17.269 4.85362 16.9952 4.8206 16.8082 4.8206C16.6212 4.8206 16.251 4.92159 16.0451 5.00313C15.882 5.0711 15.7907 5.0711 15.7325 5.11372C15.6742 5.16223 15.6412 5.21471 15.612 5.22828C15.5887 5.24185 15.4781 5.27679 15.4528 5.31366C15.4295 5.35206 15.3907 5.39519 15.3907 5.40492C15.3907 5.41465 15.381 5.42834 15.4102 5.41849C15.4198 5.41465 15.4917 5.37574 15.5732 5.32722C15.6838 5.26514 15.8179 5.19334 15.915 5.15058C16.1926 5.03986 16.2801 5.05932 16.4042 5.03538C16.5343 5.01209 16.7208 4.95769 16.8449 4.95769C16.9692 4.95385 17.2042 4.95769 17.2586 4.96742C17.2353 4.98687 17.2159 5.01017 17.2256 5.0917C17.2256 5.115 17.2061 5.14022 17.1872 5.19654C17.1291 5.35577 17.0184 5.61983 16.9568 5.75385C16.8714 5.93625 16.7744 6.08972 16.7264 6.18482C16.6784 6.27993 16.5728 6.53042 16.4682 6.66444C16.3636 6.79846 16.309 6.87999 16.2762 6.90918C16.2434 6.93836 16.0082 7.11103 16.0257 7.17324C16.0685 7.15967 16.3384 7.05804 16.5344 6.83737C16.7304 6.6167 16.7694 6.48204 16.9227 6.36159C17.0761 6.24114 17.1965 6.03929 17.2683 5.87238C17.3285 5.71698 17.3149 5.66847 17.3906 5.53062L17.3901 5.53087Z" fill="#806031"/>
<path fill-rule="evenodd" clip-rule="evenodd" d="M10.3593 8.54288C10.3593 8.54288 10.3166 8.71952 10.2194 8.80695C10.1243 8.89245 9.95537 8.96618 9.93604 9.10992C9.91274 9.25354 10.105 9.32548 10.105 9.32548C10.105 9.32548 10 9.49828 10 9.62832C10 9.76234 9.9962 9.78756 10.0098 9.91568C9.99437 9.92559 9.98127 9.93869 9.97137 9.95408C9.97137 9.95408 9.98097 10.0784 10.0762 10.1559C10.1714 10.2335 10.2528 10.2802 10.3014 10.2608C10.3088 10.2766 10.3153 10.2928 10.3208 10.3094C10.3208 10.3094 10.3927 10.1269 10.4413 9.96765C10.4898 9.80458 10.5325 9.82775 10.5518 9.60836C10.5712 9.38896 10.7822 9.01226 10.7822 9.01226L10.9262 8.69034L10.6914 8.50781L10.3593 8.54276V8.54288Z" fill="#B6903C"/>
<path fill-rule="evenodd" clip-rule="evenodd" d="M10.7962 8.85938C10.7477 8.90908 10.703 8.9623 10.6624 9.01861C10.6003 9.10411 10.5518 9.18168 10.4605 9.21483C10.3693 9.24798 10.311 9.24773 10.3168 9.33912C10.3226 9.43051 10.4081 9.46917 10.4566 9.51576C10.5091 9.56427 10.5518 9.64581 10.5285 9.7372C10.5576 9.72363 10.61 9.70802 10.6586 9.60318C10.7071 9.49835 11.0464 8.8595 11.0464 8.8595H10.7962V8.85938Z" fill="#685026"/>
<path fill-rule="evenodd" clip-rule="evenodd" d="M12.1343 7.38358C12.1343 7.38358 12.1633 7.30601 12.1343 7.24969C12.1051 7.19145 11.9284 7.172 11.841 7.10595C11.7497 7.03798 11.639 6.99075 11.5478 7.02057C11.5613 6.98755 11.6157 6.91561 11.5711 6.90012C11.5283 6.88656 11.3692 6.95836 11.3264 6.99139C11.2837 7.02441 11.1871 7.06281 11.1672 7.08662C11.1474 7.11043 11.1147 7.15459 11.0953 7.13513C11.0758 7.12156 11.0662 7.08662 11.0332 7.10595C11.0002 7.12528 10.8412 7.25545 10.8119 7.33123C10.7826 7.407 10.7167 7.57596 10.5186 7.76809C10.3206 7.96022 10.2351 8.08463 10.2934 8.15644C10.3516 8.22825 10.3789 8.1759 10.3886 8.23798C10.396 8.29892 10.3928 8.3607 10.3789 8.42051C10.3551 8.52201 10.3167 8.6166 10.3691 8.63606C10.5031 8.67881 10.6333 8.59766 10.6624 8.62249C10.7206 8.67484 10.6294 8.86326 10.7672 8.90012C10.9071 8.93852 11.045 8.8671 11.045 8.8671L11.5536 8.59331L12.043 8.33513L12.2934 7.8399L12.1591 7.42633L12.1335 7.38358H12.1343Z" fill="#D4B968"/>
<path fill-rule="evenodd" clip-rule="evenodd" d="M11.6544 8.56976C11.6544 8.56976 11.5689 8.43971 11.6739 8.32503C11.7788 8.21034 11.9282 8.16195 11.9864 8.09014C11.9754 8.07647 11.9605 8.06636 11.9437 8.06109C11.9824 7.99193 12.0414 7.93631 12.1127 7.90173C12.0836 7.87267 12.0447 7.84938 12.0021 7.84938C11.9068 7.84938 11.8485 7.90762 11.7612 7.90762C11.6739 7.90762 11.6661 7.86487 11.6661 7.86487C11.6661 7.86487 11.8098 7.8513 11.7961 7.78717C11.7825 7.7192 11.7577 7.7192 11.7577 7.7192C11.7577 7.7192 12.0353 7.604 12.0839 7.54256C12.1324 7.48112 12.1266 7.40855 12.1363 7.37949C12.1692 7.37949 12.3615 7.2785 12.4392 7.32125C12.5169 7.364 12.4625 7.48048 12.4625 7.48048C12.4625 7.48048 12.6976 7.30371 12.8174 7.1304C12.9223 7.14013 12.971 7.05859 13.0478 7.05859C13.1431 7.05859 13.2926 7.18864 13.3216 7.46627C13.3411 7.62551 13.3701 7.71677 13.3411 7.99837C13.3275 8.1576 13.3313 8.49757 13.3795 8.66627C13.4124 8.80029 13.4901 8.78672 13.4901 8.78672C13.4781 8.82756 13.4545 8.864 13.4221 8.89155C13.3696 8.94006 13.3639 9.06832 13.3696 9.11683C13.3773 9.1523 13.3871 9.1873 13.3988 9.22166C13.3988 9.22166 13.3367 9.29347 13.3211 9.34211C13.3075 9.39062 13.2435 9.42365 13.1968 9.42365C13.1501 9.42365 13.1735 9.41968 13.1114 9.42365C13.0494 9.42762 13.0299 9.43722 12.991 9.42365C12.9521 9.41008 12.923 9.39446 12.9386 9.27005C12.9522 9.14576 12.459 8.85648 12.459 8.85648L11.6526 8.56912L11.6544 8.56976Z" fill="#CCA849"/>
<path fill-rule="evenodd" clip-rule="evenodd" d="M10.7282 9.79624C10.7282 9.79624 10.9048 10.0313 11.6311 10.0313C11.9767 10.0313 12.0971 9.99823 12.1687 9.97877C12.2464 9.95932 12.5376 9.84488 12.8308 9.49916C13.0949 9.18658 13.0367 9.05845 13.0367 9.05845L12.8831 9.03516L12.3839 9.10312L10.9067 9.73224L10.7275 9.79624H10.7282Z" fill="#585136"/>
<path fill-rule="evenodd" clip-rule="evenodd" d="M11.2697 9.85396C11.2697 9.85396 10.6406 9.99387 10.6406 9.59579C10.6406 9.20743 11.029 8.79963 11.1261 8.72782C11.2271 8.65588 11.4679 8.57422 11.4679 8.57422H12.0485L12.1591 8.86747L12.1106 9.50043L11.2697 9.85383V9.85396Z" fill="#252211"/>
<path fill-rule="evenodd" clip-rule="evenodd" d="M11.8503 8.69188C11.8503 8.69188 11.73 8.58116 11.4562 8.73028C11.1824 8.8794 10.9609 9.19108 10.9474 9.47409C10.9338 9.72446 11.1532 9.91096 11.495 9.92068C11.7493 9.93028 11.9028 9.90123 11.9805 9.88228C11.961 9.85899 11.86 9.73278 11.86 9.73278L11.8504 8.69201L11.8503 8.69188Z" fill="#C3B378"/>
<path fill-rule="evenodd" clip-rule="evenodd" d="M11.7321 8.75582C11.7321 8.75582 11.7031 8.73253 11.6169 8.77912C11.5451 8.81752 11.4403 8.91902 11.3588 8.99083C11.3063 9.03358 11.2733 9.05291 11.2436 9.08593C11.1232 9.22942 11.0221 9.46469 11.0805 9.58117C11.1388 9.69765 11.331 9.83166 11.8203 9.7404L11.7307 8.75595H11.7321V8.75582Z" fill="#E6D89C"/>
<path fill-rule="evenodd" clip-rule="evenodd" d="M11.5731 8.99465C11.5731 8.99465 11.4954 9.1151 11.4954 9.30735C11.4954 9.50345 11.6061 9.81602 12.0139 9.83932C12.3265 9.85878 12.5362 9.38889 12.7634 9.20636C12.9362 9.06658 13.041 9.06262 13.041 9.06262C13.041 9.06262 12.8643 8.87062 12.3925 8.62191C11.9265 8.37142 11.4041 8.33839 11.1206 8.7229C11.2546 8.71318 11.6876 8.60246 11.6876 8.60246L11.8994 8.67042L11.5731 8.99478V8.99465Z" fill="#252211"/>
<path fill-rule="evenodd" clip-rule="evenodd" d="M12.1828 9.24978C12.1692 9.22073 12.1595 9.18182 12.2158 9.17222C12.2722 9.16262 12.2974 9.16825 12.3168 9.21062C12.3363 9.25298 12.3552 9.28831 12.3264 9.30585C12.2974 9.32134 12.2216 9.30585 12.1827 9.24953L12.1828 9.24978ZM12.0916 8.97599C12.0916 8.97599 12.0721 8.98956 12.0818 8.96243C12.0857 8.92953 12.111 8.87116 12.1731 8.88486C12.2352 8.89855 12.2217 8.96639 12.2115 8.98585C12.2012 9.00531 12.1494 9.0382 12.1105 9.02425C12.1022 9.02211 12.0951 9.01675 12.0907 9.00936C12.0863 9.00197 12.0851 8.99314 12.0872 8.98483C12.088 8.9816 12.0893 8.97853 12.091 8.97574L12.0916 8.97599Z" fill="#6F674D"/>
<path fill-rule="evenodd" clip-rule="evenodd" d="M6.83496 9.09986C6.83496 9.09986 6.98856 9.21506 7.16699 9.21058C7.34543 9.2061 7.57083 9.02421 7.67567 8.9076C7.73775 8.83963 7.79087 8.76782 7.84847 8.7115C7.89711 8.66299 7.93 8.6397 7.9533 8.60667C7.98632 8.56827 8.02127 8.49608 8.0388 8.47266C7.99605 8.50568 7.93397 8.56405 7.86984 8.60283C7.80776 8.64123 7.67375 8.71342 7.61935 8.73288C7.56699 8.75234 7.02325 9.04008 7.02325 9.04008L6.83496 9.09986Z" fill="#AC924C"/>
<path fill-rule="evenodd" clip-rule="evenodd" d="M7.06982 7.6632C7.06982 7.6632 7.1552 7.60496 7.32032 7.56797C7.47955 7.52957 7.79993 7.5 7.79993 7.5L8.064 7.6152L8.16883 8.01328L7.97683 8.42698L7.73222 8.58058L7.45446 8.13398L7.07046 7.66397L7.06982 7.6632Z" fill="#9F8E57"/>
<path fill-rule="evenodd" clip-rule="evenodd" d="M6.7242 8.0237L6.63281 8.09192C6.63281 8.09192 6.65624 8.04917 6.67556 7.91912C6.69489 7.78908 6.79601 7.47253 6.9436 7.29C7.09118 7.10747 7.08734 7.1172 7.08734 7.1172C7.07376 7.11473 7.05981 7.11517 7.04641 7.1185C7.03302 7.12184 7.02048 7.12798 7.00964 7.13653C7.0291 7.09352 7.15339 6.93992 7.27768 6.86312C7.40196 6.78632 7.45048 6.76213 7.58052 6.82472C7.71057 6.88732 7.7436 6.91983 7.83883 6.91599C7.93406 6.91215 8.01547 6.81116 8.01547 6.81116C8.01547 6.81116 8.03492 6.87324 7.96312 7.01698C7.89131 7.16072 7.60779 7.45384 7.60779 7.45384L7.01745 7.85768L6.7242 8.02408V8.0237Z" fill="#EAC970"/>
<path fill-rule="evenodd" clip-rule="evenodd" d="M7.16116 7.61822C7.16116 7.61822 7.58842 7.67646 7.71847 7.55614C7.72231 7.56971 7.73793 7.56971 7.73793 7.57944C7.73686 7.58676 7.73345 7.59354 7.7282 7.59876C7.74234 7.59646 7.75663 7.59518 7.77095 7.59492C7.78805 7.60001 7.80564 7.60327 7.82343 7.60465C7.83776 7.60436 7.85204 7.60303 7.86618 7.60068C7.86483 7.61034 7.86155 7.61962 7.85654 7.62797C7.85152 7.63633 7.84488 7.64359 7.837 7.64932C7.85645 7.64932 7.8754 7.65316 7.8754 7.66865C7.8754 7.68414 7.87924 7.73086 7.85594 7.74059C7.83664 7.74596 7.81609 7.74456 7.7977 7.73662C7.79924 7.77338 7.80922 7.8093 7.82689 7.84158C7.86529 7.91339 7.94721 7.99518 8.05729 7.97163C8.05729 7.97163 8.1154 8.1114 7.87079 8.42206C7.83789 8.46481 7.80282 8.52305 7.7602 8.57156C7.74335 8.60827 7.73047 8.64668 7.7218 8.68612C7.7218 8.68612 8.13549 8.52689 8.25389 8.16376C8.37434 7.7987 8.39764 7.43953 8.37434 7.10366C8.37037 7.00843 8.35489 6.94059 8.33159 6.89195C8.27335 6.7715 8.11015 6.79096 8.04423 6.85892C7.949 6.95416 7.78977 7.19096 7.56845 7.35403C7.34317 7.5171 7.33357 7.54603 7.16064 7.61822H7.16116Z" fill="#D7BC6B"/>
<path fill-rule="evenodd" clip-rule="evenodd" d="M6.64854 8.14253C6.64854 8.14253 6.56701 8.19104 6.52426 8.37293C6.4815 8.5593 6.56266 8.7865 6.60963 8.85831C6.65661 8.93012 6.76323 9.12634 6.98442 9.13607C7.03917 9.13581 7.09331 9.12458 7.14365 9.10304C7.22086 9.06763 7.29328 9.0226 7.3592 8.96903C7.45443 8.89722 7.532 8.83514 7.52227 8.82925C7.49898 8.81952 6.9359 8.35348 6.9359 8.35348L6.72419 8.11719L6.64842 8.14279L6.64854 8.14253Z" fill="#585136"/>
<path fill-rule="evenodd" clip-rule="evenodd" d="M7.18089 8.91265C7.18089 8.91265 7.29609 8.90305 7.36341 8.8603C7.43074 8.81755 6.96533 8.35547 6.96533 8.35547L6.99836 8.85467L7.18089 8.91265Z" fill="#453A25"/>
<path fill-rule="evenodd" clip-rule="evenodd" d="M6.68565 8.1041C6.68565 8.1041 6.62741 8.21482 6.62741 8.24401C6.61768 8.33911 6.64687 8.63812 6.67016 8.73322C6.69346 8.83421 6.81967 8.98756 6.98287 8.98756C7.08373 8.98756 7.22364 8.92548 7.22364 8.90999C7.22364 8.89053 7.07989 8.87159 7.04111 8.79927C7.01781 8.76087 7.00808 8.66538 7.00271 8.56887C6.99887 8.50679 6.99887 8.43882 7.02216 8.41527C7.07464 8.35703 7.08424 8.18999 7.08424 8.18999L7.27061 7.84375H7.02549L6.73224 8.02628L6.68565 8.1041Z" fill="#84754B"/>
<path fill-rule="evenodd" clip-rule="evenodd" d="M6.61377 8.21425C6.61377 8.21425 6.80577 7.95992 6.97883 7.90155C7.15188 7.84318 7.22932 7.87825 7.22932 7.87825L7.12833 8.13656L6.98459 8.29579L6.99431 8.37732C6.99431 8.37732 6.97089 8.59288 7.11463 8.74238C7.25838 8.89189 7.36513 8.88613 7.42734 8.88613C7.48955 8.88613 7.66811 8.83365 7.75937 8.61809C7.84091 8.41624 7.90887 8.15729 7.7458 7.89771C7.58644 7.6394 7.30497 7.62891 7.25057 7.62891C7.19617 7.62891 6.76903 7.65028 6.61377 8.21336V8.21425Z" fill="#252211"/>
<path fill-rule="evenodd" clip-rule="evenodd" d="M11.5437 9.07783C11.4719 9.0448 11.5399 8.84295 11.6117 8.78074C11.6835 8.71853 11.7748 8.64685 11.9341 8.63699C11.9923 8.63315 12.0486 8.67002 12.039 8.70893C12.0254 8.78074 11.9244 8.88173 11.8332 8.95354C11.7069 9.05261 11.6253 9.11469 11.5437 9.07783Z" fill="#F7F7E7"/>
<path fill-rule="evenodd" clip-rule="evenodd" d="M7.65993 7.9768C7.71241 7.97296 7.78038 8.0152 7.79395 8.07204C7.80752 8.13412 7.76092 8.2584 7.65993 8.2584C7.5784 8.2584 7.53564 8.15741 7.53564 8.12836C7.53652 8.10446 7.5432 8.08113 7.5551 8.06039C7.55894 8.0545 7.56867 7.98653 7.65993 7.9768Z" fill="#F8F6DE"/>
<path fill-rule="evenodd" clip-rule="evenodd" d="M6.9028 8.01953C6.9028 8.01953 6.76878 8.08161 6.7067 8.21153C6.66235 8.30747 6.64893 8.41483 6.6683 8.51873C6.67803 8.56724 6.72654 8.68756 6.75957 8.73031C6.79259 8.77307 6.83726 8.80225 6.87029 8.79828C6.90331 8.79431 6.97115 8.70702 6.97115 8.65467C6.97115 8.60231 6.97512 8.38087 7.03912 8.26043C7.09544 8.14011 6.90318 8.01966 6.90318 8.01966L6.9028 8.01953Z" fill="#D4C38B"/>
<path fill-rule="evenodd" clip-rule="evenodd" d="M6.92214 8.01096C6.89885 8.02452 6.86006 8.04398 6.86966 8.0692C6.87939 8.09249 6.96093 8.1076 6.99011 8.16443C7.02313 8.22267 7.02313 8.28475 7.01341 8.31393C7.03877 8.30188 7.06178 8.28541 7.08137 8.26529C7.12413 8.21678 7.17648 8.15086 7.22115 8.15086C7.25033 8.15086 7.27939 8.16443 7.30665 8.16443C7.34941 8.16443 7.39203 8.15086 7.39792 8.10619C7.40752 8.04795 7.31638 7.99547 7.2639 8.0052C7.27363 7.9668 7.2872 7.91009 7.24445 7.87118C7.20169 7.83227 7.06781 7.90036 7.03862 7.91982C7.00944 7.93928 6.92214 8.01108 6.92214 8.01108V8.01096Z" fill="#E2D59D"/>
<path fill-rule="evenodd" clip-rule="evenodd" d="M10.0077 12.0927L10.295 12.0078L10.3766 12.0661C10.3766 12.0661 10.4347 12.1903 10.5261 12.2058C10.4969 12.2679 10.4211 12.321 10.4251 12.3651C10.4291 12.4091 10.4678 12.4428 10.4678 12.4428C10.4678 12.4428 10.2095 12.8699 10.7183 13.3004C10.5979 13.3489 10.4445 13.4156 10.363 13.454C10.4211 13.4675 10.5454 13.4924 10.5979 13.5395C10.6504 13.5866 10.6504 13.6015 10.6989 13.6307C10.7474 13.6599 10.7764 13.6987 10.7668 13.7161C10.7338 13.6966 10.6231 13.6385 10.6038 13.6928C10.5844 13.7471 10.1242 13.7258 10.1242 13.7258L9.34746 13.8753C9.34746 13.8753 9.37651 13.7976 9.29498 13.7258C9.19987 13.6405 9.08339 13.7297 8.9591 13.6346C8.79603 13.5103 8.79014 13.3665 8.73779 13.3123C8.79014 13.2792 8.89702 13.2307 9.15136 13.1971C9.14163 13.1776 9.10861 13.1194 9.12806 13.067C9.15136 12.999 9.24838 12.9563 9.21933 12.875C9.26208 12.8653 9.28141 12.8653 9.38829 12.7313C9.48928 12.5973 9.55136 12.5682 9.62906 12.5585C9.70675 12.5487 9.75334 12.5585 9.89709 12.4245C9.99795 12.3293 9.96506 12.2478 9.96506 12.2478C9.96506 12.2478 10.031 12.2264 10.0078 12.0924L10.0077 12.0927Z" fill="#CBAC5A"/>
<path fill-rule="evenodd" clip-rule="evenodd" d="M9.15914 12.1356C9.16298 12.1162 9.1786 12.1065 9.28343 12.1162C9.38826 12.1259 10.0523 12.0541 10.2329 12.0444C10.4155 12.0308 11.0582 12.0404 11.3709 12.1065C11.6836 12.1725 12 12.2508 12.1533 12.2892C12.3069 12.332 12.3553 12.3474 12.3494 12.3668C12.3456 12.3863 12.311 12.4052 12.2912 12.3998C12.2713 12.3945 11.763 12.2406 11.6059 12.2078C11.4487 12.1751 10.9048 12.0874 10.6075 12.0926C10.3298 12.0966 10.2191 12.0888 9.98423 12.1159C9.74922 12.1451 9.36087 12.1839 9.24439 12.1684C9.12919 12.1548 9.153 12.1548 9.15888 12.1354L9.15914 12.1356Z" fill="#D6BC6F"/>
<path fill-rule="evenodd" clip-rule="evenodd" d="M10.7221 13.6579C10.7221 13.6579 11.1202 13.8734 11.2639 14.1375C11.3687 14.3336 11.2018 14.4308 11.2018 14.4308C11.2018 14.4308 11.4271 14.4308 11.3979 14.555C11.3843 14.6326 11.0096 14.8423 10.7591 14.953C10.5047 15.0637 10.5145 15.058 10.3902 15.0773C10.2697 15.0967 9.93961 15.0389 9.87164 15.1355C9.80368 15.2322 9.83324 15.3318 9.85219 15.3472C9.87164 15.3608 10.029 15.3803 10.029 15.3803C10.029 15.3803 9.99593 15.4715 9.66979 15.4813C9.34365 15.491 9.26198 15.5142 9.24253 15.5492C9.22307 15.5821 9.30461 15.5628 9.45424 15.5876C9.60387 15.6125 9.81341 15.626 9.81341 15.626C9.81341 15.626 9.74544 15.6843 9.5688 15.7309C9.36681 15.7832 9.05027 15.8318 8.95517 15.8901C9.00368 15.9231 9.07561 15.9716 9.10877 15.9755C9.02723 15.9949 8.91254 16.0377 8.89321 16.0532C8.92227 16.0726 8.96118 16.0959 8.96118 16.0959C8.96118 16.0959 8.79798 16.292 8.70288 16.3406C8.60777 16.3893 8.06019 16.6435 7.87177 16.595C7.40189 16.4707 7.34365 15.9561 7.22909 15.9174C7.05629 15.8591 6.97475 15.9755 6.82128 15.8939C6.88925 15.8454 6.92624 15.8164 6.99805 15.7833C6.92035 15.7449 6.51843 15.4901 6.51843 15.4901C6.47641 15.3985 6.42976 15.3091 6.37866 15.2222C6.30096 15.0882 6.18666 14.9095 6.1009 14.7522C5.91453 14.4066 5.9048 14.2473 5.73584 14.0512C5.76502 14.0128 5.86589 14.0182 5.86589 14.0182L7.28157 14.4843L9.79177 14.557L10.4446 13.625L10.7222 13.658L10.7221 13.6579Z" fill="#DFC677"/>
<path fill-rule="evenodd" clip-rule="evenodd" d="M7.00391 15.0756C7.01904 15.0925 7.0367 15.1069 7.05626 15.1184C7.1049 15.1514 7.17671 15.1903 7.22522 15.2484C7.24467 15.2194 7.29319 15.1669 7.37882 15.2484C7.46445 15.33 7.57082 15.2719 7.63699 15.2912C7.70496 15.3146 7.7088 15.3242 7.7088 15.3242C7.7088 15.3242 7.7472 15.2912 7.83309 15.2563C7.88557 15.2368 7.94765 15.2232 8.01562 15.2039C8.0777 15.1903 8.14567 15.1709 8.19239 15.1709C8.23514 15.1999 8.38848 15.3629 9.00403 15.1224C9.58464 14.8971 9.71853 14.8719 9.81568 14.9067C9.82541 14.8834 9.83514 14.8387 9.98464 14.8446C9.98464 14.7825 9.86036 14.5708 9.86036 14.5708L9.17491 14.3359H8.8L7.67578 14.5418L7.0528 14.8972L7.00429 15.0764L7.00391 15.0756Z" fill="#C4A859"/>
<path fill-rule="evenodd" clip-rule="evenodd" d="M6.62891 14.682C6.62891 14.682 6.64247 14.7868 6.79787 14.8975C6.95326 15.0083 6.99972 15.0742 6.99972 15.0742C6.99972 15.0742 7.02891 15.0358 7.0522 14.9966C7.0755 14.9539 7.09495 14.9053 7.13374 14.8918C7.21143 14.8587 7.38807 14.9208 7.42699 14.9111C7.46001 14.9015 7.45028 14.8335 7.48523 14.8335C7.56676 14.8296 7.61911 14.8859 7.6483 14.8859C7.67748 14.8859 7.74916 14.882 7.75889 14.8666C7.76862 14.8511 7.77246 14.6898 7.88318 14.6121C8.00363 14.5267 8.15121 14.5636 8.19038 14.583C8.19038 14.6121 8.19422 14.684 8.27191 14.6879C8.34961 14.6917 8.35729 14.6781 8.42551 14.7014C8.49374 14.7247 8.57502 14.6976 8.61188 14.812C8.64491 14.8024 8.7226 14.7927 8.70315 14.682C8.74155 14.6529 8.77508 14.6335 8.85675 14.5189C8.8762 14.4899 8.9091 14.4568 8.93444 14.4141C9.00241 14.4141 9.08395 14.4005 9.19262 14.4956C9.15959 14.5189 9.14014 14.534 9.13054 14.5577C9.15897 14.5858 9.18493 14.6164 9.20811 14.649C9.23729 14.6874 9.25675 14.7345 9.29361 14.7442C9.37515 14.7675 9.50916 14.7345 9.65867 14.7442C9.80241 14.7539 9.92273 14.8063 9.97521 14.8393C9.99467 14.8297 9.99467 14.8257 10.0432 14.8355C10.0917 14.8452 10.1286 14.849 10.0762 14.7869C10.1053 14.8005 10.1383 14.8297 10.1675 14.8005C10.1966 14.7713 10.2198 14.7287 10.3014 14.719C10.3829 14.7092 10.4121 14.7228 10.4451 14.6374C10.4878 14.5326 10.3403 14.5326 10.3403 14.5326C10.3403 14.5326 10.4082 14.4704 10.484 14.3889C10.5753 14.3035 10.6801 14.1928 10.7053 14.0568C10.7481 13.8063 10.5035 13.7734 10.5035 13.7734L9.31703 14.1385L7.86654 14.0666L6.63019 14.6821H6.62942L6.62891 14.682Z" fill="#927D49"/>
<path fill-rule="evenodd" clip-rule="evenodd" d="M5.56326 11.2577C5.56326 11.2577 5.52486 11.3063 5.50118 11.4208C5.4775 11.5354 5.48761 11.5218 5.46815 11.6033C5.4487 11.6849 5.20972 12.4965 5.29932 12.7703C5.38892 13.0441 5.54406 13.1451 5.64108 13.3664C5.66054 13.4149 5.67948 13.4441 5.68959 13.4869C5.72262 13.6305 5.69356 13.7412 5.73235 13.8849C5.74591 13.9335 5.78099 13.9898 5.83334 14.048C5.94854 14.1683 6.13631 14.2829 6.21734 14.3644C6.33177 14.4849 6.49497 14.7296 6.70271 14.7528C6.81343 14.7664 6.97075 14.7198 7.10079 14.6422C7.21599 14.5703 7.28716 14.4694 7.40799 14.4118C7.49337 14.369 7.58463 14.3536 7.66617 14.3341C7.83513 14.3011 7.9886 14.2957 8.07987 14.3146C8.21964 14.3438 8.54975 14.4448 8.73267 14.4448C8.87559 14.4425 9.01772 14.4229 9.15596 14.3866C9.43359 14.305 9.76947 14.1651 9.99091 14.1031C10.121 14.0647 10.2258 14.0545 10.3327 14.0312C10.5152 13.9885 10.6685 13.9303 10.756 13.8195C10.6977 13.7516 10.6259 13.6467 10.2374 13.6506C9.79673 13.6603 9.28793 13.9049 9.03743 13.9438C8.78694 13.9827 8.67827 14.0156 8.39859 13.9146C8.12441 13.8122 8.11532 13.7452 8.11532 13.7452C8.11532 13.7452 7.82745 13.5438 7.707 13.0305C7.58655 12.5173 7.707 12.1432 8.01971 11.7878C8.10124 11.6965 8.08179 11.615 8.08179 11.615C8.08179 11.615 8.28761 11.3374 8.23129 11.0774C8.16921 10.8191 7.77113 10.8716 7.77113 10.8716L5.56339 11.2577H5.56326Z" fill="#6E6342"/>
<path fill-rule="evenodd" clip-rule="evenodd" d="M5.89515 12.1211C5.878 12.1533 5.86994 12.1895 5.87186 12.2259C5.8757 12.2783 5.89131 12.3462 6.0485 12.4997C6.18251 12.6336 6.15333 12.7831 6.15333 12.7831C6.15333 12.7831 6.22079 12.7967 6.40383 12.711C6.54757 12.6431 6.59583 12.7635 6.59583 12.7635C6.63769 12.7416 6.68304 12.7272 6.72984 12.7208C6.77226 12.7168 6.81331 12.7037 6.85016 12.6824C6.85016 12.6824 7.01912 12.8552 7.16671 12.9367C7.30072 13.0087 7.37842 13.0572 7.44447 13.0087C7.50655 12.9659 7.50655 12.8785 7.50258 12.8397C7.48718 12.8039 7.46767 12.77 7.44447 12.7387C7.40172 12.6766 7.33375 12.6047 7.32927 12.5467C7.31954 12.4128 7.43026 12.2534 7.40684 12.2147C7.38341 12.1759 7.29624 12.1662 7.08069 12.2438C6.85746 12.3176 5.89426 12.1215 5.89426 12.1215L5.89515 12.1211Z" fill="#39331F"/>
<path fill-rule="evenodd" clip-rule="evenodd" d="M6.40379 12.9887C6.40379 12.9887 6.29319 12.8839 6.33198 12.3751C6.37893 12.3744 6.42581 12.3789 6.47176 12.3886C6.47176 12.3886 6.53204 12.7829 6.40379 12.9887Z" fill="#292311"/>
<path fill-rule="evenodd" clip-rule="evenodd" d="M5.61577 10.8682C5.6312 10.8568 5.64551 10.844 5.65852 10.8298C5.62012 10.9017 5.44284 11.189 5.58659 11.6415C5.73033 12.0919 6.09142 12.4278 6.53609 12.4434C6.98076 12.459 7.21449 12.2414 7.48175 11.9153C7.58659 11.7852 7.70703 11.622 7.81379 11.5114C7.97302 11.3385 8.09731 11.2899 8.09731 11.1235C8.09731 10.7817 7.74774 10.6282 7.23318 10.4749C6.71862 10.3216 6.25449 10.3405 6.01372 10.4455C5.77884 10.5599 5.67785 10.6803 5.61564 10.8688L5.61577 10.8682Z" fill="#252211"/>
<path fill-rule="evenodd" clip-rule="evenodd" d="M7.26796 13.1417L7.30636 13.1222C7.30636 13.1222 7.31596 12.9686 7.37817 12.9727C7.44025 12.9825 7.46943 13.0641 7.46354 13.0932C7.4597 13.1222 7.44422 13.1709 7.38201 13.165C7.30047 13.1669 7.26758 13.1417 7.26758 13.1417H7.26796Z" fill="#3F3824"/>
<path fill-rule="evenodd" clip-rule="evenodd" d="M7.09521 12.4901C7.09521 12.4901 7.13361 12.4766 7.18059 12.5231C7.21899 12.5231 7.38641 12.5037 7.43889 12.5367C7.49137 12.5697 7.50686 12.5988 7.50686 12.5988C7.50686 12.5988 7.31077 12.6415 7.20389 12.5988C7.09521 12.5619 7.09521 12.4901 7.09521 12.4901Z" fill="#2D2815"/>
<path fill-rule="evenodd" clip-rule="evenodd" d="M7.95928 12.5189C7.95928 12.5092 7.85444 12.4373 7.74372 12.4139C7.72427 12.4101 7.7203 12.4236 7.70532 12.4236C7.69559 12.4198 7.69175 12.3906 7.69175 12.3906L7.62878 12.4238C7.62878 12.4238 7.61905 12.4373 7.65207 12.4622C7.68113 12.4855 7.72977 12.5049 7.74334 12.5437C7.75691 12.5825 7.75691 12.5961 7.76279 12.602C7.76663 12.6058 7.8346 12.602 7.86763 12.5825C7.90065 12.563 7.96286 12.5313 7.95889 12.5185L7.95928 12.5189Z" fill="#82764F"/>
<path fill-rule="evenodd" clip-rule="evenodd" d="M6.97852 12.9137C6.97852 12.9137 6.99784 12.7798 7.12802 12.774C7.26191 12.7642 7.28725 12.8943 7.28725 12.8943L7.20956 12.972C7.20956 12.9701 7.15132 12.8885 6.97916 12.9137H6.97852Z" fill="#2D2816"/>
<path fill-rule="evenodd" clip-rule="evenodd" d="M7.82325 12.3387C7.82325 12.3387 7.75132 12.4164 7.59221 12.4397C7.57865 12.4202 7.54946 12.3815 7.59221 12.3194C7.63496 12.2573 7.68348 12.2378 7.73199 12.2572C7.75339 12.2606 7.77336 12.2702 7.78953 12.2846C7.8057 12.2991 7.8174 12.3178 7.82325 12.3387Z" fill="#574F35"/>
<path fill-rule="evenodd" clip-rule="evenodd" d="M8.11639 12.4303C8.12036 12.4108 8.10679 12.407 8.11639 12.3972C8.12599 12.3875 8.1786 12.3682 8.18833 12.3778C8.19217 12.3817 8.18833 12.3972 8.18833 12.4162C8.18833 12.4351 8.18833 12.4546 8.1786 12.4685C8.16503 12.488 8.12625 12.4977 8.10679 12.4919C8.08734 12.4862 8.0835 12.4589 8.0835 12.4535C8.0931 12.4497 8.11639 12.44 8.11639 12.4303ZM8.44791 12.2206C8.44791 12.2109 8.48094 12.1914 8.50039 12.1914C8.52945 12.1914 8.52945 12.2147 8.53342 12.2206C8.54302 12.2244 8.54302 12.2166 8.55274 12.2342C8.56247 12.2517 8.57617 12.2827 8.56631 12.3021C8.55646 12.3216 8.5178 12.335 8.5082 12.3312C8.49463 12.3215 8.45188 12.2342 8.44791 12.2206Z" fill="#82764F"/>
<path fill-rule="evenodd" clip-rule="evenodd" d="M7.78076 12.4767C7.78076 12.4767 7.82351 12.4863 7.88175 12.5349C7.8623 12.5485 7.83311 12.564 7.83311 12.564C7.83311 12.564 7.82927 12.5193 7.78076 12.4766V12.4767Z" fill="#6E6342"/>
<path fill-rule="evenodd" clip-rule="evenodd" d="M7.68562 12.0479C7.67589 12.0383 7.71467 12.015 7.73797 12.0188C7.76127 12.0227 7.77099 12.0383 7.79621 12.0421C7.82143 12.046 7.82539 12.0324 7.83461 12.0227C7.84383 12.013 7.87736 12.0188 7.88312 12.0227C7.88669 12.027 7.88994 12.0315 7.89285 12.0363C7.89324 12.0289 7.89516 12.0216 7.89849 12.015C7.90181 12.0084 7.90648 12.0026 7.91218 11.9979C7.91962 11.9924 7.92821 11.9886 7.9373 11.9869C7.94639 11.9853 7.95574 11.9857 7.96466 11.9881C7.9685 12.0017 7.98795 12.0502 7.98411 12.0599C7.98027 12.0697 7.92203 12.0834 7.91218 12.0735C7.92191 12.0969 7.96466 12.1454 7.97042 12.155C7.97618 12.1646 7.92767 12.1881 7.90834 12.1842C7.8812 12.1823 7.71416 12.0851 7.68511 12.0483L7.68562 12.0479ZM7.93995 11.7256C7.93635 11.7158 7.92948 11.7076 7.9205 11.7023C7.90693 11.6985 7.86226 11.7023 7.86226 11.7256C7.86226 11.7489 7.90066 11.8792 7.94379 11.947C7.99243 12.015 8.02533 12.0712 8.05835 12.0868C8.06872 12.0915 8.0805 12.0921 8.0913 12.0885C8.10211 12.0849 8.11115 12.0774 8.11659 12.0674C8.12043 12.0576 8.13016 11.9858 8.12632 11.8169C8.12248 11.6479 8.1166 11.4848 8.10687 11.4751C8.09714 11.4654 8.05835 11.4655 8.04479 11.4848C8.03122 11.5042 7.94379 11.6965 7.93983 11.7256H7.93995Z" fill="#585136"/>
<path fill-rule="evenodd" clip-rule="evenodd" d="M7.76701 12.7191C7.76701 12.7191 7.69904 12.6763 7.63299 12.7055C7.57091 12.7347 7.57475 12.8493 7.57475 12.8493C7.58872 12.8547 7.60381 12.8567 7.61871 12.855C7.63361 12.8533 7.64788 12.848 7.66026 12.8395C7.70301 12.8105 7.75728 12.762 7.76701 12.7192V12.7191Z" fill="#574F35"/>
<path fill-rule="evenodd" clip-rule="evenodd" d="M7.89533 12.8731C7.89149 12.8347 7.85693 12.8347 7.85693 12.8149C7.85933 12.8054 7.86483 12.797 7.87256 12.791C7.88028 12.785 7.88979 12.7818 7.89956 12.7818C7.91901 12.7818 7.93796 12.8051 7.96177 12.8202C7.98557 12.8353 8.02001 12.8586 8.02385 12.8882C8.02769 12.9178 7.98545 12.9988 7.93847 12.9988C7.89149 12.9988 7.90545 12.9114 7.89572 12.8726L7.89533 12.8731ZM8.27012 12.8206C8.27012 12.8206 8.19242 12.8439 8.19818 12.8206C8.20394 12.7973 8.22161 12.7916 8.24682 12.7916C8.25963 12.7782 8.27687 12.7698 8.29533 12.7681C8.3059 12.7676 8.31628 12.7711 8.32439 12.7779C8.32439 12.7779 8.37687 12.7546 8.39236 12.7681C8.40785 12.7817 8.39633 12.7817 8.40593 12.7973C8.41818 12.8146 8.4262 12.8346 8.42935 12.8556C8.42935 12.8711 8.37111 12.9041 8.32439 12.8983C8.27012 12.8867 8.27972 12.8303 8.27012 12.8206ZM8.72247 12.7332C8.72247 12.7332 8.74577 12.7468 8.72644 12.7624C8.71287 12.7759 8.6449 12.8008 8.58653 12.8051C8.52829 12.8051 8.47594 12.8147 8.47594 12.7954C8.47594 12.7761 8.52445 12.7372 8.55351 12.7274C8.55932 12.7201 8.56672 12.7142 8.57514 12.7102C8.58357 12.7061 8.59281 12.7041 8.60215 12.7041C8.62545 12.7041 8.71658 12.6944 8.74193 12.6906C8.76522 12.6866 8.78468 12.7002 8.77098 12.7196C8.76522 12.7332 8.72247 12.7332 8.72247 12.7332ZM8.85649 12.1336C8.85649 12.1336 8.8273 12.1957 8.79441 12.1957C8.76138 12.1919 8.76138 12.1822 8.76138 12.1724C8.76138 12.1589 8.79441 12.1239 8.79044 12.1142C8.78084 12.1142 8.75741 12.1142 8.76138 12.0909C8.76138 12.0714 8.79441 12.0481 8.82346 12.0525C8.84542 12.0345 8.87275 12.0242 8.90116 12.0234C8.93418 12.0234 8.96324 12.033 8.96324 12.0525C8.96324 12.0719 8.92484 12.1146 8.91076 12.1244C8.89527 12.1399 8.87581 12.15 8.85649 12.134V12.1336ZM8.41373 13.2812C8.41373 13.2812 8.37533 13.2851 8.37533 13.3045C8.37533 13.3142 8.38493 13.3142 8.39863 13.3084C8.40652 13.308 8.41434 13.3067 8.42193 13.3045C8.42577 13.3084 8.42577 13.3278 8.45495 13.3278C8.47892 13.3245 8.50202 13.3166 8.52292 13.3045C8.54621 13.2949 8.56567 13.285 8.56567 13.2661C8.55594 13.233 8.53649 13.2174 8.50743 13.2174C8.49254 13.2165 8.4777 13.2199 8.46468 13.2271C8.46468 13.2271 8.45495 13.2077 8.42193 13.2271C8.3889 13.2466 8.39274 13.2466 8.40247 13.2563C8.41988 13.2718 8.41412 13.2819 8.41412 13.2819L8.41373 13.2812ZM8.19434 13.4831C8.19434 13.4734 8.24285 13.454 8.25642 13.4599C8.26999 13.4637 8.30877 13.5374 8.30877 13.5452C8.30877 13.555 8.26026 13.5783 8.24081 13.5783C8.22135 13.5783 8.18845 13.5452 8.18845 13.5399C8.18845 13.5345 8.21175 13.5303 8.21175 13.5263C8.21751 13.5167 8.19434 13.4933 8.19434 13.4835V13.4831ZM8.04074 13.1996C8.05047 13.1958 8.05047 13.1861 8.06404 13.1763C8.06828 13.1735 8.07312 13.1717 8.07818 13.171C8.08324 13.1703 8.08839 13.1708 8.09322 13.1725C8.09663 13.1664 8.10137 13.1611 8.10708 13.157C8.11279 13.153 8.11934 13.1503 8.12625 13.1491C8.14954 13.1452 8.169 13.1491 8.16465 13.1588C8.16465 13.188 8.1841 13.2073 8.1841 13.2306C8.1841 13.2539 8.17053 13.2831 8.12202 13.3025C8.07351 13.3161 8.00746 13.3161 7.99773 13.3123C7.98801 13.3084 7.97828 13.2695 7.98801 13.2501C8.00142 13.2295 8.01938 13.2122 8.04049 13.1996H8.04074Z" fill="#82764F"/>
<path fill-rule="evenodd" clip-rule="evenodd" d="M8.10237 13.2148C8.10237 13.2148 8.06934 13.2343 8.06934 13.244C8.0664 13.2534 8.0651 13.2632 8.0655 13.2731C8.0655 13.2788 8.10825 13.2692 8.11401 13.2634C8.11593 13.2595 8.10237 13.225 8.10237 13.2148Z" fill="#6E6342"/>
<path fill-rule="evenodd" clip-rule="evenodd" d="M7.81373 13.1195C7.83306 13.1235 7.86609 13.1195 7.8913 13.1293C7.91076 13.139 7.92433 13.1584 7.90487 13.1817C7.88541 13.205 7.86647 13.24 7.82333 13.2341C7.77482 13.2302 7.72823 13.205 7.72823 13.1856C7.72742 13.1733 7.72906 13.1609 7.73305 13.1493C7.73705 13.1376 7.74333 13.1268 7.75153 13.1176C7.77098 13.1021 7.78058 13.1118 7.81361 13.1195H7.81373Z" fill="#585136"/>
<path fill-rule="evenodd" clip-rule="evenodd" d="M7.79039 13.1406C7.79039 13.1406 7.72831 13.1891 7.71269 13.2126C7.69324 13.2359 7.59813 13.3562 7.56908 13.3814C7.57869 13.3643 7.58969 13.3481 7.60198 13.3329C7.56357 13.3574 7.53479 13.3945 7.52044 13.4377C7.49714 13.5097 7.65061 13.5484 7.75148 13.5776C7.85234 13.6068 7.89138 13.616 7.89138 13.616C7.85426 13.5602 7.82239 13.5011 7.79615 13.4394C7.75775 13.3481 7.73791 13.3384 7.76313 13.2956C7.78258 13.2529 7.81177 13.2238 7.81177 13.1908C7.80012 13.1601 7.79039 13.1406 7.79039 13.1406Z" fill="#574F35"/>
<path fill-rule="evenodd" clip-rule="evenodd" d="M5.57692 13.2929C5.59105 13.2955 5.60553 13.2955 5.61967 13.2929C5.64872 13.289 5.9517 13.1777 6.26824 13.1977C6.50521 13.212 6.74009 13.2506 6.96917 13.3129C7.36725 13.4177 7.86236 13.6255 8.18274 13.744C8.26812 13.7769 8.3517 13.8353 8.41314 13.8584C8.65788 13.9537 8.66748 13.9537 8.81122 13.9789C8.98018 14.0022 9.15298 13.9459 9.33359 13.9071C9.5549 13.8584 9.93352 13.8351 10.2656 13.7866C10.3729 13.7718 10.4788 13.7477 10.5821 13.7148C10.5821 13.7148 10.318 13.9789 9.68495 14.074C9.42905 14.1129 9.16901 14.1161 8.91221 14.0837C8.71023 14.0643 8.57634 14.0351 8.47535 14.006C8.36015 13.973 8.12578 13.8856 7.8365 13.814C7.63452 13.7615 7.40924 13.7228 7.15106 13.6743C6.51413 13.5576 5.82293 13.4238 5.57666 13.2937L5.57692 13.2929Z" fill="#252211"/>
<path fill-rule="evenodd" clip-rule="evenodd" d="M4.86233 12.0938C4.70873 12.2238 4.54579 12.3481 4.38668 12.4684L3.90707 12.8369C3.744 12.9572 3.58476 13.0815 3.42156 13.202C3.25836 13.3224 3.09542 13.4369 2.92236 13.5476C3.07596 13.4175 3.23891 13.2971 3.40198 13.1787C3.56505 13.0603 3.73414 12.9442 3.89145 12.8241L4.37107 12.4551C4.53606 12.3348 4.69529 12.2105 4.86233 12.094V12.0938ZM4.01382 13.453C4.01382 13.453 4.18662 13.3092 4.40217 13.1074C4.67008 12.857 4.99827 12.5365 5.1031 12.4784L4.01369 13.4531L4.01382 13.453Z" fill="#CFB66C"/>
<path fill-rule="evenodd" clip-rule="evenodd" d="M4.01367 13.4552C4.09918 13.3699 4.19044 13.2864 4.2817 13.2048L4.42148 13.0844C4.46423 13.046 4.51287 13.0029 4.5555 12.9601C4.64087 12.8748 4.72446 12.7834 4.80983 12.6961C4.85216 12.6522 4.8969 12.6107 4.94385 12.5718C4.96733 12.551 4.9934 12.5334 5.02142 12.5193C5.04484 12.5057 5.07006 12.4809 5.10295 12.4766C5.08362 12.5057 5.06033 12.5193 5.04087 12.5445C5.01758 12.564 4.99812 12.5873 4.97879 12.6066C4.93604 12.6494 4.88753 12.6881 4.84478 12.7271C4.75351 12.8048 4.65841 12.8807 4.56714 12.9619C4.47588 13.0432 4.3905 13.1309 4.29911 13.2124C4.20017 13.296 4.1089 13.3775 4.01367 13.4556V13.4552ZM5.17489 12.6785C5.17489 12.6785 4.54193 13.2981 4.41175 13.3989L5.17489 12.6785Z" fill="#CFB66C"/>
<path fill-rule="evenodd" clip-rule="evenodd" d="M5.17476 12.6758C5.1178 12.7417 5.05675 12.8039 4.99197 12.8621L4.79997 13.0447C4.73789 13.1068 4.67953 13.169 4.61361 13.231C4.54564 13.2893 4.48356 13.3462 4.41162 13.4L4.59799 13.2175C4.6602 13.1554 4.72816 13.103 4.79421 13.0408L4.98058 12.8583C5.04458 12.7943 5.10717 12.7321 5.17476 12.6758ZM5.20381 13.0117C5.14546 13.1745 5.07671 13.3334 4.99799 13.4874C4.83492 13.8137 4.59031 14.2214 4.48343 14.4293L5.20381 13.0117Z" fill="#CFB66C"/>
<path fill-rule="evenodd" clip-rule="evenodd" d="M5.20382 13.0117C5.20382 13.0835 5.18436 13.1457 5.16106 13.2078C5.13834 13.2699 5.11245 13.3309 5.0835 13.3903C5.05431 13.4486 5.02129 13.5108 4.98826 13.5671C4.95524 13.6234 4.91646 13.6815 4.88727 13.7399L4.69118 14.0855C4.62321 14.2007 4.55716 14.3166 4.48535 14.4273C4.53386 14.303 4.59991 14.1865 4.66212 14.0719C4.73009 13.9567 4.79217 13.8415 4.85412 13.7224C4.88433 13.6631 4.91154 13.6024 4.93566 13.5405C4.96471 13.4783 4.99377 13.42 5.01719 13.3637C5.04625 13.3016 5.06954 13.2433 5.09873 13.1871C5.13162 13.1268 5.15889 13.0686 5.20356 13.0122L5.20382 13.0117Z" fill="#CFB66C"/>
<path fill-rule="evenodd" clip-rule="evenodd" d="M5.89534 14.6055C5.89534 14.6055 5.70334 14.8598 5.72254 15.1821C5.77489 15.0133 5.84094 14.755 5.89534 14.6055ZM6.07787 14.8604C6.07787 14.8604 6.0099 15.5516 5.95358 15.8915C6.0332 15.4987 6.04869 15.5317 6.07787 14.8604ZM7.34968 15.9323C7.34968 15.9323 7.06232 16.7771 7.05643 17.0119C7.11864 16.7705 7.23896 16.2773 7.34968 15.9317V15.9323Z" fill="#DEC270"/>
<path fill-rule="evenodd" clip-rule="evenodd" d="M8.02148 14.5547C8.02148 14.5547 8.48753 15.3236 8.8371 15.9798C8.74251 15.6496 8.52491 15.0439 8.02148 14.5547Z" fill="#CBAF59"/>
<path fill-rule="evenodd" clip-rule="evenodd" d="M9.27393 15.6836C9.5298 16.1359 9.76055 16.602 9.96512 17.0797C9.92634 16.7496 9.82138 16.1846 9.27393 15.6836Z" fill="#E3C677"/>
<path fill-rule="evenodd" clip-rule="evenodd" d="M12.9552 16.8221C13.0328 16.7736 13.1863 16.5094 13.3203 16.4435C13.4542 16.3755 13.5552 16.3619 13.6756 16.2279C13.7959 16.088 13.8292 16.0026 14.093 15.892C14.4621 15.7327 14.2082 15.5269 14.2082 15.5269C14.2489 15.4869 14.2923 15.45 14.3383 15.4163C14.4335 15.3445 14.5441 15.257 14.5345 15.1036C14.5209 14.8454 14.4724 14.4706 14.2607 14.2531C14.4665 14.2104 14.8606 14.1813 15.1055 14.1193C15.3889 14.0473 15.5191 13.9463 15.5191 13.9463C15.5191 13.9463 15.356 13.6687 15.6201 13.3891C15.8841 13.1096 16.0997 12.9425 16.2589 12.6298C16.0764 12.6065 15.7981 12.5095 15.088 12.7793C15.1263 12.7974 15.1633 12.8181 15.1987 12.8414C15.1987 12.8414 14.7618 12.9619 14.6026 13.0959C14.3248 13.3308 14.2899 13.523 13.989 13.6668C13.688 13.8105 13.3851 13.7716 13.1347 13.8881C12.8843 14.0046 12.8473 14.1036 12.7559 14.1464C12.7754 14.1697 12.7521 14.2085 12.789 14.2415C12.7657 14.2745 12.6297 14.4958 12.4919 14.4958C12.5055 14.5483 12.6219 14.5871 12.6219 14.5871C12.6219 14.5871 12.5366 14.6493 12.3191 14.6648C12.4297 14.78 12.5346 14.9056 12.8239 15.0881C12.8006 15.1366 12.7035 15.2085 12.7424 15.2998C12.7851 15.3911 12.896 15.5153 13.3385 15.6163C13.1132 15.6259 12.8493 15.6784 12.4937 15.6299C12.1383 15.5872 12.0801 15.5619 11.8607 15.6163C11.884 15.6396 11.9461 15.6396 12.0005 15.7017C11.9423 15.7056 11.5772 15.659 11.4529 15.8222C11.3229 15.991 11.2665 16.2688 11.2763 16.4551C11.2083 16.4881 11.1423 16.5464 11.1753 16.6668C11.2083 16.7873 11.3811 16.8261 11.4918 16.9017C11.6024 16.9832 11.6121 17.0123 11.7171 16.993C11.8277 16.9697 11.9908 16.8591 12.086 16.8591C12.1812 16.8591 12.2495 16.9309 12.2495 16.9309C12.2495 16.9309 12.5078 16.8066 12.533 16.8299C12.5582 16.8532 12.5368 17.0027 12.562 17.026C12.5876 17.0435 12.8786 16.8707 12.9563 16.8221H12.9552Z" fill="#ECD592"/>
<path fill-rule="evenodd" clip-rule="evenodd" d="M18.6001 9.04659C17.3866 5.91264 14.3865 5.33203 14.3865 5.33203H5.82728L5.8603 8.52422H7.56488V15.6524H5.82715V18.8388H14.1496C16.1553 18.8388 17.7632 16.8232 17.7632 16.8232C20.3379 13.169 18.6 9.04659 18.6 9.04659H18.6001ZM14.1943 14.6756C14.1943 14.6756 13.5415 15.6175 12.8312 15.6175H11.4104L11.3767 8.53203H13.2001C13.2001 8.53203 14.0449 8.70867 14.6351 10.3805C14.6351 10.3805 15.4176 12.7741 14.1943 14.6756Z" fill="white" fill-opacity="0.8"/>
</svg>
