<svg width="24" height="24" viewBox="0 0 24 24" fill="none" xmlns="http://www.w3.org/2000/svg">
<path d="M12 24C18.6274 24 24 18.6274 24 12C24 5.37258 18.6274 0 12 0C5.37258 0 0 5.37258 0 12C0 18.6274 5.37258 24 12 24Z" fill="#414CDF"/>
<path d="M16.8838 12.6641C15.1632 13.5815 13.3679 14.5419 11.9812 15.2849L7.11871 12.6641C8.87933 15.2903 10.3463 17.4766 11.9812 19.8962C13.619 17.4819 15.4277 14.8179 16.8838 12.6641ZM16.6968 11.9397L11.9759 9.4104L7.31641 11.9212L11.9732 14.4533L16.6968 11.9397ZM11.9812 8.60004L16.8838 11.1914L12.0026 4.01562L7.11871 11.2074L11.9812 8.60004Z" fill="white"/>
<path d="M11.9811 15.2849L7.11857 12.6641C8.8792 15.2903 11.9811 19.8962 11.9811 19.8962V15.2849ZM11.9757 9.4104L7.31628 11.9212L11.9731 14.4533L11.9757 9.4104ZM11.9811 8.60023L12.0024 4.01562L7.11857 11.2074L11.9811 8.60023Z" fill="white"/>
<path d="M16.6963 11.938L11.9751 12.327L7.31568 11.9219L11.9727 14.4542L16.6963 11.938Z" fill="white"/>
<path d="M11.9756 12.327L7.31613 11.9219L11.9729 14.4542L11.9756 12.327Z" fill="white"/>
</svg>
