<svg width="32" height="32" viewBox="0 0 32 32" fill="none" xmlns="http://www.w3.org/2000/svg">
<path fill-rule="evenodd" clip-rule="evenodd" d="M8.66667 4.68001V1.34668L4 6.01335L8.66667 10.68V7.34668H18.6667C22.3486 7.34668 25.3333 10.3314 25.3333 14.0133V17.3306H28V14.0133C28 8.85869 23.8213 4.68001 18.6667 4.68001H8.66667ZM23.3333 24.6533H13.3333C9.65144 24.6533 6.66667 21.6686 6.66667 17.9867V14.6694H4V17.9867C4 23.1413 8.17868 27.32 13.3333 27.32H23.3333V30.6533L28 25.9867L23.3333 21.32V24.6533ZM22.6667 16C22.6667 19.6819 19.6819 22.6667 16 22.6667C12.3181 22.6667 9.33333 19.6819 9.33333 16C9.33333 12.3181 12.3181 9.33333 16 9.33333C19.6819 9.33333 22.6667 12.3181 22.6667 16ZM16 13.3333L18.6667 16L16 18.6667L13.3333 16L16 13.3333Z" fill="#CACED3"></path>
<path fill-rule="evenodd" clip-rule="evenodd" d="M22.6666 16C22.6666 19.6819 19.6818 22.6667 15.9999 22.6667C12.318 22.6667 9.33325 19.6819 9.33325 16C9.33325 12.3181 12.318 9.33333 15.9999 9.33333C19.6818 9.33333 22.6666 12.3181 22.6666 16ZM15.9999 13.3333L18.6666 16L15.9999 18.6667L13.3333 16L15.9999 13.3333Z" fill="#F0B90B"></path>
</svg>
