<svg width="16" height="16" viewBox="0 0 18 18" fill="none" xmlns="http://www.w3.org/2000/svg" style="flex-shrink: 0;"><path d="M12.205 11.0668C12.2725 11.8768 13.015 12.4693 13.825 12.4693H15.25V13.3618C15.25 14.9143 13.9825 16.1818 12.43 16.1818H3.82C2.2675 16.1818 1 14.9143 1 13.3618V8.31427C1 6.76177 2.2675 5.49426 3.82 5.49426H12.43C13.9825 5.49426 15.25 6.76177 15.25 8.31427V9.39427H13.735C13.315 9.39427 12.9325 9.55925 12.655 9.84425C12.34 10.1518 12.16 10.5943 12.205 11.0668Z" stroke="currentColor" stroke-width="1.2" stroke-linecap="round" stroke-linejoin="round"></path><path d="M1 9.7733V6.34584C1 5.45334 1.5475 4.6583 2.38 4.3433L8.335 2.0933C9.265 1.7408 10.2625 2.43083 10.2625 3.42833V5.13627" stroke="currentColor" stroke-width="1.2" stroke-linecap="round" stroke-linejoin="round"></path><path d="M16.0441 11.7044C16.0441 12.1169 15.7141 12.4544 15.2941 12.4694H13.8241C13.0141 12.4694 12.2716 11.8769 12.2041 11.0669C12.1591 10.5944 12.3391 10.1519 12.6541 9.84439C12.9316 9.55939 13.3141 9.39441 13.7341 9.39441H15.2941C15.7141 9.40941 16.0441 9.74688 16.0441 10.1594V11.7044Z" stroke="#FF8200" stroke-width="1.2" stroke-linecap="round" stroke-linejoin="round"></path><path d="M4.375 8.68176H9.625" stroke="#FF8200" stroke-width="1.2" stroke-linecap="round" stroke-linejoin="round"></path></svg>