<svg width="16" height="17" viewBox="0 0 16 17" fill="none" xmlns="http://www.w3.org/2000/svg">
<path fill-rule="evenodd" clip-rule="evenodd" d="M4.83157 1.72767C5.07403 1.45058 5.4952 1.4225 5.77229 1.66496L7.8695 3.50001H8.13042L10.2276 1.66496C10.5047 1.4225 10.9259 1.45058 11.1683 1.72767C11.4108 2.00476 11.3827 2.42594 11.1056 2.66839L10.1552 3.50001H13.3333C14.4379 3.50001 15.3333 4.39544 15.3333 5.50001V6.16668C15.3333 6.78796 14.9084 7.30999 14.3333 7.458V12.8333C14.3333 14.3061 13.1394 15.5 11.6666 15.5H4.33329C2.86053 15.5 1.66663 14.3061 1.66663 12.8333V7.458C1.09155 7.30999 0.666626 6.78796 0.666626 6.16668V5.50001C0.666626 4.39544 1.56206 3.50001 2.66663 3.50001H5.84471L4.89429 2.66839C4.6172 2.42594 4.58912 2.00476 4.83157 1.72767ZM8.66663 7.50001H13V12.8333C13 13.5697 12.403 14.1667 11.6666 14.1667H8.66663V7.50001ZM2.99996 7.50001H7.33329V14.1667H4.33329C3.59691 14.1667 2.99996 13.5697 2.99996 12.8333V7.50001ZM14 6.16668H1.99996V5.50001C1.99996 5.13182 2.29844 4.83334 2.66663 4.83334H13.3333C13.7015 4.83334 14 5.13182 14 5.50001V6.16668Z" fill="#8C8C8C" fill-opacity="0.6"/>
</svg>
