<svg width="32" height="32" viewBox="0 0 32 32" fill="none" xmlns="http://www.w3.org/2000/svg">
<path d="M12.688 17.3333C12.8722 23.3333 14.2852 28 16.001 28C16.2401 28 16.4733 27.9094 16.6982 27.7371C16.1078 26.6217 15.7734 25.3499 15.7734 24C15.7734 21.2331 17.1781 18.7943 19.3132 17.3577C19.3135 17.3496 19.3137 17.3415 19.314 17.3333H12.688Z" fill="#CACED3"></path>
<path d="M4.07422 17.3333C4.57829 21.8933 7.63738 25.6832 11.7881 27.2397C11.5053 26.5991 11.2708 25.9055 11.0746 25.199C10.4784 23.0526 10.1061 20.3084 10.0201 17.3333H4.07422Z" fill="#CACED3"></path>
<path d="M10.0201 14.6667H4.07422C4.57829 10.1067 7.63738 6.31684 11.7881 4.76034C11.5053 5.40088 11.2708 6.09448 11.0746 6.801C10.4784 8.94737 10.1061 11.6916 10.0201 14.6667Z" fill="#CACED3"></path>
<path d="M20.9274 6.801C20.7311 6.09448 20.4966 5.40088 20.2138 4.76034C24.3646 6.31684 27.4237 10.1067 27.9277 14.6667H21.9818C21.8958 11.6916 21.5236 8.94737 20.9274 6.801Z" fill="#CACED3"></path>
<path d="M12.688 14.6667H19.314C19.1297 8.66673 17.7167 4 16.001 4C14.2852 4 12.8722 8.66673 12.688 14.6667Z" fill="#CACED3"></path>
<path fill-rule="evenodd" clip-rule="evenodd" d="M23.7735 29.3333C26.719 29.3333 29.1069 26.9455 29.1069 24C29.1069 21.0545 26.719 18.6667 23.7735 18.6667C20.828 18.6667 18.4402 21.0545 18.4402 24C18.4402 26.9455 20.828 29.3333 23.7735 29.3333ZM23.7735 21.6667L21.4402 24L23.7735 26.3333L26.1069 24L23.7735 21.6667Z" fill="#F0B90B"></path>
</svg>
