<svg width="640" height="640" viewBox="0 0 640 640" fill="none" xmlns="http://www.w3.org/2000/svg">
<g clip-path="url(#clip0_2008_11716)">
<path d="M1.5206 336.549C2.25762 345.651 2.77661 352.088 3.07756 355.859C3.78387 364.734 5.77998 376.683 9.06588 391.706C9.50195 393.69 10.1622 396.159 11.0466 399.113C11.4581 400.495 12.1061 402.927 12.9905 406.41C13.961 410.212 15.0327 413.921 16.2058 417.539C25.9837 447.652 39.5971 475.349 57.0462 500.629C89.8131 548.1 132.367 584.33 184.708 609.322C213.194 622.926 244.155 632.13 277.592 636.933C281.922 637.553 285.975 637.998 289.752 638.268C296.134 638.717 300.2 639.033 301.95 639.217C307.564 639.795 313.654 640.053 320.219 639.991C329.997 639.899 339.993 639.395 350.207 638.48C379.012 635.907 407.219 629.415 434.826 619.004C440.428 616.892 446.094 614.524 451.824 611.901C507.457 586.468 552.308 548.689 586.377 498.565C603.292 473.685 616.524 446.378 626.075 416.645C627.66 411.707 628.996 406.354 630.534 401.011C631.867 396.429 632.871 392.495 633.547 389.209C635.445 380.015 636.891 371.668 637.886 364.169C638.869 356.768 639.851 347.485 640.834 336.319C641.46 329.216 641.322 321.615 641.304 315C641.285 309.81 641.006 304.485 640.466 299.025C639.206 286.256 638.331 278.186 637.84 274.814C636.151 263.101 634.342 253.367 632.413 245.609C630.688 238.638 628.197 229.895 624.942 219.381C623.818 215.745 622.719 212.609 621.644 209.974C618.382 201.968 615.987 195.206 612.09 186.749C593.965 147.422 568.983 113.166 537.144 83.9799C501.939 51.6983 461.442 28.3929 415.655 14.0639C394.963 7.59042 372.843 3.22662 349.295 0.972553C344.523 0.518054 338.396 0.232457 330.915 0.115762C317.612 -0.0930621 308.086 -0.0193616 302.337 0.336867C260.486 2.89803 221.163 12.9338 184.367 30.4443C133.304 54.7354 91.2318 90.3275 58.1517 137.221C56.6715 139.321 55.1883 141.572 53.7019 143.974C53.2966 144.619 51.8379 146.876 49.3258 150.745C47.3482 153.798 45.2783 157.262 43.1164 161.137C39.1181 168.292 36.5078 173.074 35.2855 175.482C30.4949 184.915 25.6459 196.1 20.7385 209.035C18.767 214.243 16.8292 220.062 14.9252 226.493C11.6946 237.388 9.78448 244.227 9.19486 247.01C7.0145 257.254 5.57423 264.665 4.87406 269.24C3.59041 277.642 2.54014 288.378 1.72328 301.448C1.52981 304.461 0.544037 307.906 0.442696 310.947C0.362851 313.317 0.362851 318.919 0.442696 327.751C0.461121 329.483 0.574748 330.966 0.783572 332.201C1.26264 334.989 1.50832 336.438 1.5206 336.549Z" stroke="black" stroke-width="2"/>
<path d="M247.162 299.762C247.137 299.756 247.125 299.722 247.125 299.661L247.208 228.087C247.208 227.669 247.002 227.46 246.591 227.46H219.256C219.212 227.46 219.167 227.469 219.126 227.485C219.085 227.502 219.047 227.526 219.015 227.557C218.984 227.588 218.958 227.625 218.941 227.665C218.924 227.705 218.915 227.748 218.915 227.792V306.34C218.915 306.46 218.868 306.575 218.783 306.659C218.699 306.744 218.584 306.792 218.464 306.792H107.873C107.56 306.792 107.404 306.638 107.404 306.331V227.829C107.404 227.728 107.364 227.632 107.293 227.562C107.222 227.491 107.126 227.451 107.026 227.451H79.3691C79.2738 227.451 79.1824 227.489 79.115 227.556C79.0476 227.624 79.0098 227.715 79.0098 227.81V421.003C79.0098 421.145 79.0661 421.28 79.1663 421.381C79.2665 421.481 79.4024 421.537 79.5441 421.537H107.173C107.327 421.537 107.404 421.46 107.404 421.307V335.112C107.404 334.78 107.569 334.614 107.901 334.614H218.621C218.701 334.614 218.779 334.646 218.836 334.703C218.893 334.76 218.925 334.838 218.925 334.918V421.27C218.925 421.448 219.014 421.537 219.192 421.537H246.333C246.567 421.537 246.792 421.444 246.958 421.278C247.124 421.112 247.217 420.887 247.217 420.653L247.125 337.35C247.125 337.228 247.156 337.169 247.217 337.175C247.315 337.188 247.365 337.237 247.365 337.323C247.401 339.006 247.555 340.471 247.825 341.717C257.185 385.478 291.77 416.341 336.416 420.155C341.458 420.585 347.21 420.631 353.671 420.293C371.618 419.366 388.102 414.075 403.125 404.42C407.019 401.92 411.245 398.585 415.802 394.415C415.893 394.331 416.011 394.285 416.134 394.285C416.257 394.285 416.375 394.331 416.466 394.415C433.282 409.64 453.077 418.208 475.851 420.118C481.133 420.561 486.778 420.634 492.784 420.339C506.972 419.633 520.444 416.111 533.201 409.772C564.488 394.221 582.573 362.529 585.65 328.589C586.043 324.235 586.334 319.711 586.525 315.019C586.527 314.953 586.517 314.888 586.493 314.826C586.47 314.765 586.434 314.709 586.389 314.661C586.343 314.614 586.288 314.576 586.228 314.551C586.167 314.525 586.102 314.512 586.037 314.512H486.124C486.05 314.512 485.98 314.541 485.928 314.593C485.876 314.645 485.847 314.715 485.847 314.788V341.561C485.847 341.678 485.894 341.79 485.977 341.873C486.06 341.956 486.172 342.003 486.289 342.003H553.976C554.049 342.004 554.121 342.021 554.186 342.053C554.251 342.085 554.308 342.131 554.352 342.188C554.397 342.245 554.427 342.311 554.442 342.381C554.457 342.451 554.455 342.523 554.437 342.593C552.398 350.559 548.958 357.981 544.118 364.86C535.041 377.758 522.775 386.2 507.322 390.186C491.882 394.166 476.659 393.542 461.654 388.316C451.269 384.698 442.2 378.916 434.449 370.968C434.105 370.618 434.047 370.225 434.274 369.789C438.395 361.896 441.485 353.587 443.542 344.859C445.833 335.13 447.015 325.153 447.089 314.927C447.089 314.65 446.951 314.512 446.674 314.512H414.024C413.983 314.512 413.942 314.503 413.903 314.487C413.865 314.47 413.831 314.445 413.802 314.414C413.774 314.383 413.752 314.346 413.738 314.306C413.724 314.266 413.718 314.223 413.72 314.18C414.291 304.624 416.46 295.457 420.224 286.68C420.282 286.546 420.378 286.432 420.501 286.352C420.624 286.272 420.768 286.229 420.915 286.229H442.464C442.526 286.229 442.588 286.214 442.643 286.186C442.699 286.158 442.747 286.117 442.784 286.067C442.821 286.016 442.845 285.958 442.855 285.897C442.865 285.835 442.861 285.772 442.842 285.713C440.729 279.03 437.999 272.695 434.652 266.707C434.54 266.506 434.497 266.275 434.529 266.049C434.56 265.823 434.665 265.614 434.827 265.454C444.93 255.535 456.87 249.267 470.646 246.65C503.453 240.413 536.628 254.822 551.037 285.685C551.117 285.851 551.241 285.991 551.396 286.088C551.551 286.186 551.73 286.238 551.912 286.238H581.854C581.923 286.239 581.991 286.223 582.053 286.192C582.115 286.161 582.168 286.115 582.209 286.059C582.249 286.003 582.276 285.938 582.286 285.87C582.297 285.802 582.291 285.732 582.268 285.667C574.333 261.449 559.636 243.116 538.176 230.666C533.465 227.939 527.879 225.424 521.418 223.121C510.006 219.055 497.004 217.173 482.411 217.473C457.285 217.989 435.472 226.447 416.972 242.846C416.798 242.998 416.576 243.083 416.345 243.085C416.115 243.087 415.893 243.005 415.719 242.855C397.589 227.058 376.507 218.634 352.473 217.584C346.209 217.308 340.098 217.464 334.14 218.054C317.637 219.7 302.847 224.841 289.771 233.476C270.989 245.883 257.972 263.129 250.718 285.215C248.968 290.553 247.847 295.346 247.355 299.596C247.337 299.732 247.276 299.787 247.171 299.762H247.162Z" stroke="black" stroke-width="2"/>
<path d="M346.44 341.413V314.825C346.44 314.616 346.545 314.512 346.753 314.512H384.535C384.904 314.512 385.088 314.328 385.088 313.959C385.137 309.23 385.681 304.135 386.718 298.675C388.88 287.233 392.679 276.604 398.115 266.79C398.194 266.647 398.224 266.484 398.2 266.324C398.177 266.164 398.102 266.017 397.986 265.905C386.089 254.395 371.929 247.695 355.506 245.803C327.01 242.514 300.791 253.763 285.396 278.195C275.087 294.557 272.028 315.203 275.824 333.979C279.933 354.284 291.965 372.175 309.856 382.585C327.886 393.07 350.383 395.557 370.504 389.513C381.172 386.301 390.44 380.706 398.308 372.728C398.46 372.571 398.558 372.369 398.586 372.153C398.614 371.937 398.572 371.719 398.465 371.53C393.275 362.274 389.608 352.613 387.465 342.547C387.433 342.393 387.349 342.256 387.226 342.157C387.104 342.058 386.951 342.004 386.792 342.003H347.03C346.873 342.003 346.723 341.941 346.613 341.83C346.502 341.72 346.44 341.57 346.44 341.413Z" stroke="black" stroke-width="2"/>
<path d="M0.400793 332.201C0.191952 330.966 0.0783154 329.483 0.0598882 327.751C-0.0199627 318.919 -0.0199627 313.317 0.0598882 310.947C0.161238 307.906 1.14709 304.461 1.34057 301.448C2.15751 288.378 3.20786 277.642 4.49162 269.24C5.19185 264.665 6.63224 257.254 8.81278 247.01C9.40245 244.227 11.3127 237.388 14.5436 226.493C16.4478 220.062 18.3857 214.243 20.3574 209.035C25.2652 196.1 30.1146 184.915 34.9056 175.482C36.128 173.074 38.7385 168.292 42.7372 161.137C44.8993 157.262 46.9693 153.798 48.9471 150.745C51.4593 146.876 52.9182 144.619 53.3236 143.974C54.81 141.572 56.2934 139.321 57.7737 137.221C90.8566 90.3275 132.932 54.7354 184 30.4443C220.799 12.9338 260.125 2.89803 301.979 0.336867C307.729 -0.0193616 317.256 -0.0930621 330.56 0.115762C338.041 0.232457 344.168 0.518054 348.941 0.972553C372.491 3.22662 394.613 7.59042 415.306 14.0639C461.098 28.3929 501.598 51.6983 536.806 83.9799C568.648 113.166 593.632 147.422 611.758 186.749C615.656 195.206 618.051 201.968 621.313 209.974C622.388 212.609 623.487 215.745 624.611 219.381C627.867 229.895 630.357 238.638 632.083 245.609C634.012 253.367 635.821 263.101 637.51 274.814C638.002 278.186 638.877 286.256 640.136 299.025C640.677 304.485 640.956 309.81 640.974 315C640.993 321.615 641.131 329.216 640.505 336.319C639.522 347.485 638.539 356.768 637.556 364.169C636.561 371.668 635.115 380.015 633.217 389.209C632.541 392.495 631.537 396.429 630.204 401.011C628.665 406.354 627.329 411.707 625.744 416.645C616.193 446.378 602.959 473.685 586.043 498.565C551.971 548.689 507.117 586.468 451.479 611.901C445.748 614.524 440.082 616.892 434.48 619.004C406.87 629.415 378.661 635.907 349.853 638.48C339.638 639.395 329.642 639.899 319.863 639.991C313.297 640.053 307.207 639.795 301.592 639.217C299.842 639.033 295.776 638.717 289.394 638.268C285.616 637.998 281.562 637.553 277.232 636.933C243.793 632.13 212.829 622.926 184.341 609.322C131.995 584.33 89.4377 548.1 56.6681 500.629C39.2176 475.349 25.603 447.652 15.8243 417.539C14.6511 413.921 13.5793 410.212 12.6088 406.41C11.7243 402.927 11.0763 400.495 10.6647 399.113C9.78021 396.159 9.1199 393.69 8.68379 391.706C5.39762 376.683 3.40134 364.734 2.69497 355.859C2.39399 352.088 1.87497 345.651 1.13788 336.549C1.1256 336.438 0.879899 334.989 0.400793 332.201ZM246.799 299.762C246.775 299.756 246.763 299.722 246.763 299.661L246.845 228.087C246.845 227.669 246.64 227.46 246.228 227.46H218.891C218.847 227.46 218.802 227.469 218.761 227.485C218.72 227.502 218.682 227.527 218.65 227.557C218.619 227.588 218.594 227.625 218.576 227.665C218.559 227.705 218.551 227.748 218.551 227.792V306.34C218.551 306.46 218.503 306.575 218.418 306.659C218.334 306.744 218.219 306.792 218.099 306.792H107.499C107.186 306.792 107.029 306.638 107.029 306.331V227.829C107.029 227.729 106.99 227.632 106.919 227.562C106.848 227.491 106.752 227.451 106.652 227.451H78.9926C78.8973 227.451 78.8059 227.489 78.7385 227.556C78.6711 227.624 78.6332 227.715 78.6332 227.81V421.003C78.6332 421.145 78.6895 421.28 78.7898 421.381C78.89 421.481 79.0259 421.537 79.1676 421.537H106.799C106.953 421.537 107.029 421.46 107.029 421.307V335.112C107.029 334.78 107.195 334.614 107.527 334.614H218.256C218.336 334.614 218.414 334.646 218.471 334.703C218.528 334.76 218.56 334.838 218.56 334.918V421.27C218.56 421.448 218.649 421.537 218.827 421.537H245.97C246.205 421.537 246.43 421.444 246.596 421.278C246.761 421.112 246.855 420.887 246.855 420.653L246.763 337.351C246.763 337.228 246.793 337.169 246.855 337.175C246.953 337.188 247.002 337.237 247.002 337.323C247.039 339.006 247.192 340.471 247.463 341.717C256.824 385.478 291.411 416.341 336.06 420.155C341.103 420.585 346.856 420.631 353.317 420.293C371.266 419.366 387.752 414.075 402.776 404.42C406.67 401.92 410.896 398.585 415.454 394.415C415.544 394.331 415.663 394.285 415.786 394.285C415.909 394.285 416.027 394.331 416.117 394.415C432.935 409.64 452.732 418.208 475.508 420.118C480.79 420.561 486.435 420.634 492.442 420.339C506.631 419.633 520.105 416.111 532.862 409.772C564.152 394.221 582.238 362.529 585.315 328.589C585.708 324.235 586 319.711 586.191 315.019C586.193 314.953 586.182 314.888 586.159 314.826C586.135 314.765 586.1 314.709 586.054 314.661C586.009 314.614 585.954 314.577 585.893 314.551C585.833 314.525 585.768 314.512 585.702 314.512H485.781C485.708 314.512 485.637 314.541 485.586 314.593C485.534 314.645 485.505 314.715 485.505 314.788V341.561C485.505 341.678 485.551 341.791 485.634 341.873C485.717 341.956 485.83 342.003 485.947 342.003H553.639C553.712 342.004 553.784 342.021 553.849 342.053C553.914 342.085 553.971 342.131 554.015 342.188C554.06 342.245 554.091 342.311 554.105 342.381C554.12 342.451 554.118 342.523 554.1 342.593C552.06 350.559 548.621 357.981 543.78 364.86C534.702 377.758 522.436 386.2 506.981 390.186C491.54 394.166 476.316 393.542 461.31 388.316C450.923 384.698 441.854 378.916 434.102 370.968C433.758 370.618 433.7 370.225 433.927 369.789C438.049 361.896 441.138 353.587 443.196 344.859C445.487 335.13 446.669 325.153 446.743 314.927C446.743 314.65 446.605 314.512 446.328 314.512H413.676C413.634 314.512 413.593 314.504 413.555 314.487C413.517 314.47 413.482 314.445 413.454 314.414C413.425 314.383 413.403 314.346 413.389 314.306C413.375 314.266 413.369 314.223 413.372 314.18C413.943 304.624 416.111 295.457 419.876 286.68C419.934 286.546 420.03 286.432 420.153 286.352C420.276 286.272 420.42 286.229 420.567 286.229H442.118C442.18 286.229 442.242 286.214 442.297 286.186C442.353 286.158 442.401 286.117 442.438 286.067C442.474 286.016 442.499 285.958 442.509 285.897C442.519 285.835 442.514 285.772 442.496 285.713C440.383 279.03 437.652 272.695 434.305 266.707C434.193 266.506 434.15 266.275 434.182 266.049C434.213 265.823 434.318 265.614 434.48 265.454C444.584 255.535 456.525 249.267 470.302 246.65C503.112 240.413 536.29 254.822 550.7 285.685C550.78 285.851 550.904 285.991 551.059 286.088C551.214 286.186 551.393 286.238 551.575 286.238H581.519C581.588 286.239 581.657 286.223 581.718 286.192C581.78 286.161 581.833 286.115 581.874 286.059C581.915 286.003 581.941 285.939 581.952 285.87C581.962 285.802 581.956 285.732 581.934 285.667C573.998 261.449 559.299 243.116 537.838 230.666C533.126 227.939 527.54 225.424 521.078 223.121C509.666 219.055 496.662 217.173 482.068 217.473C456.939 217.989 435.125 226.447 416.624 242.846C416.45 242.998 416.227 243.083 415.997 243.085C415.767 243.087 415.544 243.005 415.371 242.855C397.239 227.058 376.155 218.634 352.12 217.584C345.854 217.308 339.743 217.464 333.785 218.054C317.28 219.7 302.489 224.841 289.412 233.476C270.629 245.883 257.61 263.129 250.356 285.215C248.605 290.553 247.484 295.346 246.993 299.596C246.974 299.732 246.913 299.787 246.809 299.762H246.799Z" fill="black"/>
<path d="M247.506 299.518C247.998 295.249 249.12 290.434 250.872 285.073C258.133 262.889 271.163 245.566 289.963 233.105C303.051 224.431 317.855 219.268 334.374 217.614C340.337 217.022 346.454 216.865 352.725 217.142C376.781 218.197 397.883 226.658 416.031 242.525C416.205 242.676 416.427 242.758 416.658 242.756C416.888 242.755 417.111 242.669 417.285 242.516C435.802 226.044 457.636 217.549 482.786 217.031C497.393 216.729 510.408 218.62 521.831 222.704C528.298 225.017 533.889 227.543 538.605 230.282C560.085 242.787 574.796 261.202 582.739 285.527C582.761 285.593 582.767 285.663 582.757 285.731C582.747 285.8 582.72 285.865 582.679 285.921C582.639 285.977 582.585 286.023 582.523 286.054C582.462 286.085 582.393 286.101 582.324 286.101H552.354C552.172 286.101 551.992 286.049 551.837 285.951C551.682 285.852 551.558 285.712 551.478 285.545C537.055 254.546 503.848 240.073 471.01 246.338C457.221 248.966 445.27 255.261 435.157 265.224C434.995 265.385 434.89 265.595 434.858 265.822C434.827 266.049 434.87 266.281 434.982 266.483C438.332 272.498 441.065 278.861 443.18 285.573C443.198 285.633 443.203 285.696 443.193 285.758C443.183 285.82 443.158 285.878 443.122 285.929C443.085 285.979 443.036 286.02 442.981 286.048C442.925 286.077 442.864 286.091 442.801 286.091H421.232C421.085 286.091 420.94 286.134 420.817 286.215C420.694 286.296 420.598 286.41 420.541 286.545C416.772 295.36 414.602 304.568 414.03 314.167C414.028 314.21 414.034 314.253 414.048 314.293C414.062 314.334 414.084 314.371 414.112 314.402C414.141 314.433 414.175 314.458 414.214 314.475C414.252 314.492 414.293 314.5 414.334 314.5H447.016C447.292 314.5 447.431 314.639 447.431 314.917C447.357 325.188 446.174 335.21 443.88 344.982C441.821 353.748 438.729 362.095 434.603 370.022C434.376 370.46 434.434 370.855 434.779 371.207C442.537 379.189 451.614 384.998 462.01 388.631C477.029 393.881 492.266 394.507 507.722 390.51C523.189 386.506 535.466 378.027 544.553 365.071C549.397 358.162 552.84 350.707 554.881 342.705C554.899 342.636 554.901 342.563 554.886 342.493C554.872 342.422 554.841 342.356 554.797 342.299C554.752 342.242 554.695 342.196 554.63 342.163C554.564 342.131 554.493 342.114 554.42 342.113H486.669C486.551 342.113 486.439 342.066 486.356 341.983C486.273 341.9 486.226 341.787 486.226 341.669V314.778C486.226 314.704 486.255 314.633 486.307 314.581C486.359 314.529 486.429 314.5 486.503 314.5H586.511C586.577 314.5 586.642 314.513 586.702 314.539C586.763 314.565 586.818 314.603 586.863 314.65C586.909 314.698 586.944 314.754 586.968 314.816C586.991 314.877 587.002 314.943 587 315.009C586.809 319.722 586.517 324.266 586.124 328.64C583.044 362.73 564.942 394.563 533.625 410.183C520.856 416.55 507.371 420.088 493.17 420.797C487.157 421.093 481.508 421.019 476.221 420.575C453.425 418.656 433.611 410.05 416.778 394.757C416.688 394.673 416.569 394.627 416.446 394.627C416.323 394.627 416.204 394.673 416.114 394.757C411.552 398.946 407.323 402.296 403.425 404.807C388.388 414.505 371.887 419.819 353.924 420.751C347.456 421.09 341.699 421.044 336.652 420.612C291.964 416.781 257.346 385.781 247.977 341.826C247.706 340.574 247.552 339.103 247.516 337.412C247.516 337.326 247.466 337.277 247.368 337.264C247.307 337.258 247.276 337.317 247.276 337.44L247.368 421.112C247.368 421.347 247.275 421.573 247.109 421.74C246.943 421.906 246.718 422 246.483 422H219.316C219.138 422 219.048 421.911 219.048 421.732V334.997C219.048 334.916 219.016 334.838 218.959 334.781C218.902 334.724 218.825 334.692 218.744 334.692H107.919C107.587 334.692 107.421 334.858 107.421 335.191V421.769C107.421 421.923 107.344 422 107.19 422H79.5349C79.393 422 79.257 421.943 79.1567 421.843C79.0563 421.742 79 421.606 79 421.463V227.414C79 227.318 79.0379 227.226 79.1053 227.159C79.1728 227.091 79.2643 227.053 79.3596 227.053H107.043C107.143 227.053 107.239 227.093 107.31 227.164C107.381 227.235 107.421 227.332 107.421 227.432V306.283C107.421 306.591 107.578 306.746 107.891 306.746H218.587C218.707 306.746 218.822 306.698 218.907 306.613C218.992 306.528 219.039 306.412 219.039 306.292V227.395C219.039 227.352 219.048 227.308 219.065 227.268C219.082 227.227 219.107 227.191 219.139 227.16C219.171 227.129 219.208 227.104 219.25 227.088C219.291 227.071 219.336 227.062 219.38 227.062H246.741C247.153 227.062 247.359 227.272 247.359 227.691L247.276 299.583C247.276 299.645 247.288 299.679 247.313 299.685H247.322C247.426 299.71 247.488 299.654 247.506 299.518ZM346.685 341.521V314.815C346.685 314.605 346.789 314.5 346.998 314.5H384.816C385.185 314.5 385.369 314.315 385.369 313.945C385.419 309.195 385.963 304.077 387.001 298.593C389.165 287.1 392.968 276.424 398.409 266.566C398.488 266.423 398.518 266.259 398.494 266.098C398.471 265.937 398.396 265.79 398.28 265.678C386.371 254.117 372.198 247.386 355.759 245.486C327.236 242.183 300.992 253.481 285.582 278.022C275.263 294.457 272.202 315.194 276.001 334.053C280.114 354.448 292.157 372.419 310.066 382.876C328.112 393.406 350.632 395.905 370.772 389.834C381.45 386.608 390.727 380.988 398.602 372.974C398.754 372.816 398.852 372.614 398.88 372.397C398.908 372.18 398.866 371.961 398.759 371.771C393.564 362.474 389.894 352.77 387.748 342.659C387.717 342.505 387.632 342.367 387.51 342.268C387.387 342.168 387.234 342.114 387.075 342.113H347.275C347.118 342.113 346.968 342.051 346.858 341.94C346.747 341.829 346.685 341.678 346.685 341.521Z" fill="white"/>
<path d="M346.568 341.493C346.568 341.65 346.631 341.8 346.742 341.911C346.853 342.022 347.004 342.084 347.161 342.084H387.135C387.294 342.085 387.449 342.139 387.572 342.239C387.695 342.338 387.779 342.476 387.811 342.63C389.966 352.73 393.652 362.423 398.87 371.71C398.977 371.9 399.02 372.119 398.991 372.335C398.963 372.552 398.865 372.754 398.712 372.912C390.803 380.917 381.485 386.531 370.76 389.754C350.532 395.818 327.915 393.322 309.79 382.803C291.803 372.357 279.707 354.406 275.576 334.033C271.761 315.194 274.836 294.479 285.199 278.063C300.676 253.548 327.035 242.262 355.682 245.562C372.193 247.46 386.428 254.183 398.388 265.732C398.505 265.843 398.581 265.991 398.604 266.151C398.628 266.312 398.597 266.476 398.518 266.619C393.053 276.467 389.234 287.131 387.061 298.611C386.017 304.09 385.471 309.201 385.422 313.947C385.422 314.316 385.236 314.501 384.866 314.501H346.883C346.673 314.501 346.568 314.606 346.568 314.815V341.493Z" fill="black"/>
</g>
<defs>
<clipPath id="clip0_2008_11716">
<rect width="640" height="640" fill="white"/>
</clipPath>
</defs>
</svg>
