<svg xmlns="http://www.w3.org/2000/svg" viewBox="0 0 96 96" fill="none" class="css-ma0j4v"><path fill="#76808F" d="M36 54h24v30H36z"></path><path d="M47.998 10c9.94 0 18 8.06 18 18 0 9.942-8.059 18.001-18 18.001s-18-8.06-18-18.001 8.059-18 18-18z" fill="#E6E8EA"></path><path d="M36 54h-8c-8.837 0-16 7.163-16 16v14h24V54z" fill="url(#corporate-account-warning-light_svg__paint0_linear_22059_28219)"></path><path d="M60 84h24V70c0-8.837-7.163-16-16-16h-8v30z" fill="url(#corporate-account-warning-light_svg__paint1_linear_22059_28219)"></path><path d="M60 54v10L50 54h10zM36 54v10l10-10H36z" fill="#E6E8EA"></path><path d="M72 48c-8.284 0-15 6.716-15 15 0 8.284 6.716 15 15 15 8.284 0 15-6.716 15-15 0-8.284-6.716-15-15-15z" fill="url(#corporate-account-warning-light_svg__paint2_linear_22059_28219)"></path><path d="M73.5 72h-3v-3h3v3zM70.5 66V54h3v12h-3z" fill="#14151A"></path><path fill="#E6E8EA" d="M46 54h4v30h-4z"></path><defs><linearGradient id="corporate-account-warning-light_svg__paint0_linear_22059_28219" x1="48" y1="84" x2="48" y2="54" gradientUnits="userSpaceOnUse"><stop stop-color="#929AA5"></stop><stop offset="1" stop-color="#76808F"></stop></linearGradient><linearGradient id="corporate-account-warning-light_svg__paint1_linear_22059_28219" x1="48" y1="84" x2="48" y2="54" gradientUnits="userSpaceOnUse"><stop stop-color="#929AA5"></stop><stop offset="1" stop-color="#76808F"></stop></linearGradient><linearGradient id="corporate-account-warning-light_svg__paint2_linear_22059_28219" x1="57" y1="63" x2="87" y2="63" gradientUnits="userSpaceOnUse"><stop stop-color="#F0B90B"></stop><stop offset="1" stop-color="#F8D33A"></stop></linearGradient></defs></svg>