<svg width="20" height="20" viewBox="0 0 20 20" fill="none" xmlns="http://www.w3.org/2000/svg">
<path d="M10.2 18.8C15.0601 18.8 19 14.8601 19 10C19 5.13991 15.0601 1.20001 10.2 1.20001C5.33992 1.20001 1.40002 5.13991 1.40002 10C1.40002 14.8601 5.33992 18.8 10.2 18.8Z" fill="#666666"/>
<path d="M10 0C4.47581 0 0 4.47581 0 10C0 15.5242 4.47581 20 10 20C15.5242 20 20 15.5242 20 10C19.9933 4.47581 15.5175 0 10 0ZM10.1613 10.3293L9.11962 13.8374H14.6841C14.8387 13.8374 14.9664 13.9651 14.9664 14.1263C14.9664 14.1532 14.9597 14.1801 14.953 14.207L14.4691 15.8737C14.422 16.0349 14.2742 16.1492 14.0995 16.1492H5.60484L7.04301 11.297L5.45699 11.7809L5.80645 10.6452L7.39919 10.1613L9.41532 3.34677C9.46237 3.18548 9.61021 3.07124 9.77822 3.07124H11.9288C12.0833 3.07124 12.2177 3.19892 12.2177 3.35349C12.2177 3.38038 12.211 3.40726 12.2043 3.43414L10.5108 9.19355L12.0968 8.70968L11.754 9.86559L10.1613 10.3293Z" fill="white"/>
</svg>
