<svg class="bn-svg w-[96px] h-[96px]" viewBox="0 0 96 96" xmlns="http://www.w3.org/2000/svg"><path opacity="0.5" d="M58 12.002l16 16H58v-16z" fill="#929AA5"></path><path opacity="0.15" fill-rule="evenodd" clip-rule="evenodd" d="M22 12.002h36v16h16v56H22v-72zm6 19.997h40v4H28v-4zm0 8h12.248a16.074 16.074 0 00-4.74 4H28v-4zm32.49 4a16.076 16.076 0 00-4.739-4H68v4H60.49zm-32.49 4h5.163a15.891 15.891 0 00-1.04 4H28v-4zm34.837 0c.51 1.261.864 2.603 1.039 4h4.123v-4h-5.162zm-34.838 8h4.124a15.891 15.891 0 001.04 4H28v-4zm35.877 0a15.891 15.891 0 01-1.04 4H68v-4h-4.123zm-35.876 8h7.509a16.074 16.074 0 004.739 4H28v-4zm32.49 0a16.074 16.074 0 01-4.739 4H68v-4H60.49zm7.51 8v4H28v-4h40z" fill="#929AA5"></path><path fill-rule="evenodd" clip-rule="evenodd" d="M48 65.999c6.627 0 12-5.373 12-12s-5.373-12-12-12c-6.628 0-12 5.373-12 12s5.372 12 12 12zm0-16.8l-4.8 4.8 4.8 4.8 4.8-4.8-4.8-4.8z" fill="#F0B90B"></path></svg>