<svg width="16" height="16" viewBox="0 0 18 18" fill="none" xmlns="http://www.w3.org/2000/svg" style="flex-shrink: 0;"><g clip-path="url(#clip0_6618_1009)"><path d="M9.81827 6.51257H4.90918" stroke="currentColor" stroke-width="1.2" stroke-linecap="round" stroke-linejoin="round"></path><path d="M12.9929 9.01677C13.0665 9.86727 13.8765 10.4894 14.7602 10.4894H16.3638V11.6313C16.3638 13.9938 14.7275 15.5688 12.2729 15.5688H4.90927C2.45472 15.5688 0.818359 13.9938 0.818359 11.6313V6.11877C0.818359 3.97677 2.16018 2.48052 4.24654 2.22852C4.45927 2.19702 4.68018 2.18127 4.90927 2.18127H12.2729C12.4856 2.18127 12.6902 2.18914 12.8865 2.22064C14.9975 2.45689 16.3638 3.96102 16.3638 6.11877V7.26066H14.662C14.2038 7.26066 13.7865 7.43389 13.4838 7.73314C13.1402 8.05601 12.9438 8.52064 12.9929 9.01677Z" stroke="currentColor" stroke-width="1.2" stroke-linecap="round" stroke-linejoin="round"></path><path d="M17.1819 9.68613C17.1819 10.1193 16.8219 10.4736 16.3637 10.4894H14.7601C13.8764 10.4894 13.0665 9.86723 12.9928 9.01673C12.9437 8.5206 13.1401 8.05598 13.4837 7.7331C13.7864 7.43385 14.2037 7.26062 14.6619 7.26062H16.3637C16.8219 7.27637 17.1819 7.63071 17.1819 8.06384V9.68613Z" stroke="#FF8200" stroke-width="1.2" stroke-linecap="round" stroke-linejoin="round"></path></g><defs><clipPath id="clip0_6618_1009"><rect width="18" height="15.75" fill="white" transform="translate(0 1)"></rect></clipPath></defs></svg>