<svg class="bn-svg w-[96px] h-[96px]" viewBox="0 0 96 96" xmlns="http://www.w3.org/2000/svg"><path opacity="0.15" fill-rule="evenodd" clip-rule="evenodd" d="M35.545 88c-4.668-.013-10.028-1.867-15.545-7.384V52.001h23.7l14.49 14.49a9.261 9.261 0 01-13.097 0l-6.194-6.194-2.019 2.018 9.606 9.71h29.515c0 8.816-7.148 15.964-15.965 15.964l-24.261.012h-.23z" fill="#929AA5"></path><path opacity="0.5" d="M8 52h12v36H8V52z" fill="#929AA5"></path><path fill-rule="evenodd" clip-rule="evenodd" d="M68 12c11.045 0 20 8.954 20 20s-8.955 20-20 20c-11.046 0-20-8.954-20-20s8.954-20 20-20zm0 28l-8-8 8-8 8 8-8 8z" fill="#F0B90B"></path></svg>