<svg width="18px" height="18px" viewBox="0 0 22 22" fill="none" xmlns="http://www.w3.org/2000/svg" style="flex-shrink: 0;"><g clip-path="url(#clip0_7953_39641)"><path d="M0.969727 11.7001L6.96973 11.6801C7.71973 11.6801 8.55973 12.2501 8.83973 12.9501L9.97973 15.8301C10.2397 16.4801 10.6497 16.4801 10.9097 15.8301L13.1997 10.0201C13.4197 9.46011 13.8297 9.44011 14.1097 9.97011L15.1497 11.9401C15.4597 12.5301 16.2597 13.0101 16.9197 13.0101H20.9797" stroke="#FF8200" stroke-width="1.5" stroke-linecap="round" stroke-linejoin="round"></path><path d="M13.9697 21C18.9697 21 20.9697 19 20.9697 14V8C20.9697 3 18.9697 1 13.9697 1H7.96973C2.96973 1 0.969727 3 0.969727 8V14C0.969727 19 2.96973 21 7.96973 21H13.9697Z" stroke="currentColor" stroke-width="1.5" stroke-linecap="round" stroke-linejoin="round"></path></g><defs><clipPath id="clip0_7953_39641"><rect width="22" height="22" fill="white"></rect></clipPath></defs></svg>