<svg width="16" height="16" viewBox="0 0 18 18" fill="none" xmlns="http://www.w3.org/2000/svg" style="flex-shrink: 0;"><g clip-path="url(#clip0_6618_999)"><path d="M5.2832 7.87878C5.99593 8.23515 6.60684 8.77333 7.05048 9.44242C7.30502 9.8206 7.30502 10.3079 7.05048 10.6861C6.60684 11.3479 5.99593 11.8861 5.2832 12.2424" stroke="currentColor" stroke-width="1.2" stroke-linecap="round" stroke-linejoin="round"></path><path d="M10.2057 12.0606H12.9993M10.2057 8.72725H12.9993M5.66602 5.39392H12.9993" stroke="#FF8200" stroke-width="1.2" stroke-linecap="round" stroke-linejoin="round"></path><path d="M11.1 15.7273C14.6 15.7273 16 14.3273 16 10.8273V6.62729C16 3.12729 14.6 1.72729 11.1 1.72729H6.9C3.4 1.72729 2 3.12729 2 6.62729V10.8273C2 14.3273 3.4 15.7273 6.9 15.7273H11.1Z" stroke="currentColor" stroke-width="1.2" stroke-linecap="round" stroke-linejoin="round"></path></g><defs><clipPath id="clip0_6618_999"><rect width="16" height="16" fill="white" transform="translate(1 1)"></rect></clipPath></defs></svg>