<svg width="292" height="292" viewBox="0 0 292 292" fill="none" xmlns="http://www.w3.org/2000/svg">
<g clip-path="url(#clip0_3027_74)">
<rect width="291.126" height="291.126" rx="145.563" fill="white"/>
<path d="M139.975 -5C102.608 -2.99673 70.6862 10.1403 44.2109 34.411C13.125 62.9097 -3.2786 98.9786 -5 142.618" stroke="#F1BA8C" stroke-width="2"/>
<path d="M150.726 -5C223.478 -2.2367 284.98 50.9908 295.263 124.12C295.847 128.338 296.426 132.556 297 136.774" stroke="#F1BA8C" stroke-width="2"/>
<path d="M297 153.912C296.235 161.744 295.666 166.843 295.294 169.209C284.89 234.441 234.365 285.071 169.013 295.279C166.989 295.601 161.956 296.174 153.913 297" stroke="#F1BA8C" stroke-width="2"/>
<path d="M139.039 297C131.912 296.376 126.934 295.852 124.105 295.43C51.7156 284.648 -1.2854 225.033 -5 152.1" stroke="#F1BA8C" stroke-width="2"/>
<path d="M165.781 214.327C165.962 214.015 166.194 213.98 166.476 214.222C166.525 214.261 166.557 214.31 166.566 214.358L176.548 252.259C176.719 252.923 177.147 253.275 177.831 253.316C185.094 253.753 192.674 254.071 198.805 249.918C207.664 243.908 216.321 238.1 224.777 232.493C226.559 231.315 227.515 229.664 227.646 227.54C227.968 222.728 227.359 218.273 225.819 214.176C222.618 205.64 219.301 197.103 215.868 188.567C215.765 188.311 215.713 188.037 215.715 187.761C215.718 187.486 215.775 187.213 215.883 186.959C215.991 186.705 216.148 186.475 216.345 186.282C216.542 186.089 216.775 185.937 217.031 185.834C226.262 182.139 235.563 178.485 244.935 174.871C251.262 172.44 254.675 158.397 254.735 152.432C254.826 145.064 254.871 137.272 255.762 129.858C256.104 127.009 256.19 124.1 256.019 121.13C255.949 119.955 255.641 118.804 255.113 117.748C243.023 93.8092 230.777 69.5586 218.375 44.9959C215.556 39.409 211.363 35.0551 205.796 31.9344C203.38 30.5855 201.005 29.8808 198.669 29.8204C175.435 29.1359 154.033 29.7047 134.464 31.5268C131.323 31.8187 128.258 32.4932 125.268 33.5502C104.39 40.9089 84.347 47.8901 65.1398 54.4939C61.4403 55.7623 58.0428 56.5475 55.959 59.96C50.2008 69.3724 44.7447 79.1219 39.5906 89.2087C39.104 90.1819 38.8506 91.2573 38.8507 92.3495C38.9262 112.327 37.2199 132.531 37.0387 151.391C36.9632 159.831 35.4079 167.699 35.9515 176.306C36.032 177.514 36.334 178.601 36.8575 179.567C39.5956 184.661 42.6559 190.127 46.0383 195.966C47.0147 197.637 48.4996 198.593 50.4928 198.835C62.7137 200.304 74.5873 201.382 86.1137 202.066C86.2578 202.075 86.398 202.116 86.5233 202.188C86.6486 202.26 86.7556 202.359 86.8361 202.479C86.9165 202.599 86.9681 202.736 86.9868 202.879C87.0056 203.022 86.991 203.168 86.9442 203.304C84.045 211.72 81.2666 220.433 78.609 229.442C76.9027 235.196 77.8691 240.586 79.5301 246.279C80.0032 247.93 81.0199 249.244 82.5803 250.22C87.1254 253.104 90.6739 256.487 96.1401 257.604C100.861 258.57 105.2 259.109 109.156 259.22C109.598 259.229 110.026 259.069 110.352 258.774C110.678 258.479 110.877 258.071 110.908 257.634C111.3 252.998 111.149 248.378 112.297 243.742C113.706 237.974 115.322 232.462 117.144 227.208C117.718 225.547 118.151 225.582 118.443 227.313C120.053 236.585 121.951 245.695 124.135 254.644C125.565 260.483 129.113 262.864 134.781 261.787C142.593 260.307 150.807 258.802 159.424 257.272C160.209 257.135 160.926 256.738 161.46 256.144C161.993 255.55 162.313 254.793 162.369 253.995C162.791 247.895 162.58 241.945 163.607 235.83C164.392 231.179 163.773 226.332 164.921 221.545C165.464 219.31 165.711 217.05 165.66 214.765C165.66 214.604 165.701 214.458 165.781 214.327Z" stroke="#F1BA8C" stroke-width="2"/>
<path d="M178.676 130.704C182.119 128.091 195 129.284 198.382 129.843C205.887 131.096 212.757 136.366 220.217 137.499C220.78 137.589 221.309 137.489 221.802 137.197L225.939 134.751C226.584 134.372 227.073 133.776 227.319 133.068C227.566 132.36 227.553 131.586 227.283 130.885C224.092 122.499 221.017 114.632 218.057 107.284C215.822 101.717 211.735 98.6012 205.796 97.9368C197.491 97.0207 189.654 96.2556 182.285 95.6416C177.891 95.2792 174.207 93.2256 170.719 97.4083C169.581 98.7773 168.892 100.489 168.65 102.542C167.18 114.944 166.697 126.436 167.2 137.016C167.251 138.234 167.779 138.5 168.786 137.816C172.037 135.601 175.334 133.231 178.676 130.704Z" stroke="#F1BA8C" stroke-width="2"/>
<path d="M113.097 136.261L126.552 143.146C126.786 143.263 127.045 143.324 127.307 143.324C127.569 143.324 127.827 143.263 128.062 143.146L131.625 141.334C132.239 141.012 132.415 140.529 132.154 139.885C127.453 128.207 123.053 117.003 118.956 106.272C117.205 101.697 110.848 99.5827 106.755 97.363C106.302 97.1214 105.849 97.1164 105.396 97.3479C92.4709 103.881 80.1442 110.425 68.4166 116.978C64.1131 119.379 62.5125 124.498 63.5242 129.269C65.1952 137.101 66.6046 144.475 67.7522 151.391C67.9938 152.84 68.4266 154.27 69.0508 155.679C69.383 156.444 69.841 156.53 70.4249 155.936C74.8039 151.421 81.916 142.693 88.1523 141.138C95.3399 139.336 102.935 137.61 110.938 135.959C111.693 135.808 112.413 135.908 113.097 136.261Z" stroke="#F1BA8C" stroke-width="2"/>
<path d="M149.231 179.749C149.246 179.651 149.287 179.559 149.352 179.483C149.416 179.408 149.5 179.352 149.594 179.322C149.689 179.292 149.79 179.289 149.886 179.314C149.982 179.339 150.069 179.39 150.137 179.462L160.496 190.122C161.135 190.784 161.983 191.204 162.897 191.311C163.811 191.419 164.734 191.207 165.509 190.711L176.502 183.644C177.871 182.769 178.047 181.691 177.03 180.413C171.292 173.215 165.972 166.541 161.07 160.39C158.17 156.766 152.206 151.708 147.102 153.278C143.206 154.486 138.842 155.362 137.272 159.605C134.252 167.689 130.708 176.774 126.642 186.861C126.485 187.255 126.411 187.678 126.426 188.102C126.44 188.526 126.542 188.942 126.725 189.324C126.908 189.706 127.169 190.045 127.489 190.32C127.81 190.596 128.185 190.801 128.589 190.923L145.003 195.936C146.312 196.338 147.057 195.86 147.238 194.501L149.231 179.749Z" stroke="#F1BA8C" stroke-width="2"/>
<path d="M140 -5C102.626 -2.99154 70.6992 10.1795 44.2193 34.5131C13.1281 63.0857 -3.2783 99.248 -5 143V-5H140Z" fill="#F9F9F9"/>
<path d="M150.726 -5C223.478 -2.2367 284.98 50.9908 295.264 124.12C295.847 128.338 296.426 132.556 297 136.774V153.912C296.235 161.744 295.666 166.843 295.294 169.209C284.89 234.441 234.365 285.071 169.012 295.279C166.989 295.601 161.956 296.175 153.912 297H139.039C131.912 296.376 126.934 295.852 124.105 295.43C51.7156 284.648 -1.2854 225.033 -5 152.1V142.618C-3.2786 98.9786 13.125 62.9097 44.2109 34.411C70.6862 10.1403 102.608 -2.99673 139.975 -5H150.726ZM165.781 214.327C165.962 214.015 166.194 213.98 166.476 214.222C166.525 214.262 166.557 214.31 166.566 214.358L176.547 252.259C176.718 252.923 177.146 253.275 177.831 253.316C185.094 253.754 192.674 254.071 198.805 249.918C207.663 243.908 216.321 238.1 224.777 232.493C226.558 231.315 227.515 229.664 227.646 227.54C227.968 222.728 227.359 218.274 225.819 214.176C222.617 205.64 219.3 197.103 215.868 188.567C215.764 188.311 215.713 188.037 215.715 187.762C215.718 187.486 215.775 187.213 215.882 186.959C215.99 186.706 216.147 186.475 216.344 186.282C216.541 186.089 216.774 185.937 217.03 185.834C226.262 182.139 235.563 178.485 244.935 174.871C251.262 172.44 254.675 158.397 254.735 152.433C254.826 145.064 254.871 137.272 255.762 129.858C256.104 127.009 256.19 124.1 256.019 121.13C255.949 119.955 255.641 118.804 255.113 117.748C243.023 93.8094 230.776 69.5588 218.374 44.9961C215.556 39.4091 211.363 35.0553 205.796 31.9346C203.38 30.5857 201.004 29.881 198.669 29.8206C175.435 29.1361 154.033 29.7048 134.464 31.5269C131.323 31.8188 128.257 32.4933 125.268 33.5503C104.389 40.909 84.3467 47.8903 65.1395 54.494C61.44 55.7624 58.0425 56.5476 55.9587 59.9602C50.2006 69.3725 44.7444 79.1221 39.5903 89.2089C39.1037 90.1821 38.8504 91.2574 38.8504 92.3497C38.9259 112.327 37.2196 132.531 37.0384 151.391C36.9629 159.832 35.4076 167.699 35.9512 176.306C36.0317 177.514 36.3337 178.601 36.8572 179.567C39.5953 184.661 42.6556 190.127 46.038 195.966C47.0145 197.637 48.4993 198.593 50.4925 198.835C62.7134 200.305 74.5871 201.382 86.1134 202.066C86.2575 202.075 86.3977 202.117 86.523 202.188C86.6483 202.26 86.7554 202.359 86.8358 202.479C86.9162 202.599 86.9678 202.736 86.9866 202.879C87.0053 203.022 86.9907 203.168 86.9439 203.304C84.0447 211.72 81.2663 220.433 78.6087 229.443C76.9024 235.196 77.8688 240.586 79.5298 246.279C80.0029 247.93 81.0197 249.244 82.58 250.22C87.1251 253.104 90.6736 256.487 96.1398 257.604C100.861 258.571 105.2 259.109 109.156 259.22C109.598 259.229 110.026 259.069 110.352 258.774C110.678 258.479 110.877 258.071 110.908 257.634C111.3 252.999 111.149 248.378 112.297 243.742C113.706 237.974 115.322 232.463 117.144 227.208C117.718 225.547 118.151 225.582 118.442 227.314C120.053 236.585 121.951 245.695 124.135 254.644C125.565 260.483 129.113 262.864 134.781 261.787C142.592 260.307 150.807 258.802 159.424 257.272C160.209 257.135 160.926 256.738 161.459 256.144C161.993 255.55 162.313 254.794 162.368 253.995C162.791 247.895 162.58 241.945 163.607 235.83C164.392 231.179 163.773 226.332 164.92 221.545C165.464 219.31 165.711 217.051 165.66 214.765C165.66 214.604 165.7 214.458 165.781 214.327Z" fill="#E87A1F"/>
<path d="M297 -5V137C296.427 132.775 295.85 128.551 295.267 124.326C285.003 51.0801 223.616 -2.23229 151 -5H297Z" fill="#F9F9F9"/>
<path d="M165.666 214.828C165.716 217.108 165.47 219.364 164.927 221.594C163.781 226.37 164.399 231.207 163.615 235.848C162.589 241.95 162.801 247.887 162.378 253.974C162.323 254.771 162.004 255.526 161.47 256.118C160.937 256.711 160.222 257.107 159.437 257.244C150.831 258.771 142.626 260.272 134.824 261.749C129.164 262.824 125.619 260.448 124.192 254.622C122.01 245.692 120.115 236.601 118.506 227.349C118.214 225.622 117.782 225.587 117.209 227.244C115.389 232.488 113.775 237.987 112.368 243.743C111.221 248.369 111.372 252.98 110.98 257.605C110.949 258.041 110.751 258.448 110.425 258.743C110.099 259.037 109.672 259.196 109.231 259.187C105.279 259.077 100.946 258.54 96.2303 257.575C90.7707 256.46 87.2265 253.085 82.687 250.207C81.1285 249.233 80.113 247.922 79.6405 246.274C77.9815 240.594 77.0163 235.215 78.7205 229.474C81.3749 220.484 84.1499 211.79 87.0456 203.392C87.0923 203.256 87.1069 203.11 87.0882 202.968C87.0694 202.825 87.0179 202.688 86.9376 202.569C86.8573 202.449 86.7504 202.349 86.6252 202.278C86.5 202.206 86.36 202.165 86.2161 202.156C74.7038 201.473 62.8446 200.399 50.6385 198.932C48.6477 198.691 47.1647 197.737 46.1894 196.069C42.8111 190.243 39.7546 184.788 37.0198 179.706C36.497 178.741 36.1953 177.656 36.1149 176.451C35.572 167.862 37.1254 160.012 37.2008 151.589C37.3818 132.77 39.086 112.609 39.0106 92.6749C39.0105 91.585 39.2636 90.512 39.7496 89.5408C44.8974 79.4757 50.3469 69.747 56.0981 60.3548C58.1793 56.9495 61.5727 56.166 65.2677 54.9003C84.4515 48.3108 104.47 41.3445 125.323 34.0015C128.309 32.9468 131.37 32.2738 134.507 31.9825C154.053 30.1643 175.429 29.5967 198.635 30.2798C200.967 30.3401 203.34 31.0432 205.753 32.3893C211.313 35.5033 215.501 39.8478 218.316 45.4228C230.703 69.9328 242.934 94.1314 255.01 118.019C255.537 119.073 255.845 120.221 255.915 121.394C256.085 124.357 256 127.26 255.658 130.103C254.768 137.501 254.723 145.276 254.633 152.629C254.572 158.581 251.164 172.594 244.845 175.02C235.484 178.626 226.194 182.272 216.974 185.959C216.718 186.061 216.485 186.214 216.289 186.406C216.092 186.599 215.935 186.829 215.827 187.082C215.719 187.335 215.663 187.607 215.66 187.882C215.658 188.158 215.709 188.431 215.812 188.686C219.241 197.204 222.554 205.722 225.751 214.241C227.29 218.329 227.898 222.774 227.576 227.575C227.445 229.695 226.49 231.342 224.711 232.518C216.265 238.113 207.618 243.909 198.77 249.906C192.647 254.049 185.076 253.733 177.822 253.296C177.138 253.256 176.711 252.904 176.54 252.241L166.571 214.421C166.562 214.374 166.53 214.326 166.48 214.286C166.199 214.045 165.968 214.08 165.787 214.391C165.706 214.522 165.666 214.668 165.666 214.828ZM178.666 130.947C182.105 128.34 194.97 129.53 198.348 130.088C205.844 131.338 212.706 136.597 220.156 137.727C220.719 137.818 221.247 137.717 221.74 137.426L225.872 134.985C226.516 134.607 227.005 134.012 227.25 133.306C227.496 132.599 227.483 131.827 227.214 131.128C224.027 122.76 220.955 114.91 217.999 107.577C215.767 102.022 211.685 98.9129 205.753 98.2499C197.458 97.3358 189.631 96.5724 182.271 95.9597C177.882 95.598 174.202 93.5488 170.718 97.7226C169.582 99.0887 168.894 100.796 168.652 102.846C167.184 115.221 166.702 126.688 167.204 137.245C167.255 138.46 167.783 138.727 168.788 138.044C172.036 135.834 175.328 133.468 178.666 130.947ZM113.167 136.492L126.605 143.362C126.839 143.479 127.097 143.54 127.359 143.54C127.62 143.54 127.879 143.479 128.113 143.362L131.672 141.554C132.285 141.233 132.461 140.751 132.2 140.108C127.505 128.456 123.111 117.275 119.019 106.567C117.269 102.002 110.92 99.8923 106.833 97.6774C106.38 97.4363 105.928 97.4313 105.475 97.6623C92.5654 104.182 80.2538 110.711 68.5404 117.25C64.2421 119.646 62.6435 124.754 63.6539 129.515C65.323 137.33 66.7306 144.688 67.8768 151.589C68.1181 153.036 68.5505 154.462 69.1738 155.869C69.5056 156.632 69.9631 156.717 70.5463 156.125C74.9199 151.62 82.0234 142.91 88.2521 141.358C95.4309 139.56 103.017 137.838 111.01 136.19C111.764 136.04 112.483 136.14 113.167 136.492ZM149.257 179.886C149.272 179.789 149.313 179.697 149.378 179.621C149.442 179.546 149.526 179.49 149.62 179.461C149.714 179.431 149.815 179.428 149.911 179.453C150.007 179.477 150.094 179.528 150.162 179.6L160.508 190.238C161.147 190.898 161.994 191.317 162.907 191.424C163.819 191.531 164.741 191.32 165.515 190.826L176.495 183.774C177.862 182.9 178.038 181.825 177.023 180.549C171.292 173.367 165.978 166.707 161.081 160.57C158.186 156.953 152.228 151.906 147.131 153.473C143.24 154.678 138.881 155.552 137.313 159.786C134.296 167.852 130.757 176.918 126.695 186.983C126.539 187.377 126.465 187.799 126.48 188.222C126.494 188.645 126.596 189.06 126.779 189.441C126.962 189.822 127.222 190.161 127.542 190.436C127.863 190.71 128.237 190.915 128.641 191.036L145.034 196.039C146.341 196.441 147.086 195.964 147.266 194.607L149.257 179.886Z" fill="#F9F9F9"/>
<path d="M198.121 129.728C194.766 129.174 181.99 127.991 178.575 130.582C175.259 133.087 171.989 135.438 168.764 137.634C167.765 138.312 167.241 138.048 167.191 136.84C166.692 126.349 167.171 114.955 168.629 102.658C168.869 100.622 169.553 98.925 170.681 97.5675C174.141 93.4202 177.796 95.4564 182.154 95.8158C189.464 96.4247 197.238 97.1833 205.476 98.0916C211.367 98.7504 215.421 101.84 217.638 107.359C220.574 114.646 223.624 122.447 226.79 130.761C227.057 131.457 227.07 132.224 226.826 132.926C226.582 133.628 226.096 134.219 225.457 134.594L221.353 137.02C220.863 137.309 220.339 137.409 219.78 137.319C212.381 136.196 205.566 130.971 198.121 129.728Z" fill="#E87A1F"/>
<path d="M110.68 135.684C102.681 137.331 95.0903 139.053 87.9069 140.85C81.6742 142.402 74.5662 151.108 70.1897 155.612C69.6062 156.204 69.1484 156.119 68.8164 155.356C68.1927 153.95 67.76 152.524 67.5186 151.078C66.3716 144.179 64.9631 136.824 63.293 129.011C62.2819 124.252 63.8816 119.146 68.1826 116.751C79.9035 110.214 92.2229 103.687 105.141 97.1695C105.594 96.9386 106.047 96.9436 106.499 97.1846C110.589 99.3988 116.942 101.508 118.693 106.071C122.788 116.776 127.184 127.952 131.883 139.6C132.144 140.243 131.968 140.725 131.355 141.046L127.793 142.854C127.559 142.97 127.3 143.031 127.038 143.031C126.777 143.031 126.518 142.97 126.284 142.854L112.838 135.985C112.153 135.634 111.434 135.533 110.68 135.684Z" fill="#E87A1F"/>
<path d="M139 297H-5V152C-1.2864 224.984 51.7003 284.64 124.07 295.429C126.898 295.852 131.875 296.375 139 297Z" fill="#F9F9F9"/>
<path d="M149.138 179.709L147.116 194.431C146.932 195.787 146.177 196.264 144.849 195.862L128.197 190.859C127.787 190.738 127.407 190.533 127.081 190.258C126.755 189.984 126.491 189.645 126.306 189.264C126.12 188.883 126.016 188.468 126.002 188.045C125.987 187.622 126.062 187.2 126.221 186.806C130.347 176.74 133.942 167.674 137.005 159.607C138.599 155.373 143.026 154.499 146.978 153.294C152.156 151.726 158.207 156.774 161.148 160.391C166.122 166.529 171.519 173.189 177.341 180.372C178.372 181.648 178.193 182.722 176.804 183.596L165.652 190.648C164.866 191.143 163.93 191.354 163.003 191.247C162.076 191.14 161.215 190.721 160.566 190.061L150.057 179.422C149.988 179.351 149.9 179.3 149.802 179.275C149.705 179.25 149.603 179.253 149.507 179.283C149.411 179.313 149.326 179.368 149.26 179.444C149.195 179.519 149.153 179.611 149.138 179.709Z" fill="#E87A1F"/>
<path d="M297 154V297H154C162.038 296.175 167.069 295.602 169.091 295.28C234.404 285.078 284.897 234.479 295.295 169.287C295.667 166.923 296.235 161.827 297 154Z" fill="#F9F9F9"/>
</g>
<defs>
<clipPath id="clip0_3027_74">
<rect width="291.126" height="291.126" rx="145.563" fill="white"/>
</clipPath>
</defs>
</svg>
