<svg width="18px" height="18px" viewBox="0 0 18 18" fill="none" xmlns="http://www.w3.org/2000/svg" style="flex-shrink: 0;"><path fill-rule="evenodd" clip-rule="evenodd" d="M2.66051 8.35938C2.99941 8.35938 3.27415 8.63411 3.27415 8.97301V14.5203C3.27415 15.3276 3.38568 15.7321 3.58255 15.9571C3.76168 16.1618 4.14524 16.3612 5.11506 16.3612H12.4787C13.4485 16.3612 13.8321 16.1618 14.0112 15.9571C14.2081 15.7321 14.3196 15.3276 14.3196 14.5203V8.97301C14.3196 8.63411 14.5943 8.35938 14.9332 8.35938C15.2721 8.35938 15.5469 8.63411 15.5469 8.97301V14.5203C15.5469 15.3493 15.4539 16.1721 14.9348 16.7653C14.398 17.3787 13.5543 17.5885 12.4787 17.5885H5.11506C4.03942 17.5885 3.19571 17.3787 2.65893 16.7653C2.13989 16.1721 2.04688 15.3493 2.04688 14.5203V8.97301C2.04688 8.63411 2.32161 8.35938 2.66051 8.35938Z" fill="currentColor"></path><path fill-rule="evenodd" clip-rule="evenodd" d="M1.66118 3.29399C1.40776 3.54742 1.22727 3.9774 1.22727 4.70099V6.33736C1.22727 7.06095 1.40776 7.49094 1.66118 7.74436C1.9146 7.99778 2.34459 8.17827 3.06818 8.17827H14.5227C15.2463 8.17827 15.6763 7.99778 15.9297 7.74436C16.1832 7.49094 16.3636 7.06095 16.3636 6.33736V4.70099C16.3636 3.9774 16.1832 3.54742 15.9297 3.29399C15.6763 3.04057 15.2463 2.86009 14.5227 2.86009H3.06818C2.34459 2.86009 1.9146 3.04057 1.66118 3.29399ZM0.793366 2.42618C1.35812 1.86142 2.15541 1.63281 3.06818 1.63281H14.5227C15.4355 1.63281 16.2328 1.86142 16.7975 2.42618C17.3623 2.99094 17.5909 3.78822 17.5909 4.70099V6.33736C17.5909 7.25013 17.3623 8.04742 16.7975 8.61217C16.2328 9.17693 15.4355 9.40554 14.5227 9.40554H3.06818C2.15541 9.40554 1.35812 9.17693 0.793366 8.61217C0.228608 8.04742 0 7.25013 0 6.33736V4.70099C0 3.78822 0.228608 2.99094 0.793366 2.42618Z" fill="currentColor"></path><path fill-rule="evenodd" clip-rule="evenodd" d="M6.69141 12.0668C6.69141 11.7279 6.96614 11.4531 7.30504 11.4531H10.2832C10.6221 11.4531 10.8969 11.7279 10.8969 12.0668C10.8969 12.4057 10.6221 12.6804 10.2832 12.6804H7.30504C6.96614 12.6804 6.69141 12.4057 6.69141 12.0668Z" fill="#FF8200"></path><path fill-rule="evenodd" clip-rule="evenodd" d="M5.52379 5.02344C5.18489 5.02344 4.91016 4.7487 4.91016 4.4098L4.91016 1.43162C4.91016 1.09272 5.18489 0.817984 5.52379 0.817984C5.86269 0.817984 6.13743 1.09272 6.13743 1.43162L6.13743 4.4098C6.13743 4.7487 5.86269 5.02344 5.52379 5.02344Z" fill="#FF8200"></path><path fill-rule="evenodd" clip-rule="evenodd" d="M12.0668 5.02344C11.7279 5.02344 11.4531 4.7487 11.4531 4.4098L11.4531 1.43162C11.4531 1.09272 11.7279 0.817984 12.0668 0.817984C12.4057 0.817984 12.6804 1.09272 12.6804 1.43162L12.6804 4.4098C12.6804 4.7487 12.4057 5.02344 12.0668 5.02344Z" fill="#FF8200"></path></svg>