<?xml version="1.0" encoding="UTF-8"?><svg id="_图层_1" xmlns="http://www.w3.org/2000/svg" width="256" height="256" xmlns:xlink="http://www.w3.org/1999/xlink" viewBox="0 0 256 256"><defs><style>.cls-1{fill:#ddb1ff;}.cls-1,.cls-2,.cls-3,.cls-4{stroke-width:0px;}.cls-2{fill:url(#_未命名的渐变_2);}.cls-3{fill:#fff;}.cls-4{fill:url(#_未命名的渐变_2-2);}</style><linearGradient id="_未命名的渐变_2" x1="-1520.13" y1="568.48" x2="-1514.51" y2="568.3" gradientTransform="translate(35444.89 13718.02) scale(23.3 -23.91)" gradientUnits="userSpaceOnUse"><stop offset="0" stop-color="#3239dc"/><stop offset="1" stop-color="#5a38e2"/></linearGradient><linearGradient id="_未命名的渐变_2-2" x1="-1412.68" y1="554.25" x2="-1407.06" y2="554.08" gradientTransform="translate(14070.87 7476.73) scale(9.84 -13.27)" xlink:href="#_未命名的渐变_2"/></defs><circle class="cls-3" cx="128" cy="128" r="128"/><path class="cls-2" d="m74.14,60.83c-34.78,0-46.81,80.14-49.43,101.84-.22,1.85,2.08,2.82,3.48,1.56,68.5-61.55,100.24,30.94,127.42,30.94-15.22,0-26.37-42.53-40.38-79.74-10.89-28.91-23.5-54.61-41.1-54.61Z"/><path class="cls-4" d="m227.68,162.06c1.31,1.6,3.91.55,3.59-1.49-3.13-19.83-13.45-72.27-35.1-72.27-13.32,0-16.71,26.55-20.12,53.19v.08c29.09,0,40.14,6.52,51.63,20.49Z"/><path class="cls-1" d="m115.23,115.43c14.01,37.2,25.16,79.74,40.38,79.74,13.54,0,17-26.83,20.43-53.6v-.09c3.42-26.63,6.82-53.19,20.13-53.19-26.69,0-40.55,96.83-80.93,27.14Z"/></svg>