<svg width="32" height="32" viewBox="0 0 32 32" fill="none" xmlns="http://www.w3.org/2000/svg">
<g id="ic/spend-to-earn-2c-blk">
<path id="Subtract" fill-rule="evenodd" clip-rule="evenodd" d="M9.52205 4C6.57654 4 4.18872 6.38782 4.18872 9.33333C4.18872 12.2789 6.57653 14.6667 9.52205 14.6667C12.4676 14.6667 14.8554 12.2789 14.8554 9.33333C14.8554 6.38782 12.4676 4 9.52205 4ZM9.52282 11.5294L11.7189 9.33333L9.52282 7.13725L7.32674 9.33333L9.52282 11.5294Z" fill="#F0B90B"></path>
<path id="Union" fill-rule="evenodd" clip-rule="evenodd" d="M22.1876 6.66667L24.9636 6.66667L20.8549 2.66667L16.7462 6.66667L19.5209 6.66667V11.3326H22.1876V6.66667ZM20.8555 13.3333C16.8055 13.3333 13.5222 16.6166 13.5222 20.6667C13.5222 24.7168 16.8055 28 20.8555 28C24.9056 28 28.1889 24.7168 28.1889 20.6667C28.1889 16.6166 24.9056 13.3333 20.8555 13.3333ZM20.8555 23.6667L23.8555 20.6667L20.8555 17.6667L17.8555 20.6667L20.8555 23.6667ZM10.8555 25.3333L10.8555 16.6678H8.18888L8.18888 25.3333H5.41284L9.52157 29.3333L13.6303 25.3333H10.8555Z" fill="#CACED3"></path>
</g>
</svg>
