<svg width="16" height="16" viewBox="0 0 18 18" fill="none" xmlns="http://www.w3.org/2000/svg" style="flex-shrink: 0;"><g clip-path="url(#clip0_6618_1019)"><path d="M11.5456 11.1818C11.422 11.1818 11.2911 11.1746 11.1675 11.1673C10.9856 8.86185 9.13835 7.01456 6.8329 6.83274C6.82562 6.7091 6.81836 6.5782 6.81836 6.45457C6.81836 3.84366 8.93472 1.72729 11.5456 1.72729C14.1565 1.72729 16.2729 3.84366 16.2729 6.45457C16.2729 9.06548 14.1565 11.1818 11.5456 11.1818Z" stroke="currentColor" stroke-width="1.2" stroke-linecap="round" stroke-linejoin="round"></path><path d="M6.45383 16.2727C3.84293 16.2727 1.72656 14.1563 1.72656 11.5454C1.72656 8.93448 3.84293 6.81812 6.45383 6.81812C6.57747 6.81812 6.70837 6.82538 6.83201 6.83265C9.13746 7.01447 10.9848 8.86176 11.1666 11.1672C11.1738 11.2909 11.1811 11.4218 11.1811 11.5454C11.1811 14.1563 9.06474 16.2727 6.45383 16.2727Z" stroke="currentColor" stroke-width="1.2" stroke-linecap="round" stroke-linejoin="round"></path><path d="M2.45384 1.72729C2.05384 1.72729 1.72656 2.05457 1.72656 2.45457V4.3382C1.72656 4.98547 2.51201 5.31274 2.97019 4.85456L4.85383 2.97093C5.30474 2.51274 4.98474 1.72729 4.33747 1.72729H2.45384Z" stroke="#FF8200" stroke-width="1.2" stroke-linecap="round" stroke-linejoin="round"></path><path d="M15.5452 16.2727C15.9452 16.2727 16.2724 15.9455 16.2724 15.5455V13.6618C16.2724 13.0146 15.487 12.6873 15.0288 13.1455L13.1452 15.0291C12.6943 15.4873 13.0143 16.2727 13.6615 16.2727H15.5452Z" stroke="#FF8200" stroke-width="1.2" stroke-linecap="round" stroke-linejoin="round"></path></g><defs><clipPath id="clip0_6618_1019"><rect width="16" height="16" fill="white" transform="translate(1 1)"></rect></clipPath></defs></svg>