<svg width="640" height="640" viewBox="0 0 640 640" fill="none" xmlns="http://www.w3.org/2000/svg">
<g clip-path="url(#clip0_5085_1662)">
<rect width="640" height="640" rx="320" fill="#00B488"/>
<path d="M640 320C640 143.269 496.731 0 320 0C143.269 0 0 143.269 0 320C0 496.731 143.269 640 320 640C496.731 640 640 496.731 640 320Z" fill="#E0B43D"/>
<path d="M275.776 486.292C271.32 486.044 268.969 483.446 266.494 480.97C230.233 444.709 194.095 408.448 157.834 372.187C149.419 363.772 140.879 355.48 132.464 346.941C126.895 341.248 126.895 338.525 132.464 332.956C149.914 315.506 167.487 298.056 184.937 280.73C191.249 274.418 193.972 274.418 200.283 281.101C222.312 304.12 244.836 326.768 267.855 348.921C274.786 355.604 276.394 355.727 282.954 349.044C346.565 285.433 410.053 221.821 473.664 158.21C479.605 152.269 482.08 152.146 487.897 158.21C505.594 176.65 523.663 194.595 541.979 212.416C546.31 216.624 546.063 219.346 541.112 224.297C518.712 246.697 496.312 269.097 473.912 291.497C411.043 354.49 348.05 417.483 285.057 480.599C282.335 483.322 279.612 486.292 275.776 486.292Z" fill="#FDFDFC"/>
</g>
<defs>
<clipPath id="clip0_5085_1662">
<rect width="640" height="640" rx="320" fill="white"/>
</clipPath>
</defs>
</svg>
