<svg width="24" height="24" viewBox="0 0 24 24" fill="none" xmlns="http://www.w3.org/2000/svg">
<circle cx="12" cy="12" r="12" fill="white"/>
<path d="M19.9444 7.36161C19.8003 7.14635 19.6008 6.97397 19.3669 6.86266C19.133 6.75135 18.8734 6.70524 18.6155 6.72919C18.3575 6.75314 18.1109 6.84627 17.9015 6.99875C17.6921 7.15122 17.5277 7.3574 17.4257 7.59552L14.5732 14.2732L12.6293 9.69494H15.0111C15.3499 9.69373 15.6816 9.59735 15.9683 9.4168C16.255 9.23625 16.4852 8.97879 16.6327 8.67375C16.7319 8.46599 16.7769 8.23647 16.7635 8.00662C16.7501 7.77677 16.6787 7.55405 16.5559 7.35926C16.4332 7.16446 16.2631 7.00391 16.0615 6.8926C15.86 6.78128 15.6335 6.72282 15.4033 6.72266H10.3344C10.1347 6.7227 9.9374 6.76667 9.75654 6.85146C9.57568 6.93625 9.41569 7.05978 9.2879 7.21329C9.1601 7.36681 9.06764 7.54655 9.01705 7.73979C8.96647 7.93302 8.95901 8.13502 8.99519 8.33146C9.00978 8.46088 9.04243 8.58762 9.09218 8.70798L13.0856 18.4264C13.1984 18.7048 13.3887 18.945 13.6339 19.1184C13.8792 19.2919 14.169 19.3912 14.4691 19.4048H14.5504C14.6515 19.4037 14.7522 19.3932 14.8513 19.3734C15.119 19.3327 15.3716 19.2235 15.5845 19.0563C15.7974 18.8891 15.9635 18.6696 16.0665 18.4193L20.0842 8.70941C20.1737 8.49062 20.2078 8.25311 20.1835 8.01797C20.1591 7.78284 20.077 7.55737 19.9444 7.36161ZM15.951 7.73957C16.0106 7.83188 16.0453 7.93805 16.0518 8.04775C16.0583 8.15745 16.0364 8.26698 15.988 8.36568C15.8992 8.54984 15.7603 8.70527 15.5873 8.81423C15.4143 8.92318 15.2141 8.98126 15.0096 8.98182H12.3312L11.7436 7.59694C11.7184 7.54132 11.6903 7.48704 11.6594 7.43435H15.4033C15.5134 7.43348 15.6218 7.46114 15.718 7.51463C15.8143 7.56811 15.895 7.64561 15.9524 7.73957H15.951ZM9.72257 8.37567C9.70742 8.32449 9.69739 8.27194 9.69262 8.21878C9.68376 8.09742 9.70518 7.97576 9.75497 7.86473C9.80476 7.7537 9.88136 7.65678 9.97787 7.58268C10.105 7.4857 10.2616 7.43534 10.4214 7.44006C10.5637 7.44038 10.7028 7.48243 10.8215 7.56102C10.9401 7.63961 11.0331 7.75128 11.0889 7.88219L14.3279 15.5325L15.3263 17.9386C15.3459 17.9856 15.3548 18.0363 15.3523 18.0871C15.3498 18.1379 15.3361 18.1876 15.312 18.2324C15.2549 18.3428 15.1742 18.4393 15.0756 18.515C14.977 18.5907 14.8629 18.6437 14.7415 18.6703C14.7085 18.6763 14.6752 18.6801 14.6417 18.6817C14.4816 18.7023 14.319 18.6743 14.175 18.6013C14.0311 18.5283 13.9124 18.4137 13.8344 18.2724L13.679 17.9429L9.74397 8.437C9.73541 8.41703 9.7297 8.39564 9.72257 8.37567ZM19.421 8.43842L15.7912 17.2041L14.9597 15.1831L18.0818 7.87648C18.1372 7.7454 18.2301 7.63362 18.3489 7.5552C18.4676 7.47679 18.6069 7.43524 18.7492 7.43578C18.8679 7.43631 18.9847 7.46587 19.0893 7.52187C19.1939 7.57788 19.2832 7.65863 19.3495 7.75709C19.4157 7.85555 19.4569 7.96872 19.4693 8.08673C19.4818 8.20475 19.4652 8.32402 19.421 8.43414V8.43842Z" fill="url(#paint0_linear_1015_2682)"/>
<path d="M7.23789 7.58672C7.12749 7.32673 6.94295 7.10503 6.70731 6.94929C6.47167 6.79355 6.19537 6.71067 5.91291 6.71101C5.62527 6.70817 5.34362 6.79327 5.10566 6.95489C4.83238 7.14149 4.63144 7.41624 4.53642 7.73322C4.44141 8.05019 4.45808 8.39018 4.58366 8.69633L8.57713 18.4147C8.69019 18.6931 8.8808 18.9331 9.1263 19.1063C9.3718 19.2795 9.66186 19.3786 9.96201 19.3917H10.0419C10.3286 19.3926 10.6101 19.3149 10.8557 19.167C11.1014 19.0192 11.3019 18.8069 11.4353 18.5531C11.5074 18.4154 11.5483 18.2635 11.5552 18.1083C11.5621 17.953 11.5348 17.7981 11.4753 17.6545L10.4769 15.2428L7.23789 7.58672ZM10.8035 18.2208C10.726 18.366 10.6088 18.4862 10.4656 18.5674C10.3224 18.6485 10.1591 18.6873 9.99466 18.6793C9.83025 18.6712 9.67152 18.6166 9.53696 18.5218C9.4024 18.427 9.29755 18.2959 9.23463 18.1437L5.24971 8.44531C5.2027 8.33627 5.1822 8.21763 5.18989 8.09913C5.19757 7.98063 5.23323 7.86563 5.29393 7.76357C5.35877 7.65814 5.44994 7.5714 5.55847 7.51188C5.667 7.45236 5.78915 7.42212 5.91291 7.42413C6.05511 7.42417 6.19413 7.46614 6.3126 7.54478C6.43107 7.62342 6.52372 7.73524 6.57897 7.86626L9.8308 15.518L10.8292 17.927C10.8482 17.9741 10.8566 18.0248 10.8539 18.0756C10.8512 18.1264 10.8374 18.1759 10.8135 18.2208H10.8035Z" fill="url(#paint1_linear_1015_2682)"/>
<defs>
<linearGradient id="paint0_linear_1015_2682" x1="8.96524" y1="13.0651" x2="20.1869" y2="13.0651" gradientUnits="userSpaceOnUse">
<stop stop-color="#2BB7FF"/>
<stop offset="0.51" stop-color="#1752FF"/>
<stop offset="0.88" stop-color="#8B3BEF"/>
</linearGradient>
<linearGradient id="paint1_linear_1015_2682" x1="4.47526" y1="13.0521" x2="11.5608" y2="13.0521" gradientUnits="userSpaceOnUse">
<stop stop-color="#77FBFD"/>
<stop offset="0.52" stop-color="#2BB7FF"/>
<stop offset="1" stop-color="#343EE4"/>
</linearGradient>
</defs>
</svg>
