<svg width="20" height="20" viewBox="0 0 20 20" fill="none" xmlns="http://www.w3.org/2000/svg">
  <path fill-rule="evenodd" clip-rule="evenodd"
    d="M8.09342 9.57894C10.2783 9.57894 12.0494 7.88233 12.0494 5.78948C12.0494 3.6966 10.2783 2 8.09342 2C5.90854 2 4.13737 3.6966 4.13737 5.78948C4.13737 7.88233 5.90854 9.57894 8.09342 9.57894ZM18.6428 9.57894C18.6448 9.05108 18.4987 8.53235 18.2198 8.07706C17.9409 7.62177 17.5395 7.24655 17.0574 6.99066C16.5754 6.73477 16.0305 6.60761 15.4796 6.62242C14.9287 6.63722 14.3921 6.7935 13.9258 7.07488C13.4595 7.35626 13.0807 7.75245 12.8289 8.22203C12.5772 8.69158 12.4617 9.21731 12.4945 9.74426C12.5273 10.2712 12.7073 10.7801 13.0156 11.2176C13.324 11.6552 13.7493 12.0053 14.2472 12.2316V16.7368L15.5659 18L17.7637 15.8947L16.445 14.6316L17.7637 13.3684L16.6736 12.3242C17.2526 12.1102 17.7504 11.7335 18.1019 11.2436C18.4533 10.7536 18.6419 10.1734 18.6428 9.57894ZM15.5659 9.57894C15.392 9.57894 15.2221 9.52954 15.0775 9.43702C14.9329 9.3445 14.8203 9.21298 14.7537 9.05912C14.6872 8.90523 14.6698 8.73591 14.7037 8.57257C14.7376 8.4092 14.8213 8.25917 14.9443 8.14138C15.0672 8.02362 15.2239 7.94341 15.3944 7.91094C15.5649 7.87843 15.7417 7.89511 15.9023 7.95883C16.063 8.02259 16.2003 8.1305 16.2969 8.26901C16.3935 8.40748 16.445 8.5703 16.445 8.73686C16.445 8.96017 16.3524 9.17438 16.1875 9.33231C16.0227 9.49024 15.7991 9.57894 15.5659 9.57894ZM9.4121 10.8422C10.1512 10.8426 10.8821 10.9918 11.5571 11.2801C11.8646 11.9329 12.3357 12.5027 12.9286 12.939V17.579H1.5V15.8948C1.5 14.5548 2.05573 13.2696 3.04493 12.3221C4.03413 11.3745 5.37576 10.8422 6.77472 10.8422H9.4121Z"
    fill="#1D1D1D" />
</svg>
