<svg width="20" height="20" viewBox="0 0 20 20" fill="none" xmlns="http://www.w3.org/2000/svg">
<g id="flat-color-icons:google">
<g id="Group 1000005256">
<path id="Vector" d="M18.8224 9.23633H18.0975V9.19898H9.99867V12.7985H15.0843C14.3424 14.8938 12.3487 16.398 9.99867 16.398C7.01694 16.398 4.59943 13.9805 4.59943 10.9987C4.59943 8.017 7.01694 5.59949 9.99867 5.59949C11.375 5.59949 12.6272 6.11872 13.5806 6.96685L16.1259 4.42156C14.5187 2.92372 12.3689 2 9.99867 2C5.02912 2 0.999939 6.02918 0.999939 10.9987C0.999939 15.9683 5.02912 19.9975 9.99867 19.9975C14.9682 19.9975 18.9974 15.9683 18.9974 10.9987C18.9974 10.3954 18.9353 9.8064 18.8224 9.23633Z" fill="#FFC107"/>
<path id="Vector_2" d="M2.03809 6.81027L4.99462 8.97851C5.7946 6.99789 7.73203 5.59949 9.99926 5.59949C11.3756 5.59949 12.6278 6.11872 13.5812 6.96685L16.1265 4.42156C14.5193 2.92372 12.3695 2 9.99926 2C6.54285 2 3.54537 3.95137 2.03809 6.81027Z" fill="#FF3D00"/>
<path id="Vector_3" d="M9.99934 19.9999C12.3237 19.9999 14.4357 19.1104 16.0325 17.6638L13.2474 15.307C12.3136 16.0172 11.1725 16.4013 9.99934 16.4004C7.65877 16.4004 5.6714 14.908 4.92271 12.8252L1.98822 15.0861C3.47751 18.0004 6.50198 19.9999 9.99934 19.9999Z" fill="#4CAF50"/>
<path id="Vector_4" d="M18.8225 9.239H18.0977V9.20166H9.99884V12.8012H15.0845C14.7296 13.7984 14.0903 14.6698 13.2456 15.3077L13.2469 15.3068L16.032 17.6636C15.835 17.8427 18.9976 15.5008 18.9976 11.0014C18.9976 10.398 18.9355 9.80907 18.8225 9.239Z" fill="#1976D2"/>
</g>
</g>
</svg>
