<svg width="96" height="97" viewBox="0 0 96 97" fill="none" xmlns="http://www.w3.org/2000/svg">
<path d="M45.1173 82.0118C45.1759 82.0134 45.233 81.9928 45.2771 81.9541C45.3235 81.9134 45.3518 81.8559 45.3558 81.7944C45.3598 81.7329 45.3391 81.6723 45.2985 81.6259C45.2578 81.5796 45.2004 81.5513 45.1388 81.5473L45.1315 81.5468L45.1243 81.5459C25.7189 79.048 17.2194 65.3339 15.7501 53.3283M45.1173 82.0118L45.1168 82.0062H45.0761M45.1173 82.0118L45.0761 82.0062M15.7501 53.3283L15.98 53.3001M15.7501 53.3283C14.8996 46.3745 16.2013 39.327 19.48 33.136C22.8993 26.6866 28.534 21.6899 35.346 19.0665C35.4035 19.0444 35.4499 19.0003 35.4749 18.9439C35.4999 18.8876 35.5016 18.8236 35.4794 18.7661C35.4573 18.7086 35.4132 18.6622 35.3568 18.6372C35.3005 18.6122 35.2366 18.6106 35.179 18.6327C28.2632 21.2972 22.5424 26.3699 19.0696 32.9173C15.7491 39.1962 14.4341 46.3427 15.3021 53.3923C16.7963 65.5659 25.3899 79.4701 45.0761 82.0062" stroke="#F8B200" stroke-width="0.463077"/>
<path d="M33.2013 24.8313C31.8068 24.5686 30.2671 23.9502 28.524 22.73C28.589 22.687 28.667 22.6379 28.7577 22.5848C29.1019 22.3829 29.6234 22.1248 30.2947 21.9162C31.6347 21.4999 33.5732 21.2803 35.9005 22.103C36.2721 22.2443 36.6318 22.4152 36.976 22.614L36.9816 22.6172C37.0043 22.6295 37.028 22.6423 37.0525 22.6556C37.4854 22.8902 38.1795 23.2664 38.9981 23.5272C39.4265 23.6638 39.8942 23.7704 40.3813 23.8083C39.3526 24.1998 38.2963 24.5168 37.2207 24.7568C35.9769 24.9939 34.6616 25.1063 33.2013 24.8313Z" fill="#F8B200" stroke="#F8B200" stroke-width="0.463077"/>
<path d="M28.9212 18.2568L28.9196 18.261C28.0007 20.7097 26.9684 22.4635 26.1584 23.6087C25.7534 24.1814 25.404 24.6019 25.1523 24.881C25.069 24.9733 24.9965 25.0501 24.9363 25.1116C23.8955 23.29 23.8365 21.4898 24.3672 19.8757C24.9241 18.182 26.1347 16.6834 27.567 15.5913C28.9209 14.5816 30.4231 13.7961 32.0157 13.2607C31.6799 13.5042 31.3651 13.7773 31.0751 14.0777C30.2858 14.8953 29.7041 15.8903 29.379 16.9792C29.3479 17.0688 29.3171 17.1582 29.2864 17.2475C29.17 17.5859 29.0543 17.9222 28.9212 18.2568Z" fill="#F8B200" stroke="#F8B200" stroke-width="0.463077"/>
<path d="M32.9774 18.0073L32.9738 18.0184L32.9713 18.0297C32.9425 18.1601 32.9055 18.2886 32.8605 18.4143C32.4677 19.3944 31.773 20.2218 30.8799 20.7784C30.7122 20.4906 30.669 20.0906 30.7185 19.6395C30.7766 19.1111 30.9566 18.567 31.1341 18.181L31.1345 18.18C31.3841 17.6304 31.7567 17.1456 32.2235 16.763L32.2287 16.7586C32.6821 16.3644 33.2168 16.0748 33.7947 15.9104C34.0661 15.8333 34.3439 15.7846 34.6237 15.7646C33.6516 16.3944 33.1638 17.4409 32.9774 18.0073Z" fill="#F8B200" stroke="#F8B200" stroke-width="0.463077"/>
<path d="M28.2524 26.1142C28.5799 26.096 28.9239 26.0385 29.245 25.9087C29.1439 26.0924 29.0212 26.2644 28.879 26.4207C28.5864 26.7422 28.22 26.9878 27.8114 27.1362L27.8079 27.1375C27.3413 27.3157 26.8454 27.4048 26.346 27.4002H26.3438C25.9542 27.4002 25.4099 27.385 24.8886 27.2813C24.4473 27.1935 24.0524 27.0479 23.778 26.8201C24.0921 26.5096 24.4676 26.2668 24.8814 26.108C25.3628 25.9233 25.8815 25.8576 26.3937 25.9165C26.5189 25.9336 26.6426 25.9604 26.7637 25.9966L26.7775 26.0007L26.7918 26.0031C27.1528 26.0637 27.6942 26.1452 28.2524 26.1142Z" fill="#F8B200" stroke="#F8B200" stroke-width="0.463077"/>
<path d="M24.8471 32.8172C23.4774 33.1108 21.7857 33.1563 19.6161 32.7596C19.6527 32.6994 19.697 32.6303 19.7493 32.5537C19.9612 32.2438 20.3021 31.8166 20.795 31.3782C21.778 30.5036 23.3692 29.5803 25.7614 29.4557C26.1529 29.4414 26.5449 29.4609 26.933 29.514L26.9432 29.5152C26.9894 29.5194 27.0389 29.5241 27.0914 29.5291C27.5772 29.5754 28.3227 29.6465 29.1008 29.5902C29.5465 29.5579 30.0138 29.4833 30.4564 29.333C29.8043 30.0524 29.0812 30.7055 28.2974 31.2821C27.3693 31.9308 26.2775 32.5106 24.8471 32.8172Z" fill="#F8B200" stroke="#F8B200" stroke-width="0.463077"/>
<path d="M17.7927 28.6941L17.7936 28.7003C18.1903 31.2182 18.0898 33.1644 17.8849 34.4868C17.7825 35.1481 17.6539 35.6535 17.5483 35.9964C17.513 36.1113 17.4802 36.2077 17.452 36.2855C15.6445 35.0868 14.7546 33.5078 14.4718 31.8688C14.1759 30.1544 14.5426 28.3601 15.2492 26.8558C15.9217 25.4587 16.8276 24.192 17.9237 23.1084C17.652 23.6914 17.4985 24.2886 17.4218 24.8502C17.2735 25.9375 17.4111 26.9051 17.5475 27.4142C17.6443 27.8386 17.7343 28.2446 17.7927 28.6941Z" fill="#F8B200" stroke="#F8B200" stroke-width="0.463077"/>
<path d="M21.2001 26.9556L21.2026 26.9669L21.2063 26.9779C21.2481 27.1032 21.2826 27.2309 21.3096 27.3603C21.4764 28.317 21.2888 29.2993 20.7861 30.1249C20.4853 29.9305 20.2458 29.5861 20.0658 29.1683C19.8558 28.6808 19.7446 28.1336 19.7069 27.7261L19.7066 27.7231C19.6477 27.1645 19.7252 26.5999 19.9324 26.0778L19.9347 26.0718C20.1195 25.5657 20.4272 25.1135 20.8302 24.7558C21.0272 24.5809 21.2441 24.4313 21.4755 24.3096C21.2857 24.6514 21.1811 25.0208 21.1307 25.3757C21.0435 25.9889 21.1146 26.5772 21.2001 26.9556Z" fill="#F8B200" stroke="#F8B200" stroke-width="0.463077"/>
<path d="M20.9546 35.8665C21.2545 35.7176 21.5536 35.5244 21.7924 35.2715C21.7884 35.4797 21.7563 35.6874 21.6961 35.8887C21.5776 36.2848 21.3549 36.6417 21.0512 36.9222L21.0458 36.9272C20.6928 37.2746 20.2748 37.5488 19.8156 37.7343L19.8132 37.7353C19.4412 37.8841 18.9249 38.0906 18.3885 38.2136C17.934 38.3178 17.4944 38.3547 17.1294 38.2663C17.2896 37.8622 17.533 37.4954 17.8447 37.1901C18.2104 36.8319 18.6589 36.5694 19.1503 36.426C19.2761 36.3916 19.4041 36.366 19.5334 36.3495L19.5465 36.3478L19.5592 36.3447C19.9205 36.2561 20.4568 36.1135 20.9546 35.8665Z" fill="#F8B200" stroke="#F8B200" stroke-width="0.463077"/>
<path d="M15.708 45.2859C20.3138 44.1488 22.2413 42.2187 23.3762 40.3674C23.8563 39.5587 24.2349 38.6957 24.5047 37.7979C24.1572 38.1181 23.745 38.3751 23.3352 38.5825C22.6596 38.9245 21.9539 39.1491 21.4829 39.299C21.4146 39.3207 21.3512 39.3409 21.2936 39.3596L21.2901 39.3606C20.9012 39.4802 20.5225 39.6306 20.1574 39.8102L15.708 45.2859ZM15.708 45.2859C15.7183 45.2193 15.7318 45.1425 15.7495 45.0568C15.8252 44.69 15.9756 44.1639 16.2638 43.5662C16.8389 42.3734 17.9652 40.8893 20.1574 39.8102L15.708 45.2859Z" fill="#F8B200"/>
<path d="M15.708 45.2859C20.3138 44.1488 22.2413 42.2187 23.3762 40.3674C23.8563 39.5587 24.2349 38.6957 24.5047 37.7979C24.1572 38.1181 23.745 38.3751 23.3352 38.5825C22.6596 38.9245 21.9539 39.1491 21.4829 39.299C21.4146 39.3207 21.3512 39.3409 21.2936 39.3596L21.2901 39.3606C20.9012 39.4802 20.5225 39.6306 20.1574 39.8102M15.708 45.2859L20.1574 39.8102M15.708 45.2859C15.7183 45.2193 15.7318 45.1425 15.7495 45.0568C15.8252 44.69 15.9756 44.1639 16.2638 43.5662C16.8389 42.3734 17.9652 40.8893 20.1574 39.8102" stroke="#F8B200" stroke-width="0.463077"/>
<path d="M12.3236 42.4251L12.3251 42.4273C14.7095 45.9177 15.0207 48.5852 15.0588 49.4092C12.8226 49.0846 11.33 48.023 10.3961 46.6573C9.42122 45.2316 9.04426 43.4575 9.09404 41.8085C9.14521 40.2644 9.46187 38.7453 10.0258 37.3164C10.0225 37.9676 10.1412 38.5825 10.318 39.1308C10.6513 40.1648 11.1952 40.9764 11.5425 41.3759C11.8166 41.7142 12.0796 42.0591 12.3236 42.4251Z" fill="#F8B200" stroke="#F8B200" stroke-width="0.463077"/>
<path d="M14.7875 39.4431L14.7933 39.45L14.7996 39.4565C14.8919 39.552 14.9784 39.6529 15.0587 39.7587C15.3631 40.1684 15.5788 40.637 15.692 41.1347C15.7906 41.5682 15.8095 42.0155 15.7484 42.4547C15.3664 42.4096 14.9855 42.1972 14.6326 41.8952C14.226 41.5472 13.885 41.1042 13.6618 40.7516C13.3693 40.2813 13.2014 39.7444 13.1736 39.1913L13.1731 39.1837C13.1289 38.6551 13.221 38.1241 13.4406 37.6413C13.5541 37.3915 13.6998 37.159 13.8732 36.9492C13.8437 37.3479 13.9128 37.7343 14.0279 38.0816C14.2192 38.6592 14.543 39.1471 14.7875 39.4431Z" fill="#F8B200" stroke="#F8B200" stroke-width="0.463077"/>
<path d="M18.2379 70.8314L18.2409 70.8317C20.8695 71.0859 22.7319 71.7617 23.941 72.3801C24.5459 72.6895 24.9878 72.9848 25.2809 73.2065C25.3926 73.2909 25.4825 73.3646 25.5514 73.4241C23.5748 75.1234 21.6169 75.6333 19.8751 75.4509C18.0705 75.262 16.4705 74.327 15.3025 73.1433C14.1693 71.9856 13.2734 70.6244 12.6586 69.1367C13.1521 69.6291 13.7262 69.9791 14.2951 70.2241C15.3075 70.66 16.3183 70.7704 16.8753 70.7587C17.3328 70.7634 17.7863 70.7818 18.2379 70.8314Z" fill="#F8B200" stroke="#F8B200" stroke-width="0.463077"/>
<path d="M27.8251 84.7054L27.8239 84.705C26.1558 84.1156 24.6311 83.1948 23.3387 82.0041C24.0618 82.2749 24.809 82.3602 25.5025 82.3415C26.6961 82.3094 27.7511 81.9692 28.3001 81.7124C28.755 81.5169 29.2477 81.3344 29.7057 81.1787C32.4471 80.255 34.6756 80.0698 36.2285 80.1211C37.0053 80.1467 37.6133 80.2315 38.0322 80.3127C38.2059 80.3464 38.3468 80.3795 38.4536 80.4074C37.2267 82.925 35.4438 84.2894 33.5599 84.8896C31.6098 85.511 29.5326 85.3191 27.8251 84.7054Z" fill="#F8B200" stroke="#F8B200" stroke-width="0.463077"/>
<path d="M27.6021 77.4197C27.6677 77.3895 27.7282 77.361 27.7841 77.3345C27.8825 77.2881 27.9695 77.2469 28.0581 77.2097C28.575 76.998 29.1331 76.906 29.6906 76.9407C30.1827 76.9714 30.663 77.1 31.1036 77.3184C30.905 77.7704 30.5107 78.157 30.0392 78.47C29.5103 78.8212 28.9118 79.0611 28.4673 79.1855L28.4638 79.1865C27.8779 79.3607 27.2564 79.3772 26.6621 79.2343L26.6609 79.234C26.104 79.1034 25.5949 78.8191 25.1916 78.4135C24.953 78.1735 24.757 77.8968 24.6104 77.5953C25.0299 77.7932 25.4893 77.85 25.9215 77.8315C26.5812 77.8033 27.2057 77.5996 27.6021 77.4197Z" fill="#F8B200" stroke="#F8B200" stroke-width="0.463077"/>
<path d="M34.0337 19.879C33.8834 19.8277 33.7566 19.7671 33.6539 19.6975C34.8189 18.824 36.2486 18.3703 37.7092 18.4157C37.8829 18.4292 38.0559 18.4513 38.2275 18.4819L38.2374 18.4836L38.2474 18.4845C39.0198 18.5541 40.4075 18.6548 41.7977 18.3086C40.9809 18.9441 40.0396 19.4085 39.0299 19.669L39.019 19.6721C38.3089 19.893 37.5742 20.0249 36.8316 20.0648C36.7977 20.0659 36.763 20.0672 36.7277 20.0684C36.2044 20.087 35.5379 20.1107 34.9219 20.0517C34.5933 20.0202 34.2885 19.9659 34.0337 19.879Z" fill="#F8B200" stroke="#F8B200" stroke-width="0.463077"/>
<path d="M60.5635 18.684C60.5424 18.7061 60.526 18.7321 60.515 18.7606C60.504 18.7891 60.4988 18.8195 60.4996 18.85C60.5003 18.8805 60.5071 18.9106 60.5195 18.9385C60.5319 18.9664 60.5496 18.9915 60.5717 19.0126C60.5939 19.0336 60.6199 19.0501 60.6484 19.061C67.4604 21.6845 73.0951 26.681 76.5144 33.1304C79.7954 39.3208 81.0973 46.369 80.2443 53.3229C78.7843 65.3286 70.2846 79.0426 50.8701 81.5404L50.8629 81.5414L50.8556 81.5418C50.8251 81.5438 50.7953 81.5518 50.7679 81.5653C50.7406 81.5788 50.7161 81.5975 50.6959 81.6205C50.6758 81.6434 50.6604 81.6701 50.6505 81.699C50.6407 81.7279 50.6367 81.7585 50.6386 81.7889C50.6406 81.8194 50.6486 81.8492 50.6621 81.8766C50.6756 81.904 50.6943 81.9285 50.7173 81.9486C50.7402 81.9687 50.7669 81.9842 50.7958 81.994C50.8192 82.002 50.8438 82.0061 50.8684 82.0064L50.8817 82.0031L50.8948 81.9998L50.9083 81.998C70.5818 79.4669 79.1978 65.5586 80.6923 53.3822C81.5603 46.3325 80.2454 39.1863 76.9249 32.9073C73.4536 26.3598 67.732 21.288 60.8154 18.6272C60.7869 18.6163 60.7566 18.611 60.7261 18.6118C60.6955 18.6126 60.6655 18.6193 60.6376 18.6317C60.6097 18.6441 60.5845 18.6619 60.5635 18.684ZM60.5635 18.684L60.3957 18.5244" stroke="#F8B200" stroke-width="0.463077"/>
<path d="M42.6278 75.2634C43.1741 75.2634 43.6169 74.8206 43.6169 74.2743C43.6169 73.728 43.1741 73.2852 42.6278 73.2852C42.0815 73.2852 41.6387 73.728 41.6387 74.2743C41.6387 74.8206 42.0815 75.2634 42.6278 75.2634Z" fill="#F8B200"/>
<path d="M48 75.6577C48.7638 75.6577 49.3831 75.0385 49.3831 74.2747C49.3831 73.5108 48.7638 72.8916 48 72.8916C47.2362 72.8916 46.6169 73.5108 46.6169 74.2747C46.6169 75.0385 47.2362 75.6577 48 75.6577Z" fill="#F8B200"/>
<path d="M53.3722 75.2634C53.9185 75.2634 54.3613 74.8206 54.3613 74.2743C54.3613 73.728 53.9185 73.2852 53.3722 73.2852C52.8259 73.2852 52.3831 73.728 52.3831 74.2743C52.3831 74.8206 52.8259 75.2634 53.3722 75.2634Z" fill="#F8B200"/>
<path d="M67.2574 22.5849C67.3486 22.6382 67.4271 22.6875 67.4924 22.7306C65.7476 23.9504 64.2072 24.5687 62.8129 24.8313C61.3525 25.1063 60.0383 24.9939 58.7969 24.7568C57.7198 24.5171 56.6622 24.2001 55.6321 23.8083C56.1192 23.7704 56.5866 23.6637 57.0149 23.5272C57.8335 23.2664 58.5275 22.8902 58.9605 22.6556C58.985 22.6423 59.0087 22.6295 59.0314 22.6172L59.0371 22.614C59.3814 22.4152 59.741 22.2443 60.1125 22.103C62.4398 21.2803 64.3783 21.4999 65.7189 21.9163C66.3905 22.1248 66.9124 22.383 67.2574 22.5849Z" fill="#F8B200" stroke="#F8B200" stroke-width="0.463077"/>
<path d="M71.6495 19.875C72.1795 21.4901 72.118 23.292 71.0746 25.1152C71.0137 25.0537 70.9401 24.9764 70.8553 24.8827C70.6043 24.6054 70.2569 24.1868 69.8532 23.6152C69.0461 22.4722 68.0147 20.7181 67.0795 18.2594L67.0782 18.2562C66.966 17.9742 66.8695 17.6946 66.7717 17.4112C66.7222 17.2679 66.6724 17.1236 66.6201 16.9776C66.2958 15.8902 65.7158 14.8963 64.9285 14.079C64.6371 13.7766 64.3205 13.5016 63.9828 13.2568C65.5807 13.7925 67.0879 14.5791 68.4465 15.5909C69.8833 16.6829 71.0938 18.1814 71.6495 19.875Z" fill="#F8B200" stroke="#F8B200" stroke-width="0.463077"/>
<path d="M63.0407 18.0083C62.8571 17.4386 62.3522 16.3927 61.3842 15.7637C61.6673 15.7831 61.9484 15.8321 62.223 15.9101C62.801 16.0745 63.3356 16.3641 63.7891 16.7583L63.7942 16.7627C64.2611 17.1453 64.6337 17.6301 64.8832 18.1797L64.8841 18.1817C65.0635 18.5669 65.2434 19.1107 65.3009 19.6389C65.35 20.0899 65.306 20.4901 65.1379 20.7781C64.2447 20.2216 63.5501 19.3941 63.1573 18.414C63.1122 18.2883 63.0752 18.1598 63.0464 18.0294L63.0441 18.0187L63.0407 18.0083Z" fill="#F8B200" stroke="#F8B200" stroke-width="0.463077"/>
<path d="M69.2214 26.0033L69.2357 26.0009L69.2495 25.9968C69.3705 25.9606 69.4941 25.9338 69.6192 25.9168C70.1321 25.859 70.6514 25.9252 71.1333 26.1099C71.5474 26.2685 71.9235 26.5106 72.2387 26.8203C71.9626 27.0482 71.5667 27.1938 71.1252 27.2815C70.6033 27.3852 70.059 27.4004 69.6694 27.4004H69.6672C69.1694 27.4049 68.6751 27.3159 68.2101 27.1378L68.2069 27.1366C67.7981 26.9871 67.4315 26.7411 67.1382 26.4195C66.9964 26.264 66.8737 26.0931 66.7722 25.9105C67.0922 26.0391 67.4346 26.0962 67.7608 26.1144C68.319 26.1454 68.8604 26.0639 69.2214 26.0033Z" fill="#F8B200" stroke="#F8B200" stroke-width="0.463077"/>
<path d="M76.3986 32.7593C74.2283 33.1564 72.5361 33.1109 71.1661 32.8172C69.7357 32.5106 68.6439 31.9308 67.7158 31.2821C66.932 30.7055 66.2089 30.0524 65.5568 29.333C65.9994 29.4833 66.4666 29.5579 66.9123 29.5902C67.6905 29.6465 68.4359 29.5754 68.9217 29.5291C68.9743 29.5241 69.0238 29.5194 69.0699 29.5152L69.0802 29.514C69.4683 29.4609 69.8603 29.4414 70.2518 29.4557C72.644 29.5803 74.2363 30.5036 75.22 31.3782C75.7131 31.8167 76.0541 32.2438 76.2657 32.5536C76.318 32.6301 76.3621 32.6992 76.3986 32.7593Z" fill="#F8B200" stroke="#F8B200" stroke-width="0.463077"/>
<path d="M78.5866 24.8502C78.51 24.2886 78.3564 23.6914 78.0847 23.1084C79.1809 24.1921 80.0868 25.4588 80.7593 26.856C81.4682 28.3602 81.836 30.1545 81.5402 31.8688C81.2573 33.5078 80.3663 35.0869 78.5565 36.2857C78.5283 36.2079 78.4955 36.1114 78.4601 35.9964C78.3545 35.6535 78.2259 35.1481 78.1235 34.4868C77.9187 33.1644 77.8181 31.2182 78.2149 28.7003L78.2157 28.6941C78.2742 28.2446 78.3641 27.8386 78.461 27.4142C78.5973 26.9051 78.7349 25.9375 78.5866 24.8502Z" fill="#F8B200" stroke="#F8B200" stroke-width="0.463077"/>
<path d="M74.8802 25.3907C74.8306 25.0334 74.7265 24.6603 74.536 24.3145C74.7731 24.4377 74.9951 24.59 75.1965 24.7688C75.5994 25.1264 75.9072 25.5785 76.0924 26.0844L76.0942 26.0892C76.2989 26.6123 76.3749 27.1769 76.3158 27.7355L76.3155 27.7386C76.2778 28.1461 76.1666 28.6933 75.9566 29.1808C75.7765 29.5989 75.5367 29.9435 75.2356 30.1378C74.7263 29.3091 74.5355 28.3205 74.7037 27.3577C74.7293 27.228 74.7624 27.1 74.803 26.9743L74.806 26.9648L74.8082 26.9552C74.8939 26.583 74.9649 26.0005 74.8802 25.3907Z" fill="#F8B200" stroke="#F8B200" stroke-width="0.463077"/>
<path d="M76.4539 36.3447L76.467 36.3479L76.4804 36.3496C76.6094 36.3656 76.7371 36.3911 76.8624 36.4259C77.354 36.5693 77.8026 36.8318 78.1684 37.1901C78.4801 37.4954 78.7235 37.8622 78.8837 38.2663C78.519 38.3547 78.0803 38.3178 77.6264 38.2136C77.0979 38.0923 76.5886 37.8898 76.2151 37.7413L76.1975 37.7343C76.1973 37.7342 76.1977 37.7343 76.1975 37.7343C75.7385 37.5488 75.3201 37.2744 74.9672 36.9272L74.9619 36.9222C74.6582 36.6417 74.4355 36.2848 74.317 35.8887C74.2568 35.6874 74.2247 35.4797 74.2207 35.2715C74.4595 35.5244 74.7586 35.7176 75.0585 35.8665C75.5563 36.1135 76.0926 36.2561 76.4539 36.3447Z" fill="#F8B200"/>
<path d="M76.1975 37.7343L76.2151 37.7413C76.5886 37.8898 77.0979 38.0923 77.6264 38.2136C78.0803 38.3178 78.519 38.3547 78.8837 38.2663C78.7235 37.8622 78.4801 37.4954 78.1684 37.1901C77.8026 36.8318 77.354 36.5693 76.8624 36.4259C76.7371 36.3911 76.6094 36.3656 76.4804 36.3496L76.467 36.3479L76.4539 36.3447C76.0926 36.2561 75.5563 36.1135 75.0585 35.8665C74.7586 35.7176 74.4595 35.5244 74.2207 35.2715C74.2247 35.4797 74.2568 35.6874 74.317 35.8887C74.4355 36.2848 74.6582 36.6417 74.9619 36.9222L74.9672 36.9272C75.3201 37.2744 75.7385 37.5488 76.1975 37.7343ZM76.1975 37.7343C76.1973 37.7342 76.1977 37.7343 76.1975 37.7343Z" stroke="#F8B200" stroke-width="0.463077"/>
<path d="M71.5083 37.7979C71.8558 38.1181 72.268 38.3751 72.6778 38.5825C73.3534 38.9245 74.0591 39.1491 74.5301 39.299C74.5984 39.3207 74.6618 39.3409 74.7194 39.3596L74.7229 39.3606C75.1118 39.4802 75.4906 39.6307 75.8557 39.8102C78.0503 40.8893 79.1764 42.3735 79.7509 43.5662C80.0388 44.1639 80.1888 44.6898 80.2641 45.0565C80.2818 45.1423 80.2952 45.2192 80.3054 45.2859C75.7036 44.1489 73.7717 42.2186 72.6368 40.3672C72.1567 39.5586 71.7781 38.6957 71.5083 37.7979Z" fill="#F8B200" stroke="#F8B200" stroke-width="0.463077"/>
<path d="M80.9546 49.4092C80.9936 48.5853 81.3074 45.9177 83.6881 42.427L83.6895 42.425C83.933 42.0597 84.2002 41.7151 84.4755 41.3755C84.82 40.9764 85.3629 40.1648 85.6957 39.1306C85.8711 38.5857 85.9893 37.9749 85.9873 37.3281C86.5473 38.7597 86.8592 40.2811 86.9052 41.8265C86.9595 43.4665 86.5905 45.2366 85.6203 46.6597C84.6909 48.0231 83.1996 49.0847 80.9546 49.4092Z" fill="#F8B200" stroke="#F8B200" stroke-width="0.463077"/>
<path d="M81.9882 38.0819C82.1026 37.7353 82.1715 37.3497 82.143 36.9521C82.3151 37.1618 82.4598 37.394 82.5726 37.6431C82.7914 38.1258 82.8834 38.6562 82.84 39.1844L82.8396 39.1901C82.8078 39.7412 82.6367 40.2751 82.3425 40.7421C82.1192 41.0949 81.7781 41.5383 81.3717 41.8865C81.0193 42.1885 80.6397 42.4006 80.2598 42.4459C80.1985 42.008 80.2176 41.5619 80.3168 41.1298C80.4308 40.6333 80.648 40.1664 80.9543 39.7593C81.0339 39.6535 81.1211 39.5536 81.215 39.4603L81.223 39.4523L81.2302 39.4436C81.475 39.1474 81.7976 38.6594 81.9882 38.0819Z" fill="#F8B200" stroke="#F8B200" stroke-width="0.463077"/>
<path d="M76.1353 75.4506C74.3929 75.633 72.4338 75.123 70.4572 73.4238C70.5261 73.3643 70.616 73.2906 70.7277 73.2062C71.0207 72.9845 71.4627 72.6892 72.0676 72.3798C73.2767 71.7614 75.1391 71.0856 77.7677 70.8314L77.7707 70.8311C78.2222 70.7815 78.6758 70.7631 79.1333 70.7584C79.6903 70.7701 80.7022 70.6597 81.7152 70.2238C82.2832 69.9794 82.8562 69.6303 83.3487 69.1396C82.734 70.626 81.8385 71.9861 80.7061 73.143C79.5405 74.3266 77.9406 75.2617 76.1353 75.4506Z" fill="#F8B200" stroke="#F8B200" stroke-width="0.463077"/>
<path d="M62.4628 84.8896C60.5737 84.2892 58.7865 82.9247 57.5594 80.4074C57.6662 80.3795 57.8071 80.3464 57.9808 80.3127C58.3997 80.2315 59.0077 80.1467 59.7845 80.1211C61.3375 80.0698 63.5661 80.255 66.3076 81.1788L66.3108 81.1798C66.7914 81.334 67.2554 81.5158 67.7129 81.7124C68.2619 81.9692 69.3181 82.3094 70.5123 82.3415C71.2073 82.3603 71.9562 82.2746 72.6802 82.0026C71.3934 83.1926 69.8744 84.1141 68.2118 84.7051C66.502 85.3188 64.4182 85.511 62.4628 84.8896Z" fill="#F8B200" stroke="#F8B200" stroke-width="0.463077"/>
<path d="M70.0611 77.8302C70.4933 77.8486 70.9527 77.792 71.3716 77.5942C71.2252 77.8961 71.0293 78.1732 70.7905 78.4133C70.3871 78.819 69.8777 79.1029 69.3205 79.2326L69.3188 79.233C68.7245 79.3759 68.103 79.3594 67.5172 79.1852L67.5136 79.1842C67.0691 79.0597 66.4707 78.8198 65.9424 78.4687C65.471 78.1555 65.0776 77.7687 64.8809 77.3165C65.324 77.0943 65.8079 76.9635 66.3039 76.9328C66.8649 76.8981 67.4264 76.9923 67.9454 77.2082C68.0795 77.2644 68.2206 77.3348 68.366 77.412L68.3723 77.4154L68.3789 77.4184C68.7753 77.5983 69.401 77.8019 70.0611 77.8302Z" fill="#F8B200" stroke="#F8B200" stroke-width="0.463077"/>
<path d="M58.3099 18.4167L58.3158 18.4166C59.763 18.3799 61.1773 18.833 62.3314 19.6982C62.2287 19.7678 62.1019 19.8284 61.9516 19.8797C61.6968 19.9666 61.392 20.0209 61.0634 20.0524C60.4474 20.1114 59.781 20.0877 59.2577 20.0691C59.2223 20.0679 59.1877 20.0666 59.1537 20.0655C58.4111 20.0256 57.6764 19.8937 56.9663 19.6728L56.9559 19.6698C55.9519 19.4083 55.0167 18.9431 54.2065 18.3076C55.5979 18.6558 56.9912 18.5549 57.7612 18.4852L57.7712 18.4843L57.781 18.4826C57.9514 18.4522 58.1232 18.4302 58.2957 18.4167H58.3099Z" fill="#F8B200" stroke="#F8B200" stroke-width="0.463077"/>
<path d="M49.018 29.1961L49.0611 29.2835L49.1575 29.2975L52.6092 29.7992L50.1144 32.2305L50.0447 32.2985L50.0611 32.3944L50.6498 35.8331L47.5625 34.2108L47.4763 34.1655L47.3901 34.2108L44.3066 35.8328L44.8952 32.3981L44.9117 32.3022L44.8419 32.2342L42.3434 29.7992L45.7951 29.2975L45.8915 29.2835L45.9346 29.1961L47.4763 26.0693L49.018 29.1961Z" fill="#F8B200" stroke="#F8B200" stroke-width="0.370462"/>
<path d="M41.0081 32.6348H35.0066" stroke="#F8B200" stroke-width="0.370462" stroke-linecap="round" stroke-linejoin="round"/>
<path d="M53.9446 32.6348H59.9461" stroke="#F8B200" stroke-width="0.370462" stroke-linecap="round" stroke-linejoin="round"/>
<path d="M81.5066 48.6816H13.5066C11.2975 48.6816 9.50659 50.4725 9.50659 52.6816V58.6816C9.50659 60.8908 11.2975 62.6816 13.5066 62.6816H81.5066C83.7157 62.6816 85.5066 60.8908 85.5066 58.6816V52.6816C85.5066 50.4725 83.7157 48.6816 81.5066 48.6816Z" fill="#1D1D1D"/>
<path d="M14.2292 55.1465H12.7761L12.7683 54.3887H14.0144C14.2279 54.3887 14.4063 54.3587 14.5496 54.2988C14.6928 54.2389 14.8009 54.1517 14.8738 54.0371C14.9493 53.9225 14.9871 53.7832 14.9871 53.6191C14.9871 53.4368 14.9519 53.2884 14.8816 53.1738C14.8139 53.0592 14.7071 52.9759 14.5613 52.9238C14.4154 52.8691 14.2306 52.8418 14.0066 52.8418H13.1238V57.6816H12.0496V51.9941H14.0066C14.3295 51.9941 14.6173 52.0254 14.8699 52.0879C15.1251 52.1478 15.3412 52.2415 15.5183 52.3691C15.6954 52.4967 15.8295 52.6569 15.9207 52.8496C16.0144 53.0423 16.0613 53.2715 16.0613 53.5371C16.0613 53.7715 16.0066 53.9876 15.8972 54.1855C15.7904 54.3809 15.6251 54.5397 15.4011 54.6621C15.1798 54.7845 14.8985 54.8548 14.5574 54.873L14.2292 55.1465ZM14.1824 57.6816H12.4597L12.9089 56.8379H14.1824C14.3959 56.8379 14.5717 56.8027 14.7097 56.7324C14.8503 56.6621 14.9545 56.5658 15.0222 56.4434C15.0925 56.3184 15.1277 56.1751 15.1277 56.0137C15.1277 55.8366 15.0964 55.6829 15.0339 55.5527C14.974 55.4225 14.8777 55.3223 14.7449 55.252C14.6147 55.1816 14.4428 55.1465 14.2292 55.1465H13.1121L13.1199 54.3887H14.5417L14.7878 54.6816C15.116 54.6842 15.3829 54.7493 15.5886 54.877C15.797 55.0046 15.9506 55.1686 16.0496 55.3691C16.1485 55.5697 16.198 55.7858 16.198 56.0176C16.198 56.3822 16.1186 56.6882 15.9597 56.9355C15.8035 57.1829 15.5743 57.3691 15.2722 57.4941C14.9727 57.6191 14.6095 57.6816 14.1824 57.6816ZM18.948 57.7598C18.6277 57.7598 18.3399 57.7077 18.0847 57.6035C17.8295 57.4993 17.6121 57.3548 17.4324 57.1699C17.2553 56.9824 17.1186 56.765 17.0222 56.5176C16.9285 56.2676 16.8816 55.9993 16.8816 55.7129V55.5566C16.8816 55.2311 16.9285 54.9355 17.0222 54.6699C17.116 54.4017 17.2488 54.1712 17.4207 53.9785C17.5925 53.7858 17.7983 53.6374 18.0378 53.5332C18.2774 53.429 18.5417 53.377 18.8308 53.377C19.1303 53.377 19.3946 53.4277 19.6238 53.5293C19.8529 53.6283 20.0444 53.7689 20.198 53.9512C20.3516 54.1335 20.4675 54.3522 20.5457 54.6074C20.6238 54.86 20.6628 55.14 20.6628 55.4473V55.8809H17.3503V55.1699H19.6472V55.0918C19.642 54.9277 19.6108 54.778 19.5535 54.6426C19.4962 54.5046 19.4076 54.3952 19.2878 54.3145C19.1681 54.2311 19.0131 54.1895 18.823 54.1895C18.6694 54.1895 18.5352 54.2233 18.4207 54.291C18.3087 54.3561 18.2149 54.4499 18.1394 54.5723C18.0665 54.6921 18.0118 54.8353 17.9753 55.002C17.9389 55.1686 17.9207 55.3535 17.9207 55.5566V55.7129C17.9207 55.89 17.9441 56.054 17.991 56.2051C18.0404 56.3561 18.1121 56.4876 18.2058 56.5996C18.3022 56.709 18.4167 56.7949 18.5496 56.8574C18.685 56.9173 18.8386 56.9473 19.0105 56.9473C19.2266 56.9473 19.422 56.9056 19.5964 56.8223C19.7735 56.7363 19.9272 56.61 20.0574 56.4434L20.5769 56.9824C20.4884 57.1126 20.3686 57.2376 20.2175 57.3574C20.0691 57.4772 19.8894 57.5749 19.6785 57.6504C19.4675 57.7233 19.224 57.7598 18.948 57.7598ZM23.6785 56.5254C23.6785 56.4368 23.655 56.3574 23.6082 56.2871C23.5613 56.2168 23.4727 56.153 23.3425 56.0957C23.2149 56.0358 23.0274 55.9798 22.78 55.9277C22.5613 55.8809 22.3595 55.8223 22.1746 55.752C21.9897 55.6816 21.8308 55.597 21.698 55.498C21.5652 55.3965 21.461 55.278 21.3855 55.1426C21.3126 55.0046 21.2761 54.8457 21.2761 54.666C21.2761 54.4915 21.3139 54.3275 21.3894 54.1738C21.4649 54.0176 21.5743 53.8809 21.7175 53.7637C21.8608 53.6439 22.0352 53.5501 22.241 53.4824C22.4467 53.4121 22.6785 53.377 22.9363 53.377C23.2957 53.377 23.6042 53.4355 23.8621 53.5527C24.1225 53.6699 24.3217 53.8314 24.4597 54.0371C24.5977 54.2402 24.6667 54.4694 24.6667 54.7246H23.6355C23.6355 54.6126 23.6095 54.5111 23.5574 54.4199C23.5079 54.3288 23.4311 54.2559 23.3269 54.2012C23.2227 54.1439 23.0912 54.1152 22.9324 54.1152C22.7891 54.1152 22.6681 54.1387 22.5691 54.1855C22.4727 54.2324 22.3998 54.2936 22.3503 54.3691C22.3009 54.4447 22.2761 54.528 22.2761 54.6191C22.2761 54.6868 22.2891 54.748 22.3152 54.8027C22.3438 54.8548 22.3894 54.903 22.4519 54.9473C22.5144 54.9915 22.599 55.0319 22.7058 55.0684C22.8152 55.1048 22.9493 55.14 23.1082 55.1738C23.4233 55.2363 23.698 55.3197 23.9324 55.4238C24.1694 55.5254 24.3542 55.6608 24.4871 55.8301C24.6199 55.9993 24.6863 56.2155 24.6863 56.4785C24.6863 56.666 24.6459 56.8379 24.5652 56.9941C24.4845 57.1478 24.3673 57.2819 24.2136 57.3965C24.06 57.5111 23.8764 57.6009 23.6628 57.666C23.4493 57.7285 23.2084 57.7598 22.9402 57.7598C22.5522 57.7598 22.224 57.6908 21.9558 57.5527C21.6876 57.4121 21.4845 57.235 21.3464 57.0215C21.2084 56.8053 21.1394 56.5814 21.1394 56.3496H22.1277C22.1355 56.5137 22.1798 56.6452 22.2605 56.7441C22.3412 56.8431 22.4428 56.9147 22.5652 56.959C22.6902 57.0007 22.8217 57.0215 22.9597 57.0215C23.116 57.0215 23.2475 57.0007 23.3542 56.959C23.461 56.9147 23.5417 56.8561 23.5964 56.7832C23.6511 56.7077 23.6785 56.6217 23.6785 56.5254ZM27.4714 53.4551V54.1973H25.0496V53.4551H27.4714ZM25.698 52.416H26.7332V56.4629C26.7332 56.5879 26.7501 56.6842 26.7839 56.752C26.8178 56.8197 26.8686 56.8652 26.9363 56.8887C27.004 56.9121 27.0847 56.9238 27.1785 56.9238C27.2462 56.9238 27.3087 56.9199 27.366 56.9121C27.4233 56.9043 27.4714 56.8965 27.5105 56.8887L27.5144 57.6621C27.4285 57.6908 27.3308 57.7142 27.2214 57.7324C27.1147 57.7507 26.9936 57.7598 26.8582 57.7598C26.6264 57.7598 26.4233 57.7207 26.2488 57.6426C26.0743 57.5618 25.9389 57.4329 25.8425 57.2559C25.7462 57.0762 25.698 56.8392 25.698 56.5449V52.416ZM33.5574 55.8105H34.6316C34.6029 56.1908 34.4975 56.528 34.3152 56.8223C34.1329 57.1139 33.879 57.3431 33.5535 57.5098C33.2279 57.6764 32.8334 57.7598 32.3699 57.7598C32.0131 57.7598 31.6915 57.6973 31.405 57.5723C31.1212 57.4447 30.8777 57.2637 30.6746 57.0293C30.474 56.7923 30.3204 56.5085 30.2136 56.1777C30.1069 55.8444 30.0535 55.4707 30.0535 55.0566V54.623C30.0535 54.209 30.1082 53.8353 30.2175 53.502C30.3269 53.1686 30.4832 52.8848 30.6863 52.6504C30.892 52.4134 31.1381 52.2311 31.4246 52.1035C31.7136 51.9759 32.0365 51.9121 32.3933 51.9121C32.8569 51.9121 33.2488 51.998 33.5691 52.1699C33.8894 52.3392 34.1381 52.5723 34.3152 52.8691C34.4923 53.166 34.599 53.5072 34.6355 53.8926H33.5613C33.5404 53.653 33.4884 53.4499 33.405 53.2832C33.3243 53.1165 33.2019 52.9902 33.0378 52.9043C32.8764 52.8158 32.6615 52.7715 32.3933 52.7715C32.185 52.7715 32.0014 52.8105 31.8425 52.8887C31.6863 52.9668 31.5561 53.084 31.4519 53.2402C31.3477 53.3939 31.2696 53.5866 31.2175 53.8184C31.1654 54.0475 31.1394 54.3132 31.1394 54.6152V55.0566C31.1394 55.3457 31.1628 55.6048 31.2097 55.834C31.2566 56.0632 31.3295 56.2572 31.4285 56.416C31.5274 56.5749 31.655 56.696 31.8113 56.7793C31.9675 56.8626 32.1537 56.9043 32.3699 56.9043C32.6329 56.9043 32.8464 56.8626 33.0105 56.7793C33.1772 56.696 33.3035 56.5736 33.3894 56.4121C33.4779 56.2507 33.5339 56.0501 33.5574 55.8105ZM36.4167 54.3184V57.6816H35.3855V53.4551H36.3621L36.4167 54.3184ZM37.7019 53.4277L37.6863 54.3887C37.629 54.3783 37.5639 54.3704 37.491 54.3652C37.4207 54.36 37.3542 54.3574 37.2917 54.3574C37.1329 54.3574 36.9936 54.3796 36.8738 54.4238C36.754 54.4655 36.6537 54.5267 36.573 54.6074C36.4949 54.6882 36.435 54.7871 36.3933 54.9043C36.3516 55.0189 36.3282 55.1491 36.323 55.2949L36.1003 55.2676C36.1003 54.9993 36.1277 54.7507 36.1824 54.5215C36.2371 54.2923 36.3165 54.0918 36.4207 53.9199C36.5248 53.748 36.655 53.6152 36.8113 53.5215C36.9701 53.4251 37.1524 53.377 37.3582 53.377C37.4154 53.377 37.4766 53.3822 37.5417 53.3926C37.6095 53.4004 37.6628 53.4121 37.7019 53.4277ZM39.5769 57.2129L40.7097 53.4551H41.8152L40.1199 58.3223C40.0808 58.4264 40.03 58.5397 39.9675 58.6621C39.9076 58.7845 39.8269 58.9004 39.7253 59.0098C39.6238 59.1217 39.4962 59.2129 39.3425 59.2832C39.1915 59.3535 39.0079 59.3887 38.7917 59.3887C38.698 59.3887 38.6147 59.3822 38.5417 59.3691C38.4688 59.3561 38.392 59.3392 38.3113 59.3184V58.5449C38.3373 58.5475 38.3673 58.5488 38.4011 58.5488C38.4376 58.5514 38.4688 58.5527 38.4949 58.5527C38.6459 58.5527 38.7709 58.5345 38.8699 58.498C38.9688 58.4642 39.0483 58.4082 39.1082 58.3301C39.1707 58.2546 39.2227 58.1556 39.2644 58.0332L39.5769 57.2129ZM39.0183 53.4551L39.9753 56.5684L40.1433 57.6582L39.4324 57.7871L37.905 53.4551H39.0183ZM43.3464 54.2676V59.3066H42.3113V53.4551H43.2683L43.3464 54.2676ZM46.0613 55.5254V55.6074C46.0613 55.9147 46.0248 56.1999 45.9519 56.4629C45.8816 56.7233 45.7774 56.9512 45.6394 57.1465C45.5014 57.3392 45.3295 57.4902 45.1238 57.5996C44.9207 57.7064 44.6863 57.7598 44.4207 57.7598C44.1602 57.7598 43.9337 57.7103 43.741 57.6113C43.5483 57.5098 43.3855 57.3665 43.2527 57.1816C43.1199 56.9967 43.0131 56.7819 42.9324 56.5371C42.8542 56.2897 42.7957 56.0202 42.7566 55.7285V55.4668C42.7957 55.1569 42.8542 54.8757 42.9324 54.623C43.0131 54.3678 43.1199 54.1478 43.2527 53.9629C43.3855 53.7754 43.547 53.6309 43.7371 53.5293C43.9298 53.4277 44.155 53.377 44.4128 53.377C44.6811 53.377 44.9167 53.4277 45.1199 53.5293C45.3256 53.6309 45.4988 53.7767 45.6394 53.9668C45.78 54.1569 45.8855 54.3835 45.9558 54.6465C46.0261 54.9095 46.0613 55.2025 46.0613 55.5254ZM45.0261 55.6074V55.5254C45.0261 55.3379 45.0092 55.1647 44.9753 55.0059C44.9415 54.8444 44.8894 54.7038 44.8191 54.584C44.7488 54.4616 44.6576 54.3665 44.5457 54.2988C44.4337 54.2311 44.2983 54.1973 44.1394 54.1973C43.9806 54.1973 43.8438 54.2233 43.7292 54.2754C43.6147 54.3275 43.5209 54.4017 43.448 54.498C43.3751 54.5944 43.3178 54.709 43.2761 54.8418C43.2371 54.972 43.211 55.1165 43.198 55.2754V55.9238C43.2214 56.1165 43.267 56.2897 43.3347 56.4434C43.4024 56.597 43.5014 56.7194 43.6316 56.8105C43.7644 56.9017 43.9363 56.9473 44.1472 56.9473C44.3061 56.9473 44.4415 56.9121 44.5535 56.8418C44.6654 56.7715 44.7566 56.6751 44.8269 56.5527C44.8972 56.4277 44.948 56.2845 44.9792 56.123C45.0105 55.9616 45.0261 55.7897 45.0261 55.6074ZM48.8152 53.4551V54.1973H46.3933V53.4551H48.8152ZM47.0417 52.416H48.0769V56.4629C48.0769 56.5879 48.0938 56.6842 48.1277 56.752C48.1615 56.8197 48.2123 56.8652 48.28 56.8887C48.3477 56.9121 48.4285 56.9238 48.5222 56.9238C48.5899 56.9238 48.6524 56.9199 48.7097 56.9121C48.767 56.9043 48.8152 56.8965 48.8542 56.8887L48.8582 57.6621C48.7722 57.6908 48.6746 57.7142 48.5652 57.7324C48.4584 57.7507 48.3373 57.7598 48.2019 57.7598C47.9701 57.7598 47.767 57.7207 47.5925 57.6426C47.4181 57.5618 47.2826 57.4329 47.1863 57.2559C47.0899 57.0762 47.0417 56.8392 47.0417 56.5449V52.416ZM49.2175 55.6113V55.5293C49.2175 55.2194 49.2618 54.9342 49.3503 54.6738C49.4389 54.4108 49.5678 54.1829 49.7371 53.9902C49.9063 53.7975 50.1134 53.6478 50.3582 53.541C50.6029 53.4316 50.8816 53.377 51.1941 53.377C51.5118 53.377 51.7931 53.4316 52.0378 53.541C52.2852 53.6478 52.4936 53.7975 52.6628 53.9902C52.8321 54.1829 52.961 54.4108 53.0496 54.6738C53.1381 54.9342 53.1824 55.2194 53.1824 55.5293V55.6113C53.1824 55.9186 53.1381 56.2038 53.0496 56.4668C52.961 56.7272 52.8321 56.9551 52.6628 57.1504C52.4936 57.3431 52.2865 57.4928 52.0417 57.5996C51.797 57.7064 51.517 57.7598 51.2019 57.7598C50.8894 57.7598 50.6095 57.7064 50.3621 57.5996C50.1147 57.4928 49.9063 57.3431 49.7371 57.1504C49.5678 56.9551 49.4389 56.7272 49.3503 56.4668C49.2618 56.2038 49.2175 55.9186 49.2175 55.6113ZM50.2488 55.5293V55.6113C50.2488 55.7962 50.267 55.9694 50.3035 56.1309C50.3399 56.2923 50.3959 56.4342 50.4714 56.5566C50.547 56.679 50.6446 56.7754 50.7644 56.8457C50.8868 56.9134 51.0326 56.9473 51.2019 56.9473C51.3686 56.9473 51.5118 56.9134 51.6316 56.8457C51.7514 56.7754 51.849 56.679 51.9246 56.5566C52.0027 56.4342 52.06 56.2923 52.0964 56.1309C52.1329 55.9694 52.1511 55.7962 52.1511 55.6113V55.5293C52.1511 55.347 52.1329 55.1764 52.0964 55.0176C52.06 54.8561 52.0027 54.7142 51.9246 54.5918C51.849 54.4668 51.7501 54.3691 51.6277 54.2988C51.5079 54.2259 51.3634 54.1895 51.1941 54.1895C51.0274 54.1895 50.8842 54.2259 50.7644 54.2988C50.6446 54.3691 50.547 54.4668 50.4714 54.5918C50.3959 54.7142 50.3399 54.8561 50.3035 55.0176C50.267 55.1764 50.2488 55.347 50.2488 55.5293ZM58.9792 56.2051C58.9792 56.0957 58.9623 55.998 58.9285 55.9121C58.8972 55.8236 58.8386 55.7441 58.7527 55.6738C58.6694 55.6009 58.5509 55.5306 58.3972 55.4629C58.2462 55.3926 58.0509 55.3197 57.8113 55.2441C57.5457 55.1608 57.2983 55.0671 57.0691 54.9629C56.8399 54.8587 56.6381 54.7376 56.4636 54.5996C56.2917 54.4616 56.1576 54.3027 56.0613 54.123C55.9649 53.9408 55.9167 53.7298 55.9167 53.4902C55.9167 53.2559 55.9662 53.0423 56.0652 52.8496C56.1667 52.6569 56.31 52.4915 56.4949 52.3535C56.6798 52.2129 56.8972 52.1048 57.1472 52.0293C57.3998 51.9538 57.6785 51.916 57.9832 51.916C58.405 51.916 58.7696 51.9928 59.0769 52.1465C59.3868 52.3001 59.6264 52.5085 59.7957 52.7715C59.9649 53.0345 60.0496 53.3301 60.0496 53.6582H58.9792C58.9792 53.4811 58.9415 53.3249 58.866 53.1895C58.7931 53.054 58.6811 52.9473 58.53 52.8691C58.3816 52.791 58.1941 52.752 57.9675 52.752C57.7488 52.752 57.5665 52.7845 57.4207 52.8496C57.2774 52.9147 57.1694 53.0033 57.0964 53.1152C57.0261 53.2272 56.991 53.3522 56.991 53.4902C56.991 53.5944 57.0157 53.6882 57.0652 53.7715C57.1147 53.8522 57.1889 53.929 57.2878 54.002C57.3868 54.0723 57.5092 54.1387 57.655 54.2012C57.8035 54.2611 57.9753 54.321 58.1707 54.3809C58.4832 54.4746 58.7566 54.5788 58.991 54.6934C59.2279 54.8079 59.4246 54.9382 59.5808 55.084C59.7397 55.2298 59.8582 55.3939 59.9363 55.5762C60.017 55.7585 60.0574 55.9655 60.0574 56.1973C60.0574 56.4421 60.0092 56.6608 59.9128 56.8535C59.8165 57.0462 59.6785 57.2103 59.4988 57.3457C59.3191 57.4811 59.1029 57.584 58.8503 57.6543C58.6003 57.7246 58.3204 57.7598 58.0105 57.7598C57.7345 57.7598 57.461 57.7233 57.1902 57.6504C56.922 57.5749 56.6785 57.4629 56.4597 57.3145C56.241 57.1634 56.0665 56.9733 55.9363 56.7441C55.8061 56.5124 55.741 56.2415 55.741 55.9316H56.8191C56.8191 56.1113 56.8477 56.265 56.905 56.3926C56.9649 56.5176 57.0483 56.6204 57.155 56.7012C57.2644 56.7793 57.392 56.8366 57.5378 56.873C57.6837 56.9095 57.8412 56.9277 58.0105 56.9277C58.2292 56.9277 58.4089 56.8978 58.5496 56.8379C58.6928 56.7754 58.7996 56.6895 58.8699 56.5801C58.9428 56.4707 58.9792 56.3457 58.9792 56.2051ZM62.8074 53.4551V54.1973H60.3855V53.4551H62.8074ZM61.0339 52.416H62.0691V56.4629C62.0691 56.5879 62.086 56.6842 62.1199 56.752C62.1537 56.8197 62.2045 56.8652 62.2722 56.8887C62.3399 56.9121 62.4207 56.9238 62.5144 56.9238C62.5821 56.9238 62.6446 56.9199 62.7019 56.9121C62.7592 56.9043 62.8074 56.8965 62.8464 56.8887L62.8503 57.6621C62.7644 57.6908 62.6667 57.7142 62.5574 57.7324C62.4506 57.7507 62.3295 57.7598 62.1941 57.7598C61.9623 57.7598 61.7592 57.7207 61.5847 57.6426C61.4102 57.5618 61.2748 57.4329 61.1785 57.2559C61.0821 57.0762 61.0339 56.8392 61.0339 56.5449V52.416ZM65.823 56.7832V54.834C65.823 54.6908 65.7983 54.5671 65.7488 54.4629C65.6993 54.3587 65.6238 54.278 65.5222 54.2207C65.4207 54.1634 65.2917 54.1348 65.1355 54.1348C64.9975 54.1348 64.8764 54.1582 64.7722 54.2051C64.6707 54.252 64.5925 54.3184 64.5378 54.4043C64.4832 54.4876 64.4558 54.584 64.4558 54.6934H63.4207C63.4207 54.5189 63.4623 54.3535 63.5457 54.1973C63.629 54.0384 63.7475 53.8978 63.9011 53.7754C64.0574 53.6504 64.2436 53.5527 64.4597 53.4824C64.6785 53.4121 64.9233 53.377 65.1941 53.377C65.5144 53.377 65.7996 53.4316 66.0496 53.541C66.3022 53.6478 66.5001 53.8092 66.6433 54.0254C66.7891 54.2415 66.8621 54.5137 66.8621 54.8418V56.6855C66.8621 56.8965 66.8751 57.0775 66.9011 57.2285C66.9298 57.377 66.9714 57.5059 67.0261 57.6152V57.6816H65.9753C65.9259 57.5749 65.8881 57.4395 65.8621 57.2754C65.836 57.1087 65.823 56.9447 65.823 56.7832ZM65.9675 55.1074L65.9753 55.7207H65.323C65.1615 55.7207 65.0196 55.7376 64.8972 55.7715C64.7748 55.8027 64.6746 55.8496 64.5964 55.9121C64.5183 55.972 64.4597 56.0449 64.4207 56.1309C64.3816 56.2142 64.3621 56.3092 64.3621 56.416C64.3621 56.5202 64.3855 56.6139 64.4324 56.6973C64.4819 56.7806 64.5522 56.847 64.6433 56.8965C64.7371 56.9434 64.8464 56.9668 64.9714 56.9668C65.1537 56.9668 65.3126 56.9303 65.448 56.8574C65.5834 56.7819 65.6889 56.6908 65.7644 56.584C65.8399 56.4772 65.8803 56.3757 65.8855 56.2793L66.1824 56.7246C66.1459 56.8314 66.0912 56.9447 66.0183 57.0645C65.9454 57.1842 65.8516 57.2962 65.7371 57.4004C65.6225 57.5046 65.4845 57.5905 65.323 57.6582C65.1615 57.7259 64.974 57.7598 64.7605 57.7598C64.4871 57.7598 64.2423 57.7051 64.0261 57.5957C63.81 57.4863 63.6394 57.3366 63.5144 57.1465C63.3894 56.9564 63.3269 56.7402 63.3269 56.498C63.3269 56.2741 63.3686 56.0762 63.4519 55.9043C63.5352 55.7324 63.6589 55.5879 63.823 55.4707C63.9871 55.3509 64.1902 55.2611 64.4324 55.2012C64.6772 55.1387 64.9571 55.1074 65.2722 55.1074H65.9675ZM68.823 51.6777V57.6816H67.7917V51.6777H68.823ZM71.4714 53.4551L69.6316 55.5215L68.6355 56.5332L68.3074 55.7324L69.0769 54.7637L70.2253 53.4551H71.4714ZM70.4167 57.6816L69.1082 55.7129L69.7957 55.0449L71.6121 57.6816H70.4167ZM73.1121 53.4551V57.6816H72.0769V53.4551H73.1121ZM72.0066 52.3496C72.0066 52.196 72.0587 52.0684 72.1628 51.9668C72.2696 51.8652 72.4128 51.8145 72.5925 51.8145C72.7722 51.8145 72.9141 51.8652 73.0183 51.9668C73.1251 52.0684 73.1785 52.196 73.1785 52.3496C73.1785 52.5007 73.1251 52.627 73.0183 52.7285C72.9141 52.8301 72.7722 52.8809 72.5925 52.8809C72.4128 52.8809 72.2696 52.8301 72.1628 52.7285C72.0587 52.627 72.0066 52.5007 72.0066 52.3496ZM75.1082 54.3574V57.6816H74.0769V53.4551H75.0457L75.1082 54.3574ZM74.9441 55.416H74.6394C74.642 55.1087 74.6837 54.8301 74.7644 54.5801C74.8451 54.3301 74.9584 54.1152 75.1042 53.9355C75.2527 53.7559 75.4285 53.6178 75.6316 53.5215C75.8347 53.4251 76.0613 53.377 76.3113 53.377C76.5144 53.377 76.698 53.4056 76.8621 53.4629C77.0261 53.5202 77.1667 53.6113 77.2839 53.7363C77.4037 53.8613 77.4949 54.0254 77.5574 54.2285C77.6225 54.429 77.655 54.6764 77.655 54.9707V57.6816H76.616V54.9629C76.616 54.7702 76.5873 54.6178 76.53 54.5059C76.4753 54.3939 76.3946 54.3145 76.2878 54.2676C76.1837 54.2207 76.0548 54.1973 75.9011 54.1973C75.7423 54.1973 75.6029 54.2298 75.4832 54.2949C75.366 54.3574 75.267 54.4447 75.1863 54.5566C75.1082 54.6686 75.0483 54.7975 75.0066 54.9434C74.9649 55.0892 74.9441 55.2467 74.9441 55.416ZM81.2527 53.4551H82.1902V57.5527C82.1902 57.9355 82.1069 58.2598 81.9402 58.5254C81.7761 58.7936 81.5457 58.9967 81.2488 59.1348C80.9519 59.2754 80.6069 59.3457 80.2136 59.3457C80.0444 59.3457 79.8608 59.3223 79.6628 59.2754C79.4675 59.2285 79.2787 59.1543 79.0964 59.0527C78.9167 58.9538 78.767 58.8249 78.6472 58.666L79.1121 58.0566C79.2527 58.2207 79.4115 58.3444 79.5886 58.4277C79.7657 58.5137 79.9571 58.5566 80.1628 58.5566C80.3712 58.5566 80.5483 58.5176 80.6941 58.4395C80.8425 58.3639 80.9558 58.252 81.0339 58.1035C81.1147 57.9577 81.155 57.778 81.155 57.5645V54.4199L81.2527 53.4551ZM78.3972 55.6191V55.5371C78.3972 55.2142 78.4363 54.9212 78.5144 54.6582C78.5925 54.3926 78.7045 54.1647 78.8503 53.9746C78.9988 53.7845 79.1772 53.6374 79.3855 53.5332C79.5964 53.429 79.8334 53.377 80.0964 53.377C80.3751 53.377 80.6095 53.4277 80.7996 53.5293C80.9923 53.6309 81.1511 53.7754 81.2761 53.9629C81.4037 54.1504 81.5027 54.373 81.573 54.6309C81.6459 54.8861 81.7019 55.1673 81.741 55.4746V55.6973C81.7045 55.9967 81.6459 56.2715 81.5652 56.5215C81.4871 56.7715 81.3829 56.9902 81.2527 57.1777C81.1225 57.3626 80.961 57.5059 80.7683 57.6074C80.5756 57.709 80.349 57.7598 80.0886 57.7598C79.8282 57.7598 79.5938 57.7064 79.3855 57.5996C79.1772 57.4928 78.9988 57.3431 78.8503 57.1504C78.7045 56.9577 78.5925 56.7311 78.5144 56.4707C78.4363 56.2103 78.3972 55.9264 78.3972 55.6191ZM79.4285 55.5371V55.6191C79.4285 55.8014 79.4467 55.972 79.4832 56.1309C79.5196 56.2897 79.5756 56.4303 79.6511 56.5527C79.7266 56.6725 79.8217 56.7663 79.9363 56.834C80.0509 56.9017 80.1876 56.9355 80.3464 56.9355C80.56 56.9355 80.7345 56.8913 80.8699 56.8027C81.0079 56.7116 81.1121 56.5879 81.1824 56.4316C81.2553 56.2728 81.3022 56.0944 81.323 55.8965V55.2832C81.31 55.127 81.2813 54.9824 81.2371 54.8496C81.1954 54.7168 81.1368 54.6022 81.0613 54.5059C80.9858 54.4095 80.8894 54.334 80.7722 54.2793C80.655 54.2246 80.5157 54.1973 80.3542 54.1973C80.198 54.1973 80.0613 54.2324 79.9441 54.3027C79.8269 54.3704 79.7306 54.4655 79.655 54.5879C79.5795 54.7103 79.5222 54.8522 79.4832 55.0137C79.4467 55.1751 79.4285 55.3496 79.4285 55.5371Z" fill="#F8B200"/>
<path d="M34.0281 40.9473V48.0566H32.6853V40.9473H34.0281ZM36.8943 44.0186V45.0781H33.6765V44.0186H36.8943ZM37.2703 40.9473V42.0068H33.6765V40.9473H37.2703ZM37.7488 45.4688V45.3662C37.7488 44.9788 37.8041 44.6224 37.9148 44.2969C38.0255 43.9681 38.1866 43.6833 38.3982 43.4424C38.6098 43.2015 38.8686 43.0143 39.1746 42.8809C39.4806 42.7441 39.8289 42.6758 40.2195 42.6758C40.6166 42.6758 40.9682 42.7441 41.2742 42.8809C41.5834 43.0143 41.8438 43.2015 42.0554 43.4424C42.267 43.6833 42.4281 43.9681 42.5388 44.2969C42.6495 44.6224 42.7048 44.9788 42.7048 45.3662V45.4688C42.7048 45.8529 42.6495 46.2093 42.5388 46.5381C42.4281 46.8636 42.267 47.1484 42.0554 47.3926C41.8438 47.6335 41.585 47.8206 41.2791 47.9541C40.9731 48.0876 40.6231 48.1543 40.2292 48.1543C39.8386 48.1543 39.4887 48.0876 39.1794 47.9541C38.8702 47.8206 38.6098 47.6335 38.3982 47.3926C38.1866 47.1484 38.0255 46.8636 37.9148 46.5381C37.8041 46.2093 37.7488 45.8529 37.7488 45.4688ZM39.0378 45.3662V45.4688C39.0378 45.6999 39.0606 45.9163 39.1062 46.1182C39.1518 46.32 39.2218 46.4974 39.3162 46.6504C39.4106 46.8034 39.5326 46.9238 39.6824 47.0117C39.8354 47.0964 40.0177 47.1387 40.2292 47.1387C40.4376 47.1387 40.6166 47.0964 40.7664 47.0117C40.9161 46.9238 41.0382 46.8034 41.1326 46.6504C41.2302 46.4974 41.3018 46.32 41.3474 46.1182C41.393 45.9163 41.4158 45.6999 41.4158 45.4688V45.3662C41.4158 45.1383 41.393 44.9251 41.3474 44.7266C41.3018 44.5247 41.2302 44.3473 41.1326 44.1943C41.0382 44.0381 40.9145 43.916 40.7615 43.8281C40.6117 43.737 40.4311 43.6914 40.2195 43.6914C40.0111 43.6914 39.8321 43.737 39.6824 43.8281C39.5326 43.916 39.4106 44.0381 39.3162 44.1943C39.2218 44.3473 39.1518 44.5247 39.1062 44.7266C39.0606 44.9251 39.0378 45.1383 39.0378 45.3662ZM44.9314 43.8525V48.0566H43.6423V42.7734H44.863L44.9314 43.8525ZM46.5378 42.7393L46.5183 43.9404C46.4467 43.9274 46.3653 43.9176 46.2742 43.9111C46.1863 43.9046 46.1033 43.9014 46.0251 43.9014C45.8266 43.9014 45.6524 43.929 45.5027 43.9844C45.3529 44.0365 45.2276 44.113 45.1267 44.2139C45.0291 44.3148 44.9542 44.4385 44.9021 44.585C44.85 44.7282 44.8207 44.891 44.8142 45.0732L44.5359 45.0391C44.5359 44.7038 44.5701 44.3929 44.6384 44.1064C44.7068 43.82 44.8061 43.5693 44.9363 43.3545C45.0665 43.1396 45.2292 42.9736 45.4246 42.8564C45.6231 42.736 45.851 42.6758 46.1082 42.6758C46.1798 42.6758 46.2563 42.6823 46.3376 42.6953C46.4223 42.7051 46.489 42.7197 46.5378 42.7393ZM47.241 40.5566H48.5349V46.8896L48.408 48.0566H47.241V40.5566ZM51.9333 45.3613V45.4639C51.9333 45.8577 51.8894 46.2191 51.8015 46.5479C51.7169 46.8766 51.5883 47.1615 51.4158 47.4023C51.2432 47.64 51.0284 47.8255 50.7712 47.959C50.5173 48.0892 50.2195 48.1543 49.8777 48.1543C49.5522 48.1543 49.269 48.0908 49.0281 47.9639C48.7904 47.8369 48.5903 47.6579 48.4275 47.4268C48.2647 47.1924 48.1345 46.9173 48.0369 46.6016C47.9392 46.2826 47.866 45.9342 47.8171 45.5566V45.2783C47.866 44.8975 47.9392 44.5492 48.0369 44.2334C48.1345 43.9176 48.2647 43.6426 48.4275 43.4082C48.5903 43.1738 48.7904 42.9932 49.0281 42.8662C49.2657 42.7393 49.5457 42.6758 49.8679 42.6758C50.213 42.6758 50.5141 42.7425 50.7712 42.876C51.0317 43.0062 51.2465 43.1917 51.4158 43.4326C51.5883 43.6702 51.7169 43.9535 51.8015 44.2822C51.8894 44.6077 51.9333 44.9674 51.9333 45.3613ZM50.6394 45.4639V45.3613C50.6394 45.1367 50.6215 44.9251 50.5857 44.7266C50.5499 44.5247 50.4913 44.3473 50.4099 44.1943C50.3285 44.0413 50.2179 43.9209 50.0779 43.833C49.9379 43.7451 49.7621 43.7012 49.5505 43.7012C49.3487 43.7012 49.1762 43.7354 49.033 43.8037C48.893 43.8721 48.7758 43.9665 48.6814 44.0869C48.5903 44.2074 48.5186 44.349 48.4666 44.5117C48.4177 44.6745 48.3852 44.8503 48.3689 45.0391V45.8008C48.3917 46.0514 48.4454 46.2777 48.53 46.4795C48.6147 46.6781 48.74 46.8359 48.906 46.9531C49.0753 47.0703 49.2934 47.1289 49.5603 47.1289C49.7686 47.1289 49.9428 47.0882 50.0828 47.0068C50.2227 46.9222 50.3334 46.805 50.4148 46.6553C50.4962 46.5023 50.5531 46.3249 50.5857 46.123C50.6215 45.9212 50.6394 45.7015 50.6394 45.4639ZM55.2439 48.1543C54.8435 48.1543 54.4838 48.0892 54.1648 47.959C53.8458 47.8288 53.574 47.6481 53.3494 47.417C53.128 47.1826 52.9571 46.9108 52.8367 46.6016C52.7195 46.2891 52.6609 45.9538 52.6609 45.5957V45.4004C52.6609 44.9935 52.7195 44.624 52.8367 44.292C52.9539 43.9567 53.1199 43.6686 53.3347 43.4277C53.5496 43.1868 53.8067 43.0013 54.1062 42.8711C54.4057 42.7409 54.7361 42.6758 55.0974 42.6758C55.4718 42.6758 55.8022 42.7393 56.0886 42.8662C56.3751 42.9899 56.6143 43.1657 56.8064 43.3936C56.9985 43.6214 57.1433 43.8949 57.241 44.2139C57.3386 44.5296 57.3875 44.8796 57.3875 45.2637V45.8057H53.2468V44.917H56.1179V44.8193C56.1114 44.6143 56.0723 44.4271 56.0007 44.2578C55.9291 44.0853 55.8184 43.9486 55.6687 43.8477C55.519 43.7435 55.3253 43.6914 55.0876 43.6914C54.8956 43.6914 54.7279 43.7337 54.5847 43.8184C54.4447 43.8997 54.3276 44.0169 54.2332 44.1699C54.142 44.3197 54.0736 44.4987 54.0281 44.707C53.9825 44.9154 53.9597 45.1465 53.9597 45.4004V45.5957C53.9597 45.8171 53.989 46.0221 54.0476 46.2109C54.1095 46.3997 54.199 46.5641 54.3162 46.7041C54.4366 46.8408 54.5798 46.9482 54.7458 47.0264C54.9151 47.1012 55.1072 47.1387 55.322 47.1387C55.5922 47.1387 55.8363 47.0866 56.0544 46.9824C56.2758 46.875 56.4679 46.7171 56.6306 46.5088L57.28 47.1826C57.1694 47.3454 57.0196 47.5016 56.8308 47.6514C56.6453 47.8011 56.4207 47.9232 56.157 48.0176C55.8933 48.1087 55.5889 48.1543 55.2439 48.1543ZM61.157 46.6113C61.157 46.5007 61.1277 46.4014 61.0691 46.3135C61.0105 46.2256 60.8998 46.1458 60.7371 46.0742C60.5776 45.9993 60.3432 45.9294 60.0339 45.8643C59.7605 45.8057 59.5082 45.7324 59.2771 45.6445C59.046 45.5566 58.8474 45.4508 58.6814 45.3271C58.5154 45.2002 58.3852 45.0521 58.2908 44.8828C58.1996 44.7103 58.1541 44.5117 58.1541 44.2871C58.1541 44.069 58.2013 43.8639 58.2957 43.6719C58.3901 43.4766 58.5268 43.3057 58.7058 43.1592C58.8848 43.0094 59.1029 42.8923 59.3601 42.8076C59.6173 42.7197 59.907 42.6758 60.2292 42.6758C60.6785 42.6758 61.0642 42.749 61.3865 42.8955C61.712 43.042 61.961 43.2438 62.1335 43.501C62.3061 43.7549 62.3923 44.0413 62.3923 44.3604H61.1033C61.1033 44.2204 61.0707 44.0934 61.0056 43.9795C60.9438 43.8656 60.8477 43.7744 60.7175 43.7061C60.5873 43.6344 60.4229 43.5986 60.2244 43.5986C60.0453 43.5986 59.894 43.6279 59.7703 43.6865C59.6498 43.7451 59.5587 43.8216 59.4968 43.916C59.435 44.0104 59.4041 44.1146 59.4041 44.2285C59.4041 44.3132 59.4203 44.3896 59.4529 44.458C59.4887 44.5231 59.5457 44.5833 59.6238 44.6387C59.7019 44.694 59.8077 44.7445 59.9412 44.79C60.0779 44.8356 60.2455 44.8796 60.4441 44.9219C60.838 45 61.1814 45.1042 61.4744 45.2344C61.7706 45.3613 62.0017 45.5306 62.1677 45.7422C62.3337 45.9538 62.4167 46.224 62.4167 46.5527C62.4167 46.7871 62.3663 47.002 62.2654 47.1973C62.1645 47.3893 62.018 47.557 61.8259 47.7002C61.6339 47.8434 61.4044 47.9557 61.1375 48.0371C60.8705 48.1152 60.5694 48.1543 60.2341 48.1543C59.7491 48.1543 59.3389 48.068 59.0037 47.8955C58.6684 47.7197 58.4145 47.4984 58.2419 47.2314C58.0694 46.9613 57.9832 46.6813 57.9832 46.3916H59.2185C59.2283 46.5967 59.2836 46.7611 59.3845 46.8848C59.4854 47.0085 59.6124 47.098 59.7654 47.1533C59.9216 47.2054 60.086 47.2314 60.2585 47.2314C60.4539 47.2314 60.6182 47.2054 60.7517 47.1533C60.8852 47.098 60.9861 47.0247 61.0544 46.9336C61.1228 46.8392 61.157 46.7318 61.157 46.6113Z" fill="#FFEDBD"/>
<path d="M66.0066 59.6816H30.0066V70.6816H66.0066V59.6816Z" fill="#1D1D1D"/>
<path d="M34.7371 65.6074H33.2722V64.7637H34.7371C34.9766 64.7637 35.1707 64.7246 35.3191 64.6465C35.4701 64.5658 35.5808 64.4564 35.6511 64.3184C35.7214 64.1777 35.7566 64.0176 35.7566 63.8379C35.7566 63.6634 35.7214 63.5007 35.6511 63.3496C35.5808 63.1986 35.4701 63.0762 35.3191 62.9824C35.1707 62.8887 34.9766 62.8418 34.7371 62.8418H33.6238V67.6816H32.5496V61.9941H34.7371C35.1798 61.9941 35.5574 62.0736 35.8699 62.2324C36.185 62.3887 36.4246 62.6061 36.5886 62.8848C36.7553 63.1608 36.8386 63.4759 36.8386 63.8301C36.8386 64.1973 36.7553 64.5137 36.5886 64.7793C36.4246 65.0449 36.185 65.2493 35.8699 65.3926C35.5574 65.5358 35.1798 65.6074 34.7371 65.6074ZM38.698 61.6816V67.6816H37.6628V61.6816H38.698ZM42.0105 66.7832V64.834C42.0105 64.6908 41.9858 64.5671 41.9363 64.4629C41.8868 64.3587 41.8113 64.278 41.7097 64.2207C41.6082 64.1634 41.4792 64.1348 41.323 64.1348C41.185 64.1348 41.0639 64.1582 40.9597 64.2051C40.8582 64.252 40.78 64.3184 40.7253 64.4043C40.6707 64.4876 40.6433 64.584 40.6433 64.6934H39.6082C39.6082 64.5189 39.6498 64.3535 39.7332 64.1973C39.8165 64.0384 39.935 63.8978 40.0886 63.7754C40.2449 63.6504 40.4311 63.5527 40.6472 63.4824C40.866 63.4121 41.1108 63.377 41.3816 63.377C41.7019 63.377 41.9871 63.4316 42.2371 63.541C42.4897 63.6478 42.6876 63.8092 42.8308 64.0254C42.9766 64.2415 43.0496 64.5137 43.0496 64.8418V66.6855C43.0496 66.8965 43.0626 67.0775 43.0886 67.2285C43.1173 67.377 43.1589 67.5059 43.2136 67.6152V67.6816H42.1628C42.1134 67.5749 42.0756 67.4395 42.0496 67.2754C42.0235 67.1087 42.0105 66.9447 42.0105 66.7832ZM42.155 65.1074L42.1628 65.7207H41.5105C41.349 65.7207 41.2071 65.7376 41.0847 65.7715C40.9623 65.8027 40.8621 65.8496 40.7839 65.9121C40.7058 65.972 40.6472 66.0449 40.6082 66.1309C40.5691 66.2142 40.5496 66.3092 40.5496 66.416C40.5496 66.5202 40.573 66.6139 40.6199 66.6973C40.6694 66.7806 40.7397 66.847 40.8308 66.8965C40.9246 66.9434 41.0339 66.9668 41.1589 66.9668C41.3412 66.9668 41.5001 66.9303 41.6355 66.8574C41.7709 66.7819 41.8764 66.6908 41.9519 66.584C42.0274 66.4772 42.0678 66.3757 42.073 66.2793L42.3699 66.7246C42.3334 66.8314 42.2787 66.9447 42.2058 67.0645C42.1329 67.1842 42.0391 67.2962 41.9246 67.4004C41.81 67.5046 41.672 67.5905 41.5105 67.6582C41.349 67.7259 41.1615 67.7598 40.948 67.7598C40.6746 67.7598 40.4298 67.7051 40.2136 67.5957C39.9975 67.4863 39.8269 67.3366 39.7019 67.1465C39.5769 66.9564 39.5144 66.7402 39.5144 66.498C39.5144 66.2741 39.5561 66.0762 39.6394 65.9043C39.7227 65.7324 39.8464 65.5879 40.0105 65.4707C40.1746 65.3509 40.3777 65.2611 40.6199 65.2012C40.8647 65.1387 41.1446 65.1074 41.4597 65.1074H42.155ZM45.9792 63.4551V64.1973H43.5574V63.4551H45.9792ZM44.2058 62.416H45.241V66.4629C45.241 66.5879 45.2579 66.6842 45.2917 66.752C45.3256 66.8197 45.3764 66.8652 45.4441 66.8887C45.5118 66.9121 45.5925 66.9238 45.6863 66.9238C45.754 66.9238 45.8165 66.9199 45.8738 66.9121C45.9311 66.9043 45.9792 66.8965 46.0183 66.8887L46.0222 67.6621C45.9363 67.6908 45.8386 67.7142 45.7292 67.7324C45.6225 67.7507 45.5014 67.7598 45.366 67.7598C45.1342 67.7598 44.9311 67.7207 44.7566 67.6426C44.5821 67.5618 44.4467 67.4329 44.3503 67.2559C44.254 67.0762 44.2058 66.8392 44.2058 66.5449V62.416ZM48.0183 67.6816H46.9792V63.0645C46.9792 62.7467 47.0404 62.4798 47.1628 62.2637C47.2852 62.0449 47.4597 61.8796 47.6863 61.7676C47.9128 61.6556 48.1798 61.5996 48.4871 61.5996C48.5886 61.5996 48.685 61.6061 48.7761 61.6191C48.8699 61.6322 48.9623 61.6504 49.0535 61.6738L49.0339 62.459C48.9845 62.446 48.9298 62.4368 48.8699 62.4316C48.8126 62.4264 48.7488 62.4238 48.6785 62.4238C48.5378 62.4238 48.4181 62.4486 48.3191 62.498C48.2201 62.5475 48.1446 62.6204 48.0925 62.7168C48.0431 62.8105 48.0183 62.9264 48.0183 63.0645V67.6816ZM48.8738 63.4551V64.1973H46.3425V63.4551H48.8738ZM49.3269 65.6113V65.5293C49.3269 65.2194 49.3712 64.9342 49.4597 64.6738C49.5483 64.4108 49.6772 64.1829 49.8464 63.9902C50.0157 63.7975 50.2227 63.6478 50.4675 63.541C50.7123 63.4316 50.991 63.377 51.3035 63.377C51.6212 63.377 51.9024 63.4316 52.1472 63.541C52.3946 63.6478 52.6029 63.7975 52.7722 63.9902C52.9415 64.1829 53.0704 64.4108 53.1589 64.6738C53.2475 64.9342 53.2917 65.2194 53.2917 65.5293V65.6113C53.2917 65.9186 53.2475 66.2038 53.1589 66.4668C53.0704 66.7272 52.9415 66.9551 52.7722 67.1504C52.6029 67.3431 52.3959 67.4928 52.1511 67.5996C51.9063 67.7064 51.6264 67.7598 51.3113 67.7598C50.9988 67.7598 50.7188 67.7064 50.4714 67.5996C50.224 67.4928 50.0157 67.3431 49.8464 67.1504C49.6772 66.9551 49.5483 66.7272 49.4597 66.4668C49.3712 66.2038 49.3269 65.9186 49.3269 65.6113ZM50.3582 65.5293V65.6113C50.3582 65.7962 50.3764 65.9694 50.4128 66.1309C50.4493 66.2923 50.5053 66.4342 50.5808 66.5566C50.6563 66.679 50.754 66.7754 50.8738 66.8457C50.9962 66.9134 51.142 66.9473 51.3113 66.9473C51.4779 66.9473 51.6212 66.9134 51.741 66.8457C51.8608 66.7754 51.9584 66.679 52.0339 66.5566C52.1121 66.4342 52.1694 66.2923 52.2058 66.1309C52.2423 65.9694 52.2605 65.7962 52.2605 65.6113V65.5293C52.2605 65.347 52.2423 65.1764 52.2058 65.0176C52.1694 64.8561 52.1121 64.7142 52.0339 64.5918C51.9584 64.4668 51.8595 64.3691 51.7371 64.2988C51.6173 64.2259 51.4727 64.1895 51.3035 64.1895C51.1368 64.1895 50.9936 64.2259 50.8738 64.2988C50.754 64.3691 50.6563 64.4668 50.5808 64.5918C50.5053 64.7142 50.4493 64.8561 50.4128 65.0176C50.3764 65.1764 50.3582 65.347 50.3582 65.5293ZM55.073 64.3184V67.6816H54.0417V63.4551H55.0183L55.073 64.3184ZM56.3582 63.4277L56.3425 64.3887C56.2852 64.3783 56.2201 64.3704 56.1472 64.3652C56.0769 64.36 56.0105 64.3574 55.948 64.3574C55.7891 64.3574 55.6498 64.3796 55.53 64.4238C55.4102 64.4655 55.31 64.5267 55.2292 64.6074C55.1511 64.6882 55.0912 64.7871 55.0496 64.9043C55.0079 65.0189 54.9845 65.1491 54.9792 65.2949L54.7566 65.2676C54.7566 64.9993 54.7839 64.7507 54.8386 64.5215C54.8933 64.2923 54.9727 64.0918 55.0769 63.9199C55.1811 63.748 55.3113 63.6152 55.4675 63.5215C55.6264 63.4251 55.8087 63.377 56.0144 63.377C56.0717 63.377 56.1329 63.3822 56.198 63.3926C56.2657 63.4004 56.3191 63.4121 56.3582 63.4277ZM57.9519 64.3223V67.6816H56.9207V63.4551H57.8933L57.9519 64.3223ZM57.7996 65.416H57.4832C57.4832 65.1217 57.5183 64.8509 57.5886 64.6035C57.6615 64.3561 57.7683 64.1413 57.9089 63.959C58.0496 63.7741 58.2227 63.6309 58.4285 63.5293C58.6368 63.4277 58.8777 63.377 59.1511 63.377C59.3412 63.377 59.5157 63.4056 59.6746 63.4629C59.8334 63.5176 59.9701 63.6048 60.0847 63.7246C60.2019 63.8418 60.2917 63.9954 60.3542 64.1855C60.4167 64.373 60.448 64.5983 60.448 64.8613V67.6816H59.4167V64.9668C59.4167 64.7689 59.3881 64.6139 59.3308 64.502C59.2761 64.39 59.1967 64.3118 59.0925 64.2676C58.9884 64.2207 58.8634 64.1973 58.7175 64.1973C58.5561 64.1973 58.4167 64.2298 58.2996 64.2949C58.185 64.3574 58.0899 64.4447 58.0144 64.5566C57.9415 64.6686 57.8868 64.7975 57.8503 64.9434C57.8165 65.0892 57.7996 65.2467 57.7996 65.416ZM60.3699 65.2246L59.9441 65.3027C59.9467 65.0371 59.9832 64.7884 60.0535 64.5566C60.1238 64.3223 60.2266 64.1178 60.3621 63.9434C60.5001 63.7663 60.6707 63.6283 60.8738 63.5293C61.0795 63.4277 61.3165 63.377 61.5847 63.377C61.7931 63.377 61.9806 63.4069 62.1472 63.4668C62.3165 63.5241 62.461 63.6165 62.5808 63.7441C62.7006 63.8691 62.7917 64.0319 62.8542 64.2324C62.9194 64.4329 62.9519 64.6777 62.9519 64.9668V67.6816H61.9128V64.9629C61.9128 64.7572 61.8842 64.5996 61.8269 64.4902C61.7722 64.3809 61.6928 64.3053 61.5886 64.2637C61.4845 64.2194 61.3621 64.1973 61.2214 64.1973C61.0782 64.1973 60.9532 64.2246 60.8464 64.2793C60.7423 64.3314 60.6537 64.4043 60.5808 64.498C60.5105 64.5918 60.4571 64.7012 60.4207 64.8262C60.3868 64.9486 60.3699 65.0814 60.3699 65.2246Z" fill="#F8B200"/>
<path d="M18.0146 66.151L18.0239 66.1509L18.0332 66.1501C18.1667 66.1383 18.3007 66.1339 18.4347 66.1369C18.9378 66.1568 19.4299 66.2908 19.8737 66.5288C20.263 66.7375 20.6063 67.0214 20.884 67.3634C20.5823 67.6545 20.1483 67.8255 19.6715 67.911C19.1306 68.008 18.5681 67.9886 18.1664 67.9338C17.36 67.8225 16.6293 67.3997 16.131 66.7559C15.7851 66.3091 15.5704 65.7805 15.5029 65.2285C15.784 65.5217 16.1276 65.7254 16.4731 65.8644C17.0369 66.0911 17.6249 66.154 18.0146 66.151Z" fill="#F8B200" stroke="#F8B200" stroke-width="0.463077"/>
<path d="M77.9612 66.2106L77.9519 66.2105L77.9426 66.2097C77.8091 66.1979 77.6751 66.1935 77.5411 66.1964C77.0379 66.2164 76.5459 66.3504 76.1021 66.5883C75.7127 66.797 75.3694 67.0809 75.0918 67.4229C75.3935 67.7141 75.8275 67.8851 76.3043 67.9706C76.8451 68.0676 77.4077 68.0482 77.8093 67.9934C78.6158 67.8821 79.3465 67.4592 79.8448 66.8155C80.1906 66.3686 80.4054 65.8401 80.4728 65.2881C80.1918 65.5812 79.8482 65.785 79.5026 65.9239C78.9388 66.1507 78.3509 66.2136 77.9612 66.2106Z" fill="#F8B200" stroke="#F8B200" stroke-width="0.463077"/>
</svg>
