<svg width="96" height="97" viewBox="0 0 96 97" fill="none" xmlns="http://www.w3.org/2000/svg">
<path d="M33.4288 20.8574C33.8974 21.0952 34.3436 21.3748 34.7619 21.6928C34.8419 21.7506 34.9307 21.8217 34.9174 21.9194C34.8983 21.9874 34.8633 22.0499 34.8152 22.1016C34.3492 22.793 33.7865 23.414 33.1444 23.9458C32.2361 24.5706 31.1223 24.822 30.0337 24.6479C29.048 24.4684 28.1154 24.0689 27.3053 23.4792C27.0431 23.3014 26.7898 23.1148 26.5232 22.9459C26.3543 22.8393 25.7189 22.6704 25.6967 22.466C25.6478 22.0217 26.9498 21.3995 27.3097 21.2307C28.5615 20.5859 29.9601 20.2795 31.3669 20.3419C32.0803 20.3833 32.7797 20.5581 33.4288 20.8574Z" fill="#AA6811"/>
<path d="M31.8957 14.4862C32.0346 13.9401 32.1429 13.3868 32.2201 12.8287C32.2201 12.722 32.2512 12.6065 32.1445 12.5665C32.0566 12.5482 31.9658 12.5482 31.8779 12.5665C30.718 12.6583 29.5844 12.9594 28.5318 13.4552C27.884 13.7742 27.307 14.2203 26.8352 14.7669C26.3634 15.3135 26.0064 15.9495 25.7855 16.6369C25.5318 17.6583 25.6418 18.7362 26.0966 19.6853C26.2166 19.9742 26.3543 20.2541 26.4743 20.543C26.5454 20.7296 26.6121 21.3784 26.8165 21.4317C27.2253 21.525 28.1185 20.4097 28.4073 20.0986C29.4119 19.0405 30.2847 17.8647 31.0069 16.5969C31.3848 15.9306 31.6831 15.2222 31.8957 14.4862Z" fill="#AA6811"/>
<path d="M40.801 15.4323C41.4498 15.0768 42.0808 14.6947 42.734 14.3303C42.8584 14.2592 42.9962 14.1747 43.0095 14.0859C43.0229 13.997 42.974 13.9792 42.9295 13.9303C42.4115 13.3066 41.7179 12.8529 40.9387 12.6283C39.6723 12.2995 37.9037 12.6283 36.5572 13.3216C35.3404 13.9513 34.2851 14.853 33.4733 15.9567C33.2333 16.2766 33.0289 16.601 32.78 16.921C32.6334 17.1209 32.0557 17.6986 32.1001 17.8764C32.189 18.2363 33.5888 17.8764 33.9754 17.8453C35.4707 17.5829 36.9336 17.1613 38.3392 16.5877C39.1819 16.2516 40.004 15.8658 40.801 15.4323Z" fill="#AA6811"/>
<path d="M28.0608 24.6659C28.5739 24.8121 29.0735 25.0024 29.5539 25.2347C29.6427 25.2747 29.7405 25.328 29.7538 25.4302C29.7566 25.4973 29.7396 25.5638 29.7049 25.6213C29.4395 26.3723 29.0554 27.0759 28.5673 27.7054C27.8273 28.475 26.8129 28.9207 25.7456 28.9452C24.734 28.952 23.7332 28.7382 22.8127 28.3186C22.5194 28.1942 22.2261 28.0609 21.924 27.9498C21.7329 27.8743 21.0752 27.8298 21.0041 27.6388C20.8619 27.2344 21.9773 26.3678 22.2883 26.1412C23.3555 25.2856 24.6348 24.7358 25.99 24.5504C26.6814 24.4599 27.3837 24.4991 28.0608 24.6659Z" fill="#AA6811"/>
<path d="M24.9946 18.7697C24.9858 18.2125 24.9472 17.6563 24.8791 17.1033C24.8791 16.9966 24.848 16.8811 24.7369 16.8589C24.6503 16.8555 24.5639 16.8706 24.4836 16.9033C23.4152 17.1932 22.4121 17.6849 21.5285 18.352C20.9871 18.7895 20.543 19.3352 20.2246 19.9543C19.9063 20.5733 19.7208 21.252 19.6799 21.9469C19.6844 22.9989 20.0446 24.0185 20.702 24.8398C20.8886 25.0975 21.0886 25.342 21.2752 25.6041C21.3908 25.7686 21.6041 26.3862 21.8174 26.3951C22.2617 26.3951 22.8394 25.1642 23.0438 24.8265C23.7573 23.6168 24.3044 22.3164 24.6702 20.9604C24.8685 20.2464 24.9775 19.5105 24.9946 18.7697Z" fill="#AA6811"/>
<path d="M23.8126 29.3498C24.3479 29.3967 24.8785 29.4874 25.399 29.6208C25.4968 29.6475 25.6034 29.6786 25.639 29.7719C25.6568 29.8359 25.6568 29.9035 25.639 29.9674C25.5547 30.7388 25.3398 31.4901 25.0035 32.1893C24.7239 32.6311 24.3583 33.0121 23.9286 33.3098C23.4988 33.6076 23.0135 33.8159 22.5017 33.9224C21.4965 34.1219 20.4604 34.1053 19.4622 33.8735C19.1422 33.8113 18.8223 33.7357 18.4979 33.6869C18.2935 33.6557 17.6314 33.7357 17.5203 33.5624C17.2892 33.198 18.2135 32.1449 18.4668 31.8605C19.339 30.8259 20.4777 30.0498 21.7596 29.6164C22.4215 29.4009 23.1176 29.3105 23.8126 29.3498Z" fill="#AA6811"/>
<path d="M19.4311 24.1909C19.2916 23.6502 19.1225 23.1176 18.9245 22.5956C18.8889 22.4978 18.8445 22.3867 18.7289 22.3867C18.6459 22.3973 18.5666 22.4278 18.4979 22.4756C17.5324 22.9551 16.6715 23.6211 15.9649 24.4353C15.565 24.8939 15.2635 25.4297 15.0791 26.0096C14.8948 26.5894 14.8315 27.201 14.8931 27.8063C14.9548 28.4117 15.1401 28.9979 15.4376 29.5287C15.7351 30.0595 16.1384 30.5235 16.6226 30.892C16.8626 31.1053 17.1159 31.3053 17.3558 31.523C17.5069 31.6608 17.8535 32.2163 18.0668 32.1851C18.489 32.1185 18.8045 30.7943 18.9333 30.4299C19.366 29.1192 19.6055 27.7525 19.6443 26.3727C19.6677 25.6393 19.596 24.9059 19.4311 24.1909Z" fill="#AA6811"/>
<path d="M20.6575 34.6554C21.1989 34.5956 21.7445 34.5822 22.2883 34.6154C22.3386 34.6097 22.3896 34.6155 22.4373 34.6324C22.4851 34.6494 22.5283 34.677 22.5638 34.7132C22.5952 34.7717 22.6091 34.838 22.6038 34.9042C22.6868 35.6673 22.6341 36.4391 22.4483 37.1839C22.2561 37.6713 21.9667 38.1146 21.5977 38.4866C21.2287 38.8587 20.7878 39.1517 20.302 39.348C19.3348 39.7402 18.2968 39.9279 17.2536 39.899C16.9203 39.899 16.587 39.899 16.2537 39.899C16.0449 39.899 15.3916 40.1212 15.2494 39.9701C14.9473 39.659 15.6583 38.4503 15.8538 38.1304C16.5186 36.9483 17.4945 35.9709 18.6756 35.3042C19.2914 34.9695 19.9629 34.7496 20.6575 34.6554Z" fill="#AA6811"/>
<path d="M15.2095 30.5055C14.9532 30.0052 14.6683 29.52 14.3563 29.0524C14.2985 28.9635 14.2274 28.8657 14.1163 28.888C14.037 28.9149 13.9653 28.9607 13.9074 29.0213C13.0587 29.6713 12.3498 30.486 11.8233 31.4164C11.5085 32.019 11.3284 32.6828 11.2954 33.3618C11.2624 34.0408 11.3773 34.7189 11.6323 35.3492C12.0955 36.311 12.8643 37.0924 13.8186 37.571C14.103 37.731 14.3963 37.8776 14.6807 38.0421C14.8584 38.1487 15.3161 38.6197 15.525 38.5486C15.9338 38.402 15.9693 37.0511 16.0316 36.6689C16.1948 35.31 16.1469 33.9339 15.8894 32.5896C15.7548 31.8682 15.5262 31.1675 15.2095 30.5055Z" fill="#AA6811"/>
<path d="M12.3344 37.4682C11.9741 37.0311 11.5898 36.6143 11.1835 36.2196C11.1124 36.144 11.0235 36.064 10.9169 36.1085C10.8415 36.1483 10.7774 36.2064 10.7302 36.2773C10.0194 37.0778 9.47416 38.0112 9.12604 39.0236C8.92944 39.6722 8.87848 40.3562 8.9768 41.0268C9.07512 41.6974 9.32031 42.338 9.69484 42.9029C10.3516 43.7562 11.2742 44.3661 12.3166 44.636C12.6321 44.7338 12.9521 44.8182 13.2676 44.9248C13.4676 44.9915 14.0186 45.3692 14.2097 45.2492C14.5963 45.0226 14.3874 43.6939 14.3696 43.3118C14.2711 41.9517 13.9545 40.6164 13.432 39.3568C13.1491 38.6826 12.7802 38.0478 12.3344 37.4682Z" fill="#AA6811"/>
<path d="M11.8145 59.8158C11.251 59.6656 10.6799 59.5455 10.1036 59.4558C10.0511 59.4368 9.99421 59.4333 9.93979 59.4459C9.88537 59.4586 9.83578 59.4867 9.79702 59.5269C9.75354 59.6032 9.72773 59.6882 9.72148 59.7758C9.49933 60.8502 9.49933 61.9586 9.72148 63.033C9.88697 63.6916 10.2071 64.3012 10.6553 64.8113C11.1036 65.3213 11.667 65.7172 12.2988 65.9659C13.377 66.2918 14.5324 66.2544 15.5872 65.8593C15.9294 65.7526 16.2627 65.6326 16.6048 65.5304C16.8181 65.4682 17.4936 65.4504 17.6269 65.2416C17.858 64.7972 16.9648 63.8196 16.7381 63.5085C15.9283 62.4193 14.9306 61.4833 13.7919 60.7445C13.178 60.3466 12.5127 60.0342 11.8145 59.8158Z" fill="#AA6811"/>
<path d="M21.4174 64.2021C21.7319 63.6677 22.087 63.1581 22.4794 62.6779C22.5505 62.5846 22.635 62.4869 22.7416 62.4824C22.8084 62.4854 22.873 62.507 22.9283 62.5446C23.6103 62.8749 24.2158 63.3441 24.7058 63.9222C25.2879 64.7576 25.3456 65.9708 25.0701 67.1128C24.7443 68.2511 24.2159 69.3214 23.5104 70.2723C23.2926 70.5833 23.066 70.89 22.8572 71.2099C22.7238 71.4143 22.475 72.1431 22.2572 72.192C21.8129 72.2942 21.2574 70.9389 21.1197 70.5745C20.5707 69.2469 20.4074 67.7914 20.6486 66.3751C20.7787 65.6122 21.0387 64.8771 21.4174 64.2021Z" fill="#AA6811"/>
<path d="M14.3341 66.9389C13.7421 66.9058 13.1487 66.9058 12.5566 66.9389C12.4998 66.9293 12.4415 66.9364 12.3887 66.9592C12.3358 66.9821 12.2907 67.0198 12.2589 67.0678C12.2297 67.1519 12.2191 67.2414 12.2278 67.33C12.2097 68.4364 12.42 69.5346 12.8455 70.5561C13.1389 71.1787 13.5787 71.721 14.1274 72.1366C14.6761 72.5522 15.3172 72.8287 15.9961 72.9424C17.1502 73.0449 18.3066 72.7722 19.2933 72.1648C19.6133 71.987 19.9288 71.7959 20.2532 71.6271C20.4576 71.5204 21.1419 71.3604 21.2308 71.1294C21.3774 70.685 20.2887 69.8496 20.0088 69.5874C18.9849 68.6731 17.8047 67.9506 16.5249 67.4544C15.8226 67.1802 15.085 67.0066 14.3341 66.9389Z" fill="#AA6811"/>
<path d="M24.848 69.3126C25.061 68.7188 25.3195 68.1424 25.6212 67.5884C25.6745 67.4862 25.7411 67.3706 25.8478 67.3395C25.9156 67.3284 25.9852 67.3377 26.0478 67.3662C26.7987 67.552 27.5025 67.8925 28.1141 68.366C28.8695 69.0726 29.1762 70.268 29.1228 71.4767C29.0281 72.682 28.7133 73.8598 28.1941 74.9517C28.0341 75.3116 27.8697 75.6626 27.7231 76.027C27.6297 76.2537 27.5275 77.0358 27.3142 77.1291C26.8699 77.3246 26.03 76.0804 25.8167 75.7471C24.9857 74.5423 24.5225 73.122 24.4836 71.6589C24.4643 70.8613 24.5877 70.0667 24.848 69.3126Z" fill="#AA6811"/>
<path d="M18.2268 73.4888C17.6206 73.5745 17.0197 73.6947 16.4271 73.8488C16.3116 73.8754 16.1871 73.911 16.1516 74.0354C16.1373 74.1262 16.1449 74.2192 16.1738 74.3065C16.3604 75.4207 16.7847 76.4816 17.418 77.4171C17.8454 77.9809 18.4028 78.433 19.0427 78.7348C19.6827 79.0366 20.3861 79.1791 21.093 79.1501C22.2853 79.0204 23.4049 78.5128 24.2881 77.7015C24.5769 77.4615 24.8613 77.2038 25.1546 76.9683C25.3412 76.8216 26.0433 76.5239 26.0433 76.2706C26.0967 75.7729 24.8213 75.1908 24.4836 74.9863C23.2601 74.2822 21.9208 73.8022 20.5287 73.5688C19.7687 73.4364 18.9941 73.4095 18.2268 73.4888Z" fill="#AA6811"/>
<path d="M29.3628 73.6939C29.4624 73.0583 29.611 72.4313 29.8072 71.8186C29.8143 71.7588 29.8342 71.7012 29.8657 71.6498C29.8971 71.5984 29.9393 71.5544 29.9894 71.5209C30.056 71.5009 30.1271 71.5009 30.1938 71.5209C30.9992 71.5499 31.7901 71.7435 32.5179 72.0897C33.4422 72.6362 34.0198 73.7738 34.2331 74.9781C34.3982 76.2043 34.3334 77.4506 34.0421 78.6531C33.9576 79.0441 33.8599 79.4307 33.7932 79.8262C33.7488 80.0751 33.8199 80.8794 33.6155 81.0171C33.1933 81.306 32.0513 80.2261 31.758 79.9373C30.6456 78.9125 29.8616 77.5811 29.505 76.1112C29.3128 75.3205 29.2646 74.5016 29.3628 73.6939Z" fill="#AA6811"/>
<path d="M23.4793 79.2268C22.8738 79.4369 22.2804 79.6802 21.7018 79.9555C21.5951 80.0044 21.4751 80.0666 21.4618 80.1955C21.4666 80.2889 21.4924 80.3801 21.5373 80.4621C21.9651 81.5347 22.62 82.5018 23.457 83.2972C24.0191 83.778 24.6869 84.1189 25.406 84.2919C26.1251 84.4649 26.8749 84.4651 27.5942 84.2926C28.7855 83.9253 29.8285 83.1874 30.5714 82.1863C30.8203 81.8841 31.0558 81.5731 31.3091 81.2753C31.4691 81.0887 32.1045 80.6488 32.0779 80.3866C32.0201 79.88 30.5759 79.5512 30.1848 79.4179C28.7777 78.9651 27.3029 78.7592 25.8255 78.8091C25.0284 78.844 24.2394 78.9844 23.4793 79.2268Z" fill="#AA6811"/>
<path d="M42.5874 84.4926H42.4985C23.8348 80.7332 15.5206 66.3088 13.9386 54.0619C12.9995 46.7912 14.1767 39.404 17.3292 32.7853C20.6497 25.8766 26.2072 20.2925 33.1 16.939C33.1527 16.9081 33.2112 16.8884 33.2719 16.8811C33.3325 16.8738 33.3941 16.8791 33.4526 16.8967C33.5111 16.9143 33.5654 16.9437 33.612 16.9832C33.6586 17.0227 33.6966 17.0714 33.7235 17.1263C33.7505 17.1811 33.7659 17.2409 33.7687 17.3019C33.7715 17.363 33.7616 17.4239 33.7398 17.481C33.718 17.5381 33.6846 17.59 33.6418 17.6336C33.599 17.6772 33.5477 17.7115 33.491 17.7344C26.7786 20.9999 21.3655 26.4365 18.129 33.163C15.0509 39.6254 13.9029 46.8388 14.8229 53.9375C16.3604 65.8778 24.488 79.9422 42.6762 83.6083C42.7941 83.6201 42.9024 83.6782 42.9774 83.7699C43.0524 83.8615 43.0879 83.9793 43.0762 84.0971C43.0644 84.215 43.0063 84.3233 42.9146 84.3983C42.8229 84.4733 42.7052 84.5088 42.5874 84.4971V84.4926Z" fill="#704006"/>
<path d="M62.4997 20.8575C62.0312 21.0955 61.585 21.3751 61.1666 21.6929C61.0866 21.7507 61.0022 21.8218 61.0155 21.9196C61.0333 21.9871 61.0668 22.0496 61.1133 22.1018C61.5823 22.7921 62.1463 23.4129 62.7885 23.9459C63.6964 24.5715 64.8106 24.823 65.8992 24.648C66.8867 24.47 67.8211 24.0704 68.632 23.4793C68.8898 23.3016 69.1431 23.1149 69.4142 22.9461C69.583 22.8394 70.2185 22.6706 70.2407 22.4662C70.2896 22.0218 68.9876 21.3997 68.6276 21.2308C67.3744 20.5855 65.9742 20.2791 64.566 20.3421C63.851 20.3828 63.1501 20.5576 62.4997 20.8575Z" fill="#AA6811"/>
<path d="M64.0328 14.4862C63.8939 13.9401 63.7856 13.3868 63.7084 12.8287C63.7084 12.722 63.6773 12.6065 63.7839 12.5665C63.8719 12.5482 63.9626 12.5482 64.0505 12.5665C65.2104 12.6583 66.3441 12.9594 67.3967 13.4552C68.0445 13.7742 68.6215 14.2203 69.0933 14.7669C69.5651 15.3135 69.922 15.9495 70.1429 16.6369C70.3966 17.6583 70.2866 18.7362 69.8318 19.6853C69.7119 19.9742 69.5697 20.2541 69.4541 20.543C69.383 20.7296 69.3164 21.3784 69.1075 21.4317C68.7031 21.525 67.8099 20.4097 67.5211 20.0986C66.5166 19.0405 65.6437 17.8647 64.9215 16.5969C64.5436 15.9306 64.2453 15.2222 64.0328 14.4862Z" fill="#AA6811"/>
<path d="M55.1275 15.4323C54.4787 15.0768 53.8477 14.6947 53.1945 14.3303C53.0701 14.2592 52.9323 14.1747 52.919 14.0859C52.9057 13.997 52.9545 13.9792 52.9945 13.9303C53.5143 13.3064 54.2094 12.8529 54.9898 12.6283C56.2562 12.2995 58.0248 12.6283 59.3713 13.3216C60.5937 13.9503 61.655 14.852 62.473 15.9567C62.713 16.2766 62.9174 16.601 63.1618 16.921C63.3129 17.1209 63.8906 17.6986 63.8417 17.8764C63.7572 18.2363 62.3575 17.8764 61.9664 17.8453C60.4652 17.5838 58.9963 17.1622 57.5849 16.5877C56.7433 16.2523 55.9227 15.8665 55.1275 15.4323Z" fill="#AA6811"/>
<path d="M67.8633 24.6658C67.3518 24.8127 66.8538 25.003 66.3746 25.2346C66.2858 25.2745 66.188 25.3279 66.1747 25.4301C66.1724 25.4966 66.1877 25.5625 66.2191 25.6212C66.4879 26.3716 66.8733 27.0749 67.3611 27.7053C68.1012 28.4748 69.1155 28.9205 70.1829 28.9451C71.1945 28.9519 72.1953 28.738 73.1158 28.3185C73.4091 28.1941 73.7024 28.0608 74.0045 27.9497C74.1912 27.8741 74.8533 27.8297 74.9199 27.6386C75.0666 27.2342 73.9512 26.3677 73.6401 26.1411C72.5718 25.2847 71.2908 24.7348 69.9341 24.5502C69.2426 24.46 68.5404 24.4991 67.8633 24.6658Z" fill="#AA6811"/>
<path d="M70.9161 18.7697C70.925 18.2125 70.9635 17.6563 71.0317 17.1033C71.0317 16.9966 71.0628 16.8811 71.1739 16.8589C71.2605 16.8555 71.3469 16.8706 71.4272 16.9033C72.4956 17.1932 73.4987 17.6849 74.3822 18.352C74.9269 18.7878 75.3744 19.3328 75.6958 19.952C76.0173 20.5711 76.2056 21.2507 76.2486 21.9469C76.2395 22.9996 75.8764 24.0186 75.2177 24.8398C75.031 25.0975 74.8266 25.342 74.6444 25.6041C74.5289 25.7686 74.3112 26.3862 74.1023 26.3951C73.6801 26.3951 73.0802 25.1642 72.8758 24.8265C72.1623 23.6168 71.6153 22.3164 71.2494 20.9604C71.0481 20.2468 70.9362 19.5109 70.9161 18.7697Z" fill="#AA6811"/>
<path d="M72.1204 29.3498C71.585 29.3964 71.0544 29.487 70.534 29.6208C70.4362 29.6475 70.3296 29.6786 70.294 29.7719C70.2739 29.8355 70.2739 29.9038 70.294 29.9674C70.3789 30.7381 70.5921 31.4891 70.925 32.1893C71.2059 32.6309 71.5724 33.0117 72.0028 33.3094C72.4333 33.607 72.919 33.8155 73.4313 33.9224C74.4364 34.1219 75.4726 34.1053 76.4708 33.8735C76.7907 33.8113 77.1107 33.7357 77.4351 33.6869C77.6351 33.6557 78.3016 33.7357 78.4127 33.5624C78.6393 33.198 77.7195 32.1449 77.4662 31.8605C76.594 30.8259 75.4552 30.0498 74.1734 29.6164C73.5115 29.4009 72.8153 29.3105 72.1204 29.3498Z" fill="#AA6811"/>
<path d="M76.4975 24.1909C76.6384 23.6501 76.809 23.1175 77.0085 22.5956C77.0441 22.4978 77.0885 22.3867 77.204 22.3867C77.2871 22.3973 77.3664 22.4278 77.4351 22.4756C78.3999 22.9563 79.2605 23.6222 79.968 24.4353C80.368 24.8939 80.6695 25.4297 80.8539 26.0096C81.0382 26.5894 81.1015 27.201 81.0399 27.8063C80.9782 28.4117 80.7929 28.9979 80.4954 29.5287C80.1979 30.0595 79.7946 30.5235 79.3104 30.892C79.066 31.1053 78.8171 31.3053 78.5772 31.523C78.4261 31.6608 78.0795 32.2163 77.8662 32.1851C77.444 32.1185 77.1285 30.7943 76.9996 30.4299C76.5678 29.1188 76.3268 27.7524 76.2842 26.3727C76.2631 25.6394 76.3347 24.9063 76.4975 24.1909Z" fill="#AA6811"/>
<path d="M75.2665 34.6555C74.7251 34.5956 74.1794 34.5822 73.6357 34.6155C73.586 34.6101 73.5358 34.6161 73.4889 34.6331C73.4419 34.65 73.3994 34.6774 73.3646 34.7132C73.3333 34.7718 73.3194 34.8381 73.3246 34.9043C73.2417 35.6674 73.2943 36.4392 73.4802 37.1839C73.6721 37.6709 73.9609 38.1137 74.3291 38.4857C74.6973 38.8577 75.1371 39.1511 75.622 39.348C76.5908 39.7401 77.6302 39.9277 78.6749 39.8991C79.0082 39.8991 79.3414 39.8991 79.6747 39.8991C79.8836 39.8991 80.5324 40.1212 80.679 39.9702C80.9812 39.6591 80.2702 38.4504 80.0747 38.1305C79.4098 36.9484 78.4339 35.9709 77.2529 35.3042C76.6357 34.969 75.9626 34.7492 75.2665 34.6555Z" fill="#AA6811"/>
<path d="M80.7146 30.5055C80.974 30.006 81.2603 29.5209 81.5722 29.0524C81.63 28.9635 81.6966 28.8657 81.8122 28.888C81.8915 28.9149 81.9632 28.9607 82.021 29.0213C82.8698 29.6713 83.5786 30.486 84.1051 31.4164C84.4199 32.019 84.6001 32.6828 84.6331 33.3618C84.6661 34.0408 84.5511 34.7189 84.2962 35.3492C83.833 36.311 83.0642 37.0924 82.1099 37.571C81.8255 37.731 81.5322 37.8776 81.2478 38.0421C81.0701 38.1487 80.6079 38.6197 80.4035 38.5486C79.9947 38.402 79.9591 37.0511 79.8925 36.6689C79.7336 35.3098 79.7815 33.9344 80.0347 32.5896C80.1733 31.8692 80.4018 31.1691 80.7146 30.5055Z" fill="#AA6811"/>
<path d="M83.5941 37.4682C83.9542 37.0323 84.3369 36.6155 84.7406 36.2196C84.8161 36.144 84.905 36.064 85.0117 36.1085C85.087 36.1483 85.1511 36.2064 85.1983 36.2773C85.9091 37.0778 86.4544 38.0112 86.8025 39.0236C86.9994 39.6724 87.0501 40.3568 86.951 41.0275C86.8519 41.6983 86.6054 42.3388 86.2292 42.9029C85.5743 43.7562 84.6531 44.3661 83.6119 44.636C83.2964 44.7338 82.9764 44.8182 82.6609 44.9248C82.461 44.9915 81.9099 45.3692 81.7189 45.2492C81.3323 45.0226 81.5411 43.6939 81.5589 43.3118C81.6575 41.9517 81.974 40.6164 82.4965 39.3568C82.7794 38.6826 83.1483 38.0478 83.5941 37.4682Z" fill="#AA6811"/>
<path d="M84.123 59.8158C84.6864 59.6652 85.2575 59.545 85.8338 59.4558C85.8863 59.4368 85.9432 59.4333 85.9976 59.4459C86.0521 59.4586 86.1017 59.4867 86.1404 59.5269C86.1839 59.6032 86.2097 59.6882 86.2159 59.7758C86.4359 60.8504 86.4359 61.9584 86.2159 63.033C86.0505 63.6916 85.7303 64.3012 85.2821 64.8113C84.8338 65.3213 84.2704 65.7172 83.6386 65.9659C82.5604 66.2918 81.405 66.2544 80.3502 65.8593C80.0081 65.7526 79.6748 65.6326 79.3326 65.5304C79.1193 65.4682 78.4216 65.4504 78.3106 65.2416C78.0795 64.7972 78.9727 63.8196 79.1993 63.5085C80.0092 62.4193 81.0069 61.4833 82.1455 60.7445C82.7594 60.3466 83.4247 60.0342 84.123 59.8158Z" fill="#AA6811"/>
<path d="M74.5111 64.202C74.1976 63.6708 73.8441 63.1642 73.4535 62.6867C73.3824 62.5934 73.298 62.4957 73.1913 62.4912C73.1246 62.4942 73.0599 62.5158 73.0047 62.5534C72.3227 62.8837 71.7172 63.3529 71.2272 63.931C70.6407 64.7664 70.5873 65.9795 70.8628 67.1216C71.1887 68.2599 71.717 69.3302 72.4226 70.2811C72.6403 70.5921 72.867 70.8988 73.0758 71.2187C73.2047 71.4231 73.4535 72.1519 73.6757 72.2008C74.1201 72.303 74.6756 70.9476 74.8133 70.5832C75.3623 69.2557 75.5256 67.8001 75.2843 66.3839C75.1539 65.6176 74.8923 64.8795 74.5111 64.202Z" fill="#AA6811"/>
<path d="M81.5811 66.9388C82.1732 66.9058 82.7666 66.9058 83.3586 66.9388C83.4697 66.9388 83.5986 66.9388 83.6519 67.0676C83.6832 67.1513 83.6939 67.2412 83.683 67.3298C83.7049 68.4361 83.496 69.5348 83.0698 70.556C82.7764 71.1786 82.3365 71.7209 81.7879 72.1364C81.2392 72.552 80.598 72.8285 79.9192 72.9423C78.7651 73.0448 77.6086 72.772 76.6219 72.1646C76.2975 71.9869 75.9865 71.7958 75.6621 71.6269C75.4532 71.5203 74.7734 71.3603 74.6845 71.1292C74.5378 70.6848 75.6265 69.8494 75.9065 69.5872C76.9304 68.6729 78.1105 67.9504 79.3904 67.4542C80.0927 67.18 80.8302 67.0065 81.5811 66.9388Z" fill="#AA6811"/>
<path d="M71.0806 69.3127C70.8675 68.719 70.609 68.1426 70.3074 67.5886C70.254 67.4863 70.1874 67.3708 70.0807 67.3397C70.0129 67.3283 69.9432 67.3376 69.8808 67.3664C69.1268 67.551 68.4198 67.8916 67.8055 68.3662C67.0501 69.0728 66.7435 70.2681 66.7924 71.4768C66.8908 72.682 67.207 73.8594 67.7256 74.9518C67.8811 75.3118 68.0499 75.6628 68.1966 76.0272C68.2899 76.2538 68.3921 77.0359 68.6054 77.1292C69.0498 77.3248 69.8852 76.0805 70.103 75.7472C70.934 74.5424 71.3971 73.1221 71.4361 71.659C71.4559 70.8621 71.3356 70.0679 71.0806 69.3127Z" fill="#AA6811"/>
<path d="M77.7018 73.4888C78.3079 73.5749 78.9088 73.6951 79.5015 73.8488C79.617 73.8754 79.7414 73.911 79.777 74.0354C79.7913 74.1262 79.7836 74.2192 79.7548 74.3065C79.5686 75.4215 79.1426 76.4828 78.5061 77.4171C78.0799 77.9811 77.5234 78.4335 76.8841 78.7353C76.2448 79.0372 75.5419 79.1795 74.8356 79.1501C73.643 79.0214 72.5232 78.5136 71.6405 77.7015C71.3472 77.4615 71.0673 77.2038 70.774 76.9683C70.5873 76.8216 69.9074 76.5239 69.8852 76.2706C69.8319 75.7729 71.1073 75.1908 71.445 74.9863C72.6684 74.2822 74.0077 73.8022 75.3999 73.5688C76.1599 73.4364 76.9344 73.4095 77.7018 73.4888Z" fill="#AA6811"/>
<path d="M66.5657 73.6939C66.4661 73.0583 66.3175 72.4314 66.1213 71.8187C66.1126 71.7593 66.092 71.7023 66.0607 71.6512C66.0294 71.6 65.988 71.5557 65.9391 71.521C65.871 71.5008 65.7984 71.5008 65.7303 71.521C64.9264 71.5506 64.1371 71.7441 63.4107 72.0897C62.4864 72.6363 61.9087 73.7739 61.6954 74.9782C61.528 76.2043 61.5928 77.451 61.8865 78.6531C61.9709 79.0442 62.0642 79.4308 62.1353 79.8263C62.1797 80.0751 62.1086 80.8795 62.3086 81.0172C62.753 81.3061 63.8773 80.2262 64.1705 79.9374C65.283 78.9126 66.0669 77.5812 66.4235 76.1113C66.6158 75.3206 66.6639 74.5017 66.5657 73.6939Z" fill="#AA6811"/>
<path d="M72.4492 79.2268C73.0547 79.4369 73.6481 79.6802 74.2267 79.9555C74.3334 80.0044 74.4534 80.0666 74.4622 80.1955C74.4612 80.2889 74.4367 80.3806 74.3911 80.4621C73.9634 81.5347 73.3085 82.5018 72.4714 83.2972C71.9094 83.778 71.2415 84.1189 70.5225 84.2919C69.8034 84.4649 69.0535 84.4651 68.3343 84.2926C67.1424 83.9242 66.0982 83.1866 65.3526 82.1863C65.1037 81.8841 64.8727 81.5731 64.6194 81.2753C64.4594 81.0887 63.8239 80.6488 63.8506 80.3866C63.9084 79.88 65.3526 79.5512 65.7436 79.4179C67.1508 78.9651 68.6256 78.7592 70.1029 78.8091C70.9001 78.844 71.689 78.9844 72.4492 79.2268Z" fill="#AA6811"/>
<path d="M53.3412 84.4922C53.2828 84.498 53.2239 84.4923 53.1677 84.4753C53.1116 84.4584 53.0593 84.4306 53.0139 84.3934C52.9686 84.3563 52.9309 84.3106 52.9032 84.2589C52.8755 84.2072 52.8582 84.1506 52.8524 84.0922C52.8465 84.0339 52.8523 83.9749 52.8692 83.9188C52.8861 83.8626 52.914 83.8104 52.9511 83.765C52.9882 83.7196 53.034 83.682 53.0856 83.6543C53.1373 83.6265 53.194 83.6093 53.2523 83.6034C71.4405 79.9373 79.5681 65.8729 81.1056 53.9326C82.0233 46.834 80.8754 39.6212 77.7995 33.1582C74.563 26.4316 69.15 20.995 62.4375 17.7295C62.3809 17.7066 62.3295 17.6723 62.2867 17.6287C62.2439 17.5851 62.2105 17.5332 62.1887 17.4761C62.1669 17.419 62.1571 17.3581 62.1599 17.297C62.1627 17.236 62.178 17.1762 62.205 17.1214C62.232 17.0665 62.2699 17.0179 62.3166 16.9784C62.3632 16.9389 62.4174 16.9094 62.476 16.8918C62.5345 16.8743 62.596 16.8689 62.6567 16.8762C62.7173 16.8835 62.7758 16.9032 62.8286 16.9341C69.7199 20.2854 75.2772 25.8662 78.5994 32.7715C81.7525 39.39 82.9282 46.7779 81.9855 54.0481C80.408 66.2951 72.076 80.7105 53.4301 84.4788L53.3412 84.4922Z" fill="#704006"/>
<path d="M49.5729 24.9853L53.1768 25.5097L50.5683 28.0515L51.186 31.6376L47.9643 29.9445L44.7426 31.6376L45.3558 28.0515L42.7473 25.5097L46.3512 24.9853L47.9598 21.7236L49.5729 24.9853Z" fill="#DD8C2C"/>
<path d="M37.9703 29.514L40.1433 29.8295L38.5702 31.3671L38.9435 33.5312L36.9971 32.5091L35.0508 33.5356L35.4196 31.3671L33.8465 29.8295L36.0239 29.514L36.9927 27.541L37.9703 29.514Z" fill="#DD8C2C"/>
<path d="M57.9582 29.514L55.7808 29.8295L57.3583 31.3671L56.985 33.5312L58.9314 32.5091L60.8777 33.5356L60.5089 31.3671L62.082 29.8295L59.9045 29.514L58.9358 27.541L57.9582 29.514Z" fill="#DD8C2C"/>
<rect width="36" height="13" transform="translate(30.75 56.625)" fill="#1D1D1D"/>
<path d="M35.4805 63.5508H34.0156V62.707H35.4805C35.7201 62.707 35.9141 62.668 36.0625 62.5898C36.2135 62.5091 36.3242 62.3997 36.3945 62.2617C36.4648 62.1211 36.5 61.9609 36.5 61.7812C36.5 61.6068 36.4648 61.444 36.3945 61.293C36.3242 61.1419 36.2135 61.0195 36.0625 60.9258C35.9141 60.832 35.7201 60.7852 35.4805 60.7852H34.3672V65.625H33.293V59.9375H35.4805C35.9232 59.9375 36.3008 60.0169 36.6133 60.1758C36.9284 60.332 37.168 60.5495 37.332 60.8281C37.4987 61.1042 37.582 61.4193 37.582 61.7734C37.582 62.1406 37.4987 62.457 37.332 62.7227C37.168 62.9883 36.9284 63.1927 36.6133 63.3359C36.3008 63.4792 35.9232 63.5508 35.4805 63.5508ZM39.4414 59.625V65.625H38.4062V59.625H39.4414ZM42.7539 64.7266V62.7773C42.7539 62.6341 42.7292 62.5104 42.6797 62.4062C42.6302 62.3021 42.5547 62.2214 42.4531 62.1641C42.3516 62.1068 42.2227 62.0781 42.0664 62.0781C41.9284 62.0781 41.8073 62.1016 41.7031 62.1484C41.6016 62.1953 41.5234 62.2617 41.4688 62.3477C41.4141 62.431 41.3867 62.5273 41.3867 62.6367H40.3516C40.3516 62.4622 40.3932 62.2969 40.4766 62.1406C40.5599 61.9818 40.6784 61.8411 40.832 61.7188C40.9883 61.5938 41.1745 61.4961 41.3906 61.4258C41.6094 61.3555 41.8542 61.3203 42.125 61.3203C42.4453 61.3203 42.7305 61.375 42.9805 61.4844C43.2331 61.5911 43.431 61.7526 43.5742 61.9688C43.7201 62.1849 43.793 62.457 43.793 62.7852V64.6289C43.793 64.8398 43.806 65.0208 43.832 65.1719C43.8607 65.3203 43.9023 65.4492 43.957 65.5586V65.625H42.9062C42.8568 65.5182 42.819 65.3828 42.793 65.2188C42.7669 65.0521 42.7539 64.888 42.7539 64.7266ZM42.8984 63.0508L42.9062 63.6641H42.2539C42.0924 63.6641 41.9505 63.681 41.8281 63.7148C41.7057 63.7461 41.6055 63.793 41.5273 63.8555C41.4492 63.9154 41.3906 63.9883 41.3516 64.0742C41.3125 64.1576 41.293 64.2526 41.293 64.3594C41.293 64.4635 41.3164 64.5573 41.3633 64.6406C41.4128 64.724 41.4831 64.7904 41.5742 64.8398C41.668 64.8867 41.7773 64.9102 41.9023 64.9102C42.0846 64.9102 42.2435 64.8737 42.3789 64.8008C42.5143 64.7253 42.6198 64.6341 42.6953 64.5273C42.7708 64.4206 42.8112 64.319 42.8164 64.2227L43.1133 64.668C43.0768 64.7747 43.0221 64.888 42.9492 65.0078C42.8763 65.1276 42.7826 65.2396 42.668 65.3438C42.5534 65.4479 42.4154 65.5339 42.2539 65.6016C42.0924 65.6693 41.9049 65.7031 41.6914 65.7031C41.418 65.7031 41.1732 65.6484 40.957 65.5391C40.7409 65.4297 40.5703 65.2799 40.4453 65.0898C40.3203 64.8997 40.2578 64.6836 40.2578 64.4414C40.2578 64.2174 40.2995 64.0195 40.3828 63.8477C40.4661 63.6758 40.5898 63.5312 40.7539 63.4141C40.918 63.2943 41.1211 63.2044 41.3633 63.1445C41.6081 63.082 41.888 63.0508 42.2031 63.0508H42.8984ZM46.7227 61.3984V62.1406H44.3008V61.3984H46.7227ZM44.9492 60.3594H45.9844V64.4062C45.9844 64.5312 46.0013 64.6276 46.0352 64.6953C46.069 64.763 46.1198 64.8086 46.1875 64.832C46.2552 64.8555 46.3359 64.8672 46.4297 64.8672C46.4974 64.8672 46.5599 64.8633 46.6172 64.8555C46.6745 64.8477 46.7227 64.8398 46.7617 64.832L46.7656 65.6055C46.6797 65.6341 46.582 65.6576 46.4727 65.6758C46.3659 65.694 46.2448 65.7031 46.1094 65.7031C45.8776 65.7031 45.6745 65.6641 45.5 65.5859C45.3255 65.5052 45.1901 65.3763 45.0938 65.1992C44.9974 65.0195 44.9492 64.7826 44.9492 64.4883V60.3594ZM48.7617 65.625H47.7227V61.0078C47.7227 60.6901 47.7839 60.4232 47.9062 60.207C48.0286 59.9883 48.2031 59.8229 48.4297 59.7109C48.6562 59.599 48.9232 59.543 49.2305 59.543C49.332 59.543 49.4284 59.5495 49.5195 59.5625C49.6133 59.5755 49.7057 59.5938 49.7969 59.6172L49.7773 60.4023C49.7279 60.3893 49.6732 60.3802 49.6133 60.375C49.556 60.3698 49.4922 60.3672 49.4219 60.3672C49.2812 60.3672 49.1615 60.3919 49.0625 60.4414C48.9635 60.4909 48.888 60.5638 48.8359 60.6602C48.7865 60.7539 48.7617 60.8698 48.7617 61.0078V65.625ZM49.6172 61.3984V62.1406H47.0859V61.3984H49.6172ZM50.0703 63.5547V63.4727C50.0703 63.1628 50.1146 62.8776 50.2031 62.6172C50.2917 62.3542 50.4206 62.1263 50.5898 61.9336C50.7591 61.7409 50.9661 61.5911 51.2109 61.4844C51.4557 61.375 51.7344 61.3203 52.0469 61.3203C52.3646 61.3203 52.6458 61.375 52.8906 61.4844C53.138 61.5911 53.3464 61.7409 53.5156 61.9336C53.6849 62.1263 53.8138 62.3542 53.9023 62.6172C53.9909 62.8776 54.0352 63.1628 54.0352 63.4727V63.5547C54.0352 63.862 53.9909 64.1471 53.9023 64.4102C53.8138 64.6706 53.6849 64.8984 53.5156 65.0938C53.3464 65.2865 53.1393 65.4362 52.8945 65.543C52.6497 65.6497 52.3698 65.7031 52.0547 65.7031C51.7422 65.7031 51.4622 65.6497 51.2148 65.543C50.9674 65.4362 50.7591 65.2865 50.5898 65.0938C50.4206 64.8984 50.2917 64.6706 50.2031 64.4102C50.1146 64.1471 50.0703 63.862 50.0703 63.5547ZM51.1016 63.4727V63.5547C51.1016 63.7396 51.1198 63.9128 51.1562 64.0742C51.1927 64.2357 51.2487 64.3776 51.3242 64.5C51.3997 64.6224 51.4974 64.7188 51.6172 64.7891C51.7396 64.8568 51.8854 64.8906 52.0547 64.8906C52.2214 64.8906 52.3646 64.8568 52.4844 64.7891C52.6042 64.7188 52.7018 64.6224 52.7773 64.5C52.8555 64.3776 52.9128 64.2357 52.9492 64.0742C52.9857 63.9128 53.0039 63.7396 53.0039 63.5547V63.4727C53.0039 63.2904 52.9857 63.1198 52.9492 62.9609C52.9128 62.7995 52.8555 62.6576 52.7773 62.5352C52.7018 62.4102 52.6029 62.3125 52.4805 62.2422C52.3607 62.1693 52.2161 62.1328 52.0469 62.1328C51.8802 62.1328 51.737 62.1693 51.6172 62.2422C51.4974 62.3125 51.3997 62.4102 51.3242 62.5352C51.2487 62.6576 51.1927 62.7995 51.1562 62.9609C51.1198 63.1198 51.1016 63.2904 51.1016 63.4727ZM55.8164 62.2617V65.625H54.7852V61.3984H55.7617L55.8164 62.2617ZM57.1016 61.3711L57.0859 62.332C57.0286 62.3216 56.9635 62.3138 56.8906 62.3086C56.8203 62.3034 56.7539 62.3008 56.6914 62.3008C56.5326 62.3008 56.3932 62.3229 56.2734 62.3672C56.1536 62.4089 56.0534 62.4701 55.9727 62.5508C55.8945 62.6315 55.8346 62.7305 55.793 62.8477C55.7513 62.9622 55.7279 63.0924 55.7227 63.2383L55.5 63.2109C55.5 62.9427 55.5273 62.694 55.582 62.4648C55.6367 62.2357 55.7161 62.0352 55.8203 61.8633C55.9245 61.6914 56.0547 61.5586 56.2109 61.4648C56.3698 61.3685 56.5521 61.3203 56.7578 61.3203C56.8151 61.3203 56.8763 61.3255 56.9414 61.3359C57.0091 61.3438 57.0625 61.3555 57.1016 61.3711ZM58.6953 62.2656V65.625H57.6641V61.3984H58.6367L58.6953 62.2656ZM58.543 63.3594H58.2266C58.2266 63.0651 58.2617 62.7943 58.332 62.5469C58.4049 62.2995 58.5117 62.0846 58.6523 61.9023C58.793 61.7174 58.9661 61.5742 59.1719 61.4727C59.3802 61.3711 59.6211 61.3203 59.8945 61.3203C60.0846 61.3203 60.2591 61.349 60.418 61.4062C60.5768 61.4609 60.7135 61.5482 60.8281 61.668C60.9453 61.7852 61.0352 61.9388 61.0977 62.1289C61.1602 62.3164 61.1914 62.5417 61.1914 62.8047V65.625H60.1602V62.9102C60.1602 62.7122 60.1315 62.5573 60.0742 62.4453C60.0195 62.3333 59.9401 62.2552 59.8359 62.2109C59.7318 62.1641 59.6068 62.1406 59.4609 62.1406C59.2995 62.1406 59.1602 62.1732 59.043 62.2383C58.9284 62.3008 58.8333 62.388 58.7578 62.5C58.6849 62.612 58.6302 62.7409 58.5938 62.8867C58.5599 63.0326 58.543 63.1901 58.543 63.3594ZM61.1133 63.168L60.6875 63.2461C60.6901 62.9805 60.7266 62.7318 60.7969 62.5C60.8672 62.2656 60.9701 62.0612 61.1055 61.8867C61.2435 61.7096 61.4141 61.5716 61.6172 61.4727C61.8229 61.3711 62.0599 61.3203 62.3281 61.3203C62.5365 61.3203 62.724 61.3503 62.8906 61.4102C63.0599 61.4674 63.2044 61.5599 63.3242 61.6875C63.444 61.8125 63.5352 61.9753 63.5977 62.1758C63.6628 62.3763 63.6953 62.6211 63.6953 62.9102V65.625H62.6562V62.9062C62.6562 62.7005 62.6276 62.543 62.5703 62.4336C62.5156 62.3242 62.4362 62.2487 62.332 62.207C62.2279 62.1628 62.1055 62.1406 61.9648 62.1406C61.8216 62.1406 61.6966 62.168 61.5898 62.2227C61.4857 62.2747 61.3971 62.3477 61.3242 62.4414C61.2539 62.5352 61.2005 62.6445 61.1641 62.7695C61.1302 62.8919 61.1133 63.0247 61.1133 63.168Z" fill="#F8B200"/>
<rect x="8" y="46.625" width="80" height="13" rx="6.5" fill="#1D1D1D"/>
<path d="M14.7227 53.0898H13.2695L13.2617 52.332H14.5078C14.7214 52.332 14.8997 52.3021 15.043 52.2422C15.1862 52.1823 15.2943 52.0951 15.3672 51.9805C15.4427 51.8659 15.4805 51.7266 15.4805 51.5625C15.4805 51.3802 15.4453 51.2318 15.375 51.1172C15.3073 51.0026 15.2005 50.9193 15.0547 50.8672C14.9089 50.8125 14.724 50.7852 14.5 50.7852H13.6172V55.625H12.543V49.9375H14.5C14.8229 49.9375 15.1107 49.9688 15.3633 50.0312C15.6185 50.0911 15.8346 50.1849 16.0117 50.3125C16.1888 50.4401 16.3229 50.6003 16.4141 50.793C16.5078 50.9857 16.5547 51.2148 16.5547 51.4805C16.5547 51.7148 16.5 51.931 16.3906 52.1289C16.2839 52.3242 16.1185 52.4831 15.8945 52.6055C15.6732 52.7279 15.3919 52.7982 15.0508 52.8164L14.7227 53.0898ZM14.6758 55.625H12.9531L13.4023 54.7812H14.6758C14.8893 54.7812 15.0651 54.7461 15.2031 54.6758C15.3438 54.6055 15.4479 54.5091 15.5156 54.3867C15.5859 54.2617 15.6211 54.1185 15.6211 53.957C15.6211 53.7799 15.5898 53.6263 15.5273 53.4961C15.4674 53.3659 15.3711 53.2656 15.2383 53.1953C15.1081 53.125 14.9362 53.0898 14.7227 53.0898H13.6055L13.6133 52.332H15.0352L15.2812 52.625C15.6094 52.6276 15.8763 52.6927 16.082 52.8203C16.2904 52.9479 16.444 53.112 16.543 53.3125C16.6419 53.513 16.6914 53.7292 16.6914 53.9609C16.6914 54.3255 16.612 54.6315 16.4531 54.8789C16.2969 55.1263 16.0677 55.3125 15.7656 55.4375C15.4661 55.5625 15.1029 55.625 14.6758 55.625ZM19.4414 55.7031C19.1211 55.7031 18.8333 55.651 18.5781 55.5469C18.3229 55.4427 18.1055 55.2982 17.9258 55.1133C17.7487 54.9258 17.612 54.7083 17.5156 54.4609C17.4219 54.2109 17.375 53.9427 17.375 53.6562V53.5C17.375 53.1745 17.4219 52.8789 17.5156 52.6133C17.6094 52.3451 17.7422 52.1146 17.9141 51.9219C18.0859 51.7292 18.2917 51.5807 18.5312 51.4766C18.7708 51.3724 19.0352 51.3203 19.3242 51.3203C19.6237 51.3203 19.888 51.3711 20.1172 51.4727C20.3464 51.5716 20.5378 51.7122 20.6914 51.8945C20.8451 52.0768 20.9609 52.2956 21.0391 52.5508C21.1172 52.8034 21.1562 53.0833 21.1562 53.3906V53.8242H17.8438V53.1133H20.1406V53.0352C20.1354 52.8711 20.1042 52.7214 20.0469 52.5859C19.9896 52.4479 19.901 52.3385 19.7812 52.2578C19.6615 52.1745 19.5065 52.1328 19.3164 52.1328C19.1628 52.1328 19.0286 52.1667 18.9141 52.2344C18.8021 52.2995 18.7083 52.3932 18.6328 52.5156C18.5599 52.6354 18.5052 52.7786 18.4688 52.9453C18.4323 53.112 18.4141 53.2969 18.4141 53.5V53.6562C18.4141 53.8333 18.4375 53.9974 18.4844 54.1484C18.5339 54.2995 18.6055 54.431 18.6992 54.543C18.7956 54.6523 18.9102 54.7383 19.043 54.8008C19.1784 54.8607 19.332 54.8906 19.5039 54.8906C19.7201 54.8906 19.9154 54.849 20.0898 54.7656C20.2669 54.6797 20.4206 54.5534 20.5508 54.3867L21.0703 54.9258C20.9818 55.056 20.862 55.181 20.7109 55.3008C20.5625 55.4206 20.3828 55.5182 20.1719 55.5938C19.9609 55.6667 19.7174 55.7031 19.4414 55.7031ZM24.1719 54.4688C24.1719 54.3802 24.1484 54.3008 24.1016 54.2305C24.0547 54.1602 23.9661 54.0964 23.8359 54.0391C23.7083 53.9792 23.5208 53.9232 23.2734 53.8711C23.0547 53.8242 22.8529 53.7656 22.668 53.6953C22.4831 53.625 22.3242 53.5404 22.1914 53.4414C22.0586 53.3398 21.9544 53.2214 21.8789 53.0859C21.806 52.9479 21.7695 52.7891 21.7695 52.6094C21.7695 52.4349 21.8073 52.2708 21.8828 52.1172C21.9583 51.9609 22.0677 51.8242 22.2109 51.707C22.3542 51.5872 22.5286 51.4935 22.7344 51.4258C22.9401 51.3555 23.1719 51.3203 23.4297 51.3203C23.7891 51.3203 24.0977 51.3789 24.3555 51.4961C24.6159 51.6133 24.8151 51.7747 24.9531 51.9805C25.0911 52.1836 25.1602 52.4128 25.1602 52.668H24.1289C24.1289 52.556 24.1029 52.4544 24.0508 52.3633C24.0013 52.2721 23.9245 52.1992 23.8203 52.1445C23.7161 52.0872 23.5846 52.0586 23.4258 52.0586C23.2826 52.0586 23.1615 52.082 23.0625 52.1289C22.9661 52.1758 22.8932 52.237 22.8438 52.3125C22.7943 52.388 22.7695 52.4714 22.7695 52.5625C22.7695 52.6302 22.7826 52.6914 22.8086 52.7461C22.8372 52.7982 22.8828 52.8464 22.9453 52.8906C23.0078 52.9349 23.0924 52.9753 23.1992 53.0117C23.3086 53.0482 23.4427 53.0833 23.6016 53.1172C23.9167 53.1797 24.1914 53.263 24.4258 53.3672C24.6628 53.4688 24.8477 53.6042 24.9805 53.7734C25.1133 53.9427 25.1797 54.1589 25.1797 54.4219C25.1797 54.6094 25.1393 54.7812 25.0586 54.9375C24.9779 55.0911 24.8607 55.2253 24.707 55.3398C24.5534 55.4544 24.3698 55.5443 24.1562 55.6094C23.9427 55.6719 23.7018 55.7031 23.4336 55.7031C23.0456 55.7031 22.7174 55.6341 22.4492 55.4961C22.181 55.3555 21.9779 55.1784 21.8398 54.9648C21.7018 54.7487 21.6328 54.5247 21.6328 54.293H22.6211C22.6289 54.457 22.6732 54.5885 22.7539 54.6875C22.8346 54.7865 22.9362 54.8581 23.0586 54.9023C23.1836 54.944 23.3151 54.9648 23.4531 54.9648C23.6094 54.9648 23.7409 54.944 23.8477 54.9023C23.9544 54.8581 24.0352 54.7995 24.0898 54.7266C24.1445 54.651 24.1719 54.5651 24.1719 54.4688ZM27.9648 51.3984V52.1406H25.543V51.3984H27.9648ZM26.1914 50.3594H27.2266V54.4062C27.2266 54.5312 27.2435 54.6276 27.2773 54.6953C27.3112 54.763 27.362 54.8086 27.4297 54.832C27.4974 54.8555 27.5781 54.8672 27.6719 54.8672C27.7396 54.8672 27.8021 54.8633 27.8594 54.8555C27.9167 54.8477 27.9648 54.8398 28.0039 54.832L28.0078 55.6055C27.9219 55.6341 27.8242 55.6576 27.7148 55.6758C27.6081 55.694 27.487 55.7031 27.3516 55.7031C27.1198 55.7031 26.9167 55.6641 26.7422 55.5859C26.5677 55.5052 26.4323 55.3763 26.3359 55.1992C26.2396 55.0195 26.1914 54.7826 26.1914 54.4883V50.3594ZM34.0508 53.7539H35.125C35.0964 54.1341 34.9909 54.4714 34.8086 54.7656C34.6263 55.0573 34.3724 55.2865 34.0469 55.4531C33.7214 55.6198 33.3268 55.7031 32.8633 55.7031C32.5065 55.7031 32.1849 55.6406 31.8984 55.5156C31.6146 55.388 31.3711 55.207 31.168 54.9727C30.9674 54.7357 30.8138 54.4518 30.707 54.1211C30.6003 53.7878 30.5469 53.4141 30.5469 53V52.5664C30.5469 52.1523 30.6016 51.7786 30.7109 51.4453C30.8203 51.112 30.9766 50.8281 31.1797 50.5938C31.3854 50.3568 31.6315 50.1745 31.918 50.0469C32.207 49.9193 32.5299 49.8555 32.8867 49.8555C33.3503 49.8555 33.7422 49.9414 34.0625 50.1133C34.3828 50.2826 34.6315 50.5156 34.8086 50.8125C34.9857 51.1094 35.0924 51.4505 35.1289 51.8359H34.0547C34.0339 51.5964 33.9818 51.3932 33.8984 51.2266C33.8177 51.0599 33.6953 50.9336 33.5312 50.8477C33.3698 50.7591 33.1549 50.7148 32.8867 50.7148C32.6784 50.7148 32.4948 50.7539 32.3359 50.832C32.1797 50.9102 32.0495 51.0273 31.9453 51.1836C31.8411 51.3372 31.763 51.5299 31.7109 51.7617C31.6589 51.9909 31.6328 52.2565 31.6328 52.5586V53C31.6328 53.2891 31.6562 53.5482 31.7031 53.7773C31.75 54.0065 31.8229 54.2005 31.9219 54.3594C32.0208 54.5182 32.1484 54.6393 32.3047 54.7227C32.4609 54.806 32.6471 54.8477 32.8633 54.8477C33.1263 54.8477 33.3398 54.806 33.5039 54.7227C33.6706 54.6393 33.7969 54.5169 33.8828 54.3555C33.9714 54.194 34.0273 53.9935 34.0508 53.7539ZM36.9102 52.2617V55.625H35.8789V51.3984H36.8555L36.9102 52.2617ZM38.1953 51.3711L38.1797 52.332C38.1224 52.3216 38.0573 52.3138 37.9844 52.3086C37.9141 52.3034 37.8477 52.3008 37.7852 52.3008C37.6263 52.3008 37.487 52.3229 37.3672 52.3672C37.2474 52.4089 37.1471 52.4701 37.0664 52.5508C36.9883 52.6315 36.9284 52.7305 36.8867 52.8477C36.8451 52.9622 36.8216 53.0924 36.8164 53.2383L36.5938 53.2109C36.5938 52.9427 36.6211 52.694 36.6758 52.4648C36.7305 52.2357 36.8099 52.0352 36.9141 51.8633C37.0182 51.6914 37.1484 51.5586 37.3047 51.4648C37.4635 51.3685 37.6458 51.3203 37.8516 51.3203C37.9089 51.3203 37.9701 51.3255 38.0352 51.3359C38.1029 51.3438 38.1562 51.3555 38.1953 51.3711ZM40.0703 55.1562L41.2031 51.3984H42.3086L40.6133 56.2656C40.5742 56.3698 40.5234 56.4831 40.4609 56.6055C40.401 56.7279 40.3203 56.8438 40.2188 56.9531C40.1172 57.0651 39.9896 57.1562 39.8359 57.2266C39.6849 57.2969 39.5013 57.332 39.2852 57.332C39.1914 57.332 39.1081 57.3255 39.0352 57.3125C38.9622 57.2995 38.8854 57.2826 38.8047 57.2617V56.4883C38.8307 56.4909 38.8607 56.4922 38.8945 56.4922C38.931 56.4948 38.9622 56.4961 38.9883 56.4961C39.1393 56.4961 39.2643 56.4779 39.3633 56.4414C39.4622 56.4076 39.5417 56.3516 39.6016 56.2734C39.6641 56.1979 39.7161 56.099 39.7578 55.9766L40.0703 55.1562ZM39.5117 51.3984L40.4688 54.5117L40.6367 55.6016L39.9258 55.7305L38.3984 51.3984H39.5117ZM43.8398 52.2109V57.25H42.8047V51.3984H43.7617L43.8398 52.2109ZM46.5547 53.4688V53.5508C46.5547 53.8581 46.5182 54.1432 46.4453 54.4062C46.375 54.6667 46.2708 54.8945 46.1328 55.0898C45.9948 55.2826 45.8229 55.4336 45.6172 55.543C45.4141 55.6497 45.1797 55.7031 44.9141 55.7031C44.6536 55.7031 44.4271 55.6536 44.2344 55.5547C44.0417 55.4531 43.8789 55.3099 43.7461 55.125C43.6133 54.9401 43.5065 54.7253 43.4258 54.4805C43.3477 54.2331 43.2891 53.9635 43.25 53.6719V53.4102C43.2891 53.1003 43.3477 52.819 43.4258 52.5664C43.5065 52.3112 43.6133 52.0911 43.7461 51.9062C43.8789 51.7188 44.0404 51.5742 44.2305 51.4727C44.4232 51.3711 44.6484 51.3203 44.9062 51.3203C45.1745 51.3203 45.4102 51.3711 45.6133 51.4727C45.819 51.5742 45.9922 51.7201 46.1328 51.9102C46.2734 52.1003 46.3789 52.3268 46.4492 52.5898C46.5195 52.8529 46.5547 53.1458 46.5547 53.4688ZM45.5195 53.5508V53.4688C45.5195 53.2812 45.5026 53.1081 45.4688 52.9492C45.4349 52.7878 45.3828 52.6471 45.3125 52.5273C45.2422 52.4049 45.151 52.3099 45.0391 52.2422C44.9271 52.1745 44.7917 52.1406 44.6328 52.1406C44.474 52.1406 44.3372 52.1667 44.2227 52.2188C44.1081 52.2708 44.0143 52.3451 43.9414 52.4414C43.8685 52.5378 43.8112 52.6523 43.7695 52.7852C43.7305 52.9154 43.7044 53.0599 43.6914 53.2188V53.8672C43.7148 54.0599 43.7604 54.2331 43.8281 54.3867C43.8958 54.5404 43.9948 54.6628 44.125 54.7539C44.2578 54.8451 44.4297 54.8906 44.6406 54.8906C44.7995 54.8906 44.9349 54.8555 45.0469 54.7852C45.1589 54.7148 45.25 54.6185 45.3203 54.4961C45.3906 54.3711 45.4414 54.2279 45.4727 54.0664C45.5039 53.9049 45.5195 53.7331 45.5195 53.5508ZM49.3086 51.3984V52.1406H46.8867V51.3984H49.3086ZM47.5352 50.3594H48.5703V54.4062C48.5703 54.5312 48.5872 54.6276 48.6211 54.6953C48.6549 54.763 48.7057 54.8086 48.7734 54.832C48.8411 54.8555 48.9219 54.8672 49.0156 54.8672C49.0833 54.8672 49.1458 54.8633 49.2031 54.8555C49.2604 54.8477 49.3086 54.8398 49.3477 54.832L49.3516 55.6055C49.2656 55.6341 49.168 55.6576 49.0586 55.6758C48.9518 55.694 48.8307 55.7031 48.6953 55.7031C48.4635 55.7031 48.2604 55.6641 48.0859 55.5859C47.9115 55.5052 47.776 55.3763 47.6797 55.1992C47.5833 55.0195 47.5352 54.7826 47.5352 54.4883V50.3594ZM49.7109 53.5547V53.4727C49.7109 53.1628 49.7552 52.8776 49.8438 52.6172C49.9323 52.3542 50.0612 52.1263 50.2305 51.9336C50.3997 51.7409 50.6068 51.5911 50.8516 51.4844C51.0964 51.375 51.375 51.3203 51.6875 51.3203C52.0052 51.3203 52.2865 51.375 52.5312 51.4844C52.7786 51.5911 52.987 51.7409 53.1562 51.9336C53.3255 52.1263 53.4544 52.3542 53.543 52.6172C53.6315 52.8776 53.6758 53.1628 53.6758 53.4727V53.5547C53.6758 53.862 53.6315 54.1471 53.543 54.4102C53.4544 54.6706 53.3255 54.8984 53.1562 55.0938C52.987 55.2865 52.7799 55.4362 52.5352 55.543C52.2904 55.6497 52.0104 55.7031 51.6953 55.7031C51.3828 55.7031 51.1029 55.6497 50.8555 55.543C50.6081 55.4362 50.3997 55.2865 50.2305 55.0938C50.0612 54.8984 49.9323 54.6706 49.8438 54.4102C49.7552 54.1471 49.7109 53.862 49.7109 53.5547ZM50.7422 53.4727V53.5547C50.7422 53.7396 50.7604 53.9128 50.7969 54.0742C50.8333 54.2357 50.8893 54.3776 50.9648 54.5C51.0404 54.6224 51.138 54.7188 51.2578 54.7891C51.3802 54.8568 51.526 54.8906 51.6953 54.8906C51.862 54.8906 52.0052 54.8568 52.125 54.7891C52.2448 54.7188 52.3424 54.6224 52.418 54.5C52.4961 54.3776 52.5534 54.2357 52.5898 54.0742C52.6263 53.9128 52.6445 53.7396 52.6445 53.5547V53.4727C52.6445 53.2904 52.6263 53.1198 52.5898 52.9609C52.5534 52.7995 52.4961 52.6576 52.418 52.5352C52.3424 52.4102 52.2435 52.3125 52.1211 52.2422C52.0013 52.1693 51.8568 52.1328 51.6875 52.1328C51.5208 52.1328 51.3776 52.1693 51.2578 52.2422C51.138 52.3125 51.0404 52.4102 50.9648 52.5352C50.8893 52.6576 50.8333 52.7995 50.7969 52.9609C50.7604 53.1198 50.7422 53.2904 50.7422 53.4727ZM59.4727 54.1484C59.4727 54.0391 59.4557 53.9414 59.4219 53.8555C59.3906 53.7669 59.332 53.6875 59.2461 53.6172C59.1628 53.5443 59.0443 53.474 58.8906 53.4062C58.7396 53.3359 58.5443 53.263 58.3047 53.1875C58.0391 53.1042 57.7917 53.0104 57.5625 52.9062C57.3333 52.8021 57.1315 52.681 56.957 52.543C56.7852 52.4049 56.651 52.2461 56.5547 52.0664C56.4583 51.8841 56.4102 51.6732 56.4102 51.4336C56.4102 51.1992 56.4596 50.9857 56.5586 50.793C56.6602 50.6003 56.8034 50.4349 56.9883 50.2969C57.1732 50.1562 57.3906 50.0482 57.6406 49.9727C57.8932 49.8971 58.1719 49.8594 58.4766 49.8594C58.8984 49.8594 59.263 49.9362 59.5703 50.0898C59.8802 50.2435 60.1198 50.4518 60.2891 50.7148C60.4583 50.9779 60.543 51.2734 60.543 51.6016H59.4727C59.4727 51.4245 59.4349 51.2682 59.3594 51.1328C59.2865 50.9974 59.1745 50.8906 59.0234 50.8125C58.875 50.7344 58.6875 50.6953 58.4609 50.6953C58.2422 50.6953 58.0599 50.7279 57.9141 50.793C57.7708 50.8581 57.6628 50.9466 57.5898 51.0586C57.5195 51.1706 57.4844 51.2956 57.4844 51.4336C57.4844 51.5378 57.5091 51.6315 57.5586 51.7148C57.6081 51.7956 57.6823 51.8724 57.7812 51.9453C57.8802 52.0156 58.0026 52.082 58.1484 52.1445C58.2969 52.2044 58.4688 52.2643 58.6641 52.3242C58.9766 52.418 59.25 52.5221 59.4844 52.6367C59.7214 52.7513 59.918 52.8815 60.0742 53.0273C60.2331 53.1732 60.3516 53.3372 60.4297 53.5195C60.5104 53.7018 60.5508 53.9089 60.5508 54.1406C60.5508 54.3854 60.5026 54.6042 60.4062 54.7969C60.3099 54.9896 60.1719 55.1536 59.9922 55.2891C59.8125 55.4245 59.5964 55.5273 59.3438 55.5977C59.0938 55.668 58.8138 55.7031 58.5039 55.7031C58.2279 55.7031 57.9544 55.6667 57.6836 55.5938C57.4154 55.5182 57.1719 55.4062 56.9531 55.2578C56.7344 55.1068 56.5599 54.9167 56.4297 54.6875C56.2995 54.4557 56.2344 54.1849 56.2344 53.875H57.3125C57.3125 54.0547 57.3411 54.2083 57.3984 54.3359C57.4583 54.4609 57.5417 54.5638 57.6484 54.6445C57.7578 54.7227 57.8854 54.7799 58.0312 54.8164C58.1771 54.8529 58.3346 54.8711 58.5039 54.8711C58.7227 54.8711 58.9023 54.8411 59.043 54.7812C59.1862 54.7188 59.293 54.6328 59.3633 54.5234C59.4362 54.4141 59.4727 54.2891 59.4727 54.1484ZM63.3008 51.3984V52.1406H60.8789V51.3984H63.3008ZM61.5273 50.3594H62.5625V54.4062C62.5625 54.5312 62.5794 54.6276 62.6133 54.6953C62.6471 54.763 62.6979 54.8086 62.7656 54.832C62.8333 54.8555 62.9141 54.8672 63.0078 54.8672C63.0755 54.8672 63.138 54.8633 63.1953 54.8555C63.2526 54.8477 63.3008 54.8398 63.3398 54.832L63.3438 55.6055C63.2578 55.6341 63.1602 55.6576 63.0508 55.6758C62.944 55.694 62.8229 55.7031 62.6875 55.7031C62.4557 55.7031 62.2526 55.6641 62.0781 55.5859C61.9036 55.5052 61.7682 55.3763 61.6719 55.1992C61.5755 55.0195 61.5273 54.7826 61.5273 54.4883V50.3594ZM66.3164 54.7266V52.7773C66.3164 52.6341 66.2917 52.5104 66.2422 52.4062C66.1927 52.3021 66.1172 52.2214 66.0156 52.1641C65.9141 52.1068 65.7852 52.0781 65.6289 52.0781C65.4909 52.0781 65.3698 52.1016 65.2656 52.1484C65.1641 52.1953 65.0859 52.2617 65.0312 52.3477C64.9766 52.431 64.9492 52.5273 64.9492 52.6367H63.9141C63.9141 52.4622 63.9557 52.2969 64.0391 52.1406C64.1224 51.9818 64.2409 51.8411 64.3945 51.7188C64.5508 51.5938 64.737 51.4961 64.9531 51.4258C65.1719 51.3555 65.4167 51.3203 65.6875 51.3203C66.0078 51.3203 66.293 51.375 66.543 51.4844C66.7956 51.5911 66.9935 51.7526 67.1367 51.9688C67.2826 52.1849 67.3555 52.457 67.3555 52.7852V54.6289C67.3555 54.8398 67.3685 55.0208 67.3945 55.1719C67.4232 55.3203 67.4648 55.4492 67.5195 55.5586V55.625H66.4688C66.4193 55.5182 66.3815 55.3828 66.3555 55.2188C66.3294 55.0521 66.3164 54.888 66.3164 54.7266ZM66.4609 53.0508L66.4688 53.6641H65.8164C65.6549 53.6641 65.513 53.681 65.3906 53.7148C65.2682 53.7461 65.168 53.793 65.0898 53.8555C65.0117 53.9154 64.9531 53.9883 64.9141 54.0742C64.875 54.1576 64.8555 54.2526 64.8555 54.3594C64.8555 54.4635 64.8789 54.5573 64.9258 54.6406C64.9753 54.724 65.0456 54.7904 65.1367 54.8398C65.2305 54.8867 65.3398 54.9102 65.4648 54.9102C65.6471 54.9102 65.806 54.8737 65.9414 54.8008C66.0768 54.7253 66.1823 54.6341 66.2578 54.5273C66.3333 54.4206 66.3737 54.319 66.3789 54.2227L66.6758 54.668C66.6393 54.7747 66.5846 54.888 66.5117 55.0078C66.4388 55.1276 66.3451 55.2396 66.2305 55.3438C66.1159 55.4479 65.9779 55.5339 65.8164 55.6016C65.6549 55.6693 65.4674 55.7031 65.2539 55.7031C64.9805 55.7031 64.7357 55.6484 64.5195 55.5391C64.3034 55.4297 64.1328 55.2799 64.0078 55.0898C63.8828 54.8997 63.8203 54.6836 63.8203 54.4414C63.8203 54.2174 63.862 54.0195 63.9453 53.8477C64.0286 53.6758 64.1523 53.5312 64.3164 53.4141C64.4805 53.2943 64.6836 53.2044 64.9258 53.1445C65.1706 53.082 65.4505 53.0508 65.7656 53.0508H66.4609ZM69.3164 49.6211V55.625H68.2852V49.6211H69.3164ZM71.9648 51.3984L70.125 53.4648L69.1289 54.4766L68.8008 53.6758L69.5703 52.707L70.7188 51.3984H71.9648ZM70.9102 55.625L69.6016 53.6562L70.2891 52.9883L72.1055 55.625H70.9102ZM73.6055 51.3984V55.625H72.5703V51.3984H73.6055ZM72.5 50.293C72.5 50.1393 72.5521 50.0117 72.6562 49.9102C72.763 49.8086 72.9062 49.7578 73.0859 49.7578C73.2656 49.7578 73.4076 49.8086 73.5117 49.9102C73.6185 50.0117 73.6719 50.1393 73.6719 50.293C73.6719 50.444 73.6185 50.5703 73.5117 50.6719C73.4076 50.7734 73.2656 50.8242 73.0859 50.8242C72.9062 50.8242 72.763 50.7734 72.6562 50.6719C72.5521 50.5703 72.5 50.444 72.5 50.293ZM75.6016 52.3008V55.625H74.5703V51.3984H75.5391L75.6016 52.3008ZM75.4375 53.3594H75.1328C75.1354 53.0521 75.1771 52.7734 75.2578 52.5234C75.3385 52.2734 75.4518 52.0586 75.5977 51.8789C75.7461 51.6992 75.9219 51.5612 76.125 51.4648C76.3281 51.3685 76.5547 51.3203 76.8047 51.3203C77.0078 51.3203 77.1914 51.349 77.3555 51.4062C77.5195 51.4635 77.6602 51.5547 77.7773 51.6797C77.8971 51.8047 77.9883 51.9688 78.0508 52.1719C78.1159 52.3724 78.1484 52.6198 78.1484 52.9141V55.625H77.1094V52.9062C77.1094 52.7135 77.0807 52.5612 77.0234 52.4492C76.9688 52.3372 76.888 52.2578 76.7812 52.2109C76.6771 52.1641 76.5482 52.1406 76.3945 52.1406C76.2357 52.1406 76.0964 52.1732 75.9766 52.2383C75.8594 52.3008 75.7604 52.388 75.6797 52.5C75.6016 52.612 75.5417 52.7409 75.5 52.8867C75.4583 53.0326 75.4375 53.1901 75.4375 53.3594ZM81.7461 51.3984H82.6836V55.4961C82.6836 55.8789 82.6003 56.2031 82.4336 56.4688C82.2695 56.737 82.0391 56.9401 81.7422 57.0781C81.4453 57.2188 81.1003 57.2891 80.707 57.2891C80.5378 57.2891 80.3542 57.2656 80.1562 57.2188C79.9609 57.1719 79.7721 57.0977 79.5898 56.9961C79.4102 56.8971 79.2604 56.7682 79.1406 56.6094L79.6055 56C79.7461 56.1641 79.9049 56.2878 80.082 56.3711C80.2591 56.457 80.4505 56.5 80.6562 56.5C80.8646 56.5 81.0417 56.4609 81.1875 56.3828C81.3359 56.3073 81.4492 56.1953 81.5273 56.0469C81.6081 55.901 81.6484 55.7214 81.6484 55.5078V52.3633L81.7461 51.3984ZM78.8906 53.5625V53.4805C78.8906 53.1576 78.9297 52.8646 79.0078 52.6016C79.0859 52.3359 79.1979 52.1081 79.3438 51.918C79.4922 51.7279 79.6706 51.5807 79.8789 51.4766C80.0898 51.3724 80.3268 51.3203 80.5898 51.3203C80.8685 51.3203 81.1029 51.3711 81.293 51.4727C81.4857 51.5742 81.6445 51.7188 81.7695 51.9062C81.8971 52.0938 81.9961 52.3164 82.0664 52.5742C82.1393 52.8294 82.1953 53.1107 82.2344 53.418V53.6406C82.1979 53.9401 82.1393 54.2148 82.0586 54.4648C81.9805 54.7148 81.8763 54.9336 81.7461 55.1211C81.6159 55.306 81.4544 55.4492 81.2617 55.5508C81.069 55.6523 80.8424 55.7031 80.582 55.7031C80.3216 55.7031 80.0872 55.6497 79.8789 55.543C79.6706 55.4362 79.4922 55.2865 79.3438 55.0938C79.1979 54.901 79.0859 54.6745 79.0078 54.4141C78.9297 54.1536 78.8906 53.8698 78.8906 53.5625ZM79.9219 53.4805V53.5625C79.9219 53.7448 79.9401 53.9154 79.9766 54.0742C80.013 54.2331 80.069 54.3737 80.1445 54.4961C80.2201 54.6159 80.3151 54.7096 80.4297 54.7773C80.5443 54.8451 80.681 54.8789 80.8398 54.8789C81.0534 54.8789 81.2279 54.8346 81.3633 54.7461C81.5013 54.6549 81.6055 54.5312 81.6758 54.375C81.7487 54.2161 81.7956 54.0378 81.8164 53.8398V53.2266C81.8034 53.0703 81.7747 52.9258 81.7305 52.793C81.6888 52.6602 81.6302 52.5456 81.5547 52.4492C81.4792 52.3529 81.3828 52.2773 81.2656 52.2227C81.1484 52.168 81.0091 52.1406 80.8477 52.1406C80.6914 52.1406 80.5547 52.1758 80.4375 52.2461C80.3203 52.3138 80.224 52.4089 80.1484 52.5312C80.0729 52.6536 80.0156 52.7956 79.9766 52.957C79.9401 53.1185 79.9219 53.293 79.9219 53.4805Z" fill="#F8B200"/>
<path d="M21.1094 37.8906V45H19.7666V37.8906H21.1094ZM23.7266 40.8447V45H22.4375V39.7168H23.6484L23.7266 40.8447ZM23.5215 42.168H23.1406C23.1439 41.7839 23.196 41.4355 23.2969 41.123C23.3978 40.8105 23.5394 40.542 23.7217 40.3174C23.9072 40.0928 24.127 39.9202 24.3809 39.7998C24.6348 39.6794 24.918 39.6191 25.2305 39.6191C25.4844 39.6191 25.7139 39.6549 25.9189 39.7266C26.124 39.7982 26.2998 39.9121 26.4463 40.0684C26.596 40.2246 26.71 40.4297 26.7881 40.6836C26.8695 40.9342 26.9102 41.2435 26.9102 41.6113V45H25.6113V41.6016C25.6113 41.3607 25.5755 41.1702 25.5039 41.0303C25.4355 40.8903 25.3346 40.791 25.2012 40.7324C25.071 40.6738 24.9098 40.6445 24.7178 40.6445C24.5192 40.6445 24.3451 40.6852 24.1953 40.7666C24.0488 40.8447 23.9251 40.9538 23.8242 41.0938C23.7266 41.2337 23.6517 41.3949 23.5996 41.5771C23.5475 41.7594 23.5215 41.9564 23.5215 42.168ZM29.8008 44.0234L31.0312 39.7168H32.3789L30.5674 45H29.7471L29.8008 44.0234ZM28.9023 39.7168L30.1475 44.0332L30.1914 45H29.3662L27.5498 39.7168H28.9023ZM35.3623 45.0977C34.9619 45.0977 34.6022 45.0326 34.2832 44.9023C33.9642 44.7721 33.6924 44.5915 33.4678 44.3604C33.2464 44.126 33.0755 43.8542 32.9551 43.5449C32.8379 43.2324 32.7793 42.8971 32.7793 42.5391V42.3438C32.7793 41.9368 32.8379 41.5674 32.9551 41.2354C33.0723 40.9001 33.2383 40.612 33.4531 40.3711C33.668 40.1302 33.9251 39.9447 34.2246 39.8145C34.5241 39.6842 34.8545 39.6191 35.2158 39.6191C35.5902 39.6191 35.9206 39.6826 36.207 39.8096C36.4935 39.9333 36.7327 40.109 36.9248 40.3369C37.1169 40.5648 37.2617 40.8382 37.3594 41.1572C37.457 41.473 37.5059 41.8229 37.5059 42.207V42.749H33.3652V41.8604H36.2363V41.7627C36.2298 41.5576 36.1908 41.3704 36.1191 41.2012C36.0475 41.0286 35.9368 40.8919 35.7871 40.791C35.6374 40.6868 35.4437 40.6348 35.2061 40.6348C35.014 40.6348 34.8464 40.6771 34.7031 40.7617C34.5632 40.8431 34.446 40.9603 34.3516 41.1133C34.2604 41.263 34.1921 41.4421 34.1465 41.6504C34.1009 41.8587 34.0781 42.0898 34.0781 42.3438V42.5391C34.0781 42.7604 34.1074 42.9655 34.166 43.1543C34.2279 43.3431 34.3174 43.5075 34.4346 43.6475C34.555 43.7842 34.6982 43.8916 34.8643 43.9697C35.0335 44.0446 35.2256 44.082 35.4404 44.082C35.7106 44.082 35.9548 44.0299 36.1729 43.9258C36.3942 43.8184 36.5863 43.6605 36.749 43.4521L37.3984 44.126C37.2878 44.2887 37.138 44.445 36.9492 44.5947C36.7637 44.7445 36.5391 44.8665 36.2754 44.9609C36.0117 45.0521 35.7074 45.0977 35.3623 45.0977ZM41.2754 43.5547C41.2754 43.444 41.2461 43.3447 41.1875 43.2568C41.1289 43.1689 41.0182 43.0892 40.8555 43.0176C40.696 42.9427 40.4616 42.8727 40.1523 42.8076C39.8789 42.749 39.6266 42.6758 39.3955 42.5879C39.1644 42.5 38.9658 42.3942 38.7998 42.2705C38.6338 42.1436 38.5036 41.9954 38.4092 41.8262C38.318 41.6536 38.2725 41.4551 38.2725 41.2305C38.2725 41.0124 38.3197 40.8073 38.4141 40.6152C38.5085 40.4199 38.6452 40.249 38.8242 40.1025C39.0033 39.9528 39.2214 39.8356 39.4785 39.751C39.7357 39.6631 40.0254 39.6191 40.3477 39.6191C40.7969 39.6191 41.1826 39.6924 41.5049 39.8389C41.8304 39.9854 42.0794 40.1872 42.252 40.4443C42.4245 40.6982 42.5107 40.9847 42.5107 41.3037H41.2217C41.2217 41.1637 41.1891 41.0368 41.124 40.9229C41.0622 40.8089 40.9661 40.7178 40.8359 40.6494C40.7057 40.5778 40.5413 40.542 40.3428 40.542C40.1637 40.542 40.0124 40.5713 39.8887 40.6299C39.7682 40.6885 39.6771 40.765 39.6152 40.8594C39.5534 40.9538 39.5225 41.0579 39.5225 41.1719C39.5225 41.2565 39.5387 41.333 39.5713 41.4014C39.6071 41.4665 39.6641 41.5267 39.7422 41.582C39.8203 41.6374 39.9261 41.6878 40.0596 41.7334C40.1963 41.779 40.3639 41.8229 40.5625 41.8652C40.9564 41.9434 41.2998 42.0475 41.5928 42.1777C41.889 42.3047 42.1201 42.474 42.2861 42.6855C42.4521 42.8971 42.5352 43.1673 42.5352 43.4961C42.5352 43.7305 42.4847 43.9453 42.3838 44.1406C42.2829 44.3327 42.1364 44.5003 41.9443 44.6436C41.7523 44.7868 41.5228 44.8991 41.2559 44.9805C40.9889 45.0586 40.6878 45.0977 40.3525 45.0977C39.8675 45.0977 39.4574 45.0114 39.1221 44.8389C38.7868 44.6631 38.5329 44.4417 38.3604 44.1748C38.1878 43.9046 38.1016 43.6247 38.1016 43.335H39.3369C39.3467 43.54 39.402 43.7044 39.5029 43.8281C39.6038 43.9518 39.7308 44.0413 39.8838 44.0967C40.04 44.1488 40.2044 44.1748 40.377 44.1748C40.5723 44.1748 40.7367 44.1488 40.8701 44.0967C41.0036 44.0413 41.1045 43.9681 41.1729 43.877C41.2412 43.7826 41.2754 43.6751 41.2754 43.5547ZM46.0166 39.7168V40.6445H42.9893V39.7168H46.0166ZM43.7998 38.418H45.0938V43.4766C45.0938 43.6328 45.1149 43.7533 45.1572 43.8379C45.1995 43.9225 45.263 43.9795 45.3477 44.0088C45.4323 44.0381 45.5332 44.0527 45.6504 44.0527C45.735 44.0527 45.8132 44.0479 45.8848 44.0381C45.9564 44.0283 46.0166 44.0186 46.0654 44.0088L46.0703 44.9756C45.9629 45.0114 45.8408 45.0407 45.7041 45.0635C45.5706 45.0863 45.4193 45.0977 45.25 45.0977C44.9603 45.0977 44.7064 45.0488 44.4883 44.9512C44.2702 44.8503 44.1009 44.6891 43.9805 44.4678C43.86 44.2432 43.7998 43.9469 43.7998 43.5791V38.418ZM46.5195 42.4121V42.3096C46.5195 41.9222 46.5749 41.5658 46.6855 41.2402C46.7962 40.9115 46.9574 40.6266 47.1689 40.3857C47.3805 40.1449 47.6393 39.9577 47.9453 39.8242C48.2513 39.6875 48.5996 39.6191 48.9902 39.6191C49.3874 39.6191 49.7389 39.6875 50.0449 39.8242C50.3542 39.9577 50.6146 40.1449 50.8262 40.3857C51.0378 40.6266 51.1989 40.9115 51.3096 41.2402C51.4202 41.5658 51.4756 41.9222 51.4756 42.3096V42.4121C51.4756 42.7962 51.4202 43.1527 51.3096 43.4814C51.1989 43.807 51.0378 44.0918 50.8262 44.3359C50.6146 44.5768 50.3558 44.764 50.0498 44.8975C49.7438 45.0309 49.3939 45.0977 49 45.0977C48.6094 45.0977 48.2594 45.0309 47.9502 44.8975C47.641 44.764 47.3805 44.5768 47.1689 44.3359C46.9574 44.0918 46.7962 43.807 46.6855 43.4814C46.5749 43.1527 46.5195 42.7962 46.5195 42.4121ZM47.8086 42.3096V42.4121C47.8086 42.6432 47.8314 42.8597 47.877 43.0615C47.9225 43.2633 47.9925 43.4408 48.0869 43.5938C48.1813 43.7467 48.3034 43.8672 48.4531 43.9551C48.6061 44.0397 48.7884 44.082 49 44.082C49.2083 44.082 49.3874 44.0397 49.5371 43.9551C49.6868 43.8672 49.8089 43.7467 49.9033 43.5938C50.001 43.4408 50.0726 43.2633 50.1182 43.0615C50.1637 42.8597 50.1865 42.6432 50.1865 42.4121V42.3096C50.1865 42.0817 50.1637 41.8685 50.1182 41.6699C50.0726 41.4681 50.001 41.2907 49.9033 41.1377C49.8089 40.9814 49.6852 40.8594 49.5322 40.7715C49.3825 40.6803 49.2018 40.6348 48.9902 40.6348C48.7819 40.6348 48.6029 40.6803 48.4531 40.7715C48.3034 40.8594 48.1813 40.9814 48.0869 41.1377C47.9925 41.2907 47.9225 41.4681 47.877 41.6699C47.8314 41.8685 47.8086 42.0817 47.8086 42.3096ZM53.7021 40.7324V47.0312H52.4082V39.7168H53.6045L53.7021 40.7324ZM57.0957 42.3047V42.4072C57.0957 42.7913 57.0501 43.1478 56.959 43.4766C56.8711 43.8021 56.7409 44.0869 56.5684 44.3311C56.3958 44.5719 56.181 44.7607 55.9238 44.8975C55.6699 45.0309 55.377 45.0977 55.0449 45.0977C54.7194 45.0977 54.4362 45.0358 54.1953 44.9121C53.9544 44.7852 53.751 44.6061 53.585 44.375C53.4189 44.1439 53.2855 43.8753 53.1846 43.5693C53.0869 43.2601 53.0137 42.9232 52.9648 42.5586V42.2314C53.0137 41.8441 53.0869 41.4925 53.1846 41.1768C53.2855 40.8577 53.4189 40.5827 53.585 40.3516C53.751 40.1172 53.9528 39.9365 54.1904 39.8096C54.4313 39.6826 54.7129 39.6191 55.0352 39.6191C55.3704 39.6191 55.665 39.6826 55.9189 39.8096C56.1761 39.9365 56.3926 40.1188 56.5684 40.3564C56.7441 40.5941 56.876 40.8773 56.9639 41.2061C57.0518 41.5348 57.0957 41.901 57.0957 42.3047ZM55.8018 42.4072V42.3047C55.8018 42.0703 55.7806 41.8538 55.7383 41.6553C55.696 41.4535 55.6309 41.2777 55.543 41.1279C55.4551 40.9749 55.3411 40.8561 55.2012 40.7715C55.0612 40.6868 54.8919 40.6445 54.6934 40.6445C54.4948 40.6445 54.3239 40.6771 54.1807 40.7422C54.0374 40.8073 53.9202 40.9001 53.8291 41.0205C53.738 41.141 53.6663 41.2842 53.6143 41.4502C53.5654 41.613 53.5329 41.7936 53.5166 41.9922V42.8027C53.5459 43.0436 53.6029 43.2601 53.6875 43.4521C53.7721 43.6442 53.8958 43.7972 54.0586 43.9111C54.2246 44.0251 54.4395 44.082 54.7031 44.082C54.9017 44.082 55.071 44.0381 55.2109 43.9502C55.3509 43.8623 55.4648 43.7419 55.5527 43.5889C55.6406 43.4326 55.7041 43.2536 55.7432 43.0518C55.7822 42.8499 55.8018 42.6351 55.8018 42.4072ZM60.4111 45.0977C60.0107 45.0977 59.651 45.0326 59.332 44.9023C59.013 44.7721 58.7412 44.5915 58.5166 44.3604C58.2952 44.126 58.1243 43.8542 58.0039 43.5449C57.8867 43.2324 57.8281 42.8971 57.8281 42.5391V42.3438C57.8281 41.9368 57.8867 41.5674 58.0039 41.2354C58.1211 40.9001 58.2871 40.612 58.502 40.3711C58.7168 40.1302 58.974 39.9447 59.2734 39.8145C59.5729 39.6842 59.9033 39.6191 60.2646 39.6191C60.639 39.6191 60.9694 39.6826 61.2559 39.8096C61.5423 39.9333 61.7816 40.109 61.9736 40.3369C62.1657 40.5648 62.3105 40.8382 62.4082 41.1572C62.5059 41.473 62.5547 41.8229 62.5547 42.207V42.749H58.4141V41.8604H61.2852V41.7627C61.2786 41.5576 61.2396 41.3704 61.168 41.2012C61.0964 41.0286 60.9857 40.8919 60.8359 40.791C60.6862 40.6868 60.4925 40.6348 60.2549 40.6348C60.0628 40.6348 59.8952 40.6771 59.752 40.7617C59.612 40.8431 59.4948 40.9603 59.4004 41.1133C59.3092 41.263 59.2409 41.4421 59.1953 41.6504C59.1497 41.8587 59.127 42.0898 59.127 42.3438V42.5391C59.127 42.7604 59.1562 42.9655 59.2148 43.1543C59.2767 43.3431 59.3662 43.5075 59.4834 43.6475C59.6038 43.7842 59.7471 43.8916 59.9131 43.9697C60.0824 44.0446 60.2744 44.082 60.4893 44.082C60.7594 44.082 61.0036 44.0299 61.2217 43.9258C61.443 43.8184 61.6351 43.6605 61.7979 43.4521L62.4473 44.126C62.3366 44.2887 62.1868 44.445 61.998 44.5947C61.8125 44.7445 61.5879 44.8665 61.3242 44.9609C61.0605 45.0521 60.7562 45.0977 60.4111 45.0977ZM66.5879 43.877V37.5H67.8867V45H66.7148L66.5879 43.877ZM63.1943 42.4219V42.3193C63.1943 41.9157 63.2399 41.5495 63.3311 41.2207C63.4255 40.8887 63.5622 40.6038 63.7412 40.3662C63.9202 40.1286 64.1367 39.9447 64.3906 39.8145C64.6478 39.6842 64.9391 39.6191 65.2646 39.6191C65.5804 39.6191 65.8555 39.6826 66.0898 39.8096C66.3275 39.9365 66.5293 40.1172 66.6953 40.3516C66.8646 40.5859 66.9997 40.8643 67.1006 41.1865C67.2015 41.5055 67.2747 41.8571 67.3203 42.2412V42.5195C67.2747 42.8939 67.2015 43.2373 67.1006 43.5498C66.9997 43.8623 66.8646 44.1357 66.6953 44.3701C66.5293 44.6012 66.3275 44.7803 66.0898 44.9072C65.8522 45.0342 65.5739 45.0977 65.2549 45.0977C64.9326 45.0977 64.6429 45.0309 64.3857 44.8975C64.1318 44.764 63.9154 44.5768 63.7363 44.3359C63.5605 44.0951 63.4255 43.8118 63.3311 43.4863C63.2399 43.1608 63.1943 42.806 63.1943 42.4219ZM64.4883 42.3193V42.4219C64.4883 42.6497 64.5078 42.863 64.5469 43.0615C64.5859 43.2601 64.6494 43.4359 64.7373 43.5889C64.8252 43.7386 64.9375 43.8558 65.0742 43.9404C65.2142 44.0251 65.3835 44.0674 65.582 44.0674C65.8359 44.0674 66.0443 44.012 66.207 43.9014C66.373 43.7874 66.5016 43.6328 66.5928 43.4375C66.6839 43.2389 66.7425 43.016 66.7686 42.7686V42.002C66.7555 41.8066 66.7214 41.626 66.666 41.46C66.6139 41.2939 66.5391 41.1507 66.4414 41.0303C66.347 40.9098 66.2298 40.8154 66.0898 40.7471C65.9499 40.6787 65.7839 40.6445 65.5918 40.6445C65.3932 40.6445 65.224 40.6885 65.084 40.7764C64.944 40.861 64.8301 40.9798 64.7422 41.1328C64.6543 41.2858 64.5892 41.4632 64.5469 41.665C64.5078 41.8669 64.4883 42.085 64.4883 42.3193ZM70.4209 39.7168V45H69.127V39.7168H70.4209ZM69.0391 38.335C69.0391 38.1429 69.1042 37.9834 69.2344 37.8564C69.3678 37.7295 69.5469 37.666 69.7715 37.666C69.9961 37.666 70.1735 37.7295 70.3037 37.8564C70.4372 37.9834 70.5039 38.1429 70.5039 38.335C70.5039 38.5238 70.4372 38.6816 70.3037 38.8086C70.1735 38.9355 69.9961 38.999 69.7715 38.999C69.5469 38.999 69.3678 38.9355 69.2344 38.8086C69.1042 38.6816 69.0391 38.5238 69.0391 38.335ZM74.5615 43.877V41.4404C74.5615 41.2614 74.5306 41.1068 74.4688 40.9766C74.4069 40.8464 74.3125 40.7454 74.1855 40.6738C74.0586 40.6022 73.8975 40.5664 73.7021 40.5664C73.5296 40.5664 73.3783 40.5957 73.248 40.6543C73.1211 40.7129 73.0234 40.7959 72.9551 40.9033C72.8867 41.0075 72.8525 41.1279 72.8525 41.2646H71.5586C71.5586 41.0465 71.6107 40.8398 71.7148 40.6445C71.819 40.446 71.9671 40.2702 72.1592 40.1172C72.3545 39.9609 72.5872 39.8389 72.8574 39.751C73.1309 39.6631 73.4368 39.6191 73.7754 39.6191C74.1758 39.6191 74.5322 39.6875 74.8447 39.8242C75.1605 39.9577 75.4079 40.1595 75.5869 40.4297C75.7692 40.6999 75.8604 41.04 75.8604 41.4502V43.7549C75.8604 44.0186 75.8766 44.2448 75.9092 44.4336C75.945 44.6191 75.9971 44.7803 76.0654 44.917V45H74.752C74.6901 44.8665 74.6429 44.6973 74.6104 44.4922C74.5778 44.2839 74.5615 44.0788 74.5615 43.877ZM74.7422 41.7822L74.752 42.5488H73.9365C73.7347 42.5488 73.5573 42.57 73.4043 42.6123C73.2513 42.6514 73.126 42.71 73.0283 42.7881C72.9307 42.863 72.8574 42.9541 72.8086 43.0615C72.7598 43.1657 72.7354 43.2845 72.7354 43.418C72.7354 43.5482 72.7646 43.6654 72.8232 43.7695C72.8851 43.8737 72.973 43.9567 73.0869 44.0186C73.2041 44.0771 73.3408 44.1064 73.4971 44.1064C73.7249 44.1064 73.9235 44.0609 74.0928 43.9697C74.262 43.8753 74.3939 43.7614 74.4883 43.6279C74.5827 43.4945 74.6331 43.3675 74.6396 43.2471L75.0107 43.8037C74.9652 43.9372 74.8968 44.0788 74.8057 44.2285C74.7145 44.3783 74.5973 44.5182 74.4541 44.6484C74.3109 44.7786 74.1383 44.8861 73.9365 44.9707C73.7347 45.0553 73.5003 45.0977 73.2334 45.0977C72.8916 45.0977 72.5856 45.0293 72.3154 44.8926C72.0452 44.7559 71.832 44.5687 71.6758 44.3311C71.5195 44.0934 71.4414 43.8232 71.4414 43.5205C71.4414 43.2406 71.4935 42.9932 71.5977 42.7783C71.7018 42.5635 71.8564 42.3828 72.0615 42.2363C72.2666 42.0866 72.5205 41.9743 72.8232 41.8994C73.1292 41.8213 73.4792 41.7822 73.873 41.7822H74.7422Z" fill="#FFEDBD"/>
<path d="M49.1396 70.6326L52.25 71.0552L50 73.105L50.5322 76L47.75 74.6326L44.9678 76L45.5 73.105L43.25 71.058L46.3574 70.6326L47.75 68L49.1396 70.6326Z" fill="#DD8C2C"/>
<path d="M37.8646 73.0996H41.8646" stroke="#704006" stroke-width="0.444373" stroke-linecap="round" stroke-linejoin="round"/>
<path d="M57.7763 73.0996H53.7763" stroke="#704006" stroke-width="0.444373" stroke-linecap="round" stroke-linejoin="round"/>
</svg>
